<svg xmlns="http://www.w3.org/2000/svg" width="76.859" height="79.859" viewBox="0 0 76.859 79.859">
  <g id="Grupo_181032" data-name="Grupo 181032" transform="translate(-445.141 -5587.141)">
    <circle id="Elipse_6259" data-name="Elipse 6259" cx="33" cy="33" r="33" transform="translate(452 5601)" fill="#e4d5ff"/>
    <g id="ingresos" transform="translate(445.142 5587.142)">
      <circle id="Elipse_6256" data-name="Elipse 6256" cx="18" cy="18" r="18" transform="translate(20.858 0.858)" fill="#febd55"/>
      <circle id="Elipse_6257" data-name="Elipse 6257" cx="15.5" cy="15.5" r="15.5" transform="translate(22.858 3.858)" fill="#fc9e20"/>
      <circle id="Elipse_6258" data-name="Elipse 6258" cx="14.5" cy="14.5" r="14.5" transform="translate(23.858 4.858)" fill="#ffe08c"/>
      <path id="Trazado_231099" data-name="Trazado 231099" d="M65.411,44V66.817H51Z" transform="translate(10.247 8.841)" fill="#febd55"/>
      <path id="Trazado_231100" data-name="Trazado 231100" d="M56.625,45.419,59.411,41l7.205,3.6L52.205,67.42,45,63.817l2.33-3.675Z" transform="translate(9.041 8.238)" fill="#edf4fa"/>
      <path id="Trazado_231101" data-name="Trazado 231101" d="M13.707,29.709A2.348,2.348,0,0,1,15.4,29a8.25,8.25,0,0,1,4.431,1.285l11.181,7.121h-5.4a4.1,4.1,0,0,0-2.39.757L13.2,31.4c-.06-.048-.132-.084-.192-.132a2.325,2.325,0,0,1,.7-1.561Z" transform="translate(2.614 5.827)" fill="#feb589"/>
      <path id="Trazado_231102" data-name="Trazado 231102" d="M24.813,45.612S14.065,37.014,9.165,33.1A9.478,9.478,0,0,0,8,32.306v-.228A2.154,2.154,0,0,1,10.234,30H10.4a6.544,6.544,0,0,1,3.615,1.069c.06.048.132.084.192.132l10.016,6.761a4.368,4.368,0,0,0-.576.48,4.155,4.155,0,0,0-1.237,2.966,4.2,4.2,0,0,0,4.2,4.2Z" transform="translate(1.607 6.027)" fill="#feb589"/>
      <path id="Trazado_231103" data-name="Trazado 231103" d="M10.571,32.9c4.9,3.915,15.648,12.514,15.648,12.514h1.8a4.2,4.2,0,0,1-4.2-4.2,4.155,4.155,0,0,1,1.237-2.966,4.368,4.368,0,0,1,.576-.48A4.1,4.1,0,0,1,28.021,37H50.238a11.638,11.638,0,0,1,8.2,3.4l7.025,7.025-9.3,14.723-1.129-1.129H34.253a15.064,15.064,0,0,1-9.884-3.687L2.357,38.242A4.176,4.176,0,0,1,1,35.167v-.108A4.054,4.054,0,0,1,5.059,31h.084a8.708,8.708,0,0,1,4.263,1.1,9.479,9.479,0,0,1,1.165.793Z" transform="translate(0.201 6.229)" fill="#ffd6bd"/>
      <path id="Trazado_231104" data-name="Trazado 231104" d="M42.817,40.439H24.8a4.786,4.786,0,0,1-4.258-2.625A4.14,4.14,0,0,0,20,39.839a4.2,4.2,0,0,0,4.2,4.2H46.42A3.6,3.6,0,0,0,42.817,40.439Z" transform="translate(4.018 7.598)" fill="#fec09b"/>
      <path id="Trazado_231105" data-name="Trazado 231105" d="M62.513,44.44l-3.224,5.069a14.411,14.411,0,0,1-12.158,6.673H32.344a7.2,7.2,0,0,1-4.491-1.572L5.381,36.695a4.8,4.8,0,0,1-1.589-5.511A4.04,4.04,0,0,0,1,35.022v.108A4.176,4.176,0,0,0,2.357,38.2L24.37,57.3a15.064,15.064,0,0,0,9.884,3.687H55.041l1.129,1.129,9.3-14.723Z" transform="translate(0.201 6.266)" fill="#fec09b"/>
      <path id="Trazado_231106" data-name="Trazado 231106" d="M22.411,41.336a4.155,4.155,0,0,1,1.237-2.966,4.368,4.368,0,0,1,.576-.48l-.873-.59a4.8,4.8,0,0,1-5.392.166l-8.7-5.534a1.179,1.179,0,0,1-.388-1.568A2.019,2.019,0,0,0,8,32v.228a9.478,9.478,0,0,1,1.165.793c4.9,3.915,15.648,12.514,15.648,12.514h1.8a4.2,4.2,0,0,1-4.2-4.2Z" transform="translate(1.607 6.101)" fill="#eda377"/>
      <path id="Trazado_231107" data-name="Trazado 231107" d="M25.735,36.185a7.205,7.205,0,0,1-3.6-.961l-6.157-3.551A2.386,2.386,0,0,1,14.7,29.1a2.38,2.38,0,0,0-1.694,2.162c.06.048.132.084.192.132l10.016,6.761a4.1,4.1,0,0,1,2.39-.769h5.4l-1.885-1.2Z" transform="translate(2.614 5.847)" fill="#eda377"/>
      <path id="Trazado_231108" data-name="Trazado 231108" d="M62.344,60.813a2.4,2.4,0,0,1-2.085-3.593L65.411,48.2V44L51,66.817H65.411v-6Z" transform="translate(10.247 8.841)" fill="#fc9e20"/>
      <path id="Trazado_231109" data-name="Trazado 231109" d="M63.04,42.511l-9.834,15.2a4.793,4.793,0,0,1-5.715,1.875l-.161.255L45,63.514l7.205,3.6L66.616,44.3Z" transform="translate(9.041 8.541)" fill="#d6e0eb"/>
      <path id="Trazado_231110" data-name="Trazado 231110" d="M35.215,38.43h.2A19.215,19.215,0,1,0,17.6,11.529l2.2.961A16.815,16.815,0,1,1,35.39,36.028h-.175A16.813,16.813,0,0,1,18.4,19.389l-2.4.025A19.236,19.236,0,0,0,35.215,38.43Z" transform="translate(3.215 0)"/>
      <path id="Trazado_231111" data-name="Trazado 231111" d="M18.975,12.373l-2.315-.638a19.137,19.137,0,0,0-.521,2.562l2.38.316a16.9,16.9,0,0,1,.456-2.24Z" transform="translate(3.242 2.358)"/>
      <path id="Trazado_231112" data-name="Trazado 231112" d="M32,6V8.4h-.6a5.4,5.4,0,1,0,0,10.808h3.6a3,3,0,1,1,0,6H28.4v2.4H32v2.4h2.4v-2.4h.6a5.4,5.4,0,0,0,0-10.808H31.4a3,3,0,1,1,0-6h6.605V8.4h-3.6V6Z" transform="translate(5.224 1.206)"/>
      <rect id="Rectángulo_59371" data-name="Rectángulo 59371" width="3" height="2" transform="translate(47.858 50.858)"/>
      <path id="Trazado_231113" data-name="Trazado 231113" d="M76.195,46.14l-7.205-3.6a1.2,1.2,0,0,0-1.553.434L56.148,60.838l-.061-.061a1.2,1.2,0,0,0-.844-.352H34.454a13.871,13.871,0,0,1-9.1-3.393L3.37,37.958a3.037,3.037,0,0,1-.968-2.3A2.882,2.882,0,0,1,5.344,32.8,7.5,7.5,0,0,1,9,33.743a8.433,8.433,0,0,1,1.024.7L25.67,46.952a1.2,1.2,0,0,0,.751.263H45.635v-2.4H28.222a3,3,0,0,1-3-3,2.946,2.946,0,0,1,.884-2.116,3.17,3.17,0,0,1,.426-.353,2.882,2.882,0,0,1,1.692-.533H50.439a10.436,10.436,0,0,1,7.353,3.047L62.8,46.864l1.7-1.7L59.49,40.157a12.834,12.834,0,0,0-9.051-3.75H28.222a5.321,5.321,0,0,0-2.344.539l-8.872-5.984a1.357,1.357,0,0,1,.175-.214,1.149,1.149,0,0,1,.833-.346A7.049,7.049,0,0,1,21.8,31.5l7.581,4.83,1.29-2.026-7.581-4.83A9.445,9.445,0,0,0,18.014,28a3.531,3.531,0,0,0-2.544,1.06,3.633,3.633,0,0,0-.542.721,7.631,7.631,0,0,0-2.919-.58h-.168a3.444,3.444,0,0,0-3.062,1.824A10.229,10.229,0,0,0,5.26,30.4,5.29,5.29,0,0,0,0,35.77a5.4,5.4,0,0,0,1.771,3.981L23.778,58.846a16.274,16.274,0,0,0,10.676,3.981h20.3l.092.092L53.03,65.788a1.2,1.2,0,0,0,.48,1.716l7.205,3.6a1.2,1.2,0,0,0,.531.126H75.658a1.2,1.2,0,0,0,1.2-1.2V47.215a1.2,1.2,0,0,0-.664-1.075ZM11.841,31.6h.168a5.369,5.369,0,0,1,2.935.859l.02.014.179.12,8.8,5.942a5.306,5.306,0,0,0-1.13,3.06L11.529,32.563c-.191-.155-.391-.3-.611-.452l-.008-.007A1.057,1.057,0,0,1,11.841,31.6ZM60.812,68.471l-5.044-2.522L68.887,45.173,73.931,47.7Zm13.645.36H63.425L74.457,51.365Z" transform="translate(0 5.626)"/>
    </g>
  </g>
</svg>
