<svg xmlns="http://www.w3.org/2000/svg" width="689" height="281" viewBox="0 0 689 281">
  <g id="Grupo_181378" data-name="Grupo 181378" transform="translate(-475 -1179)">
    <path id="Trazado_231428" data-name="Trazado 231428" d="M0,0H230V50H0Z" transform="translate(685 1179)" fill="#8c5be1"/>
    <path id="Trazado_231429" data-name="Trazado 231429" d="M12.949,0H9.541L4.5-8.848V0H1.074V-14.219H4.5L9.531-5.371v-8.848h3.418ZM23.936-6.025H18.545v3.389h6.367V0H15.117V-14.219h9.814v2.646H18.545v3h5.391ZM37.949-1.758A5.511,5.511,0,0,1,35.635-.342,9.982,9.982,0,0,1,32.295.2a5.955,5.955,0,0,1-4.463-1.709A6.918,6.918,0,0,1,26.045-6.27l-.01-1.23a8.485,8.485,0,0,1,.742-3.667A5.511,5.511,0,0,1,28.9-13.579a6.008,6.008,0,0,1,3.2-.845,6.3,6.3,0,0,1,4.126,1.216A5.152,5.152,0,0,1,37.939-9.58h-3.3a2.7,2.7,0,0,0-.762-1.7,2.458,2.458,0,0,0-1.66-.508,2.237,2.237,0,0,0-1.992,1.094,5.84,5.84,0,0,0-.713,3.125v.859a5.717,5.717,0,0,0,.728,3.2,2.573,2.573,0,0,0,2.29,1.069,2.88,2.88,0,0,0,1.992-.6V-5.244H32.139V-7.6h5.811ZM51.982-6.816a8.385,8.385,0,0,1-.771,3.682A5.7,5.7,0,0,1,49.019-.669,6.1,6.1,0,0,1,45.781.2,6.191,6.191,0,0,1,42.559-.64a5.692,5.692,0,0,1-2.192-2.388,8.144,8.144,0,0,1-.825-3.564v-.8a8.422,8.422,0,0,1,.767-3.687,5.688,5.688,0,0,1,2.2-2.466,6.147,6.147,0,0,1,3.257-.869,6.087,6.087,0,0,1,3.223.859,5.79,5.79,0,0,1,2.2,2.446,8.18,8.18,0,0,1,.8,3.638Zm-3.486-.6a5.979,5.979,0,0,0-.708-3.218,2.271,2.271,0,0,0-2.026-1.1q-2.578,0-2.725,3.867l-.01,1.045A6.149,6.149,0,0,0,43.721-3.6,2.268,2.268,0,0,0,45.781-2.48a2.24,2.24,0,0,0,2-1.1A5.982,5.982,0,0,0,48.5-6.758Zm16.758,2.6a5.193,5.193,0,0,1-.8,2.622A4.833,4.833,0,0,1,62.4-.43,7,7,0,0,1,59.375.2a5.584,5.584,0,0,1-4.414-1.826A7.54,7.54,0,0,1,53.35-6.787v-.7a8.607,8.607,0,0,1,.728-3.657,5.513,5.513,0,0,1,2.095-2.422,5.844,5.844,0,0,1,3.164-.854,6.129,6.129,0,0,1,4.16,1.362,5.383,5.383,0,0,1,1.787,3.755H61.865a2.547,2.547,0,0,0-.654-1.865,2.691,2.691,0,0,0-1.875-.566,2.048,2.048,0,0,0-1.875.957,6.151,6.151,0,0,0-.625,3.057v1.006a6.806,6.806,0,0,0,.571,3.252,2.091,2.091,0,0,0,1.968.977,2.632,2.632,0,0,0,1.807-.557,2.363,2.363,0,0,0,.664-1.768ZM70.527,0H67.109V-14.219h3.418ZM84.951-6.816a8.385,8.385,0,0,1-.771,3.682A5.7,5.7,0,0,1,81.987-.669,6.1,6.1,0,0,1,78.75.2,6.191,6.191,0,0,1,75.527-.64a5.692,5.692,0,0,1-2.192-2.388,8.144,8.144,0,0,1-.825-3.564v-.8a8.422,8.422,0,0,1,.767-3.687,5.688,5.688,0,0,1,2.2-2.466,6.147,6.147,0,0,1,3.257-.869,6.087,6.087,0,0,1,3.223.859,5.79,5.79,0,0,1,2.2,2.446,8.18,8.18,0,0,1,.8,3.638Zm-3.486-.6a5.979,5.979,0,0,0-.708-3.218,2.271,2.271,0,0,0-2.026-1.1q-2.578,0-2.725,3.867L76-6.816A6.149,6.149,0,0,0,76.689-3.6,2.268,2.268,0,0,0,78.75-2.48a2.24,2.24,0,0,0,2-1.1,5.982,5.982,0,0,0,.713-3.174Z" transform="translate(757 1210)" fill="#fff"/>
    <path id="Trazado_231440" data-name="Trazado 231440" d="M0,0H125V50H0Z" transform="translate(475 1410)" fill="#8c5be1"/>
    <path id="Trazado_231444" data-name="Trazado 231444" d="M12.949,0H9.541L4.5-8.848V0H1.074V-14.219H4.5L9.531-5.371v-8.848h3.418ZM23.936-6.025H18.545v3.389h6.367V0H15.117V-14.219h9.814v2.646H18.545v3h5.391ZM37.949-1.758A5.511,5.511,0,0,1,35.635-.342,9.982,9.982,0,0,1,32.295.2a5.955,5.955,0,0,1-4.463-1.709A6.918,6.918,0,0,1,26.045-6.27l-.01-1.23a8.485,8.485,0,0,1,.742-3.667A5.511,5.511,0,0,1,28.9-13.579a6.008,6.008,0,0,1,3.2-.845,6.3,6.3,0,0,1,4.126,1.216A5.152,5.152,0,0,1,37.939-9.58h-3.3a2.7,2.7,0,0,0-.762-1.7,2.458,2.458,0,0,0-1.66-.508,2.237,2.237,0,0,0-1.992,1.094,5.84,5.84,0,0,0-.713,3.125v.859a5.717,5.717,0,0,0,.728,3.2,2.573,2.573,0,0,0,2.29,1.069,2.88,2.88,0,0,0,1.992-.6V-5.244H32.139V-7.6h5.811ZM51.982-6.816a8.385,8.385,0,0,1-.771,3.682A5.7,5.7,0,0,1,49.019-.669,6.1,6.1,0,0,1,45.781.2,6.191,6.191,0,0,1,42.559-.64a5.692,5.692,0,0,1-2.192-2.388,8.144,8.144,0,0,1-.825-3.564v-.8a8.422,8.422,0,0,1,.767-3.687,5.688,5.688,0,0,1,2.2-2.466,6.147,6.147,0,0,1,3.257-.869,6.087,6.087,0,0,1,3.223.859,5.79,5.79,0,0,1,2.2,2.446,8.18,8.18,0,0,1,.8,3.638Zm-3.486-.6a5.979,5.979,0,0,0-.708-3.218,2.271,2.271,0,0,0-2.026-1.1q-2.578,0-2.725,3.867l-.01,1.045A6.149,6.149,0,0,0,43.721-3.6,2.268,2.268,0,0,0,45.781-2.48a2.24,2.24,0,0,0,2-1.1A5.982,5.982,0,0,0,48.5-6.758Zm16.758,2.6a5.193,5.193,0,0,1-.8,2.622A4.833,4.833,0,0,1,62.4-.43,7,7,0,0,1,59.375.2a5.584,5.584,0,0,1-4.414-1.826A7.54,7.54,0,0,1,53.35-6.787v-.7a8.607,8.607,0,0,1,.728-3.657,5.513,5.513,0,0,1,2.095-2.422,5.844,5.844,0,0,1,3.164-.854,6.129,6.129,0,0,1,4.16,1.362,5.383,5.383,0,0,1,1.787,3.755H61.865a2.547,2.547,0,0,0-.654-1.865,2.691,2.691,0,0,0-1.875-.566,2.048,2.048,0,0,0-1.875.957,6.151,6.151,0,0,0-.625,3.057v1.006a6.806,6.806,0,0,0,.571,3.252,2.091,2.091,0,0,0,1.968.977,2.632,2.632,0,0,0,1.807-.557,2.363,2.363,0,0,0,.664-1.768ZM70.527,0H67.109V-14.219h3.418ZM84.951-6.816a8.385,8.385,0,0,1-.771,3.682A5.7,5.7,0,0,1,81.987-.669,6.1,6.1,0,0,1,78.75.2,6.191,6.191,0,0,1,75.527-.64a5.692,5.692,0,0,1-2.192-2.388,8.144,8.144,0,0,1-.825-3.564v-.8a8.422,8.422,0,0,1,.767-3.687,5.688,5.688,0,0,1,2.2-2.466,6.147,6.147,0,0,1,3.257-.869,6.087,6.087,0,0,1,3.223.859,5.79,5.79,0,0,1,2.2,2.446,8.18,8.18,0,0,1,.8,3.638Zm-3.486-.6a5.979,5.979,0,0,0-.708-3.218,2.271,2.271,0,0,0-2.026-1.1q-2.578,0-2.725,3.867L76-6.816A6.149,6.149,0,0,0,76.689-3.6,2.268,2.268,0,0,0,78.75-2.48a2.24,2.24,0,0,0,2-1.1,5.982,5.982,0,0,0,.713-3.174Z" transform="translate(495 1443)" fill="#fff"/>
    <path id="Trazado_231441" data-name="Trazado 231441" d="M0,0H164V50H0Z" transform="translate(626 1410)" fill="#8c5be1"/>
    <path id="Trazado_231445" data-name="Trazado 231445" d="M12.578-4.814a5.193,5.193,0,0,1-.8,2.622A4.833,4.833,0,0,1,9.722-.43,7,7,0,0,1,6.7.2,5.584,5.584,0,0,1,2.285-1.631,7.54,7.54,0,0,1,.674-6.787v-.7A8.607,8.607,0,0,1,1.4-11.147,5.513,5.513,0,0,1,3.5-13.569a5.844,5.844,0,0,1,3.164-.854,6.129,6.129,0,0,1,4.16,1.362,5.383,5.383,0,0,1,1.787,3.755H9.189a2.547,2.547,0,0,0-.654-1.865,2.691,2.691,0,0,0-1.875-.566,2.048,2.048,0,0,0-1.875.957A6.151,6.151,0,0,0,4.16-7.725v1.006a6.806,6.806,0,0,0,.571,3.252A2.091,2.091,0,0,0,6.7-2.49a2.632,2.632,0,0,0,1.807-.557A2.363,2.363,0,0,0,9.17-4.814Zm13.662-2a8.385,8.385,0,0,1-.771,3.682A5.7,5.7,0,0,1,23.276-.669,6.1,6.1,0,0,1,20.039.2,6.191,6.191,0,0,1,16.816-.64a5.692,5.692,0,0,1-2.192-2.388A8.144,8.144,0,0,1,13.8-6.592v-.8a8.422,8.422,0,0,1,.767-3.687,5.688,5.688,0,0,1,2.2-2.466,6.147,6.147,0,0,1,3.257-.869,6.087,6.087,0,0,1,3.223.859,5.79,5.79,0,0,1,2.2,2.446,8.18,8.18,0,0,1,.8,3.638Zm-3.486-.6a5.979,5.979,0,0,0-.708-3.218,2.271,2.271,0,0,0-2.026-1.1q-2.578,0-2.725,3.867l-.01,1.045A6.149,6.149,0,0,0,17.979-3.6,2.268,2.268,0,0,0,20.039-2.48a2.24,2.24,0,0,0,2-1.1,5.982,5.982,0,0,0,.713-3.174ZM39.883,0H36.475L31.436-8.848V0H28.008V-14.219h3.428l5.029,8.848v-8.848h3.418Zm9.5-3.779a1.408,1.408,0,0,0-.532-1.172,6.615,6.615,0,0,0-1.87-.869,17.942,17.942,0,0,1-2.187-.869q-2.764-1.357-2.764-3.73A3.345,3.345,0,0,1,42.72-12.5a4.453,4.453,0,0,1,1.948-1.406,7.582,7.582,0,0,1,2.832-.5,6.632,6.632,0,0,1,2.749.547,4.352,4.352,0,0,1,1.89,1.558A4.068,4.068,0,0,1,52.813-10H49.395a1.719,1.719,0,0,0-.532-1.348,2.075,2.075,0,0,0-1.44-.479,2.339,2.339,0,0,0-1.45.405,1.243,1.243,0,0,0-.532,1.03,1.252,1.252,0,0,0,.586.991,7.389,7.389,0,0,0,2.061.918,12.623,12.623,0,0,1,2.422,1.021,4.07,4.07,0,0,1,2.3,3.662,3.472,3.472,0,0,1-1.406,2.93A6.255,6.255,0,0,1,47.549.2a7.653,7.653,0,0,1-3.13-.62,4.719,4.719,0,0,1-2.109-1.7A4.428,4.428,0,0,1,41.6-4.609h3.438a2.181,2.181,0,0,0,.591,1.685,2.793,2.793,0,0,0,1.919.542,2.206,2.206,0,0,0,1.343-.366A1.209,1.209,0,0,0,49.385-3.779ZM65.723-14.219v9.307a5.349,5.349,0,0,1-.674,2.739A4.365,4.365,0,0,1,63.115-.41,6.812,6.812,0,0,1,60.137.2a5.885,5.885,0,0,1-4.092-1.348,4.806,4.806,0,0,1-1.523-3.691v-9.375h3.447v9.443q.059,2.334,2.168,2.334a2.1,2.1,0,0,0,1.611-.586,2.739,2.739,0,0,0,.547-1.9v-9.287Zm6.641,0,3.174,9.893L78.7-14.219h4.512V0H79.775V-3.32l.332-6.8L76.67,0H74.4L70.957-10.127l.332,6.807V0H67.861V-14.219ZM89.043,0H85.625V-14.219h3.418Zm2.383,0V-14.219h4.58a6.737,6.737,0,0,1,3.389.854,6.006,6.006,0,0,1,2.349,2.412,7.283,7.283,0,0,1,.854,3.491v.654a7.325,7.325,0,0,1-.825,3.5A6.032,6.032,0,0,1,99.448-.884,6.589,6.589,0,0,1,96.1,0Zm3.428-11.572v8.936h1.191a2.666,2.666,0,0,0,2.266-1.05,5.145,5.145,0,0,0,.791-3.12v-.615a5.1,5.1,0,0,0-.791-3.105,2.713,2.713,0,0,0-2.3-1.045ZM116.4-6.816a8.385,8.385,0,0,1-.771,3.682,5.7,5.7,0,0,1-2.192,2.466A6.1,6.1,0,0,1,110.2.2a6.191,6.191,0,0,1-3.223-.835,5.692,5.692,0,0,1-2.192-2.388,8.144,8.144,0,0,1-.825-3.564v-.8a8.422,8.422,0,0,1,.767-3.687,5.688,5.688,0,0,1,2.2-2.466,6.147,6.147,0,0,1,3.257-.869,6.087,6.087,0,0,1,3.223.859,5.79,5.79,0,0,1,2.2,2.446,8.18,8.18,0,0,1,.8,3.638Zm-3.486-.6a5.979,5.979,0,0,0-.708-3.218,2.271,2.271,0,0,0-2.026-1.1q-2.578,0-2.725,3.867l-.01,1.045a6.149,6.149,0,0,0,.693,3.213A2.268,2.268,0,0,0,110.2-2.48a2.24,2.24,0,0,0,2-1.1,5.982,5.982,0,0,0,.713-3.174ZM123.447-5.02h-1.855V0h-3.428V-14.219h5.6a6.241,6.241,0,0,1,3.955,1.123,3.807,3.807,0,0,1,1.426,3.174,4.625,4.625,0,0,1-.6,2.461,4.264,4.264,0,0,1-1.88,1.582l2.969,5.732V0h-3.672Zm-1.855-2.646h2.168a1.949,1.949,0,0,0,1.47-.513,1.979,1.979,0,0,0,.493-1.431,2,2,0,0,0-.5-1.44,1.931,1.931,0,0,0-1.465-.522h-2.168Z" transform="translate(643 1443)" fill="#fff"/>
    <path id="Trazado_231442" data-name="Trazado 231442" d="M0,0H164V50H0Z" transform="translate(810 1410)" fill="#8c5be1"/>
    <path id="Trazado_231446" data-name="Trazado 231446" d="M12.715-1.758A5.511,5.511,0,0,1,10.4-.342,9.982,9.982,0,0,1,7.061.2,5.955,5.955,0,0,1,2.6-1.514,6.918,6.918,0,0,1,.811-6.27L.8-7.5a8.485,8.485,0,0,1,.742-3.667,5.511,5.511,0,0,1,2.124-2.412,6.008,6.008,0,0,1,3.2-.845,6.3,6.3,0,0,1,4.126,1.216A5.152,5.152,0,0,1,12.705-9.58H9.4a2.7,2.7,0,0,0-.762-1.7,2.458,2.458,0,0,0-1.66-.508A2.237,2.237,0,0,0,4.99-10.693a5.84,5.84,0,0,0-.713,3.125v.859A5.717,5.717,0,0,0,5-3.511a2.573,2.573,0,0,0,2.29,1.069,2.88,2.88,0,0,0,1.992-.6V-5.244H6.9V-7.6h5.811ZM26.748-6.816a8.385,8.385,0,0,1-.771,3.682A5.7,5.7,0,0,1,23.784-.669,6.1,6.1,0,0,1,20.547.2,6.191,6.191,0,0,1,17.324-.64a5.692,5.692,0,0,1-2.192-2.388,8.144,8.144,0,0,1-.825-3.564v-.8a8.422,8.422,0,0,1,.767-3.687,5.688,5.688,0,0,1,2.2-2.466,6.147,6.147,0,0,1,3.257-.869,6.087,6.087,0,0,1,3.223.859,5.79,5.79,0,0,1,2.2,2.446,8.18,8.18,0,0,1,.8,3.638Zm-3.486-.6a5.979,5.979,0,0,0-.708-3.218,2.271,2.271,0,0,0-2.026-1.1q-2.578,0-2.725,3.867l-.01,1.045A6.149,6.149,0,0,0,18.486-3.6,2.268,2.268,0,0,0,20.547-2.48a2.24,2.24,0,0,0,2-1.1,5.982,5.982,0,0,0,.713-3.174ZM28.516,0V-14.219h5.107A7.232,7.232,0,0,1,37.8-13.213a3.347,3.347,0,0,1,1.431,2.92,3.383,3.383,0,0,1-.508,1.885,2.959,2.959,0,0,1-1.494,1.152,3,3,0,0,1,1.709,1.094,3.18,3.18,0,0,1,.6,1.953,3.765,3.765,0,0,1-1.323,3.14A6.3,6.3,0,0,1,34.287,0Zm3.428-6.045v3.408h2.246a2.136,2.136,0,0,0,1.426-.425,1.487,1.487,0,0,0,.5-1.2,1.576,1.576,0,0,0-1.768-1.787Zm0-2.246H33.73a2.545,2.545,0,0,0,1.6-.41,1.453,1.453,0,0,0,.479-1.182,1.526,1.526,0,0,0-.518-1.294,2.777,2.777,0,0,0-1.67-.4h-1.68ZM45.068,0H41.65V-14.219h3.418Zm11.2-6.025H50.879v3.389h6.367V0H47.451V-14.219h9.814v2.646H50.879v3H56.27ZM63.926-5.02H62.07V0H58.643V-14.219h5.6A6.241,6.241,0,0,1,68.193-13.1a3.807,3.807,0,0,1,1.426,3.174,4.625,4.625,0,0,1-.6,2.461,4.264,4.264,0,0,1-1.88,1.582L70.107-.146V0H66.436ZM62.07-7.666h2.168a1.949,1.949,0,0,0,1.47-.513A1.979,1.979,0,0,0,66.2-9.609a2,2,0,0,0-.5-1.44,1.931,1.931,0,0,0-1.465-.522H62.07ZM83.564,0H80.156L75.117-8.848V0H71.689V-14.219h3.428l5.029,8.848v-8.848h3.418ZM97.773-6.816A8.385,8.385,0,0,1,97-3.135,5.7,5.7,0,0,1,94.81-.669,6.1,6.1,0,0,1,91.572.2,6.191,6.191,0,0,1,88.35-.64a5.692,5.692,0,0,1-2.192-2.388,8.144,8.144,0,0,1-.825-3.564v-.8a8.422,8.422,0,0,1,.767-3.687,5.688,5.688,0,0,1,2.2-2.466,6.147,6.147,0,0,1,3.257-.869,6.087,6.087,0,0,1,3.223.859,5.79,5.79,0,0,1,2.2,2.446,8.18,8.18,0,0,1,.8,3.638Zm-3.486-.6a5.979,5.979,0,0,0-.708-3.218,2.271,2.271,0,0,0-2.026-1.1q-2.578,0-2.725,3.867l-.01,1.045A6.149,6.149,0,0,0,89.512-3.6,2.268,2.268,0,0,0,91.572-2.48a2.24,2.24,0,0,0,2-1.1,5.982,5.982,0,0,0,.713-3.174Z" transform="translate(843 1443)" fill="#fff"/>
    <path id="Trazado_231443" data-name="Trazado 231443" d="M0,0H164V50H0Z" transform="translate(1000 1410)" fill="#8c5be1"/>
    <path id="Trazado_231447" data-name="Trazado 231447" d="M9.893-6.025H4.5v3.389h6.367V0H1.074V-14.219h9.814v2.646H4.5v3H9.893Zm6.875-8.193,3.174,9.893,3.164-9.893h4.512V0H24.18V-3.32l.332-6.8L21.074,0H18.809L15.361-10.127l.332,6.807V0H12.266V-14.219ZM33.223-4.824V0H29.795V-14.219h5.674a6.608,6.608,0,0,1,2.886.6A4.526,4.526,0,0,1,40.3-11.909a4.667,4.667,0,0,1,.688,2.515A4.114,4.114,0,0,1,39.5-6.069,6.179,6.179,0,0,1,35.41-4.824Zm0-2.646h2.246a2.118,2.118,0,0,0,1.519-.5,1.85,1.85,0,0,0,.522-1.406,2.287,2.287,0,0,0-.537-1.592,1.9,1.9,0,0,0-1.465-.605H33.223ZM46.24-2.637h5.967V0H42.813V-14.219H46.24Zm16.23-3.389H57.08v3.389h6.367V0H53.652V-14.219h9.814v2.646H57.08v3h5.391ZM72.92-2.656h-4.7L67.4,0H63.74l5.215-14.219h3.223L77.432,0H73.75ZM69.043-5.3H72.1l-1.533-4.932ZM78.467,0V-14.219h4.58a6.737,6.737,0,0,1,3.389.854,6.006,6.006,0,0,1,2.349,2.412,7.283,7.283,0,0,1,.854,3.491v.654a7.325,7.325,0,0,1-.825,3.5A6.032,6.032,0,0,1,86.489-.884,6.589,6.589,0,0,1,83.145,0Zm3.428-11.572v8.936h1.191a2.666,2.666,0,0,0,2.266-1.05,5.145,5.145,0,0,0,.791-3.12v-.615a5.1,5.1,0,0,0-.791-3.105,2.713,2.713,0,0,0-2.3-1.045Zm21.543,4.756a8.385,8.385,0,0,1-.771,3.682,5.7,5.7,0,0,1-2.192,2.466A6.1,6.1,0,0,1,97.236.2,6.191,6.191,0,0,1,94.014-.64a5.692,5.692,0,0,1-2.192-2.388A8.144,8.144,0,0,1,91-6.592v-.8a8.422,8.422,0,0,1,.767-3.687,5.688,5.688,0,0,1,2.2-2.466,6.147,6.147,0,0,1,3.257-.869,6.087,6.087,0,0,1,3.223.859,5.79,5.79,0,0,1,2.2,2.446,8.18,8.18,0,0,1,.8,3.638Zm-3.486-.6a5.979,5.979,0,0,0-.708-3.218,2.271,2.271,0,0,0-2.026-1.1q-2.578,0-2.725,3.867l-.01,1.045A6.149,6.149,0,0,0,95.176-3.6,2.268,2.268,0,0,0,97.236-2.48a2.24,2.24,0,0,0,2-1.1,5.982,5.982,0,0,0,.713-3.174Zm12.588,3.633a1.408,1.408,0,0,0-.532-1.172,6.615,6.615,0,0,0-1.87-.869,17.941,17.941,0,0,1-2.187-.869q-2.764-1.357-2.764-3.73a3.345,3.345,0,0,1,.688-2.085,4.453,4.453,0,0,1,1.948-1.406,7.582,7.582,0,0,1,2.832-.5,6.632,6.632,0,0,1,2.749.547,4.352,4.352,0,0,1,1.89,1.558,4.068,4.068,0,0,1,.674,2.31h-3.418a1.719,1.719,0,0,0-.532-1.348,2.075,2.075,0,0,0-1.44-.479,2.339,2.339,0,0,0-1.45.405,1.243,1.243,0,0,0-.532,1.03,1.252,1.252,0,0,0,.586.991,7.389,7.389,0,0,0,2.061.918,12.623,12.623,0,0,1,2.422,1.021,4.07,4.07,0,0,1,2.3,3.662,3.472,3.472,0,0,1-1.406,2.93A6.255,6.255,0,0,1,110.7.2a7.653,7.653,0,0,1-3.13-.62,4.719,4.719,0,0,1-2.109-1.7,4.427,4.427,0,0,1-.708-2.485h3.438a2.181,2.181,0,0,0,.591,1.685,2.793,2.793,0,0,0,1.919.542,2.206,2.206,0,0,0,1.343-.366A1.209,1.209,0,0,0,112.539-3.779Z" transform="translate(1024 1443)" fill="#fff"/>
    <path id="Trazado_230662" data-name="Trazado 230662" d="M-406-10528H-549.383v192.23" transform="translate(1091 11731)" fill="none" stroke="#414141" stroke-width="1"/>
    <path id="Trazado_231426" data-name="Trazado 231426" d="M0,0H85V50H0Z" transform="translate(495 1182)" fill="#43a99b"/>
    <path id="Trazado_231427" data-name="Trazado 231427" d="M1.289,0V-17.062H7.418a8.679,8.679,0,0,1,5.01,1.207,4.016,4.016,0,0,1,1.717,3.5,4.06,4.06,0,0,1-.609,2.262,3.551,3.551,0,0,1-1.793,1.383,3.6,3.6,0,0,1,2.051,1.313,3.816,3.816,0,0,1,.715,2.344A4.518,4.518,0,0,1,12.92-1.283,7.556,7.556,0,0,1,8.215,0ZM5.4-7.254v4.09H8.1a2.564,2.564,0,0,0,1.711-.51,1.784,1.784,0,0,0,.6-1.436A1.891,1.891,0,0,0,8.285-7.254Zm0-2.7H7.547a3.054,3.054,0,0,0,1.922-.492,1.744,1.744,0,0,0,.574-1.418,1.831,1.831,0,0,0-.621-1.553,3.332,3.332,0,0,0-2-.475H5.4ZM28.43,0H16.523V-2.578l5.484-5.766q2.027-2.309,2.027-3.668a2.551,2.551,0,0,0-.48-1.676,1.715,1.715,0,0,0-1.395-.574,1.737,1.737,0,0,0-1.465.768,3.155,3.155,0,0,0-.562,1.916H16.172a5.6,5.6,0,0,1,.785-2.9,5.506,5.506,0,0,1,2.18-2.08,6.475,6.475,0,0,1,3.117-.75,6.369,6.369,0,0,1,4.26,1.277,4.56,4.56,0,0,1,1.494,3.668,5.326,5.326,0,0,1-.375,1.963,8.608,8.608,0,0,1-1.166,2A29.372,29.372,0,0,1,23.918-5.59l-2.2,2.543H28.43Zm2.238,0V-17.062H36.8a8.679,8.679,0,0,1,5.01,1.207,4.016,4.016,0,0,1,1.717,3.5,4.06,4.06,0,0,1-.609,2.262,3.551,3.551,0,0,1-1.793,1.383,3.6,3.6,0,0,1,2.051,1.313,3.816,3.816,0,0,1,.715,2.344A4.518,4.518,0,0,1,42.3-1.283,7.556,7.556,0,0,1,37.594,0Zm4.113-7.254v4.09h2.7a2.564,2.564,0,0,0,1.711-.51,1.784,1.784,0,0,0,.6-1.436,1.891,1.891,0,0,0-2.121-2.145Zm0-2.7h2.145a3.054,3.054,0,0,0,1.922-.492,1.744,1.744,0,0,0,.574-1.418,1.831,1.831,0,0,0-.621-1.553,3.332,3.332,0,0,0-2-.475H34.781Z" transform="translate(516 1215)" fill="#fff"/>
    <path id="Trazado_231436" data-name="Trazado 231436" d="M8,0l8,14H0Z" transform="translate(550 1402) rotate(180)"/>
    <path id="Trazado_230663" data-name="Trazado 230663" d="M-549.383-10528H-406v192.23" transform="translate(1464.383 11731)" fill="none" stroke="#414141" stroke-width="1"/>
    <path id="Trazado_231434" data-name="Trazado 231434" d="M0,0H85V50H0Z" transform="translate(1020 1182)" fill="#43a99b"/>
    <path id="Trazado_231435" data-name="Trazado 231435" d="M1.289,0V-17.062H7.418a8.679,8.679,0,0,1,5.01,1.207,4.016,4.016,0,0,1,1.717,3.5,4.06,4.06,0,0,1-.609,2.262,3.551,3.551,0,0,1-1.793,1.383,3.6,3.6,0,0,1,2.051,1.313,3.816,3.816,0,0,1,.715,2.344A4.518,4.518,0,0,1,12.92-1.283,7.556,7.556,0,0,1,8.215,0ZM5.4-7.254v4.09H8.1a2.564,2.564,0,0,0,1.711-.51,1.784,1.784,0,0,0,.6-1.436A1.891,1.891,0,0,0,8.285-7.254Zm0-2.7H7.547a3.054,3.054,0,0,0,1.922-.492,1.744,1.744,0,0,0,.574-1.418,1.831,1.831,0,0,0-.621-1.553,3.332,3.332,0,0,0-2-.475H5.4ZM28.43,0H16.523V-2.578l5.484-5.766q2.027-2.309,2.027-3.668a2.551,2.551,0,0,0-.48-1.676,1.715,1.715,0,0,0-1.395-.574,1.737,1.737,0,0,0-1.465.768,3.155,3.155,0,0,0-.562,1.916H16.172a5.6,5.6,0,0,1,.785-2.9,5.506,5.506,0,0,1,2.18-2.08,6.475,6.475,0,0,1,3.117-.75,6.369,6.369,0,0,1,4.26,1.277,4.56,4.56,0,0,1,1.494,3.668,5.326,5.326,0,0,1-.375,1.963,8.608,8.608,0,0,1-1.166,2A29.372,29.372,0,0,1,23.918-5.59l-2.2,2.543H28.43ZM41.25-7.23H34.781v4.066h7.641V0H30.668V-17.062H42.445v3.176H34.781v3.6H41.25Z" transform="translate(1041 1215)" fill="#fff"/>
    <path id="Trazado_231437" data-name="Trazado 231437" d="M8,0l8,14H0Z" transform="translate(1066 1402) rotate(180)"/>
    <path id="Trazado_230664" data-name="Trazado 230664" d="M-373.258-10331.4v-81.211h166.852v79.037" transform="translate(1091 11731)" fill="none" stroke="#000" stroke-width="1"/>
    <path id="Trazado_231430" data-name="Trazado 231430" d="M0,0H85V50H0Z" transform="translate(830 1293)" fill="#43a99b"/>
    <path id="Trazado_231432" data-name="Trazado 231432" d="M1.289,0V-17.062H7.418a8.679,8.679,0,0,1,5.01,1.207,4.016,4.016,0,0,1,1.717,3.5,4.06,4.06,0,0,1-.609,2.262,3.551,3.551,0,0,1-1.793,1.383,3.6,3.6,0,0,1,2.051,1.313,3.816,3.816,0,0,1,.715,2.344A4.518,4.518,0,0,1,12.92-1.283,7.556,7.556,0,0,1,8.215,0ZM5.4-7.254v4.09H8.1a2.564,2.564,0,0,0,1.711-.51,1.784,1.784,0,0,0,.6-1.436A1.891,1.891,0,0,0,8.285-7.254Zm0-2.7H7.547a3.054,3.054,0,0,0,1.922-.492,1.744,1.744,0,0,0,.574-1.418,1.831,1.831,0,0,0-.621-1.553,3.332,3.332,0,0,0-2-.475H5.4ZM28.43,0H16.523V-2.578l5.484-5.766q2.027-2.309,2.027-3.668a2.551,2.551,0,0,0-.48-1.676,1.715,1.715,0,0,0-1.395-.574,1.737,1.737,0,0,0-1.465.768,3.155,3.155,0,0,0-.562,1.916H16.172a5.6,5.6,0,0,1,.785-2.9,5.506,5.506,0,0,1,2.18-2.08,6.475,6.475,0,0,1,3.117-.75,6.369,6.369,0,0,1,4.26,1.277,4.56,4.56,0,0,1,1.494,3.668,5.326,5.326,0,0,1-.375,1.963,8.608,8.608,0,0,1-1.166,2A29.372,29.372,0,0,1,23.918-5.59l-2.2,2.543H28.43ZM44.637-2.109a6.614,6.614,0,0,1-2.777,1.7,11.979,11.979,0,0,1-4.008.645A7.146,7.146,0,0,1,32.5-1.816a8.3,8.3,0,0,1-2.145-5.707L30.34-9a10.182,10.182,0,0,1,.891-4.4,6.614,6.614,0,0,1,2.549-2.895,7.21,7.21,0,0,1,3.838-1.014,7.559,7.559,0,0,1,4.951,1.459A6.182,6.182,0,0,1,44.625-11.5H40.664a3.235,3.235,0,0,0-.914-2.039,2.949,2.949,0,0,0-1.992-.609,2.684,2.684,0,0,0-2.391,1.313,7.008,7.008,0,0,0-.855,3.75v1.031a6.86,6.86,0,0,0,.873,3.838A3.088,3.088,0,0,0,38.133-2.93a3.456,3.456,0,0,0,2.391-.715V-6.293H37.664V-9.117h6.973Z" transform="translate(851 1326)" fill="#fff"/>
    <path id="Trazado_231431" data-name="Trazado 231431" d="M0,0H85V50H0Z" transform="translate(685 1293)" fill="#43a99b"/>
    <path id="Trazado_231433" data-name="Trazado 231433" d="M1.289,0V-17.062H7.418a8.679,8.679,0,0,1,5.01,1.207,4.016,4.016,0,0,1,1.717,3.5,4.06,4.06,0,0,1-.609,2.262,3.551,3.551,0,0,1-1.793,1.383,3.6,3.6,0,0,1,2.051,1.313,3.816,3.816,0,0,1,.715,2.344A4.518,4.518,0,0,1,12.92-1.283,7.556,7.556,0,0,1,8.215,0ZM5.4-7.254v4.09H8.1a2.564,2.564,0,0,0,1.711-.51,1.784,1.784,0,0,0,.6-1.436A1.891,1.891,0,0,0,8.285-7.254Zm0-2.7H7.547a3.054,3.054,0,0,0,1.922-.492,1.744,1.744,0,0,0,.574-1.418,1.831,1.831,0,0,0-.621-1.553,3.332,3.332,0,0,0-2-.475H5.4ZM28.43,0H16.523V-2.578l5.484-5.766q2.027-2.309,2.027-3.668a2.551,2.551,0,0,0-.48-1.676,1.715,1.715,0,0,0-1.395-.574,1.737,1.737,0,0,0-1.465.768,3.155,3.155,0,0,0-.562,1.916H16.172a5.6,5.6,0,0,1,.785-2.9,5.506,5.506,0,0,1,2.18-2.08,6.475,6.475,0,0,1,3.117-.75,6.369,6.369,0,0,1,4.26,1.277,4.56,4.56,0,0,1,1.494,3.668,5.326,5.326,0,0,1-.375,1.963,8.608,8.608,0,0,1-1.166,2A29.372,29.372,0,0,1,23.918-5.59l-2.2,2.543H28.43ZM44.473-5.777a6.231,6.231,0,0,1-.961,3.146A5.8,5.8,0,0,1,41.045-.516a8.4,8.4,0,0,1-3.627.75,6.7,6.7,0,0,1-5.3-2.191,9.048,9.048,0,0,1-1.934-6.187v-.844a10.328,10.328,0,0,1,.873-4.389,6.615,6.615,0,0,1,2.514-2.906,7.013,7.013,0,0,1,3.8-1.025,7.354,7.354,0,0,1,4.992,1.635,6.459,6.459,0,0,1,2.145,4.506h-4.1a3.056,3.056,0,0,0-.785-2.238,3.229,3.229,0,0,0-2.25-.68,2.457,2.457,0,0,0-2.25,1.148,7.381,7.381,0,0,0-.75,3.668v1.207a8.167,8.167,0,0,0,.686,3.9,2.509,2.509,0,0,0,2.361,1.172,3.159,3.159,0,0,0,2.168-.668,2.835,2.835,0,0,0,.8-2.121Z" transform="translate(706 1326)" fill="#fff"/>
    <path id="Trazado_231438" data-name="Trazado 231438" d="M8,0l8,14H0Z" transform="translate(726 1402) rotate(180)"/>
    <path id="Trazado_231439" data-name="Trazado 231439" d="M8,0l8,14H0Z" transform="translate(893 1402) rotate(180)"/>
    <path id="Trazado_230665" data-name="Trazado 230665" d="M-291-10502v89.395" transform="translate(1091 11731)" fill="none" stroke="#000" stroke-width="1"/>
  </g>
</svg>
