<svg xmlns="http://www.w3.org/2000/svg" width="138.886" height="130.62" viewBox="0 0 138.886 130.62">
  <g id="Grupo_181380" data-name="Grupo 181380" transform="translate(-1090 -1727.668)">
    <g id="Grupo_180189" data-name="Grupo 180189">
      <path id="Trazado_230670" data-name="Trazado 230670" d="M109.35,103.051s75.679-56.759,24.484-71.783S29.776-21.04,15.865,15.687s23.928,52.307,6.121,72.34,22.258,56.2,87.365,15.024" transform="translate(1077.278 1727.668)" fill="#43a99b"/>
      <g id="cross" transform="translate(1091.788 1749)">
        <path id="Trazado_230679" data-name="Trazado 230679" d="M194.826,367.427a5.3,5.3,0,0,0,3.5,1.31c.126,0,.253,0,.38-.013a5.341,5.341,0,0,0,4.955-5.7l-1.105-15.809a5.341,5.341,0,0,0-10.656.745L193,363.769a5.308,5.308,0,0,0,1.824,3.658Zm2.249-21.973c.051,0,.1-.005.152-.005a2.139,2.139,0,0,1,2.13,1.99l1.105,15.809a2.139,2.139,0,1,1-4.267.3l-1.105-15.809a2.141,2.141,0,0,1,1.984-2.283Z" transform="translate(-137.774 -269.193)"/>
        <path id="Trazado_230680" data-name="Trazado 230680" d="M124.354,343.592a5.341,5.341,0,0,0-8.5,5.009l2.205,15.693a5.343,5.343,0,0,0,5.278,4.6,5.42,5.42,0,0,0,.754-.053,5.341,5.341,0,0,0,4.545-6.032l-2.205-15.693A5.3,5.3,0,0,0,124.354,343.592Zm.7,21.246a2.139,2.139,0,0,1-3.826-.99l-2.206-15.693a2.139,2.139,0,0,1,1.821-2.416,2.186,2.186,0,0,1,.3-.021,2.141,2.141,0,0,1,2.114,1.842l2.206,15.693a2.127,2.127,0,0,1-.41,1.585Z" transform="translate(-77.929 -269.405)"/>
        <path id="Trazado_230681" data-name="Trazado 230681" d="M270.764,368.725q.191.013.38.013a5.341,5.341,0,0,0,5.32-4.969l1.105-15.809a5.341,5.341,0,1,0-10.655-.745l-1.105,15.809a5.341,5.341,0,0,0,4.955,5.7ZM269,363.249l1.105-15.809a2.139,2.139,0,0,1,2.13-1.99c.051,0,.1,0,.153.005a2.139,2.139,0,0,1,1.985,2.283l-1.105,15.809a2.139,2.139,0,0,1-4.268-.3Z" transform="translate(-195.909 -269.194)"/>
        <path id="Trazado_230682" data-name="Trazado 230682" d="M341.32,368.838a5.337,5.337,0,0,0,6.032-4.545l2.205-15.693a5.341,5.341,0,0,0-10.577-1.486l-2.206,15.693a5.341,5.341,0,0,0,4.546,6.032Zm-1.375-5.587,2.206-15.693a2.14,2.14,0,0,1,2.114-1.842,2.152,2.152,0,0,1,.3.021,2.139,2.139,0,0,1,1.821,2.416l-2.205,15.693a2.139,2.139,0,0,1-4.237-.6Z" transform="translate(-251.696 -269.403)"/>
        <path id="Trazado_230683" data-name="Trazado 230683" d="M118.454,52.353a3.682,3.682,0,0,0-3.281-2h-3.22V30.936A20.261,20.261,0,0,0,74.117,20.854a6.827,6.827,0,0,0-10.106-3.089,20.264,20.264,0,0,0-40.373,2.5v4.478h-3.22A3.7,3.7,0,0,0,17.4,30.57L27.98,45.549a3.7,3.7,0,0,0,6.036,0L44.6,30.57a3.7,3.7,0,0,0-3.018-5.827h-3.22V20.264a5.543,5.543,0,0,1,11.086,0V33.32a1.6,1.6,0,0,0,3.2,0V20.264a8.745,8.745,0,0,0-17.49,0v6.079a1.6,1.6,0,0,0,1.6,1.6h4.821a.494.494,0,0,1,.4.778L31.4,43.7a.493.493,0,0,1-.806,0L20.014,28.722a.494.494,0,0,1,.4-.778h4.821a1.6,1.6,0,0,0,1.6-1.6v-6.08a17.062,17.062,0,0,1,34.124,0V51.157H52.646V40.875a1.6,1.6,0,0,0-3.2,0V51.157H27.275a7,7,0,1,0,0,14h.264l4.808,39.056a5.792,5.792,0,0,0,5.742,5.078H48.458a1.6,1.6,0,1,0,0-3.2H38.088a2.586,2.586,0,0,1-2.564-2.268l-4.76-38.665H61.079a6.832,6.832,0,0,0,13.436,0h4.577a1.6,1.6,0,1,0,0-3.2H74.63V54.359h15.7a3.689,3.689,0,0,0,.665,1.825l4.074,5.768H86.647a1.6,1.6,0,1,0,0,3.2H97.329l4.245,6.009a3.7,3.7,0,0,0,2.33,1.5l-3.836,31.158a2.586,2.586,0,0,1-2.564,2.268H56.013a1.6,1.6,0,0,0,0,3.2H97.505a5.791,5.791,0,0,0,5.741-5.078l4.017-32.627a3.681,3.681,0,0,0,.347-.419l10.58-14.98a3.681,3.681,0,0,0,.263-3.831Zm-26.739-1.2H86.146V30.936a5.543,5.543,0,1,1,11.086,0v19.42h-3.22A3.683,3.683,0,0,0,91.715,51.157Zm-68.237,7a3.8,3.8,0,0,1,3.8-3.8H60.963v7.593H27.275A3.8,3.8,0,0,1,23.478,58.155ZM67.8,67.541a3.636,3.636,0,0,1-3.632-3.632V23.45a3.632,3.632,0,1,1,7.264,0V63.909A3.636,3.636,0,0,1,67.8,67.541Zm47.779-13.2L105,69.317a.493.493,0,0,1-.806,0l-10.58-14.98a.493.493,0,0,1,.4-.778h4.821a1.6,1.6,0,0,0,1.6-1.6V30.937a8.745,8.745,0,1,0-17.49,0v20.22H74.631V30.814a17.06,17.06,0,0,1,34.12.123V51.958a1.6,1.6,0,0,0,1.6,1.6h4.821a.493.493,0,0,1,.4.778Z"/>
      </g>
    </g>
  </g>
</svg>
