<svg xmlns="http://www.w3.org/2000/svg" width="104.679" height="103.3" viewBox="0 0 104.679 103.3">
  <g id="el-tiempo-es-dinero" transform="translate(-0.153 -0.512)">
    <path id="Trazado_226627" data-name="Trazado 226627" d="M20.7,58.255a.876.876,0,0,1-.454-1.626l4.7-2.837-7.535,4.344a.876.876,0,0,1-.9-1.505L39.95,42.345,12.6,58.132a.876.876,0,0,1-.9-1.5L55.688,29.3,5.736,58.132a.876.876,0,0,1-.9-1.5L42.444,33.5,1.923,56.888a.876.876,0,0,1-.888-1.509l7.817-4.7-7,4.03A.876.876,0,0,1,.964,53.2l15.28-9.254L1.856,52.258a.876.876,0,0,1-.9-1.505L27.519,34.444,1.856,49.258a.876.876,0,1,1-.9-1.5l33.4-20.895L1.856,45.622a.877.877,0,1,1-.9-1.509l16.6-10.2-15.7,9.068a.876.876,0,0,1-.892-1.507l.752-.459a.876.876,0,0,1-.771-1.563l27.03-17.22L1.856,37.309a.876.876,0,0,1-.906-1.5L19.844,23.86,1.856,34.244a.876.876,0,0,1-.913-1.495L20.949,19.836,1.849,30.858a.876.876,0,0,1-.909-1.5l12.24-7.824L1.856,28.077A.877.877,0,0,1,.927,26.59L19.152,14.232l-17.3,9.981a.878.878,0,0,1-.915-1.5L2.375,21.8l-.526.3a.876.876,0,0,1-.932-1.472l11.7-8.159L1.856,18.687a.876.876,0,0,1-.943-1.474l7.614-5.369L1.856,15.7a.876.876,0,0,1-.945-1.474l3.556-2.513L1.856,13.216a.876.876,0,0,1-.987-1.442l4.852-3.9L1.856,10.107A.876.876,0,0,1,.762,8.767L4.223,4.861,1.854,6.226A.876.876,0,0,1,.642,5.06l.841-1.6a.876.876,0,0,1-.41-1.635L3.118.655A.876.876,0,0,1,4.33,1.822L3.6,3.206,8.024.655A.876.876,0,0,1,9.118,1.994L5.65,5.894,14.736.655a.876.876,0,0,1,.987,1.44l-4.847,3.89L20.115.655a.876.876,0,0,1,.945,1.472L17.5,4.638,24.41.655a.876.876,0,0,1,.943,1.472L17.739,7.489,29.592.655a.876.876,0,0,1,.941,1.475l-11.7,8.152L35.512.655a.876.876,0,1,1,.911,1.5L35,3.061,39.165.655A.876.876,0,0,1,40.1,2.137L21.88,14.5,45.859.655a.876.876,0,0,1,.909,1.495L34.535,9.969,50.675.655a.876.876,0,0,1,.913,1.493L31.572,15.063,56.538.655a.876.876,0,0,1,.9,1.495L38.564,14.092,61.846.655a.876.876,0,0,1,.908,1.5L35.711,19.379,68.149.655a.876.876,0,1,1,.894,1.507l-.238.144L71.666.655a.876.876,0,0,1,.9,1.5l-16.6,10.2L76.245.655a.876.876,0,0,1,.9,1.5l-33.414,20.9L82.546.655a.876.876,0,0,1,.9,1.5L56.89,18.462,87.742.655a.876.876,0,0,1,.892,1.507L73.369,11.4,91.995.655a.876.876,0,0,1,.89,1.509l-7.8,4.691L95.827.655a.876.876,0,0,1,.9,1.5L59.1,25.307,101.524.811a.876.876,0,1,1,.9,1.5L58.45,29.651,102.511,4.207a.876.876,0,0,1,.894,1.505L79.981,19.994l22.53-13.006a.876.876,0,0,1,.892,1.507l-4.7,2.839,3.811-2.2a.876.876,0,0,1,.9,1.5L74.533,28.531,102.511,12.38a.876.876,0,0,1,.9,1.5L85.392,24.96l17.119-9.881a.876.876,0,0,1,.9,1.5L82.5,29.569l20.012-11.546a.876.876,0,0,1,.894,1.505l-4.313,2.639,3.419-1.973a.876.876,0,0,1,.911,1.495l-26.5,17.087L102.5,24a.876.876,0,0,1,.9,1.5L90.384,33.7l12.123-7a.876.876,0,0,1,.916,1.491L84.237,40.735l18.273-10.549a.876.876,0,0,1,.925,1.486L85.664,43.587l16.847-9.726a.876.876,0,0,1,.913,1.493l-5.394,3.48,4.481-2.586a.876.876,0,0,1,.918,1.491l-5.183,3.394,4.265-2.453a.876.876,0,0,1,.948,1.47L92.927,47.7l9.584-5.532a.876.876,0,0,1,.967,1.456l-8,6.081,7.03-4.058a.876.876,0,0,1,1.009,1.423l-5.7,4.907,4.686-2.7a.876.876,0,0,1,1.118,1.309l-2.979,3.68,1.857-1.071a.876.876,0,0,1,1.183,1.227l-.594.957a.876.876,0,0,1,.191,1.6l-2.034,1.174a.876.876,0,0,1-1.183-1.227l.291-.468-2.926,1.688a.876.876,0,0,1-1.12-1.309l2.979-3.68-8.629,4.985a.876.876,0,0,1-1.009-1.421l5.7-4.907L84.374,58.132a.876.876,0,0,1-.969-1.456l8-6.079-13.05,7.535a.876.876,0,0,1-.948-1.47l10.532-7.547-15.62,9.018a.876.876,0,0,1-.918-1.489l5.173-3.393-8.455,4.882a.876.876,0,0,1-.915-1.493l5.417-3.492-8.641,4.985a.876.876,0,0,1-.925-1.484L80.822,44.732,57.6,58.132a.876.876,0,0,1-.918-1.491L75.865,44.113,51.572,58.132a.876.876,0,0,1-.9-1.5L63.682,48.44,46.893,58.132a.876.876,0,0,1-.911-1.493l26.513-17.1-32.2,18.591a.876.876,0,0,1-.9-1.505l4.314-2.639-7.185,4.144a.876.876,0,0,1-.9-1.5l20.9-12.99-25.1,14.492a.876.876,0,0,1-.9-1.5L48.561,45.55l-21.8,12.582a.876.876,0,0,1-.9-1.5L54.726,38.746,21.137,58.132a.876.876,0,0,1-.438.123Z" transform="translate(0.272 0.012)" fill="#eeac3a"/>
    <path id="Trazado_226628" data-name="Trazado 226628" d="M21.383,33.235a.876.876,0,0,1-.492-1.6L33.432,23.08,19.254,31.27a.876.876,0,1,1-.925-1.488L28.054,23.3l-9.167,5.292a.876.876,0,1,1-.939-1.479L30.12,18.671,18.94,25.126a.876.876,0,0,1-.955-1.465L30.131,14.8,19.838,20.74a.876.876,0,0,1-.974-1.451l8.471-6.542-5.1,2.946a.876.876,0,0,1-.974-1.453l3.662-2.821a.85.85,0,0,1-.251-.277.876.876,0,0,1,.321-1.2l7.386-4.262a.876.876,0,0,1,.973,1.453l-.6.466L37.825,4.67A.876.876,0,0,1,38.8,6.12L30.331,12.65l13.06-7.535a.876.876,0,0,1,.955,1.465L32.2,15.453,47.644,6.532a.876.876,0,0,1,.938,1.477L36.406,16.447,50.653,8.222a.876.876,0,1,1,.925,1.488l-9.726,6.484L52.8,9.872a.876.876,0,0,1,.93,1.482L41.178,19.918,54.9,11.994a.876.876,0,0,1,.922,1.488l-5.3,3.5L56.2,13.71a.876.876,0,0,1,.946,1.472L46.929,22.465,57.7,16.249a.876.876,0,0,1,.973,1.453l-9.365,7.185,9.638-5.56a.876.876,0,0,1,.976,1.451l-5.665,4.4,5.352-3.088a.876.876,0,0,1,.988,1.439L57.532,26l2.348-1.353a.876.876,0,0,1,1.039,1.4l-1.875,1.765.794-.456a.876.876,0,0,1,1.188,1.209L60,30.284a.876.876,0,0,1,.251,1.614l-2.071,1.2a.876.876,0,0,1-1.19-1.209l.787-1.316-4.381,2.516a.876.876,0,0,1-1.039-1.4l1.873-1.763-5.481,3.165a.876.876,0,0,1-.99-1.439l3.065-2.48-6.792,3.922a.876.876,0,0,1-.974-1.449l5.664-4.4L38.579,33.094a.876.876,0,0,1-.973-1.453l9.37-7.185-14.963,8.65a.876.876,0,0,1-.946-1.472l10.2-7.279L26.1,33.117a.88.88,0,0,1-.925-1.5l5.32-3.5-8.678,5.008a.876.876,0,0,1-.438.11Z" transform="translate(13.082 3.042)" fill="#f5d194"/>
    <path id="Trazado_226629" data-name="Trazado 226629" d="M14.511,28.036a.876.876,0,0,1-.648-1.465l1.978-2.18-5.1,2.946a.876.876,0,0,1-1.029-1.405l3.61-3.3L8.389,25.472a.876.876,0,0,1-1.016-1.416l3.787-3.329L7.106,23.066a.876.876,0,0,1-1.03-1.4l3.319-3.039L6.889,20.069A.876.876,0,0,1,5.823,18.7l1.928-1.98a.862.862,0,0,1-.526-.408.876.876,0,0,1,.319-1.2l4.165-2.4a.876.876,0,0,1,1.067,1.369L11.5,15.387l3.96-2.287a.876.876,0,0,1,1.03,1.4l-3.324,3.04,4.77-2.753a.876.876,0,0,1,1.016,1.416l-3.783,3.329L19.379,17.1a.876.876,0,0,1,1.03,1.4L16.795,21.81l3.014-1.738A.876.876,0,0,1,20.9,21.419l-2.231,2.453a.876.876,0,0,1,.438,1.635l-4.164,2.4a.857.857,0,0,1-.428.124Z" transform="translate(4.081 9.09)" fill="#f5d194"/>
    <path id="Trazado_226630" data-name="Trazado 226630" d="M54.511,28.039a.876.876,0,0,1-.613-1.5l.641-.627-3.025,1.752a.876.876,0,0,1-1.009-1.423l2-1.724-3.237,1.868a.876.876,0,0,1-1.015-1.419l3.5-3.051L47.614,24.3a.876.876,0,0,1-.987-1.44l1.744-1.4-1.444.834a.876.876,0,0,1-.994-1.437l.969-.79h-.014A.876.876,0,0,1,45.823,18.7l1.928-1.982a.876.876,0,0,1-.214-1.605l4.165-2.4a.876.876,0,0,1,1.067,1.369L51.5,15.383l3.96-2.287a.876.876,0,0,1,.992,1.437l-.976.8,1.893-1.092a.876.876,0,0,1,.987,1.44l-1.742,1.4,2.148-1.239a.876.876,0,0,1,1.013,1.419l-3.5,3.049,3.454-1.994a.876.876,0,0,1,1.011,1.423l-2.01,1.728.985-.566a.876.876,0,0,1,1.051,1.384l-1.714,1.673a.86.86,0,0,1,.389.35.876.876,0,0,1-.319,1.2l-4.164,2.4a.857.857,0,0,1-.44.13Z" transform="translate(34.175 9.087)" fill="#f5d194"/>
    <path id="Trazado_226631" data-name="Trazado 226631" d="M45.583,91.75a.876.876,0,0,1-.487-1.605L57.6,81.785,41.217,91.248a.876.876,0,1,1-.911-1.5l9.855-6.331-12.4,7.155a.876.876,0,1,1-.918-1.493L55.11,77.155,33.907,89.4a.876.876,0,0,1-.92-1.49L56.819,72.257,30.038,87.718a.879.879,0,0,1-.9-1.507l9.417-5.874L27.861,86.513a.876.876,0,1,1-.9-1.505l3.443-2.122-4.328,2.5a.876.876,0,0,1-.9-1.5L35.74,77.322,24.174,84.005a.876.876,0,0,1-.915-1.495L51.6,64.228,21.405,81.655a.876.876,0,0,1-.9-1.505l2.728-1.67-3.186,1.836a.876.876,0,0,1-.909-1.495l28.241-18.06L17.843,77.818a.876.876,0,0,1-.908-1.5L43.611,59.376,16.019,75.306a.876.876,0,0,1-.9-1.5L26.8,66.6,14.873,73.48a.876.876,0,1,1-.9-1.5L32.195,60.627,13.686,71.316a.876.876,0,0,1-.908-1.5L41.24,51.639,12.362,68.313a.876.876,0,0,1-.9-1.5L33.952,52.647l-22.518,13a.876.876,0,0,1-.911-1.495l28.723-18.47L10.569,62.236a.876.876,0,0,1-.913-1.493l27.738-17.9-27.361,15.8a.876.876,0,0,1-.9-1.5l9.032-5.608L9.857,56.327a.876.876,0,0,1-.906-1.5l15.556-9.8L9.857,53.483a.876.876,0,0,1-.9-1.5L17.578,46.6l-7.546,4.356a.876.876,0,1,1-.9-1.5l7.409-4.638-6.131,3.549a.876.876,0,0,1-.92-1.488L29.552,33.615,11.459,44.055a.876.876,0,0,1-.923-1.486L26.354,32.034,13.138,39.662a.876.876,0,0,1-.911-1.495L14.3,36.841a.866.866,0,0,1-.85-.4.876.876,0,0,1,.235-1.186L23.174,28.6,18.349,31.38a.876.876,0,0,1-.95-1.47L22.558,26.2a.855.855,0,0,1-.219-.254.876.876,0,0,1,.319-1.2l9.734-5.62a.876.876,0,0,1,.95,1.47l-.69.5,6.82-3.932a.876.876,0,0,1,.941,1.475L30.924,25.3l15-8.657a.876.876,0,0,1,.909,1.495l-.787.5L49.2,16.818a.876.876,0,0,1,.923,1.488l-15.81,10.53L53.855,17.554a.876.876,0,0,1,.922,1.489L34.7,32.307,58.114,18.791a.876.876,0,1,1,.9,1.5L51.63,24.916l8.909-5.141a.876.876,0,0,1,.9,1.5l-8.618,5.381,10-5.772a.876.876,0,0,1,.906,1.5L48.164,32.2,65.3,22.3a.876.876,0,0,1,.9,1.5l-9,5.583,10.022-5.783A.876.876,0,0,1,68.13,25.1L40.382,43,70.045,25.874a.877.877,0,1,1,.913,1.5L42.251,45.83l30.316-17.5a.876.876,0,0,1,.906,1.5L50.964,44.008l23.45-13.544a.876.876,0,0,1,.909,1.5L46.862,50.13,76.333,33.115a.876.876,0,1,1,.9,1.5L59,45.983l18.64-10.765a.877.877,0,1,1,.9,1.505l-11.662,7.2,11.779-6.8a.876.876,0,0,1,.906,1.5L52.871,55.568,79.9,39.972a.876.876,0,0,1,.909,1.5L52.573,59.525l28.411-16.4a.876.876,0,0,1,.894,1.505l-2.72,1.666,2.311-1.334a.876.876,0,0,1,.913,1.493L54.034,64.743,82.11,48.536a.876.876,0,0,1,.9,1.5L72.444,56.6l9.9-5.716a.879.879,0,1,1,.9,1.511l-3.45,2.12,2.629-1.519a.876.876,0,0,1,.9,1.5l-9.4,5.86,8.446-4.875a.876.876,0,0,1,.918,1.489L59.449,72.622,81.9,59.654a.876.876,0,0,1,.916,1.493L64.548,73.084,81,63.588a.876.876,0,0,1,.913,1.495l-9.85,6.335,7.8-4.5a.876.876,0,1,1,.925,1.488l-12.5,8.357,9.529-5.5a.876.876,0,0,1,.943,1.472l-10.339,7.3,5.572-3.217a.876.876,0,0,1,.952,1.468l-5.257,3.789a.876.876,0,0,1-.084,1.46l-9.733,5.62a.876.876,0,0,1-.952-1.468l1-.725-7.235,4.176a.876.876,0,0,1-.943-1.472l10.337-7.306-16.055,9.27a.876.876,0,0,1-.44.124Z" transform="translate(6.324 12.061)" fill="#43a99b"/>
    <path id="Trazado_226632" data-name="Trazado 226632" d="M41.093,81.649a.876.876,0,0,1-.5-1.595L54.4,70.416,36.5,80.755a.876.876,0,0,1-.909-1.5L37.884,77.8l-3.866,2.231a.876.876,0,0,1-.906-1.5l.056-.035-1.265.729a.876.876,0,0,1-.922-1.489L48.716,65.981,28.629,77.573a.876.876,0,1,1-.918-1.493l17.334-11.3L25.956,75.81a.876.876,0,0,1-.908-1.5L37.49,66.4,23.955,74.212a.876.876,0,1,1-.9-1.5l4.931-3.077-5.52,3.181a.876.876,0,0,1-.909-1.5L39.044,60.1,20.615,70.739a.876.876,0,0,1-.911-1.495l17.637-11.3L18.959,68.557a.876.876,0,0,1-.9-1.5l13.03-8.236-13.37,7.721a.876.876,0,1,1-.9-1.5l3.722-2.3-3.7,2.133a.876.876,0,0,1-.908-1.493l11.844-7.467L15.91,62.764a.876.876,0,1,1-.9-1.5l9.864-6.2-9.7,5.608a.876.876,0,0,1-.911-1.495L31.769,47.913,14.464,57.9a.876.876,0,0,1-.918-1.489L33.635,43.269,13.977,54.594a.876.876,0,0,1-.909-1.495l12.682-8.131L13.842,51.843a.876.876,0,0,1-.923-1.488L31.294,38.117l-17.2,9.931a.876.876,0,0,1-.918-1.491l8.587-5.548L14.6,45.144a.876.876,0,0,1-.93-1.484l13.283-9-11.078,6.4a.876.876,0,0,1-.955-1.465l12.713-9.308-8.79,5.082a.876.876,0,0,1-.981-1.446L24,29.091a.876.876,0,0,1-.258-1.616l8.714-5.034a.876.876,0,0,1,.981,1.446l-4.9,3.855,12.226-7.057a.876.876,0,0,1,.955,1.465L29,31.456,47.172,20.972a.876.876,0,0,1,.929,1.484l-13.283,9L51.353,21.91a.876.876,0,0,1,.915,1.495l-8.6,5.551L54.141,22.91a.876.876,0,1,1,.925,1.488L36.689,36.629,57.542,24.587a.876.876,0,0,1,.909,1.5l-12.68,8.127,14.084-8.129a.876.876,0,0,1,.916,1.489L40.688,40.723,62.473,28.157a.876.876,0,0,1,.913,1.495L45.879,40.914,64.5,30.16a.876.876,0,1,1,.9,1.5l-9.874,6.2,10.425-6.028a.876.876,0,0,1,.906,1.5L55.022,40.8l12.315-7.108a.876.876,0,0,1,.9,1.5l-3.666,2.278,3.776-2.178a.876.876,0,0,1,.9,1.5l-13.03,8.236,13.237-7.642a.876.876,0,0,1,.909,1.5L52.706,50.189,70.539,39.9a.876.876,0,0,1,.909,1.495L53.957,52.616,71.393,42.55a.876.876,0,1,1,.9,1.5L67.41,47.1l4.449-2.569a.876.876,0,0,1,.908,1.5L60.314,53.955l11.948-6.9a.876.876,0,0,1,.918,1.491L55.832,59.85l16.607-9.585a.876.876,0,0,1,.922,1.488L55.634,63.493l16.6-9.577a.876.876,0,0,1,.9,1.5l-1.011.636a.888.888,0,0,1,.93.4.876.876,0,0,1-.279,1.193l-2.294,1.461.783-.45a.876.876,0,0,1,.939,1.475L58.389,69.771l11.038-6.365a.876.876,0,0,1,.952,1.468l-8.937,6.473,4.731-2.728a.876.876,0,0,1,.955,1.465l-4.449,3.252a.852.852,0,0,1,.188.228.876.876,0,0,1-.321,1.2l-8.714,5.024a.876.876,0,0,1-.953-1.465l.044-.032L47.68,81.316a.876.876,0,0,1-.952-1.468l8.937-6.475L41.533,81.53a.876.876,0,0,1-.44.119Z" transform="translate(9.314 15.092)" fill="#eaf2f2"/>
    <path id="Trazado_226633" data-name="Trazado 226633" d="M54.075,39.311a.876.876,0,0,1-.606-1.509l5.082-4.87L53.067,36.09a.876.876,0,0,1-1.051-1.377l4.03-4.03a.876.876,0,0,1-.731-1.577l5.578-3.221a.876.876,0,0,1,1.051,1.377L57.956,31.25l6-3.461A.876.876,0,0,1,65,29.181l-5.082,4.868,4.03-2.329A.876.876,0,0,1,65,33.106l-1.051,1.022a.876.876,0,0,1,1.185,1.213l-.62,1.022a.877.877,0,0,1,.217,1.607l-2.038,1.167A.876.876,0,0,1,61.5,37.923l.35-.573L58.72,39.157a.876.876,0,0,1-1.051-1.386l1.051-1.027L54.5,39.18A.857.857,0,0,1,54.075,39.311Z" transform="translate(38.833 19.008)" fill="#f5d194"/>
    <path id="Trazado_226634" data-name="Trazado 226634" d="M63.794,14.409a.876.876,0,0,1-.855-1.064l.37-1.682-2.979,1.714a.876.876,0,0,1-1.09-1.342L60.254,10.9l-2.171,1.253a.876.876,0,0,1-1.051-1.388l1.791-1.733-2.616,1.511a.876.876,0,0,1-1.062-1.374L58.57,5.705,54.408,8.113A.876.876,0,0,1,53.367,6.72l.876-.831-.673.389a.876.876,0,0,1-1.314-.789l.091-2.716a.876.876,0,0,1-.359-1.631l.843-.487a.876.876,0,0,1,1.314.787l-.086,2.534L59.816.655a.876.876,0,0,1,1.039,1.4l-.876.829L63.338.937A.876.876,0,0,1,64.4,2.311L60.978,5.773l3.154-1.815a.876.876,0,0,1,1.051,1.388L63.4,7.075l.754-.435a.876.876,0,0,1,1.09,1.342l-1.02,1.139a.876.876,0,0,1,1.239.976l-.477,2.171a.876.876,0,0,1,.075,1.556l-.811.468a.89.89,0,0,1-.452.116Z" transform="translate(38.668 0.012)" fill="#f5d194"/>
    <path id="Trazado_226635" data-name="Trazado 226635" d="M3.078,14.335a.876.876,0,0,1-.561-1.551l1.991-1.656L1.864,12.646A.877.877,0,1,1,.9,11.181l.782-.589a.876.876,0,0,1-.9-1.426L4.6,5.03,1.864,6.607A.876.876,0,0,1,.637,5.47l.964-2A.888.888,0,0,1,.76,3.036a.876.876,0,0,1,.321-1.2L3.126.667A.876.876,0,0,1,4.352,1.8l-.9,1.875L8.716.63A.876.876,0,0,1,9.8,1.983L5.98,6.12l7.078-4.086a.876.876,0,0,1,.966,1.458l-1.151.867a.888.888,0,0,1,.8.371.876.876,0,0,1-.159,1.176L11,8.009a.876.876,0,0,1,.438,1.635L3.516,14.207A.864.864,0,0,1,3.078,14.335Z" transform="translate(0.264 0)" fill="#f5d194"/>
    <path id="Trazado_226636" data-name="Trazado 226636" d="M7.258,39.422a.876.876,0,0,1-.69-1.416L8.5,35.535,2.546,38.97A.876.876,0,0,1,1.479,37.6L5.017,33.97,1.845,35.795A.876.876,0,0,1,.829,34.382l.675-.589a.887.887,0,0,1-.773-.314.876.876,0,0,1,.009-1.129l1.4-1.624-.3.175A.876.876,0,0,1,.55,29.958L1.044,27.7a.857.857,0,0,1-.4-.35.876.876,0,0,1,.317-1.2l.813-.471a.876.876,0,0,1,1.295.945L2.686,28.4l3.049-1.775a.876.876,0,0,1,1.1,1.33l-1.4,1.624,2.718-1.568a.876.876,0,0,1,1.015,1.419l-.391.338.845-.485a.876.876,0,0,1,1.065,1.369L7.151,34.281l4.367-2.516a.876.876,0,0,1,1.129,1.3l-1.928,2.473,1.928-1.113a.876.876,0,0,1,1.274,1.022L13.5,36.788a.839.839,0,0,1,.808.436.876.876,0,0,1-.335,1.2l-1.519.876a.876.876,0,0,1-1.274-1.023l.382-1.209L7.7,39.3a.859.859,0,0,1-.438.123Z" transform="translate(0.283 18.844)" fill="#f5d194"/>
    <g id="Grupo_177542" data-name="Grupo 177542" transform="translate(0.153 0.763)">
      <path id="Trazado_226637" data-name="Trazado 226637" d="M99.122.746H92.195C63.29.723,33.866.757,4.821.746-2.323.445,1.052,9.532.366,13.98c.093,13.908-.14,27.862,0,41.741,1.588,4.339,8.718,1.27,12.4,2.127.734.7,1.752-.166,2.674,0-10.4,60.447,83.778,59.986,74.13.012h.321c3.9-.526,13.006,2.034,14.653-2.629.014-10.635-.012-21.295,0-31.938-.773-7.109,1.556-15.542-.79-22.132-1.085-.8-3.4-.415-4.631-.415Zm.258,1.027c4.952-.175,1.775,7.7,2.629,10.865A11.793,11.793,0,0,1,92.324,1.773Zm-92.4,0h5.65C12.61,7.144,8.419,12.573,2.906,12.9c-.217-3.5.454-7.915-.3-11.124.308-.4,3.888,0,4.369,0ZM5.047,56.821c-4.225-.876-1.344-7.61-2.14-10.8A11.771,11.771,0,0,1,12.6,56.886c-2.525.051-5.052.082-7.551-.065ZM64.776,100C6.629,116.439-.75,22.813,59.464,30.862,93.646,37.244,97.788,88.64,64.776,100ZM52.849,9.033c12.587.526,21.112,12.648,18.908,24.533a38.562,38.562,0,0,0-38.439.242C30.573,21.492,39.577,8.486,52.849,9.033ZM73.932,34.927c8.042-36.205-51.018-35.245-42.98.359A37.062,37.062,0,0,0,15.707,56.84h-.545A12.936,12.936,0,0,0,2.907,44.315V13.98A13.523,13.523,0,0,0,15.13,1.773H89.747A12.836,12.836,0,0,0,102.013,14.2V44.416a13.551,13.551,0,0,0-12.233,12.4h-.45A37.8,37.8,0,0,0,73.932,34.927Zm27.337,21.894H92.316A11.054,11.054,0,0,1,102,45.888c-.391,1.931.99,11.622-.727,10.933Z" transform="translate(-0.153 -0.655)" fill="#262626"/>
      <path id="Trazado_226638" data-name="Trazado 226638" d="M16.54,13.018C3.525,9.018.7,30,14.8,28,22.588,26.969,24.314,15.533,16.54,13.018Zm-1.111,13.3C6.569,28.989,4.771,12.894,14.2,14.276c5.72,1.086,6.808,9.957,1.227,12.047Z" transform="translate(3.816 8.264)" fill="#262626"/>
      <path id="Trazado_226639" data-name="Trazado 226639" d="M61.879,20.092c-.331-13.067-21.967-7.065-15.431,4.325C50.443,30.964,61.884,27.778,61.879,20.092ZM49.273,24.081c-6.319-9.2,9.249-14.942,10.055-3.6a5.555,5.555,0,0,1-10.055,3.6Z" transform="translate(33.751 8.399)" fill="#262626"/>
      <path id="Trazado_226640" data-name="Trazado 226640" d="M52.895,22.017C2.457,9.3-2.557,88.82,49.476,80.785,79.4,75.4,82.416,30.486,52.895,22.017Zm-.4,56.641C5.609,91.317,1.086,14.508,49.4,22.8,76.49,28.777,79.024,69.934,52.5,78.658Z" transform="translate(9.281 14.378)" fill="#262626"/>
      <path id="Trazado_226641" data-name="Trazado 226641" d="M29.621,27.945c2.071,1.167,2.937-1.954,1.945-3.266C29.5,23.508,28.629,26.632,29.621,27.945Z" transform="translate(21.708 17.225)" fill="#262626"/>
      <path id="Trazado_226642" data-name="Trazado 226642" d="M25.22,26.7c-1.893-1.188-3.275.966-1.495,2.385C25.644,29.677,26.678,28.161,25.22,26.7Z" transform="translate(16.96 18.677)" fill="#262626"/>
      <path id="Trazado_226643" data-name="Trazado 226643" d="M20.579,31.4c-1.887-.822-3.845.768-1.051,1.686,1.719.527,3.589-.824,1.051-1.686Z" transform="translate(13.374 22.302)" fill="#262626"/>
      <path id="Trazado_226644" data-name="Trazado 226644" d="M20.136,39.013c1.744-1.856-2.5-1.85-3.438-1.164C14.954,39.705,19.2,39.7,20.136,39.013Z" transform="translate(11.981 27.01)" fill="#262626"/>
      <path id="Trazado_226645" data-name="Trazado 226645" d="M19.749,44.186c-2.474,1.022-1.954,2.12.431.967C22.653,44.131,22.134,43.032,19.749,44.186Z" transform="translate(13.368 31.724)" fill="#262626"/>
      <path id="Trazado_226646" data-name="Trazado 226646" d="M25.767,48.066c-1.342-.631-3.713,1.91-2.667,2.8C24.443,51.507,26.813,48.966,25.767,48.066Z" transform="translate(16.916 34.939)" fill="#262626"/>
      <path id="Trazado_226647" data-name="Trazado 226647" d="M31.59,49.7c-1.963-.867-2.967,1.731-2,3.056C31.551,53.626,32.555,51.027,31.59,49.7Z" transform="translate(21.713 36.115)" fill="#262626"/>
      <path id="Trazado_226648" data-name="Trazado 226648" d="M37.743,48.416c-1.824-1.507-3.321.845-1.577,2.353C38.035,51.761,39.285,49.86,37.743,48.416Z" transform="translate(26.358 34.913)" fill="#262626"/>
      <path id="Trazado_226649" data-name="Trazado 226649" d="M43.407,44.531c-.834-1.016-4.4-1.518-3.533.375C40.709,45.922,44.273,46.424,43.407,44.531Z" transform="translate(29.63 31.675)" fill="#262626"/>
      <path id="Trazado_226650" data-name="Trazado 226650" d="M41.611,38.1c-1.528,1.283,4.237,1.1,3.815-.28a5.921,5.921,0,0,0-3.815.28Z" transform="translate(30.843 27.163)" fill="#262626"/>
      <path id="Trazado_226651" data-name="Trazado 226651" d="M40.334,32.3c-2.381,1.938,2.93.35,3.338-.72C43.055,30.43,41.185,31.855,40.334,32.3Z" transform="translate(29.616 22.28)" fill="#262626"/>
      <path id="Trazado_226652" data-name="Trazado 226652" d="M35.457,29.078c1.577.433,2.9-1.116,3.133-2.464C37.278,25.633,34.821,27.95,35.457,29.078Z" transform="translate(26.33 18.697)" fill="#262626"/>
      <path id="Trazado_226653" data-name="Trazado 226653" d="M40.609,49.043c-2.855-1.793-5.872-3.359-8.683-5.21V29.89c-4.8-2-1.838,11.916-2.453,14.823C32.061,45.577,39.006,52.467,40.609,49.043Z" transform="translate(21.642 21.193)" fill="#262626"/>
    </g>
  </g>
</svg>
