<svg xmlns="http://www.w3.org/2000/svg" width="178" height="176.674" viewBox="0 0 178 176.674">
  <g id="soporte-tecnico" transform="translate(-0.269 -0.471)">
    <g id="Grupo_177550" data-name="Grupo 177550" transform="translate(1.198 1.452)">
      <path id="Trazado_226672" data-name="Trazado 226672" d="M74.991,53.727a1.5,1.5,0,0,1-.934-2.668l5.878-4.68L67.751,53.41a1.5,1.5,0,0,1-1.7-2.455L79.175,40.261l-15.943,9.2A1.5,1.5,0,0,1,61.54,47L74.791,36.3l-16.03,9.253a1.5,1.5,0,0,1-1.629-2.506l5.42-3.932L55.83,43.01a1.5,1.5,0,0,1-1.683-2.467L65.454,31.49,51.721,39.417a1.5,1.5,0,0,1-1.647-2.494l9.633-7.2L48.221,36.341a1.5,1.5,0,0,1-1.647-2.494L57.9,25.358,44.5,33.092a1.5,1.5,0,0,1-1.6-2.53l2.2-1.512L43.63,29.9a1.5,1.5,0,0,1-1.686-2.467L55.95,16.239,42.873,23.794a1.5,1.5,0,0,1-1.7-2.452L51.8,12.574l-9.624,5.558a1.5,1.5,0,0,1-1.83-2.33l6.642-6.914a1.5,1.5,0,0,1-1.345-2.671l8.939-5.171a1.5,1.5,0,0,1,1.83,2.33L49.79,10.262,65.858,1a1.5,1.5,0,0,1,1.7,2.452L56.938,12.215l14.7-8.489a1.5,1.5,0,0,1,1.686,2.467l-14,11.187L76.111,7.69a1.5,1.5,0,0,1,1.6,2.527L75.5,11.742l2.6-1.5a1.5,1.5,0,0,1,1.647,2.494l-11.328,8.48,11.634-6.714A1.5,1.5,0,0,1,81.7,17l-9.63,7.2,8.983-5.177a1.5,1.5,0,0,1,1.686,2.464L71.419,30.547,86,22.132a1.5,1.5,0,0,1,1.626,2.506L82.2,28.577l7.723-4.456a1.5,1.5,0,0,1,1.692,2.458l-13.248,10.7,15.452-8.927a1.5,1.5,0,0,1,1.695,2.455L82.394,41.5l13.412-7.741a1.5,1.5,0,0,1,1.68,2.464L91.6,40.908l4.216-2.432a1.5,1.5,0,0,1,1.8,2.351l-4.255,4.294a1.5,1.5,0,0,1,1.057,2.758l-9.067,5.237a1.5,1.5,0,0,1-1.8-2.354l4.064-4.1L75.74,53.524a1.476,1.476,0,0,1-.749.2Z" transform="translate(77.909 -0.799)" fill="#def2f4"/>
      <path id="Trazado_226673" data-name="Trazado 226673" d="M22.1,53.509a1.5,1.5,0,0,1-.859-2.722L38.456,38.734,14.14,52.772a1.5,1.5,0,0,1-1.605-2.524L36.827,33.269,8.127,49.844A1.5,1.5,0,0,1,6.561,47.3l9.433-6.13L5.513,47.211a1.5,1.5,0,0,1-1.575-2.545l14.91-9.828L3.636,43.618a1.5,1.5,0,0,1-1.608-2.524L28.143,22.827,2.866,37.425A1.5,1.5,0,0,1,1.288,34.88l10.346-6.854L4.267,32.281a1.5,1.5,0,0,1-1.767-2.4L14.05,19.2a1.47,1.47,0,0,1-.314-.386,1.5,1.5,0,0,1,.545-2.051l6.528-3.77a1.5,1.5,0,0,1,1.767,2.4L14.356,23,52.305,1.09A1.5,1.5,0,0,1,53.88,3.633l-10.358,6.86,12.99-7.486a1.5,1.5,0,0,1,1.605,2.521L32.005,23.795,61.351,6.855A1.5,1.5,0,0,1,62.924,9.4L47.981,19.243l15.7-9.067a1.5,1.5,0,0,1,1.566,2.551l-9.37,6.082L65.3,13.371A1.5,1.5,0,0,1,66.9,15.9L42.6,32.883,66.744,18.946a1.5,1.5,0,0,1,1.608,2.521L51.143,33.509l4.9-2.821a1.5,1.5,0,0,1,1.638,2.5l-13.017,9.6a1.339,1.339,0,0,1,.3.374,1.5,1.5,0,0,1-.545,2.042L30.391,53.293a1.5,1.5,0,0,1-1.638-2.5l5.69-4.192-11.6,6.7a1.476,1.476,0,0,1-.749.213Z" transform="translate(-0.579 -0.589)" fill="#def2f4"/>
      <path id="Trazado_226674" data-name="Trazado 226674" d="M12.082,8.987A1.5,1.5,0,0,1,11.333,6.2l8.933-5.16a1.5,1.5,0,1,1,1.5,2.59L12.83,8.786A1.479,1.479,0,0,1,12.082,8.987Z" transform="translate(19.386 -0.79)" fill="#def2f4"/>
    </g>
    <path id="Trazado_226675" data-name="Trazado 226675" d="M37.748,73.574a1.5,1.5,0,0,1-.8-2.761l7.609-4.839-12.813,7.4a1.5,1.5,0,0,1-1.584-2.542L64.893,47.605,23.428,71.543a1.5,1.5,0,0,1-1.536-2.566l.934-.581-2.144,1.237a1.5,1.5,0,0,1-1.548-2.56L39.167,54.367l-21.5,12.415a1.5,1.5,0,0,1-1.56-2.554L47.261,44.09,14.942,62.752A1.5,1.5,0,1,1,13.4,60.185l11.11-6.956L13.594,59.517a1.5,1.5,0,0,1-1.551-2.56L32.133,44.2l-19.3,11.139A1.5,1.5,0,0,1,11.262,52.8L46.917,29.1,13.2,48.561a1.5,1.5,0,0,1-1.551-2.536l13.6-8.684L15.28,43.093a1.5,1.5,0,0,1-1.6-2.527l12.595-8.717c-.045-.051-.093-.1-.135-.156a1.5,1.5,0,0,1,.126-1.97L30.4,25.575a1.5,1.5,0,0,1-.446-2.764l7.723-4.459a1.5,1.5,0,0,1,1.812,2.354l-3.12,3.117,9.01-5.2a1.5,1.5,0,0,1,1.6,2.524l-1.521,1.057L81.953,1.137a1.5,1.5,0,0,1,1.554,2.557L69.918,12.378,86.537,2.8a1.5,1.5,0,0,1,1.578,2.539L52.454,29.016l39.6-22.857a1.5,1.5,0,0,1,1.551,2.557L73.526,21.469,95.086,9.018a1.5,1.5,0,0,1,1.542,2.563l-11.08,6.941L97.5,11.636a1.5,1.5,0,0,1,1.56,2.551L67.891,34.334l32.221-18.6a1.5,1.5,0,0,1,1.548,2.557l-20.018,12.7,20.036-11.571a1.5,1.5,0,1,1,1.539,2.569l-1.027.638.53-.3a1.5,1.5,0,1,1,1.581,2.543l-34.715,23.2,34.035-19.65a1.5,1.5,0,0,1,1.551,2.56l-7.6,4.833,9.582-5.525a1.5,1.5,0,0,1,1.6,2.527l-28.331,19.6,34.02-19.65a1.5,1.5,0,0,1,1.6,2.527l-24.9,17.245,27.831-16.068a1.5,1.5,0,0,1,1.617,2.515L98.6,54.538l23.552-13.6a1.5,1.5,0,0,1,1.587,2.533l-9.768,6.627,9.69-5.594a1.5,1.5,0,0,1,1.671,2.476L108.622,60.012l16.056-9.268a1.5,1.5,0,0,1,1.653,2.488l-7.54,5.734,5.192-2.994a1.5,1.5,0,0,1,1.8,2.366l-6.654,6.51a1.5,1.5,0,0,1,1.419,2.635L110.364,73.37a1.5,1.5,0,0,1-1.8-2.366l6.648-6.5L99.848,73.37a1.5,1.5,0,0,1-1.656-2.488l7.54-5.731L91.49,73.37a1.5,1.5,0,0,1-1.671-2.476l16.709-13.035L79.659,73.373a1.5,1.5,0,0,1-1.59-2.536l9.759-6.618L71.972,73.373a1.5,1.5,0,0,1-1.614-2.518L92.353,55.283,61.027,73.376a1.5,1.5,0,0,1-1.6-2.527l24.9-17.242L50.082,73.37a1.5,1.5,0,0,1-1.6-2.527L76.811,51.25,38.482,73.37a1.479,1.479,0,0,1-.734.2Z" transform="translate(20.674 0.948)" fill="#d6dbe3"/>
    <path id="Trazado_226676" data-name="Trazado 226676" d="M24.405,18.586a1.5,1.5,0,0,1-.949-2.65l5.8-4.776a1.5,1.5,0,0,1,0-2.587L39.9,2.428a1.5,1.5,0,0,1,1.7,2.449l-2.258,1.86L49.727.748a1.5,1.5,0,1,1,1.5,2.593L25.154,18.373a1.47,1.47,0,0,1-.749.213Z" transform="translate(45.165 0.151)" fill="#d6dbe3"/>
    <path id="Trazado_226677" data-name="Trazado 226677" d="M43.6,85.28a1.5,1.5,0,0,1-.85-2.728l14.433-9.963L35.549,85.067a1.5,1.5,0,0,1-1.617-2.515L55.986,66.879,24.478,85.067a1.5,1.5,0,0,1-1.614-2.515l24.127-17.1L17.8,82.312a1.5,1.5,0,0,1-1.572-2.542l8.292-5.483L17.765,78.18a1.5,1.5,0,0,1-1.635-2.5L33.525,62.908l-15.248,8.8a1.5,1.5,0,0,1-1.707-2.444L30.045,58.054,21.31,63.088a1.5,1.5,0,0,1-1.689-2.464l5.168-4.162a1.42,1.42,0,0,1-.377-.44,1.5,1.5,0,0,1,.548-2.045L35.244,48.04A1.5,1.5,0,0,1,36.933,50.5l-.407.329,7.133-4.093a1.5,1.5,0,0,1,1.707,2.443L31.9,60.387,55.555,46.732a1.5,1.5,0,0,1,1.635,2.5L39.816,62.01,66.273,46.738a1.5,1.5,0,0,1,1.575,2.542l-8.286,5.471,13.823-7.98A1.5,1.5,0,0,1,75,49.289L50.86,66.4,81.985,48.43A1.5,1.5,0,0,1,83.6,50.945L61.544,66.6,87.9,51.385a1.5,1.5,0,0,1,1.6,2.527L75.052,63.878,91.57,54.347a1.5,1.5,0,0,1,1.611,2.518L80.553,65.747l14.011-8.085a1.5,1.5,0,0,1,1.629,2.506L85.216,68.136l11.711-6.762a1.5,1.5,0,0,1,1.695,2.458L87.141,73.2,98.85,66.442a1.5,1.5,0,0,1,1.638,2.5l-.65.479a1.5,1.5,0,0,1,1.479,2.444l-5.3,6.016,3.923-2.264a1.5,1.5,0,0,1,2.072,1.994l-1.443,2.737a1.5,1.5,0,0,1,.6,2.791L97.8,85.076a1.5,1.5,0,0,1-2.075-2l1.2-2.276L89.54,85.067a1.5,1.5,0,0,1-1.869-2.285L93,76.764l-14.383,8.3a1.5,1.5,0,0,1-1.638-2.5l.237-.171-4.635,2.671a1.5,1.5,0,0,1-1.695-2.455l11.478-9.367L61.877,85.067a1.5,1.5,0,0,1-1.629-2.506L71.222,74.6,53.082,85.076a1.5,1.5,0,0,1-1.611-2.518l12.643-8.891L44.35,85.076a1.5,1.5,0,0,1-.755.2Z" transform="translate(30.449 91.866)" fill="#eeac3a"/>
    <path id="Trazado_226678" data-name="Trazado 226678" d="M36.456,73.441a1.5,1.5,0,0,1-1.069-2.548l4.1-4.174-4.534,2.617a1.5,1.5,0,0,1-1.755-2.4l6.288-5.707L32.6,65.209a1.5,1.5,0,0,1-1.767-2.4l9.193-8.537L29.742,60.212a1.5,1.5,0,0,1-1.812-2.351l6.657-6.7-6.812,3.929a1.5,1.5,0,0,1-1.815-2.345l1.668-1.7a1.5,1.5,0,0,1-2.042-1.773l.776-2.764a1.47,1.47,0,0,1-.629-.6,1.5,1.5,0,0,1,.545-2.045l1.5-.871a1.5,1.5,0,0,1,2.192,1.7l-.515,1.842,6.178-3.569a1.5,1.5,0,0,1,1.818,2.345l-1.653,1.683,7.022-4.055a1.5,1.5,0,0,1,1.8,2.354l-6.654,6.7,12.077-6.974a1.5,1.5,0,0,1,1.767,2.4l-9.2,8.531,7.441-4.294a1.5,1.5,0,0,1,1.755,2.4l-6.288,5.713,1.97-1.138A1.5,1.5,0,0,1,49.3,60.963l-5.157,5.252a1.476,1.476,0,0,1,.955.71,1.5,1.5,0,0,1-.545,2.045L37.18,73.226a1.464,1.464,0,0,1-.725.216Z" transform="translate(50.384 84.327)" fill="#e2ac7f"/>
    <path id="Trazado_226679" data-name="Trazado 226679" d="M47.544,88.16a1.5,1.5,0,0,1-.874-2.713l2.557-1.839L42.7,87.378a1.5,1.5,0,0,1-1.6-2.527l3.929-2.725-6.633,3.83a1.5,1.5,0,0,1-1.584-2.536l2.716-1.836-4.6,2.653A1.5,1.5,0,0,1,33.3,81.728L51.057,68.908,30.547,80.745a1.5,1.5,0,0,1-1.608-2.521L47.221,65.387,27.457,76.8a1.5,1.5,0,0,1-1.6-2.527L45.02,61,25.232,72.43a1.5,1.5,0,0,1-1.605-2.524L46.086,54.247,23.573,67.24a1.5,1.5,0,0,1-1.593-2.53L42.265,50.854,22.828,62.075a1.5,1.5,0,0,1-1.611-2.521L46.266,41.91,22.783,55.448a1.5,1.5,0,0,1-1.6-2.53l12.388-8.51-10.78,6.229a1.5,1.5,0,0,1-1.638-2.5l12.927-9.552L22.795,45.1a1.5,1.5,0,0,1-1.689-2.458l9.549-7.72-7.873,4.552a1.5,1.5,0,0,1-1.845-2.315l6.324-6.786-4.492,2.584a1.5,1.5,0,0,1-2.216-1.587l.988-4.995a1.464,1.464,0,0,1-.814-.671,1.5,1.5,0,0,1,.545-2.042l1.5-.865a1.5,1.5,0,0,1,2.216,1.587l-.856,4.33,10.289-5.938a1.5,1.5,0,0,1,1.845,2.315L29.94,31.878,45.733,22.76a1.5,1.5,0,0,1,1.692,2.458l-9.555,7.717L55.536,22.754a1.5,1.5,0,0,1,1.638,2.5L44.25,34.786,65.161,22.715a1.5,1.5,0,0,1,1.6,2.53l-12.379,8.5L73.515,22.7a1.5,1.5,0,0,1,1.611,2.521L50.092,42.871,75.007,28.5A1.5,1.5,0,0,1,76.6,31.031L56.3,44.9l18.7-10.8a1.5,1.5,0,0,1,1.605,2.524L54.153,52.28,75.01,40.239a1.5,1.5,0,0,1,1.6,2.527L57.447,56.038,75.007,45.9a1.5,1.5,0,0,1,1.608,2.518L58.327,61.251l16.679-9.627a1.5,1.5,0,0,1,1.626,2.509L58.866,66.962l16.14-9.319a1.5,1.5,0,0,1,1.584,2.536L73.9,62l.9-.512a1.5,1.5,0,0,1,1.6,2.524L72.47,66.74l1.41-.811A1.5,1.5,0,0,1,75.5,68.441l-2.941,2.1a1.5,1.5,0,0,1,1.41,2.554l-6.016,5.444a1.5,1.5,0,0,1,.3,2.725l-9.31,5.39a1.5,1.5,0,0,1-1.752-2.4l4.318-3.893L48.3,87.956a1.476,1.476,0,0,1-.752.2Z" transform="translate(40.403 43.928)" fill="#eebd91"/>
    <path id="Trazado_226680" data-name="Trazado 226680" d="M52.931,47.327a1.5,1.5,0,0,1-1.318-2.2l.707-1.321-.072.042a1.5,1.5,0,0,1-2.1-1.946l2.018-4.153-3.617,2.1a1.5,1.5,0,0,1-1.907-2.246l2.015-2.452L44.9,37.31a1.476,1.476,0,0,1-1.866-.3,1.5,1.5,0,0,1-.087-1.89l4.312-5.788-8.8,5.091a1.5,1.5,0,0,1-1.719-2.435l1.093-.934L34.111,33.2a1.5,1.5,0,1,1-1.5-2.593L50.464,20.3a1.5,1.5,0,0,1,1.719,2.432l-1.1.949.964-.557a1.5,1.5,0,0,1,1.949,2.192L49.679,31.1l4.609-2.656a1.5,1.5,0,0,1,1.9,2.246l-2.015,2.452.71-.407a1.5,1.5,0,0,1,2.1,1.949l-2.006,4.147.419-.24a1.5,1.5,0,0,1,2.066,2l-2.135,3.959a1.5,1.5,0,0,1-.6,1.97l-1.048.6a1.5,1.5,0,0,1-.749.2Z" transform="translate(63.018 39.172)" fill="#80624b"/>
    <path id="Trazado_226681" data-name="Trazado 226681" d="M23.817,56.7a1.5,1.5,0,0,1-.865-2.719l19.1-13.55L21.972,52.023A1.5,1.5,0,0,1,20.4,49.481l3.623-2.4-2.243,1.3a1.5,1.5,0,0,1-1.584-2.539l5.276-3.548-3.264,1.884a1.5,1.5,0,0,1-1.662-2.482L35.953,29.87,24.119,36.712a1.5,1.5,0,0,1-1.767-2.4l8.882-8.256A1.5,1.5,0,0,1,30.186,23.3L40.951,17.08a1.5,1.5,0,0,1,1.767,2.4L34.082,27.51l20.15-11.637a1.5,1.5,0,0,1,1.662,2.482L40.475,30.19,61.838,17.847a1.5,1.5,0,1,1,1.587,2.539l-5.267,3.542,7.214-4.165a1.5,1.5,0,0,1,1.572,2.545L63.35,24.7l5.007-2.89a1.5,1.5,0,0,1,1.614,2.518L50.854,37.862,72.258,25.5a1.5,1.5,0,0,1,1.65,2.488L54.633,42.572a1.5,1.5,0,0,1,.231,2.7L38.693,54.6a1.5,1.5,0,0,1-1.653-2.488l15.8-11.954L24.562,56.491a1.47,1.47,0,0,1-.746.207Z" transform="translate(38.414 30.323)" fill="#eeac3a"/>
    <path id="Trazado_226682" data-name="Trazado 226682" d="M26.085,53.222a1.5,1.5,0,0,1-1.234-2.348l1.955-2.833-6.558,3.782a1.5,1.5,0,0,1-1.8-2.372l3.593-3.489-3.98,2.306a1.5,1.5,0,0,1-1.764-2.4l4.492-4.12-3.018,1.74a1.5,1.5,0,0,1-1.746-2.411l2.4-2.126-.65.374a1.5,1.5,0,0,1-2.045-2.039L18.7,32.128l-.045.024a1.5,1.5,0,0,1-1.5-2.59l4.872-2.815a1.5,1.5,0,0,1,2.048,2.042l-2.971,5.165,8.552-4.941A1.5,1.5,0,0,1,31.4,31.431l-2.4,2.123L31.014,32.4a1.5,1.5,0,0,1,1.764,2.4l-4.492,4.123,2.776-1.6a1.5,1.5,0,0,1,1.788,2.372l-3.593,3.492,1.818-1.048a1.5,1.5,0,0,1,1.979,2.147l-2.186,3.162a1.587,1.587,0,0,1,1.354.749,1.5,1.5,0,0,1-.545,2.045l-4.833,2.791a1.47,1.47,0,0,1-.758.2Z" transform="translate(30.447 52.005)" fill="#43a99b"/>
    <path id="Trazado_226683" data-name="Trazado 226683" d="M49.093,53.21a1.473,1.473,0,0,1-1.126-.512,1.5,1.5,0,0,1-.06-1.9l1.1-1.431L43.9,52.315a1.5,1.5,0,0,1-1.758-2.4l1.5-1.38-2.162,1.249a1.5,1.5,0,0,1-1.8-2.357L45.7,41.418l-4.929,2.845a1.5,1.5,0,0,1-1.833-2.327l5.573-5.872-3.74,2.156a1.5,1.5,0,0,1-2.006-2.1l2.464-3.806a1.5,1.5,0,0,1-1.075-2.758l4.872-2.815a1.5,1.5,0,0,1,2.006,2.1l-2.381,3.683,7.307-4.216a1.5,1.5,0,0,1,1.833,2.324l-5.57,5.875,5.848-3.378a1.5,1.5,0,0,1,1.8,2.354L49.844,41.5l4.219-2.435a1.5,1.5,0,0,1,1.758,2.4l-1.563,1.428A1.5,1.5,0,0,1,56,45.194l-1.746,2.267a1.479,1.479,0,0,1,.961.71,1.5,1.5,0,0,1-.545,2.045l-4.833,2.791A1.47,1.47,0,0,1,49.093,53.21Z" transform="translate(76.313 52.017)" fill="#43a99b"/>
    <path id="Trazado_226684" data-name="Trazado 226684" d="M148.23,53.9c7.654.243,16.26.88,22.71-3.231a15.538,15.538,0,0,0,6.8-17.206,15.571,15.571,0,0,0-14.329-11,21.887,21.887,0,0,0-19.719-21.15,26.977,26.977,0,0,0-15.467,3.222A23.181,23.181,0,0,0,121.89,9.6c-.494.569-1.18,1.351-1.836,2.216a30.925,30.925,0,0,0-2.994-3.057,31.882,31.882,0,0,0-26.807-7A33.574,33.574,0,0,0,68.992,14.889,22.962,22.962,0,0,0,49.714.557,24.255,24.255,0,0,0,26.2,13.455,13.242,13.242,0,0,0,11.381,22.89,17.2,17.2,0,0,0,.508,35.56,16.131,16.131,0,0,0,7.791,51.967a22.974,22.974,0,0,0,12.876,2.59h9.606a21.56,21.56,0,0,0,14.91,19.165c-.255,5.091-.024,10.253-.024,15.3,0,.036.021.054.021.087v7.771c0,.5,0,.988.045,1.467,0,.033-.045.063-.045.1v12.044c0,1.83-.021,3.662,0,5.492a6.729,6.729,0,0,0,3.393,5.731l5.74,3.827c.671.446,2.1-.072,2.779-.3.225-.078,1.9-.74,1.324-1.123l-5.025-3.351a14.819,14.819,0,0,1-2.066-1.479,6.025,6.025,0,0,1-1.776-4.315c-.081-3.551-.03-7.112,0-10.669a16.769,16.769,0,0,0,5.073.437,13.475,13.475,0,0,0,5.588-1.2,36.87,36.87,0,0,0,.743,6.857A27.549,27.549,0,0,0,72.6,128.2a25.809,25.809,0,0,0,2.569,1.348v9.19a32.308,32.308,0,0,0-19.847,7.052,28.933,28.933,0,0,0-10.115,22.9c0,2.773-.758,6.648,2.476,7.9a9.2,9.2,0,0,0,3.24.3c4.456.024,8.912,0,13.364,0h59.56c3.192,0,7.567.392,9.169-3.081a22.839,22.839,0,0,0,.3-9.687,27.478,27.478,0,0,0-5.74-14.736c-6.04-7.768-14.739-10.466-24.115-10.693.054-.847-.018-1.746-.018-2.566V129.21a27.133,27.133,0,0,0,13.538-16.853A34.736,34.736,0,0,0,118.3,104.3a6.4,6.4,0,0,0,1.18.32,18.784,18.784,0,0,0,7.819-.41,7.591,7.591,0,0,0,6.091-6.95c.042-1.782,0-3.566,0-5.348,0-2.006.027-4.013,0-6.019,0-.045.036-.081.036-.129,0-4.252.156-8.549-.045-12.8A22.375,22.375,0,0,0,148.23,53.9Zm-25.86-39.039c0-1.614,2.455-4.456,3.444-5.6a19.542,19.542,0,0,1,5.54-4.492A17.338,17.338,0,0,1,146.026,4.4a21.261,21.261,0,0,1,13.059,19.464c0,.255.662.3.758.3,13.5.341,19.518,18.916,7.786,26.441-3.2,2.051-7.217,1.521-10.849,1.521h-8.441a21.468,21.468,0,0,0-16.724-20.413,22.336,22.336,0,0,1-2.89-.449c-1.368-.521-.826.243-1.342-.859a10.78,10.78,0,0,1-.141-2.075,29,29,0,0,0-4.878-13.418ZM15.849,51.2C2.6,49.107.721,29.481,13.639,25.322a2.4,2.4,0,0,0,1.8-1.659A8.169,8.169,0,0,1,26.114,16.91a2.866,2.866,0,0,0,3.327-1.216A18.811,18.811,0,0,1,50,3.947,19.955,19.955,0,0,1,65.675,19.342,18.078,18.078,0,0,0,45.531,32.835,22.459,22.459,0,0,0,30.376,51.4a81.344,81.344,0,0,1-14.526-.2Zm113.21,28.3a7.743,7.743,0,0,0-2.417-.461,30.945,30.945,0,0,0-5.24.3,35.036,35.036,0,0,0-4.315-18.524A31.188,31.188,0,0,0,98.282,46.786,33.571,33.571,0,0,0,61.165,62.22a34.583,34.583,0,0,0-3.953,16.835c-.812-.024-1.629,0-2.438,0a13.335,13.335,0,0,0-5.321,1.24,83.73,83.73,0,0,1,.407-11.187,37.2,37.2,0,0,1,19.8-28.526,47.561,47.561,0,0,1,29.618-3.15,37.611,37.611,0,0,1,26.807,22.159A50.008,50.008,0,0,1,129.059,79.5Zm-32.4-9.582a3.893,3.893,0,0,0-3.525,1.342C87.3,80.663,75.083,84.547,64.39,84.828a6.232,6.232,0,0,0-1.545-3.677,5.719,5.719,0,0,0-1.327-1.057A34.1,34.1,0,0,1,66.01,60.953,27.025,27.025,0,0,1,86.1,48.3a28.558,28.558,0,0,1,25.061,11.409,33.574,33.574,0,0,1,5.9,21.369c-.126.093-.282.159-.4.258-4.025-6.606-12.661-10.166-19.991-11.415ZM57.7,103H56.026a8.055,8.055,0,0,1-2.782-.267c-4.471-1.593-3.713-6.726-3.713-10.481V88.895c0-.045.036-.081.036-.129,0-.874-.021-1.758-.036-2.638V85.96a7.186,7.186,0,0,1,.275-2.342,5.54,5.54,0,0,1,1.273-2.129,8.21,8.21,0,0,1,.776-.632l.138-.078a10.624,10.624,0,0,1,5.258.695.8.8,0,0,0,.665.443,6.169,6.169,0,0,1,2.252,5.091V98.178A5.833,5.833,0,0,1,57.7,103Zm41.411,27.98v8.268a7.785,7.785,0,0,1,0,.952c-.015,0-.027,0-.063.069-2.533,4.081-4.791,8.385-7.157,12.544l-1.581,2.773c-.15.264-.383.6-.578.9a3.162,3.162,0,0,1-.85-.8c-.06-.087-.1-.189-.162-.281-.413-.677-.788-1.38-1.18-2.069L79.9,139.945a9.118,9.118,0,0,1-.413-4.579v-4.138a34.814,34.814,0,0,0,19.62-.249Zm29.945,39.692c0,1.177.347,3.522-.416,3.917a10.217,10.217,0,0,1-3.225,0H58.754a28.825,28.825,0,0,1-7.411,0c-2.674-.835-1.83-5.5-1.812-7.609a27.654,27.654,0,0,1,3.357-13.553c4.9-8.684,13.113-12.209,22.593-12.436,1.018,2.033,2.276,3.986,3.4,5.956l4.426,7.72c1.039,1.821,1.827,3.746,4.192,4.09a7,7,0,0,0,6.214-2.27,14.473,14.473,0,0,0,.958-1.62l7.9-13.85a26.744,26.744,0,0,1,19.422,8.2c5.651,6.094,7.058,13.445,7.058,21.459Zm-24.678-45.69a27.061,27.061,0,0,1-27.313,1.4,24.5,24.5,0,0,1-11.52-15.991,47.373,47.373,0,0,1-1-12.679,1.105,1.105,0,0,0-.06-.228c.054-.85.033-1.716.033-2.572V86.814C76.14,86.143,89.169,81.819,96.188,72.4c7.42,1.8,15.772,6.315,17.9,14.074,0,.018.03.027.036.042,0,.09-.036.162-.036.252-.024,3.728-.069,7.465,0,11.19,0,.03-.024.054-.024.084-.009,9.9-1,20.467-9.687,26.935Zm23.89-23.692a4.791,4.791,0,0,1-1.309,1.482c-.072.051-.3.165-.392.228a25.96,25.96,0,0,0-2.644,0,5.561,5.561,0,0,1-5.423-4.731,25.714,25.714,0,0,1-.081-4.076V87.9a10.523,10.523,0,0,1,.713-5.282,5.048,5.048,0,0,1,.689-.961,2.881,2.881,0,0,0,1.354-.9h2.65a5.648,5.648,0,0,1,5.231,5.737c.027,1.288,0,2.581,0,3.869v6.187a8.822,8.822,0,0,1-.788,4.734Zm5.007-29.9a41.417,41.417,0,0,0-2.126-11.107,40.794,40.794,0,0,0-25.977-25.04C82.86,28.262,55.76,37.482,47.54,60.567a41.791,41.791,0,0,0-2.1,9.981,20.725,20.725,0,0,1-10.78-16.539A20.1,20.1,0,0,1,48.354,33.287c.3-.1,1.318-.452,1.392-.865C51.19,24.6,57.533,19.111,65.708,21.782c.874.3,3.516-.237,3.923-1.219.024-.057.054-.108.075-.162a1.545,1.545,0,0,0,.536-1.141,26.609,26.609,0,0,1,33.29-14.652,30.08,30.08,0,0,1,19.533,27.972c0,.255.662.3.758.3a20.644,20.644,0,0,1,19.692,16.071,20.363,20.363,0,0,1-10.241,22.435Z" transform="translate(0)" fill="#262626"/>
    <path id="Trazado_226685" data-name="Trazado 226685" d="M47.822,37.718a4.92,4.92,0,0,0-3.069.823A10.094,10.094,0,0,1,38.228,40.7,13.835,13.835,0,0,1,30.5,37.91c-.713-.524-2.1-.1-2.815.177-.3.108-1.934.859-1.261,1.356a18.68,18.68,0,0,0,21.689-.632c.662-.488.545-1.012-.293-1.093Z" transform="translate(51.849 74.174)" fill="#262626"/>
  </g>
</svg>
