<svg xmlns="http://www.w3.org/2000/svg" xmlns:xlink="http://www.w3.org/1999/xlink" width="307.159" height="290.057" viewBox="0 0 307.159 290.057">
  <defs>
    <clipPath id="clip-path">
      <rect id="Rectángulo_52193" data-name="Rectángulo 52193" width="286.862" height="243.52" fill="#8c5be1"/>
    </clipPath>
    <clipPath id="clip-path-2">
      <rect id="Rectángulo_58744" data-name="Rectángulo 58744" width="307.159" height="219.778" transform="translate(32)" fill="none"/>
    </clipPath>
    <clipPath id="clip-path-3">
      <rect id="Rectángulo_58722" data-name="Rectángulo 58722" width="408.159" height="219.778" fill="none"/>
    </clipPath>
    <clipPath id="clip-path-4">
      <path id="Trazado_229712" data-name="Trazado 229712" d="M262.936,103.554c-1.013.813-8.242,6.08-12.173,11.752,2.208,5.276,10.71,10.154,11.719,10.425a60.093,60.093,0,0,0,9.185-14.844,6,6,0,0,0-5.562-8.428,4.983,4.983,0,0,0-3.169,1.1" fill="none"/>
    </clipPath>
    <linearGradient id="linear-gradient" x1="-7.87" y1="3.857" x2="-7.838" y2="3.857" gradientUnits="objectBoundingBox">
      <stop offset="0" stop-color="#ffd000"/>
      <stop offset="1" stop-color="#ff7300"/>
    </linearGradient>
    <clipPath id="clip-path-6">
      <path id="Trazado_229714" data-name="Trazado 229714" d="M269.915,101.493s-4.247-.367-6.489,1.9-6.019,12.2-4.654,23.638-.864,18.574-.864,18.574,15.265,7.547,39.788,2.4c0,0,1.1-32.277-4.711-43.581-1.847-3.59-10.491-3.6-11.8-3.712-.078-.007-.187-.01-.323-.01-2.141,0-10.947.8-10.947.8" fill="none"/>
    </clipPath>
    <linearGradient id="linear-gradient-2" x1="-6.219" y1="2.269" x2="-6.195" y2="2.269" xlink:href="#linear-gradient"/>
    <clipPath id="clip-path-8">
      <path id="Trazado_229728" data-name="Trazado 229728" d="M283.853,110.558a56.75,56.75,0,0,0,8.308,12.734c5.636-.965,12.706-6.378,13.2-7.3a60.016,60.016,0,0,0-12.4-12.291,6.1,6.1,0,0,0-3.6-1.243c-4.044,0-7.264,4.47-5.507,8.1" fill="none"/>
    </clipPath>
    <linearGradient id="linear-gradient-3" x1="-9.937" y1="4.536" x2="-9.901" y2="4.536" xlink:href="#linear-gradient"/>
    <clipPath id="clip-path-10">
      <rect id="Rectángulo_58729" data-name="Rectángulo 58729" width="17.095" height="26.25" transform="translate(227.719 125.049)" fill="none"/>
    </clipPath>
    <clipPath id="clip-path-11">
      <rect id="Rectángulo_58730" data-name="Rectángulo 58730" width="13.9" height="26.25" transform="translate(236.267 125.049)" fill="none"/>
    </clipPath>
    <clipPath id="clip-path-12">
      <rect id="Rectángulo_58733" data-name="Rectángulo 58733" width="17.983" height="34.029" transform="translate(61.749 128.608) rotate(-89.845)" fill="none"/>
    </clipPath>
    <linearGradient id="linear-gradient-4" x1="-1.811" y1="6.039" x2="-1.782" y2="6.039" xlink:href="#linear-gradient"/>
    <clipPath id="clip-path-13">
      <rect id="Rectángulo_58735" data-name="Rectángulo 58735" width="17.99" height="7.013" transform="translate(55.057 128.587) rotate(-89.796)" fill="none"/>
    </clipPath>
    <linearGradient id="linear-gradient-5" x1="-7.781" y1="6.061" x2="-7.64" y2="6.061" xlink:href="#linear-gradient"/>
    <clipPath id="clip-path-15">
      <rect id="Rectángulo_58740" data-name="Rectángulo 58740" width="65.996" height="1.154" transform="translate(51.601 163.465)" fill="none"/>
    </clipPath>
    <clipPath id="clip-path-16">
      <rect id="Rectángulo_58741" data-name="Rectángulo 58741" width="65.996" height="1.154" transform="translate(51.601 182.002)" fill="none"/>
    </clipPath>
    <clipPath id="clip-path-17">
      <rect id="Rectángulo_58742" data-name="Rectángulo 58742" width="65.996" height="1.155" transform="translate(51.601 200.538)" fill="none"/>
    </clipPath>
  </defs>
  <g id="Grupo_181059" data-name="Grupo 181059" transform="translate(4989 4872)">
    <g id="Grupo_173989" data-name="Grupo 173989" transform="translate(-4989 -4865.688)">
      <g id="Grupo_169303" data-name="Grupo 169303" transform="translate(8.138 0)">
        <g id="Grupo_168636" data-name="Grupo 168636" transform="translate(0 0)" clip-path="url(#clip-path)">
          <path id="Trazado_211592" data-name="Trazado 211592" d="M205.743,205.85S356.916,92.471,254.651,62.459,46.789-42.028,19,31.335s47.8,104.487,12.227,144.5S75.69,288.105,205.743,205.85" transform="translate(-3.294 0)" fill="#8c5be1"/>
        </g>
      </g>
      <g id="Grupo_169306" data-name="Grupo 169306" transform="translate(63.931 283.745) rotate(-90)">
        <circle id="Elipse_5566" data-name="Elipse 5566" cx="49.221" cy="49.221" r="49.221" transform="translate(87.898 69.61) rotate(-45)" fill="#def2f4"/>
        <ellipse id="Elipse_5567" data-name="Elipse 5567" cx="79.045" cy="79.045" rx="79.045" ry="79.045" transform="translate(0 81.374) rotate(-22.5)" fill="#fff"/>
        <g id="Grupo_152550" data-name="Grupo 152550" transform="translate(6.478 9.987)">
          <ellipse id="Elipse_5568" data-name="Elipse 5568" cx="0.055" cy="0.055" rx="0.055" ry="0.055" transform="translate(50.567 160.054)" fill="#e8e8e8"/>
          <path id="Trazado_193815" data-name="Trazado 193815" d="M.469,0A.469.469,0,1,1,0,.469.469.469,0,0,1,.469,0Z" transform="translate(60.107 159.64)" fill="#e8e8e8"/>
          <path id="Trazado_193816" data-name="Trazado 193816" d="M.8,0A.8.8,0,1,1,0,.8.8.8,0,0,1,.8,0Z" transform="translate(69.729 159.308)" fill="#e8e8e8"/>
          <ellipse id="Elipse_5569" data-name="Elipse 5569" cx="0.856" cy="0.856" rx="0.856" ry="0.856" transform="translate(79.627 159.253)" fill="#e8e8e8"/>
          <path id="Trazado_193817" data-name="Trazado 193817" d="M.8,0A.8.8,0,1,1,0,.8.8.8,0,0,1,.8,0Z" transform="translate(89.635 159.308)" fill="#e8e8e8"/>
          <path id="Trazado_193818" data-name="Trazado 193818" d="M.441,0A.441.441,0,1,1,0,.441.44.44,0,0,1,.441,0Z" transform="translate(99.948 159.668)" fill="#e8e8e8"/>
          <ellipse id="Elipse_5570" data-name="Elipse 5570" cx="0.028" cy="0.028" rx="0.028" ry="0.028" transform="translate(110.315 160.081)" fill="#e8e8e8"/>
          <ellipse id="Elipse_5571" data-name="Elipse 5571" cx="0.028" cy="0.028" rx="0.028" ry="0.028" transform="translate(30.688 150.128)" fill="#e8e8e8"/>
          <path id="Trazado_193819" data-name="Trazado 193819" d="M.828,0A.828.828,0,1,1,0,.828.829.829,0,0,1,.828,0Z" transform="translate(39.841 149.327)" fill="#e8e8e8"/>
          <path id="Trazado_193820" data-name="Trazado 193820" d="M1.685,0A1.685,1.685,0,1,1,0,1.684,1.684,1.684,0,0,1,1.685,0Z" transform="translate(48.938 148.471)" fill="#e8e8e8"/>
          <ellipse id="Elipse_5572" data-name="Elipse 5572" cx="1.877" cy="1.877" rx="1.877" ry="1.877" transform="translate(58.699 148.279)" fill="#e8e8e8"/>
          <ellipse id="Elipse_5573" data-name="Elipse 5573" cx="1.877" cy="1.877" rx="1.877" ry="1.877" transform="translate(68.652 148.279)" fill="#e8e8e8"/>
          <path id="Trazado_193821" data-name="Trazado 193821" d="M1.877,0A1.877,1.877,0,1,1,0,1.877,1.878,1.878,0,0,1,1.877,0Z" transform="translate(78.605 148.278)" fill="#e8e8e8"/>
          <path id="Trazado_193822" data-name="Trazado 193822" d="M1.877,0A1.877,1.877,0,1,1,0,1.877,1.878,1.878,0,0,1,1.877,0Z" transform="translate(88.558 148.278)" fill="#e8e8e8"/>
          <path id="Trazado_193823" data-name="Trazado 193823" d="M1.877,0A1.877,1.877,0,1,1,0,1.877,1.878,1.878,0,0,1,1.877,0Z" transform="translate(98.512 148.278)" fill="#e8e8e8"/>
          <path id="Trazado_193824" data-name="Trazado 193824" d="M1.657,0A1.657,1.657,0,1,1,0,1.657,1.658,1.658,0,0,1,1.657,0Z" transform="translate(108.685 148.499)" fill="#e8e8e8"/>
          <path id="Trazado_193825" data-name="Trazado 193825" d="M.773,0A.773.773,0,1,1,0,.773.772.772,0,0,1,.773,0Z" transform="translate(119.522 149.383)" fill="#e8e8e8"/>
          <ellipse id="Elipse_5574" data-name="Elipse 5574" cx="0.028" cy="0.028" rx="0.028" ry="0.028" transform="translate(130.221 150.128)" fill="#e8e8e8"/>
          <path id="Trazado_193826" data-name="Trazado 193826" d="M.139,0A.137.137,0,0,1,.276.137.138.138,0,1,1,.139,0Z" transform="translate(20.624 140.065)" fill="#e8e8e8"/>
          <path id="Trazado_193827" data-name="Trazado 193827" d="M1.353,0A1.353,1.353,0,1,1,0,1.353,1.353,1.353,0,0,1,1.353,0Z" transform="translate(29.363 138.849)" fill="#e8e8e8"/>
          <ellipse id="Elipse_5575" data-name="Elipse 5575" cx="1.877" cy="1.877" rx="1.877" ry="1.877" transform="translate(38.792 138.325)" fill="#e8e8e8"/>
          <ellipse id="Elipse_5576" data-name="Elipse 5576" cx="1.877" cy="1.877" rx="1.877" ry="1.877" transform="translate(48.745 138.325)" fill="#e8e8e8"/>
          <ellipse id="Elipse_5577" data-name="Elipse 5577" cx="1.877" cy="1.877" rx="1.877" ry="1.877" transform="translate(58.699 138.325)" fill="#e8e8e8"/>
          <ellipse id="Elipse_5578" data-name="Elipse 5578" cx="1.877" cy="1.877" rx="1.877" ry="1.877" transform="translate(68.652 138.325)" fill="#e8e8e8"/>
          <path id="Trazado_193828" data-name="Trazado 193828" d="M1.877,0A1.877,1.877,0,1,1,0,1.877,1.878,1.878,0,0,1,1.877,0Z" transform="translate(78.605 138.325)" fill="#e8e8e8"/>
          <path id="Trazado_193829" data-name="Trazado 193829" d="M1.877,0A1.877,1.877,0,1,1,0,1.877,1.878,1.878,0,0,1,1.877,0Z" transform="translate(88.558 138.325)" fill="#e8e8e8"/>
          <path id="Trazado_193830" data-name="Trazado 193830" d="M1.877,0A1.877,1.877,0,1,1,0,1.877,1.878,1.878,0,0,1,1.877,0Z" transform="translate(98.512 138.325)" fill="#e8e8e8"/>
          <path id="Trazado_193831" data-name="Trazado 193831" d="M1.877,0A1.877,1.877,0,1,1,0,1.877,1.878,1.878,0,0,1,1.877,0Z" transform="translate(108.465 138.325)" fill="#e8e8e8"/>
          <path id="Trazado_193832" data-name="Trazado 193832" d="M1.877,0A1.877,1.877,0,1,1,0,1.877,1.878,1.878,0,0,1,1.877,0Z" transform="translate(118.418 138.325)" fill="#e8e8e8"/>
          <path id="Trazado_193833" data-name="Trazado 193833" d="M1.325,0A1.325,1.325,0,1,1,0,1.325,1.325,1.325,0,0,1,1.325,0Z" transform="translate(128.923 138.877)" fill="#e8e8e8"/>
          <path id="Trazado_193834" data-name="Trazado 193834" d="M.081,0a.083.083,0,1,1,0,.167A.084.084,0,0,1,.081,0Z" transform="translate(140.12 140.119)" fill="#e8e8e8"/>
          <ellipse id="Elipse_5579" data-name="Elipse 5579" cx="0.028" cy="0.028" rx="0.028" ry="0.028" transform="translate(10.781 130.221)" fill="#e8e8e8"/>
          <path id="Trazado_193835" data-name="Trazado 193835" d="M1.353,0A1.353,1.353,0,1,1,0,1.353,1.351,1.351,0,0,1,1.353,0Z" transform="translate(19.41 128.896)" fill="#e8e8e8"/>
          <ellipse id="Elipse_5580" data-name="Elipse 5580" cx="1.877" cy="1.877" rx="1.877" ry="1.877" transform="translate(28.839 128.372)" fill="#e8e8e8"/>
          <ellipse id="Elipse_5581" data-name="Elipse 5581" cx="1.877" cy="1.877" rx="1.877" ry="1.877" transform="translate(38.792 128.372)" fill="#e8e8e8"/>
          <ellipse id="Elipse_5582" data-name="Elipse 5582" cx="1.877" cy="1.877" rx="1.877" ry="1.877" transform="translate(48.745 128.372)" fill="#e8e8e8"/>
          <ellipse id="Elipse_5583" data-name="Elipse 5583" cx="1.877" cy="1.877" rx="1.877" ry="1.877" transform="translate(58.699 128.372)" fill="#e8e8e8"/>
          <ellipse id="Elipse_5584" data-name="Elipse 5584" cx="1.877" cy="1.877" rx="1.877" ry="1.877" transform="translate(68.652 128.372)" fill="#e8e8e8"/>
          <path id="Trazado_193836" data-name="Trazado 193836" d="M1.877,0A1.877,1.877,0,1,1,0,1.877,1.878,1.878,0,0,1,1.877,0Z" transform="translate(78.605 128.372)" fill="#e8e8e8"/>
          <path id="Trazado_193837" data-name="Trazado 193837" d="M1.877,0A1.877,1.877,0,1,1,0,1.877,1.878,1.878,0,0,1,1.877,0Z" transform="translate(88.558 128.372)" fill="#e8e8e8"/>
          <path id="Trazado_193838" data-name="Trazado 193838" d="M1.877,0A1.877,1.877,0,1,1,0,1.877,1.878,1.878,0,0,1,1.877,0Z" transform="translate(98.512 128.372)" fill="#e8e8e8"/>
          <path id="Trazado_193839" data-name="Trazado 193839" d="M1.877,0A1.877,1.877,0,1,1,0,1.877,1.878,1.878,0,0,1,1.877,0Z" transform="translate(108.465 128.372)" fill="#e8e8e8"/>
          <path id="Trazado_193840" data-name="Trazado 193840" d="M1.877,0A1.877,1.877,0,1,1,0,1.877,1.878,1.878,0,0,1,1.877,0Z" transform="translate(118.418 128.372)" fill="#e8e8e8"/>
          <path id="Trazado_193841" data-name="Trazado 193841" d="M1.877,0A1.877,1.877,0,1,1,0,1.877,1.878,1.878,0,0,1,1.877,0Z" transform="translate(128.371 128.372)" fill="#e8e8e8"/>
          <path id="Trazado_193842" data-name="Trazado 193842" d="M1.325,0A1.325,1.325,0,1,1,0,1.325,1.325,1.325,0,0,1,1.325,0Z" transform="translate(138.877 128.924)" fill="#e8e8e8"/>
          <ellipse id="Elipse_5585" data-name="Elipse 5585" cx="0.028" cy="0.028" rx="0.028" ry="0.028" transform="translate(150.128 130.221)" fill="#e8e8e8"/>
          <path id="Trazado_193843" data-name="Trazado 193843" d="M.828,0A.828.828,0,1,1,0,.828.827.827,0,0,1,.828,0Z" transform="translate(9.981 119.467)" fill="#e8e8e8"/>
          <ellipse id="Elipse_5586" data-name="Elipse 5586" cx="1.877" cy="1.877" rx="1.877" ry="1.877" transform="translate(18.885 118.419)" fill="#e8e8e8"/>
          <ellipse id="Elipse_5587" data-name="Elipse 5587" cx="1.877" cy="1.877" rx="1.877" ry="1.877" transform="translate(28.839 118.419)" fill="#e8e8e8"/>
          <ellipse id="Elipse_5588" data-name="Elipse 5588" cx="1.877" cy="1.877" rx="1.877" ry="1.877" transform="translate(38.792 118.419)" fill="#e8e8e8"/>
          <ellipse id="Elipse_5589" data-name="Elipse 5589" cx="1.877" cy="1.877" rx="1.877" ry="1.877" transform="translate(48.745 118.419)" fill="#e8e8e8"/>
          <ellipse id="Elipse_5590" data-name="Elipse 5590" cx="1.877" cy="1.877" rx="1.877" ry="1.877" transform="translate(58.699 118.419)" fill="#e8e8e8"/>
          <ellipse id="Elipse_5591" data-name="Elipse 5591" cx="1.877" cy="1.877" rx="1.877" ry="1.877" transform="translate(68.652 118.419)" fill="#e8e8e8"/>
          <path id="Trazado_193844" data-name="Trazado 193844" d="M1.877,0A1.877,1.877,0,1,1,0,1.877,1.878,1.878,0,0,1,1.877,0Z" transform="translate(78.605 118.419)" fill="#e8e8e8"/>
          <path id="Trazado_193845" data-name="Trazado 193845" d="M1.877,0A1.877,1.877,0,1,1,0,1.877,1.878,1.878,0,0,1,1.877,0Z" transform="translate(88.558 118.419)" fill="#e8e8e8"/>
          <path id="Trazado_193846" data-name="Trazado 193846" d="M1.877,0A1.877,1.877,0,1,1,0,1.877,1.878,1.878,0,0,1,1.877,0Z" transform="translate(98.512 118.419)" fill="#e8e8e8"/>
          <path id="Trazado_193847" data-name="Trazado 193847" d="M1.877,0A1.877,1.877,0,1,1,0,1.877,1.878,1.878,0,0,1,1.877,0Z" transform="translate(108.465 118.419)" fill="#e8e8e8"/>
          <path id="Trazado_193848" data-name="Trazado 193848" d="M1.877,0A1.877,1.877,0,1,1,0,1.877,1.878,1.878,0,0,1,1.877,0Z" transform="translate(118.418 118.419)" fill="#e8e8e8"/>
          <path id="Trazado_193849" data-name="Trazado 193849" d="M1.877,0A1.877,1.877,0,1,1,0,1.877,1.878,1.878,0,0,1,1.877,0Z" transform="translate(128.371 118.419)" fill="#e8e8e8"/>
          <path id="Trazado_193850" data-name="Trazado 193850" d="M1.877,0A1.877,1.877,0,1,1,0,1.877,1.878,1.878,0,0,1,1.877,0Z" transform="translate(138.324 118.419)" fill="#e8e8e8"/>
          <path id="Trazado_193851" data-name="Trazado 193851" d="M.773,0A.773.773,0,1,1,0,.773.772.772,0,0,1,.773,0Z" transform="translate(149.382 119.523)" fill="#e8e8e8"/>
          <ellipse id="Elipse_5592" data-name="Elipse 5592" cx="0.055" cy="0.055" rx="0.055" ry="0.055" transform="translate(0.8 110.287)" fill="#e8e8e8"/>
          <path id="Trazado_193852" data-name="Trazado 193852" d="M1.657,0A1.657,1.657,0,1,1,0,1.657,1.655,1.655,0,0,1,1.657,0Z" transform="translate(9.153 108.686)" fill="#e8e8e8"/>
          <ellipse id="Elipse_5593" data-name="Elipse 5593" cx="1.877" cy="1.877" rx="1.877" ry="1.877" transform="translate(18.885 108.466)" fill="#e8e8e8"/>
          <ellipse id="Elipse_5594" data-name="Elipse 5594" cx="1.877" cy="1.877" rx="1.877" ry="1.877" transform="translate(28.839 108.466)" fill="#e8e8e8"/>
          <ellipse id="Elipse_5595" data-name="Elipse 5595" cx="1.877" cy="1.877" rx="1.877" ry="1.877" transform="translate(38.792 108.466)" fill="#e8e8e8"/>
          <ellipse id="Elipse_5596" data-name="Elipse 5596" cx="1.877" cy="1.877" rx="1.877" ry="1.877" transform="translate(48.745 108.466)" fill="#e8e8e8"/>
          <ellipse id="Elipse_5597" data-name="Elipse 5597" cx="1.877" cy="1.877" rx="1.877" ry="1.877" transform="translate(58.699 108.466)" fill="#e8e8e8"/>
          <ellipse id="Elipse_5598" data-name="Elipse 5598" cx="1.877" cy="1.877" rx="1.877" ry="1.877" transform="translate(68.652 108.466)" fill="#e8e8e8"/>
          <path id="Trazado_193853" data-name="Trazado 193853" d="M1.877,0A1.877,1.877,0,1,1,0,1.877,1.878,1.878,0,0,1,1.877,0Z" transform="translate(78.605 108.465)" fill="#e8e8e8"/>
          <path id="Trazado_193854" data-name="Trazado 193854" d="M1.877,0A1.877,1.877,0,1,1,0,1.877,1.878,1.878,0,0,1,1.877,0Z" transform="translate(88.558 108.465)" fill="#e8e8e8"/>
          <path id="Trazado_193855" data-name="Trazado 193855" d="M1.877,0A1.877,1.877,0,1,1,0,1.877,1.878,1.878,0,0,1,1.877,0Z" transform="translate(98.512 108.465)" fill="#e8e8e8"/>
          <path id="Trazado_193856" data-name="Trazado 193856" d="M1.877,0A1.877,1.877,0,1,1,0,1.877,1.878,1.878,0,0,1,1.877,0Z" transform="translate(108.465 108.465)" fill="#e8e8e8"/>
          <path id="Trazado_193857" data-name="Trazado 193857" d="M1.877,0A1.877,1.877,0,1,1,0,1.877,1.878,1.878,0,0,1,1.877,0Z" transform="translate(118.418 108.465)" fill="#e8e8e8"/>
          <path id="Trazado_193858" data-name="Trazado 193858" d="M1.877,0A1.877,1.877,0,1,1,0,1.877,1.878,1.878,0,0,1,1.877,0Z" transform="translate(128.371 108.465)" fill="#e8e8e8"/>
          <path id="Trazado_193859" data-name="Trazado 193859" d="M1.877,0A1.877,1.877,0,1,1,0,1.877,1.878,1.878,0,0,1,1.877,0Z" transform="translate(138.324 108.465)" fill="#e8e8e8"/>
          <path id="Trazado_193860" data-name="Trazado 193860" d="M1.627,0A1.629,1.629,0,1,1,0,1.629,1.628,1.628,0,0,1,1.627,0Z" transform="translate(148.528 108.714)" fill="#e8e8e8"/>
          <ellipse id="Elipse_5599" data-name="Elipse 5599" cx="0.055" cy="0.055" rx="0.055" ry="0.055" transform="translate(160.054 110.287)" fill="#e8e8e8"/>
          <ellipse id="Elipse_5600" data-name="Elipse 5600" cx="0.469" cy="0.469" rx="0.469" ry="0.469" transform="translate(0.386 99.92)" fill="#e8e8e8"/>
          <ellipse id="Elipse_5601" data-name="Elipse 5601" cx="1.877" cy="1.877" rx="1.877" ry="1.877" transform="translate(8.932 98.512)" fill="#e8e8e8"/>
          <ellipse id="Elipse_5602" data-name="Elipse 5602" cx="1.877" cy="1.877" rx="1.877" ry="1.877" transform="translate(18.885 98.512)" fill="#e8e8e8"/>
          <ellipse id="Elipse_5603" data-name="Elipse 5603" cx="1.877" cy="1.877" rx="1.877" ry="1.877" transform="translate(28.839 98.512)" fill="#e8e8e8"/>
          <ellipse id="Elipse_5604" data-name="Elipse 5604" cx="1.877" cy="1.877" rx="1.877" ry="1.877" transform="translate(38.792 98.512)" fill="#e8e8e8"/>
          <ellipse id="Elipse_5605" data-name="Elipse 5605" cx="1.877" cy="1.877" rx="1.877" ry="1.877" transform="translate(48.745 98.512)" fill="#e8e8e8"/>
          <ellipse id="Elipse_5606" data-name="Elipse 5606" cx="1.877" cy="1.877" rx="1.877" ry="1.877" transform="translate(58.699 98.512)" fill="#e8e8e8"/>
          <ellipse id="Elipse_5607" data-name="Elipse 5607" cx="1.877" cy="1.877" rx="1.877" ry="1.877" transform="translate(68.652 98.512)" fill="#e8e8e8"/>
          <path id="Trazado_193861" data-name="Trazado 193861" d="M1.877,0A1.877,1.877,0,1,1,0,1.877,1.877,1.877,0,0,1,1.877,0Z" transform="translate(78.605 98.512)" fill="#e8e8e8"/>
          <path id="Trazado_193862" data-name="Trazado 193862" d="M1.877,0A1.877,1.877,0,1,1,0,1.877,1.877,1.877,0,0,1,1.877,0Z" transform="translate(88.558 98.512)" fill="#e8e8e8"/>
          <path id="Trazado_193863" data-name="Trazado 193863" d="M1.877,0A1.877,1.877,0,1,1,0,1.877,1.877,1.877,0,0,1,1.877,0Z" transform="translate(98.512 98.512)" fill="#e8e8e8"/>
          <path id="Trazado_193864" data-name="Trazado 193864" d="M1.877,0A1.877,1.877,0,1,1,0,1.877,1.877,1.877,0,0,1,1.877,0Z" transform="translate(108.465 98.512)" fill="#e8e8e8"/>
          <path id="Trazado_193865" data-name="Trazado 193865" d="M1.877,0A1.877,1.877,0,1,1,0,1.877,1.877,1.877,0,0,1,1.877,0Z" transform="translate(118.418 98.512)" fill="#e8e8e8"/>
          <path id="Trazado_193866" data-name="Trazado 193866" d="M1.877,0A1.877,1.877,0,1,1,0,1.877,1.877,1.877,0,0,1,1.877,0Z" transform="translate(128.371 98.512)" fill="#e8e8e8"/>
          <path id="Trazado_193867" data-name="Trazado 193867" d="M1.877,0A1.877,1.877,0,1,1,0,1.877,1.877,1.877,0,0,1,1.877,0Z" transform="translate(138.324 98.512)" fill="#e8e8e8"/>
          <path id="Trazado_193868" data-name="Trazado 193868" d="M1.875,0A1.877,1.877,0,1,1,0,1.877,1.875,1.875,0,0,1,1.875,0Z" transform="translate(148.28 98.512)" fill="#e8e8e8"/>
          <ellipse id="Elipse_5608" data-name="Elipse 5608" cx="0.414" cy="0.414" rx="0.414" ry="0.414" transform="translate(159.695 99.975)" fill="#e8e8e8"/>
          <path id="Trazado_193869" data-name="Trazado 193869" d="M.8,0A.8.8,0,1,1,0,.8.8.8,0,0,1,.8,0Z" transform="translate(0.056 89.636)" fill="#e8e8e8"/>
          <path id="Trazado_193870" data-name="Trazado 193870" d="M1.877,0A1.877,1.877,0,1,1,0,1.877,1.875,1.875,0,0,1,1.877,0Z" transform="translate(8.933 88.559)" fill="#e8e8e8"/>
          <path id="Trazado_193871" data-name="Trazado 193871" d="M1.877,0A1.877,1.877,0,1,1,0,1.877,1.875,1.875,0,0,1,1.877,0Z" transform="translate(18.886 88.559)" fill="#e8e8e8"/>
          <path id="Trazado_193872" data-name="Trazado 193872" d="M1.877,0A1.877,1.877,0,1,1,0,1.877,1.875,1.875,0,0,1,1.877,0Z" transform="translate(28.839 88.559)" fill="#e8e8e8"/>
          <path id="Trazado_193873" data-name="Trazado 193873" d="M1.877,0A1.877,1.877,0,1,1,0,1.877,1.875,1.875,0,0,1,1.877,0Z" transform="translate(38.792 88.559)" fill="#e8e8e8"/>
          <path id="Trazado_193874" data-name="Trazado 193874" d="M1.877,0A1.877,1.877,0,1,1,0,1.877,1.877,1.877,0,0,1,1.877,0Z" transform="translate(48.745 88.559)" fill="#e8e8e8"/>
          <path id="Trazado_193875" data-name="Trazado 193875" d="M1.877,0A1.877,1.877,0,1,1,0,1.877,1.877,1.877,0,0,1,1.877,0Z" transform="translate(58.699 88.559)" fill="#e8e8e8"/>
          <path id="Trazado_193876" data-name="Trazado 193876" d="M1.877,0A1.877,1.877,0,1,1,0,1.877,1.877,1.877,0,0,1,1.877,0Z" transform="translate(68.652 88.559)" fill="#e8e8e8"/>
          <path id="Trazado_193877" data-name="Trazado 193877" d="M1.877,0A1.877,1.877,0,1,1,0,1.877,1.877,1.877,0,0,1,1.877,0Z" transform="translate(78.605 88.559)" fill="#e8e8e8"/>
          <path id="Trazado_193878" data-name="Trazado 193878" d="M1.877,0A1.877,1.877,0,1,1,0,1.877,1.877,1.877,0,0,1,1.877,0Z" transform="translate(88.558 88.559)" fill="#e8e8e8"/>
          <path id="Trazado_193879" data-name="Trazado 193879" d="M1.877,0A1.877,1.877,0,1,1,0,1.877,1.877,1.877,0,0,1,1.877,0Z" transform="translate(98.512 88.559)" fill="#e8e8e8"/>
          <path id="Trazado_193880" data-name="Trazado 193880" d="M1.877,0A1.877,1.877,0,1,1,0,1.877,1.877,1.877,0,0,1,1.877,0Z" transform="translate(108.465 88.559)" fill="#e8e8e8"/>
          <path id="Trazado_193881" data-name="Trazado 193881" d="M1.877,0A1.877,1.877,0,1,1,0,1.877,1.877,1.877,0,0,1,1.877,0Z" transform="translate(118.418 88.559)" fill="#e8e8e8"/>
          <path id="Trazado_193882" data-name="Trazado 193882" d="M1.877,0A1.877,1.877,0,1,1,0,1.877,1.877,1.877,0,0,1,1.877,0Z" transform="translate(128.371 88.559)" fill="#e8e8e8"/>
          <path id="Trazado_193883" data-name="Trazado 193883" d="M1.877,0A1.877,1.877,0,1,1,0,1.877,1.877,1.877,0,0,1,1.877,0Z" transform="translate(138.324 88.559)" fill="#e8e8e8"/>
          <path id="Trazado_193884" data-name="Trazado 193884" d="M1.875,0A1.877,1.877,0,1,1,0,1.877,1.875,1.875,0,0,1,1.875,0Z" transform="translate(148.28 88.559)" fill="#e8e8e8"/>
          <path id="Trazado_193885" data-name="Trazado 193885" d="M.773,0A.773.773,0,1,1,0,.773.771.771,0,0,1,.773,0Z" transform="translate(159.335 89.663)" fill="#e8e8e8"/>
          <ellipse id="Elipse_5609" data-name="Elipse 5609" cx="0.856" cy="0.856" rx="0.856" ry="0.856" transform="translate(0 79.627)" fill="#e8e8e8"/>
          <path id="Trazado_193886" data-name="Trazado 193886" d="M1.877,0A1.877,1.877,0,1,1,0,1.877,1.875,1.875,0,0,1,1.877,0Z" transform="translate(8.933 78.606)" fill="#e8e8e8"/>
          <path id="Trazado_193887" data-name="Trazado 193887" d="M1.877,0A1.877,1.877,0,1,1,0,1.877,1.875,1.875,0,0,1,1.877,0Z" transform="translate(18.886 78.606)" fill="#e8e8e8"/>
          <path id="Trazado_193888" data-name="Trazado 193888" d="M1.877,0A1.877,1.877,0,1,1,0,1.877,1.875,1.875,0,0,1,1.877,0Z" transform="translate(28.839 78.606)" fill="#e8e8e8"/>
          <path id="Trazado_193889" data-name="Trazado 193889" d="M1.877,0A1.877,1.877,0,1,1,0,1.877,1.875,1.875,0,0,1,1.877,0Z" transform="translate(38.792 78.606)" fill="#e8e8e8"/>
          <path id="Trazado_193890" data-name="Trazado 193890" d="M1.877,0A1.877,1.877,0,1,1,0,1.877,1.877,1.877,0,0,1,1.877,0Z" transform="translate(48.745 78.606)" fill="#e8e8e8"/>
          <path id="Trazado_193891" data-name="Trazado 193891" d="M1.877,0A1.877,1.877,0,1,1,0,1.877,1.877,1.877,0,0,1,1.877,0Z" transform="translate(58.699 78.606)" fill="#e8e8e8"/>
          <path id="Trazado_193892" data-name="Trazado 193892" d="M1.877,0A1.877,1.877,0,1,1,0,1.877,1.877,1.877,0,0,1,1.877,0Z" transform="translate(68.652 78.606)" fill="#e8e8e8"/>
          <path id="Trazado_193893" data-name="Trazado 193893" d="M1.877,0A1.877,1.877,0,1,1,0,1.877,1.877,1.877,0,0,1,1.877,0Z" transform="translate(78.605 78.606)" fill="#e8e8e8"/>
          <path id="Trazado_193894" data-name="Trazado 193894" d="M1.877,0A1.877,1.877,0,1,1,0,1.877,1.877,1.877,0,0,1,1.877,0Z" transform="translate(88.558 78.606)" fill="#e8e8e8"/>
          <path id="Trazado_193895" data-name="Trazado 193895" d="M1.877,0A1.877,1.877,0,1,1,0,1.877,1.877,1.877,0,0,1,1.877,0Z" transform="translate(98.512 78.606)" fill="#e8e8e8"/>
          <path id="Trazado_193896" data-name="Trazado 193896" d="M1.877,0A1.877,1.877,0,1,1,0,1.877,1.877,1.877,0,0,1,1.877,0Z" transform="translate(108.465 78.606)" fill="#e8e8e8"/>
          <path id="Trazado_193897" data-name="Trazado 193897" d="M1.877,0A1.877,1.877,0,1,1,0,1.877,1.877,1.877,0,0,1,1.877,0Z" transform="translate(118.418 78.606)" fill="#e8e8e8"/>
          <path id="Trazado_193898" data-name="Trazado 193898" d="M1.877,0A1.877,1.877,0,1,1,0,1.877,1.877,1.877,0,0,1,1.877,0Z" transform="translate(128.371 78.606)" fill="#e8e8e8"/>
          <path id="Trazado_193899" data-name="Trazado 193899" d="M1.877,0A1.877,1.877,0,1,1,0,1.877,1.877,1.877,0,0,1,1.877,0Z" transform="translate(138.324 78.606)" fill="#e8e8e8"/>
          <path id="Trazado_193900" data-name="Trazado 193900" d="M1.875,0A1.877,1.877,0,1,1,0,1.877,1.875,1.875,0,0,1,1.875,0Z" transform="translate(148.28 78.606)" fill="#e8e8e8"/>
          <path id="Trazado_193901" data-name="Trazado 193901" d="M.854,0A.855.855,0,1,1,0,.856.856.856,0,0,1,.854,0Z" transform="translate(159.254 79.627)" fill="#e8e8e8"/>
          <path id="Trazado_193902" data-name="Trazado 193902" d="M.8,0A.8.8,0,1,1,0,.8.8.8,0,0,1,.8,0Z" transform="translate(0.056 69.729)" fill="#e8e8e8"/>
          <path id="Trazado_193903" data-name="Trazado 193903" d="M1.877,0A1.876,1.876,0,1,1,0,1.877,1.875,1.875,0,0,1,1.877,0Z" transform="translate(8.933 68.652)" fill="#e8e8e8"/>
          <path id="Trazado_193904" data-name="Trazado 193904" d="M1.877,0A1.876,1.876,0,1,1,0,1.877,1.875,1.875,0,0,1,1.877,0Z" transform="translate(18.886 68.652)" fill="#e8e8e8"/>
          <path id="Trazado_193905" data-name="Trazado 193905" d="M1.877,0A1.876,1.876,0,1,1,0,1.877,1.875,1.875,0,0,1,1.877,0Z" transform="translate(28.839 68.652)" fill="#e8e8e8"/>
          <path id="Trazado_193906" data-name="Trazado 193906" d="M1.877,0A1.876,1.876,0,1,1,0,1.877,1.875,1.875,0,0,1,1.877,0Z" transform="translate(38.792 68.652)" fill="#e8e8e8"/>
          <path id="Trazado_193907" data-name="Trazado 193907" d="M1.877,0A1.876,1.876,0,1,1,0,1.877,1.877,1.877,0,0,1,1.877,0Z" transform="translate(48.745 68.652)" fill="#e8e8e8"/>
          <path id="Trazado_193908" data-name="Trazado 193908" d="M1.877,0A1.876,1.876,0,1,1,0,1.877,1.877,1.877,0,0,1,1.877,0Z" transform="translate(58.699 68.652)" fill="#e8e8e8"/>
          <path id="Trazado_193909" data-name="Trazado 193909" d="M1.877,0A1.876,1.876,0,1,1,0,1.877,1.877,1.877,0,0,1,1.877,0Z" transform="translate(68.652 68.652)" fill="#e8e8e8"/>
          <path id="Trazado_193910" data-name="Trazado 193910" d="M1.877,0A1.876,1.876,0,1,1,0,1.877,1.877,1.877,0,0,1,1.877,0Z" transform="translate(78.605 68.652)" fill="#e8e8e8"/>
          <path id="Trazado_193911" data-name="Trazado 193911" d="M1.877,0A1.876,1.876,0,1,1,0,1.877,1.877,1.877,0,0,1,1.877,0Z" transform="translate(88.558 68.652)" fill="#e8e8e8"/>
          <path id="Trazado_193912" data-name="Trazado 193912" d="M1.877,0A1.876,1.876,0,1,1,0,1.877,1.877,1.877,0,0,1,1.877,0Z" transform="translate(98.512 68.652)" fill="#e8e8e8"/>
          <path id="Trazado_193913" data-name="Trazado 193913" d="M1.877,0A1.876,1.876,0,1,1,0,1.877,1.877,1.877,0,0,1,1.877,0Z" transform="translate(108.465 68.652)" fill="#e8e8e8"/>
          <path id="Trazado_193914" data-name="Trazado 193914" d="M1.877,0A1.876,1.876,0,1,1,0,1.877,1.877,1.877,0,0,1,1.877,0Z" transform="translate(118.418 68.652)" fill="#e8e8e8"/>
          <path id="Trazado_193915" data-name="Trazado 193915" d="M1.877,0A1.876,1.876,0,1,1,0,1.877,1.877,1.877,0,0,1,1.877,0Z" transform="translate(128.371 68.652)" fill="#e8e8e8"/>
          <path id="Trazado_193916" data-name="Trazado 193916" d="M1.877,0A1.876,1.876,0,1,1,0,1.877,1.877,1.877,0,0,1,1.877,0Z" transform="translate(138.324 68.652)" fill="#e8e8e8"/>
          <path id="Trazado_193917" data-name="Trazado 193917" d="M1.875,0A1.876,1.876,0,1,1,0,1.877,1.875,1.875,0,0,1,1.875,0Z" transform="translate(148.28 68.652)" fill="#e8e8e8"/>
          <path id="Trazado_193918" data-name="Trazado 193918" d="M.745,0A.745.745,0,1,1,0,.745.745.745,0,0,1,.745,0Z" transform="translate(159.363 69.785)" fill="#e8e8e8"/>
          <ellipse id="Elipse_5610" data-name="Elipse 5610" cx="0.442" cy="0.442" rx="0.442" ry="0.442" transform="translate(0.414 60.134)" fill="#e8e8e8"/>
          <path id="Trazado_193919" data-name="Trazado 193919" d="M1.877,0A1.876,1.876,0,1,1,0,1.877,1.875,1.875,0,0,1,1.877,0Z" transform="translate(8.933 58.699)" fill="#e8e8e8"/>
          <path id="Trazado_193920" data-name="Trazado 193920" d="M1.877,0A1.876,1.876,0,1,1,0,1.877,1.875,1.875,0,0,1,1.877,0Z" transform="translate(18.886 58.699)" fill="#e8e8e8"/>
          <path id="Trazado_193921" data-name="Trazado 193921" d="M1.877,0A1.876,1.876,0,1,1,0,1.877,1.875,1.875,0,0,1,1.877,0Z" transform="translate(28.839 58.699)" fill="#e8e8e8"/>
          <path id="Trazado_193922" data-name="Trazado 193922" d="M1.877,0A1.876,1.876,0,1,1,0,1.877,1.875,1.875,0,0,1,1.877,0Z" transform="translate(38.792 58.699)" fill="#e8e8e8"/>
          <path id="Trazado_193923" data-name="Trazado 193923" d="M1.877,0A1.876,1.876,0,1,1,0,1.877,1.877,1.877,0,0,1,1.877,0Z" transform="translate(48.745 58.699)" fill="#e8e8e8"/>
          <path id="Trazado_193924" data-name="Trazado 193924" d="M1.877,0A1.876,1.876,0,1,1,0,1.877,1.877,1.877,0,0,1,1.877,0Z" transform="translate(58.699 58.699)" fill="#e8e8e8"/>
          <path id="Trazado_193925" data-name="Trazado 193925" d="M1.877,0A1.876,1.876,0,1,1,0,1.877,1.877,1.877,0,0,1,1.877,0Z" transform="translate(68.652 58.699)" fill="#e8e8e8"/>
          <path id="Trazado_193926" data-name="Trazado 193926" d="M1.877,0A1.876,1.876,0,1,1,0,1.877,1.877,1.877,0,0,1,1.877,0Z" transform="translate(78.605 58.699)" fill="#e8e8e8"/>
          <path id="Trazado_193927" data-name="Trazado 193927" d="M1.877,0A1.876,1.876,0,1,1,0,1.877,1.877,1.877,0,0,1,1.877,0Z" transform="translate(88.558 58.699)" fill="#e8e8e8"/>
          <path id="Trazado_193928" data-name="Trazado 193928" d="M1.877,0A1.876,1.876,0,1,1,0,1.877,1.877,1.877,0,0,1,1.877,0Z" transform="translate(98.512 58.699)" fill="#e8e8e8"/>
          <path id="Trazado_193929" data-name="Trazado 193929" d="M1.877,0A1.876,1.876,0,1,1,0,1.877,1.877,1.877,0,0,1,1.877,0Z" transform="translate(108.465 58.699)" fill="#e8e8e8"/>
          <path id="Trazado_193930" data-name="Trazado 193930" d="M1.877,0A1.876,1.876,0,1,1,0,1.877,1.877,1.877,0,0,1,1.877,0Z" transform="translate(118.418 58.699)" fill="#e8e8e8"/>
          <path id="Trazado_193931" data-name="Trazado 193931" d="M1.877,0A1.876,1.876,0,1,1,0,1.877,1.877,1.877,0,0,1,1.877,0Z" transform="translate(128.371 58.699)" fill="#e8e8e8"/>
          <path id="Trazado_193932" data-name="Trazado 193932" d="M1.877,0A1.876,1.876,0,1,1,0,1.877,1.877,1.877,0,0,1,1.877,0Z" transform="translate(138.324 58.699)" fill="#e8e8e8"/>
          <path id="Trazado_193933" data-name="Trazado 193933" d="M1.875,0A1.876,1.876,0,1,1,0,1.877,1.875,1.875,0,0,1,1.875,0Z" transform="translate(148.28 58.699)" fill="#e8e8e8"/>
          <ellipse id="Elipse_5611" data-name="Elipse 5611" cx="0.414" cy="0.414" rx="0.414" ry="0.414" transform="translate(159.695 60.162)" fill="#e8e8e8"/>
          <ellipse id="Elipse_5612" data-name="Elipse 5612" cx="0.028" cy="0.028" rx="0.028" ry="0.028" transform="translate(0.828 50.595)" fill="#e8e8e8"/>
          <path id="Trazado_193934" data-name="Trazado 193934" d="M1.657,0A1.656,1.656,0,1,1,0,1.655,1.654,1.654,0,0,1,1.657,0Z" transform="translate(9.153 48.967)" fill="#e8e8e8"/>
          <path id="Trazado_193935" data-name="Trazado 193935" d="M1.877,0A1.876,1.876,0,1,1,0,1.875,1.874,1.874,0,0,1,1.877,0Z" transform="translate(18.886 48.746)" fill="#e8e8e8"/>
          <path id="Trazado_193936" data-name="Trazado 193936" d="M1.877,0A1.876,1.876,0,1,1,0,1.875,1.874,1.874,0,0,1,1.877,0" transform="translate(28.839 48.746)" fill="#e8e8e8"/>
          <path id="Trazado_193937" data-name="Trazado 193937" d="M1.877,0A1.876,1.876,0,1,1,0,1.875,1.874,1.874,0,0,1,1.877,0Z" transform="translate(38.792 48.746)" fill="#e8e8e8"/>
          <path id="Trazado_193938" data-name="Trazado 193938" d="M1.877,0A1.876,1.876,0,1,1,0,1.875,1.876,1.876,0,0,1,1.877,0Z" transform="translate(48.745 48.746)" fill="#e8e8e8"/>
          <path id="Trazado_193939" data-name="Trazado 193939" d="M1.877,0A1.876,1.876,0,1,1,0,1.875,1.876,1.876,0,0,1,1.877,0Z" transform="translate(58.699 48.746)" fill="#e8e8e8"/>
          <path id="Trazado_193940" data-name="Trazado 193940" d="M1.877,0A1.876,1.876,0,1,1,0,1.875,1.876,1.876,0,0,1,1.877,0Z" transform="translate(68.652 48.746)" fill="#e8e8e8"/>
          <path id="Trazado_193941" data-name="Trazado 193941" d="M1.877,0A1.876,1.876,0,1,1,0,1.875,1.876,1.876,0,0,1,1.877,0Z" transform="translate(78.605 48.746)" fill="#e8e8e8"/>
          <path id="Trazado_193942" data-name="Trazado 193942" d="M1.877,0A1.876,1.876,0,1,1,0,1.875,1.876,1.876,0,0,1,1.877,0Z" transform="translate(88.558 48.746)" fill="#e8e8e8"/>
          <path id="Trazado_193943" data-name="Trazado 193943" d="M1.877,0A1.876,1.876,0,1,1,0,1.875,1.876,1.876,0,0,1,1.877,0Z" transform="translate(98.512 48.746)" fill="#e8e8e8"/>
          <path id="Trazado_193944" data-name="Trazado 193944" d="M1.877,0A1.876,1.876,0,1,1,0,1.875,1.876,1.876,0,0,1,1.877,0Z" transform="translate(108.465 48.746)" fill="#e8e8e8"/>
          <path id="Trazado_193945" data-name="Trazado 193945" d="M1.877,0A1.876,1.876,0,1,1,0,1.875,1.876,1.876,0,0,1,1.877,0Z" transform="translate(118.418 48.746)" fill="#e8e8e8"/>
          <path id="Trazado_193946" data-name="Trazado 193946" d="M1.877,0A1.876,1.876,0,1,1,0,1.875,1.876,1.876,0,0,1,1.877,0Z" transform="translate(128.371 48.746)" fill="#e8e8e8"/>
          <path id="Trazado_193947" data-name="Trazado 193947" d="M1.877,0A1.876,1.876,0,1,1,0,1.875,1.876,1.876,0,0,1,1.877,0Z" transform="translate(138.324 48.746)" fill="#e8e8e8"/>
          <path id="Trazado_193948" data-name="Trazado 193948" d="M1.627,0A1.628,1.628,0,1,1,0,1.627,1.627,1.627,0,0,1,1.627,0Z" transform="translate(148.528 48.994)" fill="#e8e8e8"/>
          <ellipse id="Elipse_5613" data-name="Elipse 5613" cx="0.055" cy="0.055" rx="0.055" ry="0.055" transform="translate(160.054 50.567)" fill="#e8e8e8"/>
          <path id="Trazado_193949" data-name="Trazado 193949" d="M.775,0A.774.774,0,1,1,0,.773.774.774,0,0,1,.775,0Z" transform="translate(10.035 39.895)" fill="#e8e8e8"/>
          <path id="Trazado_193950" data-name="Trazado 193950" d="M1.877,0A1.876,1.876,0,1,1,0,1.875,1.875,1.875,0,0,1,1.877,0Z" transform="translate(18.886 38.793)" fill="#e8e8e8"/>
          <path id="Trazado_193951" data-name="Trazado 193951" d="M1.877,0A1.876,1.876,0,1,1,0,1.875,1.875,1.875,0,0,1,1.877,0Z" transform="translate(28.839 38.793)" fill="#e8e8e8"/>
          <path id="Trazado_193952" data-name="Trazado 193952" d="M1.877,0A1.876,1.876,0,1,1,0,1.875,1.875,1.875,0,0,1,1.877,0Z" transform="translate(38.792 38.793)" fill="#e8e8e8"/>
          <path id="Trazado_193953" data-name="Trazado 193953" d="M1.877,0A1.876,1.876,0,1,1,0,1.875,1.876,1.876,0,0,1,1.877,0Z" transform="translate(48.745 38.793)" fill="#e8e8e8"/>
          <path id="Trazado_193954" data-name="Trazado 193954" d="M1.877,0A1.876,1.876,0,1,1,0,1.875,1.876,1.876,0,0,1,1.877,0Z" transform="translate(58.699 38.793)" fill="#e8e8e8"/>
          <path id="Trazado_193955" data-name="Trazado 193955" d="M1.877,0A1.876,1.876,0,1,1,0,1.875,1.876,1.876,0,0,1,1.877,0Z" transform="translate(68.652 38.793)" fill="#e8e8e8"/>
          <path id="Trazado_193956" data-name="Trazado 193956" d="M1.877,0A1.876,1.876,0,1,1,0,1.875,1.876,1.876,0,0,1,1.877,0Z" transform="translate(78.605 38.793)" fill="#e8e8e8"/>
          <path id="Trazado_193957" data-name="Trazado 193957" d="M1.877,0A1.876,1.876,0,1,1,0,1.875,1.876,1.876,0,0,1,1.877,0Z" transform="translate(88.558 38.793)" fill="#e8e8e8"/>
          <path id="Trazado_193958" data-name="Trazado 193958" d="M1.877,0A1.876,1.876,0,1,1,0,1.875,1.876,1.876,0,0,1,1.877,0Z" transform="translate(98.512 38.793)" fill="#e8e8e8"/>
          <path id="Trazado_193959" data-name="Trazado 193959" d="M1.877,0A1.876,1.876,0,1,1,0,1.875,1.876,1.876,0,0,1,1.877,0Z" transform="translate(108.465 38.793)" fill="#e8e8e8"/>
          <path id="Trazado_193960" data-name="Trazado 193960" d="M1.877,0A1.876,1.876,0,1,1,0,1.875,1.876,1.876,0,0,1,1.877,0Z" transform="translate(118.418 38.793)" fill="#e8e8e8"/>
          <path id="Trazado_193961" data-name="Trazado 193961" d="M1.877,0A1.876,1.876,0,1,1,0,1.875,1.876,1.876,0,0,1,1.877,0Z" transform="translate(128.371 38.793)" fill="#e8e8e8"/>
          <path id="Trazado_193962" data-name="Trazado 193962" d="M1.877,0A1.876,1.876,0,1,1,0,1.875,1.876,1.876,0,0,1,1.877,0Z" transform="translate(138.324 38.793)" fill="#e8e8e8"/>
          <path id="Trazado_193963" data-name="Trazado 193963" d="M.745,0A.746.746,0,1,1,0,.745.746.746,0,0,1,.745,0Z" transform="translate(149.41 39.923)" fill="#e8e8e8"/>
          <ellipse id="Elipse_5614" data-name="Elipse 5614" cx="0.028" cy="0.028" rx="0.028" ry="0.028" transform="translate(10.781 30.688)" fill="#e8e8e8"/>
          <path id="Trazado_193964" data-name="Trazado 193964" d="M1.325,0A1.325,1.325,0,1,1,0,1.325,1.327,1.327,0,0,1,1.325,0Z" transform="translate(19.438 29.39)" fill="#e8e8e8"/>
          <ellipse id="Elipse_5615" data-name="Elipse 5615" cx="1.877" cy="1.877" rx="1.877" ry="1.877" transform="translate(28.839 28.839)" fill="#e8e8e8"/>
          <ellipse id="Elipse_5616" data-name="Elipse 5616" cx="1.877" cy="1.877" rx="1.877" ry="1.877" transform="translate(38.792 28.839)" fill="#e8e8e8"/>
          <ellipse id="Elipse_5617" data-name="Elipse 5617" cx="1.877" cy="1.877" rx="1.877" ry="1.877" transform="translate(48.745 28.839)" fill="#e8e8e8"/>
          <ellipse id="Elipse_5618" data-name="Elipse 5618" cx="1.877" cy="1.877" rx="1.877" ry="1.877" transform="translate(58.699 28.839)" fill="#e8e8e8"/>
          <ellipse id="Elipse_5619" data-name="Elipse 5619" cx="1.877" cy="1.877" rx="1.877" ry="1.877" transform="translate(68.652 28.839)" fill="#e8e8e8"/>
          <path id="Trazado_193965" data-name="Trazado 193965" d="M1.877,0A1.876,1.876,0,1,1,0,1.875,1.876,1.876,0,0,1,1.877,0Z" transform="translate(78.605 28.84)" fill="#e8e8e8"/>
          <path id="Trazado_193966" data-name="Trazado 193966" d="M1.877,0A1.876,1.876,0,1,1,0,1.875,1.876,1.876,0,0,1,1.877,0Z" transform="translate(88.558 28.84)" fill="#e8e8e8"/>
          <path id="Trazado_193967" data-name="Trazado 193967" d="M1.877,0A1.876,1.876,0,1,1,0,1.875,1.876,1.876,0,0,1,1.877,0Z" transform="translate(98.512 28.84)" fill="#e8e8e8"/>
          <path id="Trazado_193968" data-name="Trazado 193968" d="M1.877,0A1.876,1.876,0,1,1,0,1.875,1.876,1.876,0,0,1,1.877,0Z" transform="translate(108.465 28.84)" fill="#e8e8e8"/>
          <path id="Trazado_193969" data-name="Trazado 193969" d="M1.877,0A1.876,1.876,0,1,1,0,1.875,1.876,1.876,0,0,1,1.877,0Z" transform="translate(118.418 28.84)" fill="#e8e8e8"/>
          <path id="Trazado_193970" data-name="Trazado 193970" d="M1.877,0A1.876,1.876,0,1,1,0,1.875,1.876,1.876,0,0,1,1.877,0Z" transform="translate(128.371 28.84)" fill="#e8e8e8"/>
          <path id="Trazado_193971" data-name="Trazado 193971" d="M1.3,0A1.3,1.3,0,1,1,0,1.3,1.3,1.3,0,0,1,1.3,0Z" transform="translate(138.904 29.418)" fill="#e8e8e8"/>
          <ellipse id="Elipse_5620" data-name="Elipse 5620" cx="0.028" cy="0.028" rx="0.028" ry="0.028" transform="translate(150.128 30.688)" fill="#e8e8e8"/>
          <ellipse id="Elipse_5621" data-name="Elipse 5621" cx="0.083" cy="0.083" rx="0.083" ry="0.083" transform="translate(20.679 20.679)" fill="#e8e8e8"/>
          <path id="Trazado_193972" data-name="Trazado 193972" d="M1.325,0A1.325,1.325,0,1,1,0,1.325,1.327,1.327,0,0,1,1.325,0Z" transform="translate(29.391 19.437)" fill="#e8e8e8"/>
          <ellipse id="Elipse_5622" data-name="Elipse 5622" cx="1.877" cy="1.877" rx="1.877" ry="1.877" transform="translate(38.792 18.885)" fill="#e8e8e8"/>
          <ellipse id="Elipse_5623" data-name="Elipse 5623" cx="1.877" cy="1.877" rx="1.877" ry="1.877" transform="translate(48.745 18.885)" fill="#e8e8e8"/>
          <ellipse id="Elipse_5624" data-name="Elipse 5624" cx="1.877" cy="1.877" rx="1.877" ry="1.877" transform="translate(58.699 18.885)" fill="#e8e8e8"/>
          <ellipse id="Elipse_5625" data-name="Elipse 5625" cx="1.877" cy="1.877" rx="1.877" ry="1.877" transform="translate(68.652 18.885)" fill="#e8e8e8"/>
          <path id="Trazado_193973" data-name="Trazado 193973" d="M1.877,0A1.876,1.876,0,1,1,0,1.875,1.876,1.876,0,0,1,1.877,0Z" transform="translate(78.605 18.886)" fill="#e8e8e8"/>
          <path id="Trazado_193974" data-name="Trazado 193974" d="M1.877,0A1.876,1.876,0,1,1,0,1.875,1.876,1.876,0,0,1,1.877,0Z" transform="translate(88.558 18.886)" fill="#e8e8e8"/>
          <path id="Trazado_193975" data-name="Trazado 193975" d="M1.877,0A1.876,1.876,0,1,1,0,1.875,1.876,1.876,0,0,1,1.877,0Z" transform="translate(98.512 18.886)" fill="#e8e8e8"/>
          <path id="Trazado_193976" data-name="Trazado 193976" d="M1.877,0A1.876,1.876,0,1,1,0,1.875,1.876,1.876,0,0,1,1.877,0Z" transform="translate(108.465 18.886)" fill="#e8e8e8"/>
          <path id="Trazado_193977" data-name="Trazado 193977" d="M1.877,0A1.876,1.876,0,1,1,0,1.875,1.876,1.876,0,0,1,1.877,0Z" transform="translate(118.418 18.886)" fill="#e8e8e8"/>
          <path id="Trazado_193978" data-name="Trazado 193978" d="M1.3,0A1.3,1.3,0,1,1,0,1.3,1.3,1.3,0,0,1,1.3,0Z" transform="translate(128.951 19.464)" fill="#e8e8e8"/>
          <path id="Trazado_193979" data-name="Trazado 193979" d="M.109,0A.11.11,0,1,1,0,.109.11.11,0,0,1,.109,0Z" transform="translate(140.092 20.652)" fill="#e8e8e8"/>
          <ellipse id="Elipse_5626" data-name="Elipse 5626" cx="0.028" cy="0.028" rx="0.028" ry="0.028" transform="translate(30.688 10.781)" fill="#e8e8e8"/>
          <path id="Trazado_193980" data-name="Trazado 193980" d="M.773,0A.773.773,0,1,1,0,.773.774.774,0,0,1,.773,0Z" transform="translate(39.897 10.036)" fill="#e8e8e8"/>
          <path id="Trazado_193981" data-name="Trazado 193981" d="M1.629,0A1.628,1.628,0,1,1,0,1.627,1.628,1.628,0,0,1,1.629,0Z" transform="translate(48.994 9.182)" fill="#e8e8e8"/>
          <ellipse id="Elipse_5627" data-name="Elipse 5627" cx="1.877" cy="1.877" rx="1.877" ry="1.877" transform="translate(58.699 8.932)" fill="#e8e8e8"/>
          <ellipse id="Elipse_5628" data-name="Elipse 5628" cx="1.877" cy="1.877" rx="1.877" ry="1.877" transform="translate(68.652 8.932)" fill="#e8e8e8"/>
          <path id="Trazado_193982" data-name="Trazado 193982" d="M1.877,0A1.876,1.876,0,1,1,0,1.875,1.876,1.876,0,0,1,1.877,0Z" transform="translate(78.605 8.933)" fill="#e8e8e8"/>
          <path id="Trazado_193983" data-name="Trazado 193983" d="M1.877,0A1.876,1.876,0,1,1,0,1.875,1.876,1.876,0,0,1,1.877,0Z" transform="translate(88.558 8.933)" fill="#e8e8e8"/>
          <path id="Trazado_193984" data-name="Trazado 193984" d="M1.877,0A1.876,1.876,0,1,1,0,1.875,1.876,1.876,0,0,1,1.877,0Z" transform="translate(98.512 8.933)" fill="#e8e8e8"/>
          <path id="Trazado_193985" data-name="Trazado 193985" d="M1.629,0A1.628,1.628,0,1,1,0,1.627,1.628,1.628,0,0,1,1.629,0Z" transform="translate(108.713 9.182)" fill="#e8e8e8"/>
          <path id="Trazado_193986" data-name="Trazado 193986" d="M.745,0A.745.745,0,1,1,0,.745.745.745,0,0,1,.745,0Z" transform="translate(119.55 10.063)" fill="#e8e8e8"/>
          <ellipse id="Elipse_5629" data-name="Elipse 5629" cx="0.028" cy="0.028" rx="0.028" ry="0.028" transform="translate(130.221 10.781)" fill="#e8e8e8"/>
          <ellipse id="Elipse_5630" data-name="Elipse 5630" cx="0.055" cy="0.055" rx="0.055" ry="0.055" transform="translate(50.567 0.8)" fill="#e8e8e8"/>
          <path id="Trazado_193987" data-name="Trazado 193987" d="M.413,0A.414.414,0,1,1,0,.413.412.412,0,0,1,.413,0Z" transform="translate(60.163 0.442)" fill="#e8e8e8"/>
          <path id="Trazado_193988" data-name="Trazado 193988" d="M.773,0A.773.773,0,1,1,0,.773.774.774,0,0,1,.773,0Z" transform="translate(69.756 0.082)" fill="#e8e8e8"/>
          <ellipse id="Elipse_5631" data-name="Elipse 5631" cx="0.856" cy="0.856" rx="0.856" ry="0.856" transform="translate(79.627)" fill="#e8e8e8"/>
          <path id="Trazado_193989" data-name="Trazado 193989" d="M.773,0A.773.773,0,1,1,0,.773.774.774,0,0,1,.773,0Z" transform="translate(89.663 0.082)" fill="#e8e8e8"/>
          <path id="Trazado_193990" data-name="Trazado 193990" d="M.413,0A.414.414,0,1,1,0,.413.412.412,0,0,1,.413,0Z" transform="translate(99.976 0.442)" fill="#e8e8e8"/>
          <ellipse id="Elipse_5632" data-name="Elipse 5632" cx="0.055" cy="0.055" rx="0.055" ry="0.055" transform="translate(110.287 0.8)" fill="#e8e8e8"/>
        </g>
      </g>
      <g id="Grupo_169387" data-name="Grupo 169387" transform="translate(0 195.381)">
        <path id="Trazado_211593" data-name="Trazado 211593" d="M3.926,297.385c.227.369.463.728.707,1.08L42.556,275.22c-.2-.376-.416-.751-.642-1.121-.333-.544-.688-1.066-1.06-1.573L3,295.727c.282.56.588,1.115.921,1.659" transform="translate(-0.778 -263.724)" fill="#43a99b"/>
        <path id="Trazado_211594" data-name="Trazado 211594" d="M22.66,312.881,48.373,297.12a22.328,22.328,0,0,0,.772-4.209L18.559,311.659a22.418,22.418,0,0,0,4.1,1.222" transform="translate(-4.805 -269.002)" fill="#43a99b"/>
        <path id="Trazado_211595" data-name="Trazado 211595" d="M11.677,306.34,46.55,284.963a22.041,22.041,0,0,0-.727-3.29L9.074,304.2a22.125,22.125,0,0,0,2.6,2.141" transform="translate(-2.349 -266.093)" fill="#43a99b"/>
        <path id="Trazado_211596" data-name="Trazado 211596" d="M42.905,314.063a22.213,22.213,0,0,0,6.1-5.513L35.224,317a22.224,22.224,0,0,0,7.681-2.935" transform="translate(-9.12 -273.052)" fill="#43a99b"/>
        <path id="Trazado_211597" data-name="Trazado 211597" d="M.637,289.7,37.1,267.346a22.013,22.013,0,0,0-2.692-2.086L0,286.352A22.045,22.045,0,0,0,.637,289.7" transform="translate(0 -261.843)" fill="#43a99b"/>
        <path id="Trazado_211598" data-name="Trazado 211598" d="M12.453,263.848a22.259,22.259,0,0,0-4.907,4.074l10.764-6.6a22.243,22.243,0,0,0-5.857,2.523" transform="translate(-1.954 -260.824)" fill="#43a99b"/>
        <path id="Trazado_211599" data-name="Trazado 211599" d="M.029,280.022l29.8-18.266a22.418,22.418,0,0,0-4.292-1.106L.992,275.7a22.354,22.354,0,0,0-.963,4.326" transform="translate(-0.008 -260.649)" fill="#43a99b"/>
      </g>
    </g>
    <g id="Grupo_179719" data-name="Grupo 179719" transform="translate(-5021 -4872)">
      <g id="Grupo_179718" data-name="Grupo 179718" clip-path="url(#clip-path-2)">
        <g id="Grupo_179684" data-name="Grupo 179684">
          <g id="Grupo_179683" data-name="Grupo 179683" clip-path="url(#clip-path-3)">
            <path id="Trazado_229695" data-name="Trazado 229695" d="M247.5,218.563h-1.563l2.641-42.024H251.9Z" fill="#2647c8"/>
            <path id="Trazado_229696" data-name="Trazado 229696" d="M265.748,218.563h-1.563l2.64-42.024h3.314Z" fill="#1d3599"/>
            <path id="Trazado_229697" data-name="Trazado 229697" d="M317.105,218.563h1.563l-1.856-42.024H313.5Z" fill="#1d3599"/>
            <path id="Trazado_229698" data-name="Trazado 229698" d="M298.863,218.563h1.563l-1.857-42.024h-3.313Z" fill="#2647c8"/>
            <path id="Trazado_229699" data-name="Trazado 229699" d="M246.34,178.25c.939-4.9,5.419-23.917,18.353-24.207s17.248,19.264,18.133,24.207h2.313a57.285,57.285,0,0,0-3.721-12.77c-3.964-9.128-9.759-13.849-16.776-13.713-6.983.157-12.8,4.986-16.813,13.968a56.411,56.411,0,0,0-3.808,12.515Z" fill="#2647c8"/>
            <path id="Trazado_229700" data-name="Trazado 229700" d="M319.14,121.887v37.927l-8.6,12.141-19.265,1.472c-.323,3.573-.59,5.8-.59,5.8H243.271a16.987,16.987,0,0,1,0-12.326c1.813-4.262,16.2-4.759,25.213-4.63,4.235.055,7.281.239,7.281.239v-.184c.074-2.762,1.014-35.606,6.83-40.172v-.018a3.76,3.76,0,0,1,.709-.377c.027-.009.056-.027.092-.037a.185.185,0,0,1,.064-.019c2.873-1.04,11.029-1.61,19.175-1.491,6.333.1,12.676.617,16.505,1.675" fill="#81a4f2"/>
            <path id="Trazado_229701" data-name="Trazado 229701" d="M319.14,121.887v37.927l-8.6,12.141-19.265,1.472c-.323,3.573-.59,5.8-.59,5.8H247.8a16.934,16.934,0,0,1,0-12.326c1.519-3.6,12.031-4.511,20.684-4.63,2.724-.046,5.265-.009,7.281.055,2.743.075,4.529.184,4.529.184s.755-35.587,6.83-40.356v-.018a2.182,2.182,0,0,1,.4-.239,1.86,1.86,0,0,1,.313-.138c.028-.009.055-.027.083-.037a.225.225,0,0,1,.074-.019c2.329-.846,8.165-1.389,14.645-1.491,6.333.1,12.676.617,16.505,1.675" fill="#6f8fe4"/>
            <path id="Trazado_229702" data-name="Trazado 229702" d="M317.621,179.227H270.2a16.992,16.992,0,0,1,0-12.326c2.65-6.259,38.689-.193,38.689-.193s2.761-45.354,10.245-44.821c1.989.139,3.342,1.528,4.217,3.775,4.962,12.777-5.735,53.565-5.735,53.565" fill="#2647c8"/>
            <path id="Trazado_229703" data-name="Trazado 229703" d="M317.621,179.227H271.485c-.442-2.356,42.014-2.689,42.014-2.689s9.259-51.309,9.857-50.876c4.962,12.777-5.735,53.565-5.735,53.565" fill="#1d3599"/>
            <path id="Trazado_229704" data-name="Trazado 229704" d="M277.333,177.084c1.284-6.03,5.942-22.768,18.114-23.041.1,0,.19,0,.284,0,10.258,0,15.044,12.505,16.978,19.893.47-.7.885-1.584,1.494-2.707.011-.022.022-.038.032-.059a51.823,51.823,0,0,0-2.062-5.687c-3.965-9.127-9.76-13.848-16.778-13.712-6.981.157-12.794,4.986-16.811,13.968a56.085,56.085,0,0,0-3.6,11.56q1.18-.079,2.353-.211" fill="#2647c8"/>
            <path id="Trazado_229705" data-name="Trazado 229705" d="M229.82,204.532h-6.568c-1.166,5.019-4.68,8.329-10.667,8.877-3.518.321-3.242,4.654-3.242,4.654h19.482s2.347-2.035-.14-6.415c-.609-1.07,1.135-7.116,1.135-7.116" fill="#fbbcbe"/>
            <path id="Trazado_229706" data-name="Trazado 229706" d="M212.585,213.409c-3.518.321-3.242,4.654-3.242,4.654h19.482s2.347-2.035-.14-6.415c-1.319.751-4.675,1.54-8.846-1.1a15.705,15.705,0,0,1-7.254,2.863" fill="#0c1540"/>
            <path id="Trazado_229707" data-name="Trazado 229707" d="M269.184,114.395c-1.95,4.7-16.023,19.565-18.609,22.41-3.117,3.427-10.592.442-9.323-3.6,1.124-3.582,16.093-23.195,18.287-25,3.961-3.268,12.087.321,9.645,6.2" fill="#fbbcbe"/>
            <path id="Trazado_229708" data-name="Trazado 229708" d="M275.306,145.95c8.607,3.609,2.03,17.569-9.081,21.194s-23.542,1.359-33.2,2.061c-2.746.2-9.759-4.366-4.608-10s35.265-18.129,46.893-13.254" fill="#f5f8ff"/>
            <path id="Trazado_229709" data-name="Trazado 229709" d="M228.745,159.04c-8.107,7.948-6.08,41.186-8.043,47.093a38.466,38.466,0,0,0,10.82,3.479s9.287-38.961,9.684-43.386c.831-9.247-9.792-9.8-12.461-7.186" fill="#f5f8ff"/>
            <path id="Trazado_229710" data-name="Trazado 229710" d="M263.257,145.974s-23.48,10.874-25.913,16.894-2.071,23.6-5.821,46.744L240.7,169.2l15.3-.311,17.2-16.708Z" fill="#d3ddf8"/>
            <path id="Trazado_229711" data-name="Trazado 229711" d="M295.674,145.95c3.32,6.718,1.12,16.11-9.991,19.735s-23.466,2.818-33.9,3.52c-2.746.185-10.727-4.206-5.576-9.841s43.88-24.719,49.465-13.414" fill="#f5f8ff"/>
          </g>
        </g>
        <g id="Grupo_179686" data-name="Grupo 179686">
          <g id="Grupo_179685" data-name="Grupo 179685" clip-path="url(#clip-path-4)">
            <rect id="Rectángulo_58723" data-name="Rectángulo 58723" width="31.328" height="31.476" transform="translate(240.858 107.989) rotate(-29.174)" fill="url(#linear-gradient)"/>
          </g>
        </g>
        <g id="Grupo_179688" data-name="Grupo 179688">
          <g id="Grupo_179687" data-name="Grupo 179687" clip-path="url(#clip-path-3)">
            <path id="Trazado_229713" data-name="Trazado 229713" d="M285.1,148.128s9.77,3.092,4.614,8.916S261.617,168.5,261.617,168.5s28.527,1.986,33.82-10.186c4.589-10.553-1.977-15.347-1.977-15.347Z" fill="#d3ddf8"/>
          </g>
        </g>
        <g id="Grupo_179690" data-name="Grupo 179690">
          <g id="Grupo_179689" data-name="Grupo 179689" clip-path="url(#clip-path-6)">
            <rect id="Rectángulo_58725" data-name="Rectángulo 58725" width="41.392" height="52.455" transform="translate(257.407 100.697)" fill="url(#linear-gradient-2)"/>
          </g>
        </g>
        <g id="Grupo_179692" data-name="Grupo 179692">
          <g id="Grupo_179691" data-name="Grupo 179691" clip-path="url(#clip-path-3)">
            <path id="Trazado_229715" data-name="Trazado 229715" d="M270.976,96.482s.68,3.956-.565,4.479a12.234,12.234,0,0,1-2.907.7s6.8,9.84,14.535-.906c0,0-2.308.028-3.023-.9s-1.156-5.543-.8-8.586Z" fill="#fbbcbe"/>
            <path id="Trazado_229716" data-name="Trazado 229716" d="M279.016,99.851c-.715-.932-1.156-5.543-.8-8.586l-4.129,2.974a11.108,11.108,0,0,1,2.017,2.906c1.074,2.022,1.684,4.864-.417,6.421a6.471,6.471,0,0,1-5.738.553c2.656,1.984,7.182,3.452,12.089-3.365,0,0-2.307.028-3.022-.9" fill="#da91a7"/>
            <path id="Trazado_229717" data-name="Trazado 229717" d="M216.616,212.344s3.329-1.978,3.734-3.721,2.475-.162,2.678.323-2.441,3.348-6.412,3.4" fill="#0c1540"/>
            <path id="Trazado_229718" data-name="Trazado 229718" d="M273.3,204.718c-1.11-.533-3.124-6.494-3.124-6.494l-5.4,3.744c1.9,4.789.9,9.51-3.7,13.373a3.206,3.206,0,0,0-1.113,1.737h6.775l10.335-7.169s.768-3.008-3.771-5.191" fill="#fbbcbe"/>
            <path id="Trazado_229719" data-name="Trazado 229719" d="M277.073,209.908l-1.994,1.383-9.247,6.413-5.966.215a3.142,3.142,0,0,1,1.216-2.579,15.241,15.241,0,0,0,2.793-3.31,12.95,12.95,0,0,0,1.529-3.173c4.935-.205,7.241-2.773,7.9-4.136,4.537,2.18,3.767,5.187,3.767,5.187" fill="#0c1540"/>
            <path id="Trazado_229720" data-name="Trazado 229720" d="M275.079,211.291l-9.247,6.413-7.392.332s-.437-4.322,3.067-4.769c1.265-.166,4.705-2.472,5.454-3.124,3.582,2.092,6.511,1.781,8.118,1.148" fill="#0c1540"/>
            <path id="Trazado_229721" data-name="Trazado 229721" d="M263.784,212.17s1.607-3.523.947-5.187,1.941-1.543,2.384-1.259-.1,4.141-3.331,6.446" fill="#0c1540"/>
            <path id="Trazado_229722" data-name="Trazado 229722" d="M244.494,161.752c-3.009,10.948,17.838,37.48,19.113,43.573,0,0,5.922-2.363,9.186-5.866,0,0-12.031-33.739-13.913-37.764-3.935-8.41-13.4-3.547-14.386.057" fill="#f5f8ff"/>
            <path id="Trazado_229723" data-name="Trazado 229723" d="M282.483,85.417a7.787,7.787,0,0,0-2.608-2.087c-.038,0,.125,7.922-.245,8.64-.273.529-.677,1.728.084,2.03a1.78,1.78,0,0,0,1.99-.706c2.5-3.761.926-7.006.779-7.877" fill="#0c1540"/>
            <path id="Trazado_229724" data-name="Trazado 229724" d="M267.5,80.619V92.586a6.411,6.411,0,0,0,12.774,0v-.269a2.623,2.623,0,0,0,3.282-2.876c0-3.59-2.063-3.087-2.063-3.087V80.619Z" fill="#fbbcbe"/>
            <path id="Trazado_229725" data-name="Trazado 229725" d="M281.5,86.354V79.061h-4.969c0,.035.006,2.623.006,2.658V94.137a4.14,4.14,0,0,1-6.124,3.35,6.743,6.743,0,0,0,3.482.958,6.14,6.14,0,0,0,6.386-5.86v-.268a2.623,2.623,0,0,0,3.282-2.876c0-3.59-2.063-3.087-2.063-3.087" fill="#da91a7"/>
            <path id="Trazado_229726" data-name="Trazado 229726" d="M281.7,74.664c-.005-.012,0-.022-.009-.032-1.745-3.608-7.608-3.443-9.341-2.38-.764-.559-3.324-1.418-4.765.411a3.923,3.923,0,0,0-4.072,3.049c-.422,2.23.693,4.877,3.024,5.436,1.565.375,3.338.6,4.539-.487,1.237,1.051,4.449.591,5.909-.042.659,2.589,1.231,7.706,2.652,7.7.7,0,2.136-1.156,1.86-1.965,3.535-.584,3.606-10.668.2-11.691" fill="#0c1540"/>
            <path id="Trazado_229727" data-name="Trazado 229727" d="M298.116,108.057c3.7,3.494,12.583,21.937,14.32,25.366,2.1,4.132-1.854,8.8-5.636,6.876-3.223-1.638-17-22.74-17.911-25.433-1.644-4.866,4.6-11.183,9.227-6.809" fill="#fbbcbe"/>
          </g>
        </g>
        <g id="Grupo_179694" data-name="Grupo 179694">
          <g id="Grupo_179693" data-name="Grupo 179693" clip-path="url(#clip-path-8)">
            <rect id="Rectángulo_58727" data-name="Rectángulo 58727" width="28.143" height="26.487" transform="translate(276.525 104.073) rotate(-16.164)" fill="url(#linear-gradient-3)"/>
          </g>
        </g>
        <g id="Grupo_179702" data-name="Grupo 179702">
          <g id="Grupo_179701" data-name="Grupo 179701" clip-path="url(#clip-path-3)">
            <rect id="Rectángulo_58728" data-name="Rectángulo 58728" width="40.77" height="2.152" transform="translate(223.051 151.3)" fill="#1d3599"/>
            <path id="Trazado_229729" data-name="Trazado 229729" d="M263.821,153.452h18.767v-1.211a.941.941,0,0,0-.941-.941H263.821Z" fill="#120d80"/>
            <path id="Trazado_229730" data-name="Trazado 229730" d="M224.2,151.3h40.608l-5.346-25a1.53,1.53,0,0,0-1.469-1.249H221.42a2.372,2.372,0,0,0-2.2,2.939Z" fill="#1d3599"/>
            <path id="Trazado_229731" data-name="Trazado 229731" d="M223.213,151.3h40.608l-5.345-25a1.533,1.533,0,0,0-1.471-1.249H219.663a1.728,1.728,0,0,0-1.606,2.141Z" fill="#120d80"/>
            <g id="Grupo_179697" data-name="Grupo 179697" opacity="0.11">
              <g id="Grupo_179696" data-name="Grupo 179696">
                <g id="Grupo_179695" data-name="Grupo 179695" clip-path="url(#clip-path-10)">
                  <path id="Trazado_229732" data-name="Trazado 229732" d="M239.155,125.049,227.718,151.3h5.233l11.863-26.25Z" fill="#f0f5ff"/>
                </g>
              </g>
            </g>
            <g id="Grupo_179700" data-name="Grupo 179700" opacity="0.11">
              <g id="Grupo_179699" data-name="Grupo 179699">
                <g id="Grupo_179698" data-name="Grupo 179698" clip-path="url(#clip-path-11)">
                  <path id="Trazado_229733" data-name="Trazado 229733" d="M247.7,125.049,236.267,151.3H238.3l11.863-26.25Z" fill="#f0f5ff"/>
                </g>
              </g>
            </g>
            <path id="Trazado_229734" data-name="Trazado 229734" d="M309.867,140.912c-4.208,2.49-23.968,5.991-27.279,6.783-3.991.952-5.385-4.077-1.409-5.509,3.835-1.381,25.2-10.574,27.6-10.8,4.344-.4,6.356,6.406,1.088,9.522" fill="#fbbcbe"/>
            <path id="Trazado_229735" data-name="Trazado 229735" d="M269.717,150.906c1.016-1.567,1.959-3.1,1.1-1.99-1.1,1.422-3.219.832-2.13-.579,1.365-1.769,2.724-3.9,4.568-5.25,1.995-1.456,7.691-.467,9.895-1.215.889-.3,2.044,3.989,1.492,4.549-1.837,1.861-4.934,1.757-5.22,2.032a22.634,22.634,0,0,0-1.315,2.584c-.617,1.261-2.985,1.327-2.373.076.39-.8-.018-.872-.614.236-.761,1.417-3.2,1.341-2.446-.065.319-.6.259-.915-.234-.153-1,1.547-3.719,1.311-2.724-.225" fill="#fbbcbe"/>
            <path id="Trazado_229736" data-name="Trazado 229736" d="M270.2,166.9c2.65-6.259,38.689-.192,38.689-.192s.506-8.311,1.672-17.775c3.738,3.676,8.087,6.747,11.327,10.838-1.972,10.682-4.272,19.455-4.272,19.455H270.2a16.992,16.992,0,0,1,0-12.326" fill="#2647c8"/>
            <path id="Trazado_229737" data-name="Trazado 229737" d="M313.5,176.539s1.838-10.184,3.929-21.437a39.88,39.88,0,0,1,4.466,4.67c-1.973,10.682-4.273,19.456-4.273,19.456H271.485c-.442-2.357,42.014-2.689,42.014-2.689" fill="#1d3599"/>
            <path id="Trazado_229738" data-name="Trazado 229738" d="M277.333,177.084c1.284-6.03,5.942-22.768,18.114-23.041.1,0,.19,0,.284,0,10.258,0,15.044,12.505,16.978,19.893.47-.7.885-1.584,1.494-2.707.011-.022.022-.038.032-.059a51.823,51.823,0,0,0-2.062-5.687c-3.965-9.127-9.76-13.848-16.778-13.712-6.981.157-12.794,4.986-16.811,13.968a56.085,56.085,0,0,0-3.6,11.56q1.18-.079,2.353-.211" fill="#2647c8"/>
          </g>
        </g>
        <g id="Grupo_179704" data-name="Grupo 179704">
          <g id="Grupo_179703" data-name="Grupo 179703" clip-path="url(#clip-path-12)">
            <rect id="Rectángulo_58732" data-name="Rectángulo 58732" width="34.092" height="18.075" transform="translate(61.741 110.625)" fill="url(#linear-gradient-4)"/>
          </g>
        </g>
        <g id="Grupo_179706" data-name="Grupo 179706">
          <g id="Grupo_179705" data-name="Grupo 179705" clip-path="url(#clip-path-13)">
            <rect id="Rectángulo_58734" data-name="Rectángulo 58734" width="7.076" height="18.014" transform="translate(55.058 110.598)" fill="url(#linear-gradient-5)"/>
          </g>
        </g>
        <g id="Grupo_179717" data-name="Grupo 179717">
          <g id="Grupo_179716" data-name="Grupo 179716" clip-path="url(#clip-path-3)">
            <path id="Trazado_229739" data-name="Trazado 229739" d="M56.616,114.956l1.282.006A.847.847,0,0,0,57.9,113.3l-1.283,0a.846.846,0,0,0,0,1.663" fill="#fdf4d1"/>
            <path id="Trazado_229740" data-name="Trazado 229740" d="M88.908,114.353l3.216.011a.518.518,0,0,0,0-1.018l-3.215-.011a.518.518,0,0,0,0,1.018" fill="#fff"/>
            <path id="Trazado_229741" data-name="Trazado 229741" d="M88.9,116.34l3.215.011a.517.517,0,0,0,0-1.017l-3.215-.012a.518.518,0,0,0,0,1.018" fill="#fff"/>
            <rect id="Rectángulo_58736" data-name="Rectángulo 58736" width="30.5" height="52.119" transform="translate(60.503 159.085) rotate(-89.799)" fill="#def2f4"/>
            <rect id="Rectángulo_58737" data-name="Rectángulo 58737" width="30.509" height="15.438" transform="matrix(0.003, -1, 1, 0.003, 45.79, 159.037)" fill="#2647c8"/>
            <path id="Trazado_229742" data-name="Trazado 229742" d="M48.965,135.922l2.628.01a1.412,1.412,0,0,0,.011-2.824l-2.628-.007a1.411,1.411,0,1,0-.011,2.821" fill="#fdf4d1"/>
            <path id="Trazado_229743" data-name="Trazado 229743" d="M98.728,136.079l6.587.022a.863.863,0,1,0,.006-1.725l-6.588-.024a.863.863,0,0,0-.005,1.727" fill="#fff"/>
            <path id="Trazado_229744" data-name="Trazado 229744" d="M98.716,139.446l6.587.024a.863.863,0,0,0,.006-1.726l-6.587-.023a.863.863,0,1,0-.006,1.725" fill="#fff"/>
            <path id="Trazado_229745" data-name="Trazado 229745" d="M191.92,41.748h44.317A8.461,8.461,0,0,1,244.7,50.21V82.5a8.461,8.461,0,0,1-8.462,8.462h-3.765l-.15,9.45a1.069,1.069,0,0,1-1.834.73l-9.908-10.18H191.92a8.462,8.462,0,0,1-8.463-8.462V50.21a8.462,8.462,0,0,1,8.463-8.462" fill="#eeac3a"/>
            <path id="Trazado_229746" data-name="Trazado 229746" d="M152.972,82.1h36.349a6.939,6.939,0,0,1,6.94,6.94v26.486a6.939,6.939,0,0,1-6.94,6.94h-3.088l-.123,7.751a.876.876,0,0,1-1.5.6l-8.127-8.349H152.972a6.94,6.94,0,0,1-6.941-6.94V89.036a6.939,6.939,0,0,1,6.941-6.94" fill="#f5f8ff"/>
            <path id="Trazado_229747" data-name="Trazado 229747" d="M235.373,72.952v.019a23.411,23.411,0,0,1-.457,2.793s-.1.018-.314.046a173.745,173.745,0,0,1-32.365,1.378,84.921,84.921,0,0,1-11.007-1.424,8.66,8.66,0,0,1,.247-2.736.23.23,0,0,1,.019-.076c.579-2.27,2.3-5.242,7.218-6.135a24.232,24.232,0,0,0,2.916-.751h.01c8.12-2.62,18.48-9.733,19.743-11.31,1.425-1.785,7.36-2.137,6.3,1.775,0,0,3.323,3.924,7.235-.35,0,0,1.168,9.9.457,16.771" fill="#6f8fe4"/>
            <path id="Trazado_229748" data-name="Trazado 229748" d="M227.681,56.531s-11.35,12.08-26.041,9.535c8.12-2.62,18.48-9.733,19.743-11.31,1.425-1.786,7.36-2.137,6.3,1.775" fill="#2647c8"/>
            <path id="Trazado_229749" data-name="Trazado 229749" d="M203.121,74.3a9.985,9.985,0,0,1-.381,2.032,2.182,2.182,0,0,1-.5.856,2.536,2.536,0,0,1-.4.379,54.5,54.5,0,0,1-10.608-1.8,4.746,4.746,0,0,1,.247-2.736.23.23,0,0,1,.019-.076c.579-2.27,2.3-5.242,7.218-6.134a24.613,24.613,0,0,0,2.916-.751h.01a18.944,18.944,0,0,1,1.481,8.234" fill="#e2e9fb"/>
            <path id="Trazado_229750" data-name="Trazado 229750" d="M235.373,72.952v.019l-.457,2.793s-.1.018-.314.046c-2.42.4-18.538,2.925-32.764,1.757a54.431,54.431,0,0,1-10.608-1.8,4.746,4.746,0,0,1,.247-2.736.23.23,0,0,1,.019-.076A94.665,94.665,0,0,0,203.121,74.3a156.377,156.377,0,0,0,32.252-1.349" fill="#2647c8"/>
            <path id="Trazado_229751" data-name="Trazado 229751" d="M208.8,66.942a5.971,5.971,0,0,0-1.824-3.032c-.454-.406-1.128.264-.672.673a5.084,5.084,0,0,1,1.58,2.612.475.475,0,0,0,.916-.253" fill="#edf1f4"/>
            <path id="Trazado_229752" data-name="Trazado 229752" d="M212.912,65.883a6.684,6.684,0,0,0-2.571-3.961c-.49-.368-.963.457-.48.82a5.7,5.7,0,0,1,2.136,3.4c.13.6,1.045.343.915-.254" fill="#edf1f4"/>
            <path id="Trazado_229753" data-name="Trazado 229753" d="M217.023,63.969a8.9,8.9,0,0,0-2.475-4.423c-.435-.428-1.108.243-.671.672a7.973,7.973,0,0,1,2.23,4c.135.6,1.051.344.916-.252" fill="#edf1f4"/>
            <path id="Trazado_229754" data-name="Trazado 229754" d="M217.922,57.327c-.536-.294-1.017.526-.48.819a5.362,5.362,0,0,1,2.769,4.069c.082.6,1,.345.917-.253a6.236,6.236,0,0,0-3.206-4.635" fill="#edf1f4"/>
            <path id="Trazado_229755" data-name="Trazado 229755" d="M224.188,60.188a10.931,10.931,0,0,0-3.139-5.015c-.451-.41-1.125.26-.671.672a9.979,9.979,0,0,1,2.895,4.595.475.475,0,0,0,.915-.252" fill="#edf1f4"/>
            <rect id="Rectángulo_58738" data-name="Rectángulo 58738" width="74.988" height="59.583" transform="translate(39.318 158.521)" fill="#2647c8"/>
            <rect id="Rectángulo_58739" data-name="Rectángulo 58739" width="74.988" height="59.583" transform="translate(47.105 158.521)" fill="#83a5f2"/>
            <path id="Trazado_229756" data-name="Trazado 229756" d="M52.88,177.919h63.439a3.287,3.287,0,0,0,3.287-3.287v-9.238a3.288,3.288,0,0,0-3.287-3.288H52.88a3.288,3.288,0,0,0-3.287,3.288v9.238a3.287,3.287,0,0,0,3.287,3.287" fill="#dce4fb"/>
            <path id="Trazado_229757" data-name="Trazado 229757" d="M51.293,165.762v8.5a2.306,2.306,0,0,0,2.309,2.3H115.6a2.306,2.306,0,0,0,2.309-2.3v-8.5a2.285,2.285,0,0,0-.308-1.144,2.323,2.323,0,0,0-2-1.154H53.6a2.319,2.319,0,0,0-2,1.154,2.285,2.285,0,0,0-.308,1.144" fill="#83a5f2"/>
            <g id="Grupo_179709" data-name="Grupo 179709" opacity="0.36">
              <g id="Grupo_179708" data-name="Grupo 179708">
                <g id="Grupo_179707" data-name="Grupo 179707" clip-path="url(#clip-path-15)">
                  <path id="Trazado_229758" data-name="Trazado 229758" d="M51.6,164.619h66a2.318,2.318,0,0,0-2-1.154H53.6a2.318,2.318,0,0,0-2,1.154" fill="#0e1766"/>
                </g>
              </g>
            </g>
            <path id="Trazado_229759" data-name="Trazado 229759" d="M82.462,170.012a2.137,2.137,0,1,1,2.138,2.136,2.136,2.136,0,0,1-2.138-2.136" fill="#e2e9fb"/>
            <path id="Trazado_229760" data-name="Trazado 229760" d="M52.88,196.456h63.439a3.287,3.287,0,0,0,3.287-3.287v-9.238a3.288,3.288,0,0,0-3.287-3.288H52.88a3.288,3.288,0,0,0-3.287,3.288v9.238a3.287,3.287,0,0,0,3.287,3.287" fill="#dce4fb"/>
            <path id="Trazado_229761" data-name="Trazado 229761" d="M51.293,184.3v8.5a2.306,2.306,0,0,0,2.309,2.3H115.6a2.306,2.306,0,0,0,2.309-2.3v-8.5a2.282,2.282,0,0,0-.308-1.144,2.323,2.323,0,0,0-2-1.154H53.6a2.319,2.319,0,0,0-2,1.154,2.282,2.282,0,0,0-.308,1.144" fill="#83a5f2"/>
            <g id="Grupo_179712" data-name="Grupo 179712" opacity="0.36">
              <g id="Grupo_179711" data-name="Grupo 179711">
                <g id="Grupo_179710" data-name="Grupo 179710" clip-path="url(#clip-path-16)">
                  <path id="Trazado_229762" data-name="Trazado 229762" d="M51.6,183.156h66a2.318,2.318,0,0,0-2-1.154H53.6a2.318,2.318,0,0,0-2,1.154" fill="#0e1766"/>
                </g>
              </g>
            </g>
            <path id="Trazado_229763" data-name="Trazado 229763" d="M82.462,188.549a2.137,2.137,0,1,1,2.138,2.136,2.136,2.136,0,0,1-2.138-2.136" fill="#e2e9fb"/>
            <path id="Trazado_229764" data-name="Trazado 229764" d="M52.88,214.993h63.439a3.287,3.287,0,0,0,3.287-3.287v-9.239a3.287,3.287,0,0,0-3.287-3.287H52.88a3.287,3.287,0,0,0-3.287,3.287v9.239a3.287,3.287,0,0,0,3.287,3.287" fill="#dce4fb"/>
            <path id="Trazado_229765" data-name="Trazado 229765" d="M51.293,202.836v8.5a2.306,2.306,0,0,0,2.309,2.3H115.6a2.306,2.306,0,0,0,2.309-2.3v-8.5a2.286,2.286,0,0,0-.308-1.143,2.322,2.322,0,0,0-2-1.155H53.6a2.318,2.318,0,0,0-2,1.155,2.286,2.286,0,0,0-.308,1.143" fill="#83a5f2"/>
            <g id="Grupo_179715" data-name="Grupo 179715" opacity="0.36">
              <g id="Grupo_179714" data-name="Grupo 179714">
                <g id="Grupo_179713" data-name="Grupo 179713" clip-path="url(#clip-path-17)">
                  <path id="Trazado_229766" data-name="Trazado 229766" d="M51.6,201.693h66a2.317,2.317,0,0,0-2-1.155H53.6a2.317,2.317,0,0,0-2,1.155" fill="#0e1766"/>
                </g>
              </g>
            </g>
            <path id="Trazado_229767" data-name="Trazado 229767" d="M82.462,207.087a2.137,2.137,0,1,1,2.138,2.136,2.136,2.136,0,0,1-2.138-2.136" fill="#e2e9fb"/>
            <path id="Trazado_229768" data-name="Trazado 229768" d="M166.731,166.774h-1.316v-8.466a10.358,10.358,0,1,0-20.716,0v8.466h-1.315v-8.466a11.674,11.674,0,1,1,23.347,0Z" fill="#2647c8"/>
            <path id="Trazado_229769" data-name="Trazado 229769" d="M180.814,218.1H125.54l7.891-56.15h39.491Z" fill="#9fe3da"/>
            <path id="Trazado_229770" data-name="Trazado 229770" d="M186.076,218.1H130.8l7.89-56.15h39.492Z" fill="#43a99b"/>
            <path id="Trazado_229771" data-name="Trazado 229771" d="M149.248,166.775a1.973,1.973,0,1,0-1.972,1.973,1.972,1.972,0,0,0,1.972-1.973" fill="#0c1540"/>
            <path id="Trazado_229772" data-name="Trazado 229772" d="M170.621,166.775a1.973,1.973,0,1,0-1.973,1.973,1.973,1.973,0,0,0,1.973-1.973" fill="#0c1540"/>
            <path id="Trazado_229773" data-name="Trazado 229773" d="M169.964,166.774h-1.315v-8.466a10.358,10.358,0,1,0-20.716,0v8.466h-1.315v-8.466a11.673,11.673,0,1,1,23.346,0Z" fill="#0c1540"/>
            <path id="Trazado_229774" data-name="Trazado 229774" d="M181.709,99.056c4.507,0,8.45-3.567,8.45-3.567l-1.068-1.354a18.861,18.861,0,0,0-11.842-6.94l-.986-.157a9.416,9.416,0,0,1-5.117,2.421,9.422,9.422,0,0,1-5.118-2.421l-.986.157a18.862,18.862,0,0,0-11.841,6.94l-1.068,1.354s3.943,3.567,8.45,3.567l1.877-3-3.567,18.216s3.714,1.628,12.253,1.628,12.252-1.628,12.252-1.628l-3.567-18.216Z" fill="#eeac3a"/>
          </g>
        </g>
      </g>
    </g>
  </g>
</svg>
