<svg id="Grupo_177526" data-name="Grupo 177526" xmlns="http://www.w3.org/2000/svg" xmlns:xlink="http://www.w3.org/1999/xlink" width="400" height="367.838" viewBox="0 0 400 367.838">
  <defs>
    <clipPath id="clip-path">
      <rect id="Rectángulo_57542" data-name="Rectángulo 57542" width="400" height="367.838" fill="none"/>
    </clipPath>
    <clipPath id="clip-path-3">
      <rect id="Rectángulo_57484" data-name="Rectángulo 57484" width="224.29" height="15.032" fill="none"/>
    </clipPath>
    <clipPath id="clip-path-4">
      <rect id="Rectángulo_57485" data-name="Rectángulo 57485" width="57.291" height="4.932" fill="none"/>
    </clipPath>
    <clipPath id="clip-path-5">
      <path id="Trazado_226441" data-name="Trazado 226441" d="M208.721,183.938,206.254,230,200.1,266.343l6.9-.8,7.568-35.75,12.4-48.126Z" transform="translate(-200.102 -181.67)" fill="none"/>
    </clipPath>
    <linearGradient id="linear-gradient" x1="-5.29" y1="1.094" x2="-5.262" y2="1.094" gradientUnits="objectBoundingBox">
      <stop offset="0" stop-color="#1868b3"/>
      <stop offset="1" stop-color="#208aee"/>
    </linearGradient>
    <clipPath id="clip-path-6">
      <path id="Trazado_226442" data-name="Trazado 226442" d="M217.241,230.251l2.387,37.1,6.271.787-.387-36.566,4.989-47.635-18.246-2.268Z" transform="translate(-212.254 -181.67)" fill="none"/>
    </clipPath>
    <linearGradient id="linear-gradient-2" x1="-4.212" y1="1.166" x2="-4.191" y2="1.166" xlink:href="#linear-gradient"/>
    <clipPath id="clip-path-8">
      <path id="Trazado_226444" data-name="Trazado 226444" d="M203.148,161.615l4.031,35.244,28.21-.048,5.637-30.928c.857-3.725-1.851-6.428-3.944-6.523L205.7,157.754c-.035,0-.068,0-.1,0-1.362,0-2.437,1.225-2.449,3.863" transform="translate(-203.148 -157.752)" fill="none"/>
    </clipPath>
    <linearGradient id="linear-gradient-3" x1="-5.593" y1="2.598" x2="-5.565" y2="2.598" gradientUnits="objectBoundingBox">
      <stop offset="0" stop-color="#223675"/>
      <stop offset="0.003" stop-color="#223675"/>
      <stop offset="1" stop-color="#2d489c"/>
    </linearGradient>
    <clipPath id="clip-path-9">
      <path id="Trazado_226445" data-name="Trazado 226445" d="M212.927,158.457l.6,2.851,2.243-2.758-2.067-1.2Z" transform="translate(-212.927 -157.355)" fill="none"/>
    </clipPath>
    <linearGradient id="linear-gradient-4" x1="-112.422" y1="33.294" x2="-111.894" y2="33.294" gradientUnits="objectBoundingBox">
      <stop offset="0" stop-color="#208aee"/>
      <stop offset="0.522" stop-color="#208aee"/>
      <stop offset="1" stop-color="#4da1f1"/>
    </linearGradient>
    <clipPath id="clip-path-10">
      <path id="Trazado_226446" data-name="Trazado 226446" d="M215.426,158.515l2.061,2.95.653-2.8-.7-1.165Z" transform="translate(-215.426 -157.505)" fill="none"/>
    </clipPath>
    <linearGradient id="linear-gradient-5" x1="-119.152" y1="33.174" x2="-118.599" y2="33.174" xlink:href="#linear-gradient-4"/>
    <clipPath id="clip-path-12">
      <path id="Trazado_226455" data-name="Trazado 226455" d="M226.727,158.9l-.721.093c-1.5.437-2.593,2.593-2.342,4.812l6.672,21.812-6.708,13.363,2.821,2.75,7.855-12c1.264-2.139,2.172-3.048,1.9-4.474l-3.307-18.694c-.464-4.893-1.8-7.745-5.151-7.745a6.977,6.977,0,0,0-1.015.078" transform="translate(-223.628 -158.824)" fill="none"/>
    </clipPath>
    <linearGradient id="linear-gradient-6" x1="-7.329" y1="3.791" x2="-7.294" y2="3.791" xlink:href="#linear-gradient-3"/>
    <clipPath id="clip-path-14">
      <rect id="Rectángulo_57495" data-name="Rectángulo 57495" width="4.462" height="16.928" fill="none"/>
    </clipPath>
    <clipPath id="clip-path-15">
      <rect id="Rectángulo_57496" data-name="Rectángulo 57496" width="4.053" height="14.838" fill="none"/>
    </clipPath>
    <clipPath id="clip-path-16">
      <rect id="Rectángulo_57497" data-name="Rectángulo 57497" width="10.79" height="3.665" fill="none"/>
    </clipPath>
    <clipPath id="clip-path-17">
      <path id="Trazado_226462" data-name="Trazado 226462" d="M204.282,160.665l-6.517,27.557a2.937,2.937,0,0,0,2.363,3.01l15.879-3.617.132-4.43-10.724.33,6.229-19.059c.9-2.3-.074-6-2.471-6.588a4.078,4.078,0,0,0-4.891,2.8" transform="translate(-197.762 -157.75)" fill="none"/>
    </clipPath>
    <linearGradient id="linear-gradient-7" x1="-16.1" y1="3.913" x2="-16.018" y2="3.913" xlink:href="#linear-gradient-3"/>
    <clipPath id="clip-path-19">
      <rect id="Rectángulo_57500" data-name="Rectángulo 57500" width="7.287" height="168.723" fill="none"/>
    </clipPath>
    <clipPath id="clip-path-20">
      <rect id="Rectángulo_57501" data-name="Rectángulo 57501" width="30.666" height="24.738" fill="none"/>
    </clipPath>
    <clipPath id="clip-path-21">
      <rect id="Rectángulo_57502" data-name="Rectángulo 57502" width="26.553" height="23.226" fill="none"/>
    </clipPath>
    <clipPath id="clip-path-24">
      <rect id="Rectángulo_57505" data-name="Rectángulo 57505" width="27.889" height="24.738" fill="none"/>
    </clipPath>
    <clipPath id="clip-path-25">
      <rect id="Rectángulo_57506" data-name="Rectángulo 57506" width="52.977" height="4.932" fill="none"/>
    </clipPath>
    <clipPath id="clip-path-26">
      <path id="Trazado_226532" data-name="Trazado 226532" d="M243.542,156.746l-3.106,49.677-.03,34.987,5.511-.964,2.683-35.329,10.518-48.755Z" transform="translate(-240.406 -156.362)" fill="none"/>
    </clipPath>
    <linearGradient id="linear-gradient-8" x1="-5.805" y1="1.59" x2="-5.779" y2="1.59" xlink:href="#linear-gradient-3"/>
    <clipPath id="clip-path-27">
      <path id="Trazado_226533" data-name="Trazado 226533" d="M248.8,156.075l5,50.449,2.407,35.259,4.884-.183.609-35.678,1.932-49.935Z" transform="translate(-248.803 -155.986)" fill="none"/>
    </clipPath>
    <linearGradient id="linear-gradient-9" x1="-4.562" y1="1.864" x2="-4.542" y2="1.864" xlink:href="#linear-gradient-3"/>
    <clipPath id="clip-path-29">
      <path id="Trazado_226535" data-name="Trazado 226535" d="M244.123,134.662c-2.067,0-4.857,2.546-4.175,6.257l3.771,27.649h24.337l5.167-31.477A2.252,2.252,0,0,0,271,134.462Z" transform="translate(-239.843 -134.462)" fill="none"/>
    </clipPath>
    <linearGradient id="linear-gradient-10" x1="-10.515" y1="4.867" x2="-10.471" y2="4.867" gradientUnits="objectBoundingBox">
      <stop offset="0" stop-color="#208aee"/>
      <stop offset="0.813" stop-color="#4da1f1"/>
      <stop offset="1" stop-color="#4da1f1"/>
    </linearGradient>
    <clipPath id="clip-path-31">
      <path id="Trazado_226545" data-name="Trazado 226545" d="M263.057,134.585c-2.07.411-3.042,3.529-2.36,5.528l4.586,16.5-9.14-.692-.054,3.785L269.5,163.4a2.51,2.51,0,0,0,2.132-2.479l-4.507-23.764a3.492,3.492,0,0,0-3.382-2.641,3.551,3.551,0,0,0-.685.068" transform="translate(-256.09 -134.517)" fill="none"/>
    </clipPath>
    <linearGradient id="linear-gradient-11" x1="-13.558" y1="5.117" x2="-13.504" y2="5.117" gradientUnits="objectBoundingBox">
      <stop offset="0" stop-color="#208aee"/>
      <stop offset="0.517" stop-color="#4da1f1"/>
      <stop offset="1" stop-color="#4da1f1"/>
    </linearGradient>
    <clipPath id="clip-path-32">
      <path id="Trazado_226546" data-name="Trazado 226546" d="M241.4,138.615l-4.675,22.507c0,1.617,2.983,4.882,5.571,3.177l8.673-8.347-.637-3.923-8.036,5.55,6.325-17.985c.351-2.081-.4-4.864-2.51-4.938l-.707-.138c-.037,0-.075,0-.113,0a4.02,4.02,0,0,0-3.891,4.1" transform="translate(-236.729 -134.517)" fill="none"/>
    </clipPath>
    <linearGradient id="linear-gradient-12" x1="-11.137" y1="5.01" x2="-11.089" y2="5.01" xlink:href="#linear-gradient-11"/>
    <clipPath id="clip-path-34">
      <rect id="Rectángulo_57515" data-name="Rectángulo 57515" width="3.069" height="9.513" fill="none"/>
    </clipPath>
    <clipPath id="clip-path-35">
      <rect id="Rectángulo_57516" data-name="Rectángulo 57516" width="6.55" height="7.061" fill="none"/>
    </clipPath>
    <clipPath id="clip-path-36">
      <rect id="Rectángulo_57517" data-name="Rectángulo 57517" width="1.881" height="9.54" fill="none"/>
    </clipPath>
    <clipPath id="clip-path-37">
      <rect id="Rectángulo_57518" data-name="Rectángulo 57518" width="5.046" height="2.112" fill="none"/>
    </clipPath>
    <clipPath id="clip-path-38">
      <rect id="Rectángulo_57519" data-name="Rectángulo 57519" width="73.206" height="4.932" fill="none"/>
    </clipPath>
    <clipPath id="clip-path-39">
      <path id="Trazado_226560" data-name="Trazado 226560" d="M25.377,157.395,22.543,202.7l-.027,31.912,5.026-.878,2.447-32.223,9.958-46.159Z" transform="translate(-22.516 -155.353)" fill="none"/>
    </clipPath>
    <linearGradient id="linear-gradient-13" x1="-0.277" y1="1.728" x2="-0.249" y2="1.728" gradientUnits="objectBoundingBox">
      <stop offset="0" stop-color="#223675"/>
      <stop offset="0.003" stop-color="#223675"/>
      <stop offset="0.849" stop-color="#2d489c"/>
      <stop offset="1" stop-color="#2d489c"/>
    </linearGradient>
    <clipPath id="clip-path-40">
      <path id="Trazado_226561" data-name="Trazado 226561" d="M29.9,156.042l5.543,48.91,30.41,21.728,1.815-5.2L42.4,202.049l1.56-48.071Z" transform="translate(-29.903 -153.978)" fill="none"/>
    </clipPath>
    <linearGradient id="linear-gradient-14" x1="-0.316" y1="2.514" x2="-0.297" y2="2.514" xlink:href="#linear-gradient-13"/>
    <clipPath id="clip-path-42">
      <path id="Trazado_226563" data-name="Trazado 226563" d="M21.237,138.9l4.864,28.71H48.147l3.439-25.218c.622-3.384-1.922-5.706-3.809-5.706l-24.516-.182a2.053,2.053,0,0,0-2.025,2.4" transform="translate(-21.207 -136.505)" fill="none"/>
    </clipPath>
    <linearGradient id="linear-gradient-15" x1="-0.684" y1="4.188" x2="-0.647" y2="4.188" xlink:href="#linear-gradient-10"/>
    <clipPath id="clip-path-43">
      <path id="Trazado_226564" data-name="Trazado 226564" d="M28.415,137.9l-9.087,17.066L9.122,140.053l-2.747,2.576,11.249,20.109a2.642,2.642,0,0,0,3.445-.05l11.273-15.811s2.261-3.342,1.908-5.094a16.78,16.78,0,0,0-1.21-3.468c-.731-1.211-1.549-1.812-2.39-1.812a3.023,3.023,0,0,0-2.235,1.395" transform="translate(-6.375 -136.504)" fill="none"/>
    </clipPath>
    <linearGradient id="linear-gradient-16" x1="-0.339" y1="6.017" x2="-0.286" y2="6.017" xlink:href="#linear-gradient-10"/>
    <clipPath id="clip-path-45">
      <path id="Trazado_226572" data-name="Trazado 226572" d="M36.95,136.665l-1.671-.011c.191.416,7.461,15.319,7.686,15.712l5.6,10.845a2.641,2.641,0,0,0,3.132,1.437L69.8,156.259l-.573-3.288-16.757,4.678-7.736-17.6c-.874-2.315-2.443-3.55-5.582-3.552a16.348,16.348,0,0,0-2.205.167" transform="translate(-35.279 -136.498)" fill="none"/>
    </clipPath>
    <linearGradient id="linear-gradient-17" x1="-1.303" y1="4.864" x2="-1.264" y2="4.864" xlink:href="#linear-gradient-10"/>
    <clipPath id="clip-path-47">
      <rect id="Rectángulo_57528" data-name="Rectángulo 57528" width="0.87" height="9.6" fill="none"/>
    </clipPath>
    <clipPath id="clip-path-48">
      <rect id="Rectángulo_57529" data-name="Rectángulo 57529" width="64.832" height="4.932" fill="none"/>
    </clipPath>
    <clipPath id="clip-path-49">
      <rect id="Rectángulo_57530" data-name="Rectángulo 57530" width="57.292" height="4.932" fill="none"/>
    </clipPath>
    <clipPath id="clip-path-50">
      <path id="Trazado_226585" data-name="Trazado 226585" d="M108.479,171.3l.188.33,6.281,15.191,4.773,11.54c.522,1.266,1.914,4.628,4.936,4.673h.02c1.908.021,3.466-1.284,4.63-3.876l.087-.218,7.634-23.112-5.256-1.848-6.634,19.041-7.709-18.354c-1.18-3-3.747-3.438-6.265-3.438-.925,0-1.844.059-2.684.071" transform="translate(-108.479 -171.226)" fill="none"/>
    </clipPath>
    <linearGradient id="linear-gradient-18" x1="-5.705" y1="3.481" x2="-5.652" y2="3.481" xlink:href="#linear-gradient-3"/>
    <clipPath id="clip-path-51">
      <path id="Trazado_226586" data-name="Trazado 226586" d="M91.064,171.462c-2.133,0-5.01,2.626-4.306,6.452l4.324,31.705h28.556l5.7-35.654a2.32,2.32,0,0,0-2.288-2.708Z" transform="translate(-86.65 -171.258)" fill="none"/>
    </clipPath>
    <linearGradient id="linear-gradient-19" x1="-2.511" y1="2.32" x2="-2.481" y2="2.32" xlink:href="#linear-gradient-3"/>
    <clipPath id="clip-path-53">
      <path id="Trazado_226588" data-name="Trazado 226588" d="M93.095,196.811l-.982,4.657-6.7,3.555a4.074,4.074,0,0,0-2.777,3.83l11.639,44.307,7.32-.1-6.844-41.03,5.646-1.8,15.492,0a6.019,6.019,0,0,0,.664-.068l3.893.579L124.039,253l6.166.1,1.672-46.868a2.469,2.469,0,0,0-1.183-2.253l-8.874-2.8-.171-4.375Z" transform="translate(-82.638 -196.811)" fill="none"/>
    </clipPath>
    <linearGradient id="linear-gradient-20" x1="-1.599" y1="1.103" x2="-1.577" y2="1.103" xlink:href="#linear-gradient"/>
    <clipPath id="clip-path-54">
      <path id="Trazado_226589" data-name="Trazado 226589" d="M101.006,171.581l2.156,2.906.739-2.87-.739-1.156Z" transform="translate(-101.006 -170.461)" fill="none"/>
    </clipPath>
    <linearGradient id="linear-gradient-21" x1="-52.389" y1="27.799" x2="-51.871" y2="27.799" xlink:href="#linear-gradient"/>
    <clipPath id="clip-path-55">
      <path id="Trazado_226590" data-name="Trazado 226590" d="M98.546,171.617l.537,2.87,2.231-2.906-2.007-1.12Z" transform="translate(-98.546 -170.461)" fill="none"/>
    </clipPath>
    <linearGradient id="linear-gradient-22" x1="-53.441" y1="27.799" x2="-52.899" y2="27.799" xlink:href="#linear-gradient"/>
    <clipPath id="clip-path-57">
      <path id="Trazado_226594" data-name="Trazado 226594" d="M89.865,173.685c-2.546,5.828-5.034,13.207-5.089,13.444l-4.8,14.3a2.994,2.994,0,0,0,1.48,3.606l15.32,7.742,2.063-3.16L88.1,200.38l9.239-23.435a4.077,4.077,0,0,0-7.473-3.261" transform="translate(-79.829 -171.257)" fill="none"/>
    </clipPath>
    <linearGradient id="linear-gradient-23" x1="-6.185" y1="2.667" x2="-6.107" y2="2.667" xlink:href="#linear-gradient-3"/>
  </defs>
  <g id="Enmascarar_grupo_177525" data-name="Enmascarar grupo 177525" clip-path="url(#clip-path)">
    <g id="Grupo_177398" data-name="Grupo 177398">
      <g id="Grupo_177397" data-name="Grupo 177397" clip-path="url(#clip-path)">
        <g id="Grupo_177393" data-name="Grupo 177393" transform="translate(109.969 311.24)" opacity="0.1">
          <g id="Grupo_177392" data-name="Grupo 177392">
            <g id="Grupo_177391" data-name="Grupo 177391" clip-path="url(#clip-path-3)">
              <path id="Trazado_226434" data-name="Trazado 226434" d="M297.542,214.835c0,4.151-50.208,7.517-112.145,7.517s-112.146-3.366-112.146-7.517,50.21-7.517,112.146-7.517,112.145,3.366,112.145,7.517" transform="translate(-73.251 -207.319)" fill="#005386"/>
            </g>
          </g>
        </g>
        <path id="Trazado_226435" data-name="Trazado 226435" d="M279.167,316.9H102.993A17.822,17.822,0,0,1,85.17,299.074L82,17.822A17.823,17.823,0,0,1,99.821,0H281.327A17.823,17.823,0,0,1,299.15,17.822l-2.16,281.252A17.822,17.822,0,0,1,279.167,316.9" transform="translate(41.103 -0.001)" fill="#fafdfd"/>
        <path id="Trazado_226436" data-name="Trazado 226436" d="M280.861,0H99.354A17.827,17.827,0,0,0,82.927,10.9,17.977,17.977,0,0,1,94.484,6.722H275.99a17.636,17.636,0,0,1,17.823,17.445l-2.16,275.285A17.639,17.639,0,0,1,273.829,316.9H278.7a17.823,17.823,0,0,0,17.822-17.824l2.162-281.252A17.823,17.823,0,0,0,280.861,0" transform="translate(41.568 -0.001)" fill="#d1effc"/>
        <path id="Trazado_226437" data-name="Trazado 226437" d="M272.3,257.108H94.051L91.086,28.471H274.323Z" transform="translate(45.658 14.272)" fill="#bbe8fb"/>
        <g id="Grupo_177396" data-name="Grupo 177396" transform="translate(289.103 362.906)" opacity="0.2">
          <g id="Grupo_177395" data-name="Grupo 177395">
            <g id="Grupo_177394" data-name="Grupo 177394" clip-path="url(#clip-path-4)">
              <path id="Trazado_226438" data-name="Trazado 226438" d="M249.864,244.2c0,1.362-12.825,2.467-28.646,2.467s-28.646-1.1-28.646-2.467,12.825-2.467,28.646-2.467,28.646,1.1,28.646,2.467" transform="translate(-192.573 -241.734)" fill="#005386"/>
            </g>
          </g>
        </g>
        <path id="Trazado_226439" data-name="Trazado 226439" d="M224.965,244.9l-1.979-2.22-.371-7.521-5.074.408.545,7.22-.79,2.474-.1,1.641,10.084.592.057-.982Zm-6.1,2.088.318-.57.569.035.323.607Z" transform="translate(108.875 117.877)" fill="#1a2958"/>
        <path id="Trazado_226440" data-name="Trazado 226440" d="M204.7,236.266l5.113-.641-1.061,5.531.613,3.222.044,1.446-3.917.342-.956-.525-1.79.095-.468.656-8.431.173-.03-.977,5.925-1.762,3.495-2.579Z" transform="translate(97.152 118.111)" fill="#1a2958"/>
      </g>
    </g>
    <g id="Grupo_177400" data-name="Grupo 177400" transform="translate(300.406 272.735)">
      <g id="Grupo_177399" data-name="Grupo 177399" clip-path="url(#clip-path-5)">
        <rect id="Rectángulo_57487" data-name="Rectángulo 57487" width="54.205" height="88.755" transform="translate(-27.213 9.905) rotate(-20)" fill="url(#linear-gradient)"/>
      </g>
    </g>
    <g id="Grupo_177402" data-name="Grupo 177402" transform="translate(318.649 272.735)">
      <g id="Grupo_177401" data-name="Grupo 177401" clip-path="url(#clip-path-6)">
        <rect id="Rectángulo_57488" data-name="Rectángulo 57488" width="69.559" height="77.968" transform="translate(-42.578 35.727) rotate(-40)" fill="url(#linear-gradient-2)"/>
      </g>
    </g>
    <g id="Grupo_177404" data-name="Grupo 177404">
      <g id="Grupo_177403" data-name="Grupo 177403" clip-path="url(#clip-path)">
        <path id="Trazado_226443" data-name="Trazado 226443" d="M219.759,146.645l-5.25-.236a2.322,2.322,0,0,0-2.422,2.458l.534,8.96a1.127,1.127,0,0,0,.647,1.042l1.6,1.051-1.48,8.4,5.907-.069-.36-8.506,2.129-1.031a1.127,1.127,0,0,0,.773-.994l.626-8.02a2.835,2.835,0,0,0-2.7-3.054" transform="translate(106.31 73.388)" fill="#ffc590"/>
      </g>
    </g>
    <g id="Grupo_177406" data-name="Grupo 177406" transform="translate(304.979 236.828)">
      <g id="Grupo_177405" data-name="Grupo 177405" clip-path="url(#clip-path-8)">
        <rect id="Rectángulo_57490" data-name="Rectángulo 57490" width="53.235" height="53.099" transform="translate(-16.934 29.33) rotate(-60)" fill="url(#linear-gradient-3)"/>
      </g>
    </g>
    <g id="Grupo_177408" data-name="Grupo 177408" transform="translate(319.66 236.232)">
      <g id="Grupo_177407" data-name="Grupo 177407" clip-path="url(#clip-path-9)">
        <rect id="Rectángulo_57491" data-name="Rectángulo 57491" width="2.843" height="3.953" fill="url(#linear-gradient-4)"/>
      </g>
    </g>
    <g id="Grupo_177410" data-name="Grupo 177410" transform="translate(323.411 236.457)">
      <g id="Grupo_177409" data-name="Grupo 177409" clip-path="url(#clip-path-10)">
        <rect id="Rectángulo_57492" data-name="Rectángulo 57492" width="2.714" height="3.96" fill="url(#linear-gradient-5)"/>
      </g>
    </g>
    <g id="Grupo_177412" data-name="Grupo 177412">
      <g id="Grupo_177411" data-name="Grupo 177411" clip-path="url(#clip-path)">
        <path id="Trazado_226447" data-name="Trazado 226447" d="M216.045,158.242l-.959-.044-.853,1.013.785,1.085.932.042.829-1.088Z" transform="translate(107.388 79.299)" fill="#ededee"/>
        <path id="Trazado_226448" data-name="Trazado 226448" d="M216.049,159.528l-3.864,29.2L214,191.245l2.449-2.214.539-29.461Z" transform="translate(106.361 79.966)" fill="#ededee"/>
        <path id="Trazado_226449" data-name="Trazado 226449" d="M220.679,145.876a6.259,6.259,0,0,0-2.479-.111c-1.979.126-2.48,1-3.475.294-1.145-.808-4.2,2.474-3.177,4.316l.643,1.465c.269,1.24.477,1.866.569,1.764.691-.772.375-2.591,1.018-2.618l1.213-.239s1.632-2.459,2.3-1.052a5.064,5.064,0,0,0,4.972,2.927c3.058-.156,2.831-5.17-1.579-6.747" transform="translate(105.938 73.049)" fill="#1a2958"/>
        <path id="Trazado_226450" data-name="Trazado 226450" d="M227.926,184.082l-2.576,3.211-1.246,1.24-1.746.221-.02,0-2.585,1.172,1.371.33,1.207-.471.252-.063.312-.08-.249.269c.047.153.1.306.153.467.078.221.153.44.252.679.122.293.284.613.44.929.111.222.2.434.332.67.007.012.018.026.026.039l.05-.054.078.078-.068.074c.183.324.413.676.635,1.021l.093-.113.333-.425,1.282-2.25.488-.623.432-.276,2.926-4.244Z" transform="translate(110.154 92.274)" fill="#ffc590"/>
        <path id="Trazado_226451" data-name="Trazado 226451" d="M221.951,188.73c.12.293.282.611.438.929-.156-.317-.318-.637-.438-.929" transform="translate(111.256 94.604)" fill="#fee3a1"/>
        <path id="Trazado_226452" data-name="Trazado 226452" d="M222.518,189.893c.117.207.411.913.545,1.13l.095-.116c-.222-.347-.452-.7-.634-1.021Z" transform="translate(111.54 95.184)" fill="#fee3a1"/>
        <path id="Trazado_226453" data-name="Trazado 226453" d="M222.489,189.834c-.008-.012-.018-.027-.024-.039.008.015.012.027.021.042Z" transform="translate(111.514 95.138)" fill="#fee3a1"/>
        <path id="Trazado_226454" data-name="Trazado 226454" d="M221.839,188.435c-.057-.161-.108-.315-.153-.467l-.015.015c.044.14.116.3.168.452" transform="translate(111.116 94.222)" fill="#fee3a1"/>
      </g>
    </g>
    <g id="Grupo_177414" data-name="Grupo 177414" transform="translate(335.725 238.437)">
      <g id="Grupo_177413" data-name="Grupo 177413" clip-path="url(#clip-path-12)">
        <rect id="Rectángulo_57494" data-name="Rectángulo 57494" width="43.69" height="32.766" transform="translate(-18.794 32.181) rotate(-60)" fill="url(#linear-gradient-6)"/>
      </g>
    </g>
    <g id="Grupo_177425" data-name="Grupo 177425">
      <g id="Grupo_177424" data-name="Grupo 177424" clip-path="url(#clip-path)">
        <g id="Grupo_177417" data-name="Grupo 177417" transform="translate(335.922 243.948)" opacity="0.4">
          <g id="Grupo_177416" data-name="Grupo 177416">
            <g id="Grupo_177415" data-name="Grupo 177415" clip-path="url(#clip-path-14)">
              <path id="Trazado_226456" data-name="Trazado 226456" d="M223.759,162.495l4.46,14.583-.428,2.345Z" transform="translate(-223.759 -162.495)" fill="#1a2958"/>
            </g>
          </g>
        </g>
        <g id="Grupo_177420" data-name="Grupo 177420" transform="translate(306.722 243.532)" opacity="0.4">
          <g id="Grupo_177419" data-name="Grupo 177419">
            <g id="Grupo_177418" data-name="Grupo 177418" clip-path="url(#clip-path-15)">
              <path id="Trazado_226457" data-name="Trazado 226457" d="M208.362,162.218l-4.053,12.4.279,2.435Z" transform="translate(-204.309 -162.218)" fill="#1a2958"/>
            </g>
          </g>
        </g>
        <g id="Grupo_177423" data-name="Grupo 177423" transform="translate(308.135 265.791)" opacity="0.4">
          <g id="Grupo_177422" data-name="Grupo 177422">
            <g id="Grupo_177421" data-name="Grupo 177421" clip-path="url(#clip-path-16)">
              <path id="Trazado_226458" data-name="Trazado 226458" d="M205.25,179.54l7-1.6.047-.519,2.382-.38,1.357.044-3.653,1.26v.395l-7,1.967Z" transform="translate(-205.25 -177.044)" fill="#1a2958"/>
            </g>
          </g>
        </g>
        <path id="Trazado_226459" data-name="Trazado 226459" d="M218.576,181.6l-4.546-.164a.912.912,0,0,1-.874-.949l.306-10.333a.911.911,0,0,1,.94-.883l4.546.164a.911.911,0,0,1,.872.949l-.3,10.333a.912.912,0,0,1-.94.883" transform="translate(106.847 84.847)" fill="#091018"/>
        <path id="Trazado_226460" data-name="Trazado 226460" d="M217.365,170.568l-1.461-.057a.353.353,0,0,1,.029-.706l1.461.059a.352.352,0,0,1-.029.7" transform="translate(108.057 85.117)" fill="#939598"/>
        <path id="Trazado_226461" data-name="Trazado 226461" d="M213.269,175.5l.956-.533,1.209-.835,1.21-.417,0,.748-.516.294-.1.312,4.381-1.04,2.2-1.078-.093.935-2.069,1-2.44.889.006.146,2.822-.593,2.334-1.23-.146.985-1.973.941-3,.878.006.135,2.893-.638,1.907-1.009-.074.787-1.868,1.073-2.822.77.006.131,1.636-.326,1.467-.524-.306.7-1.4.62-3.418.419-.555.068-1.405-.014-6.206.991-1.438-3.36Z" transform="translate(103.494 86.694)" fill="#ffc590"/>
      </g>
    </g>
    <g id="Grupo_177427" data-name="Grupo 177427" transform="translate(296.893 236.825)">
      <g id="Grupo_177426" data-name="Grupo 177426" clip-path="url(#clip-path-17)">
        <rect id="Rectángulo_57499" data-name="Rectángulo 57499" width="18.437" height="33.483" transform="translate(-0.06)" fill="url(#linear-gradient-7)"/>
      </g>
    </g>
    <g id="Grupo_177450" data-name="Grupo 177450">
      <g id="Grupo_177449" data-name="Grupo 177449" clip-path="url(#clip-path)">
        <g id="Grupo_177430" data-name="Grupo 177430" transform="translate(290.95 86.54)" opacity="0.1">
          <g id="Grupo_177429" data-name="Grupo 177429">
            <g id="Grupo_177428" data-name="Grupo 177428" clip-path="url(#clip-path-19)">
              <path id="Trazado_226463" data-name="Trazado 226463" d="M197.158,57.645l3.93,161.91a3.673,3.673,0,0,1-1.672,3.172l-5.612,3.641Z" transform="translate(-193.803 -57.645)" fill="#1a2958"/>
            </g>
          </g>
        </g>
        <path id="Trazado_226464" data-name="Trazado 226464" d="M234.689,222.429l-123.2.758a3.244,3.244,0,0,1-3.243-3.244l-.48-147.92,131.975-1.774-1.811,148.937a3.243,3.243,0,0,1-3.243,3.243" transform="translate(54.02 35.213)" fill="#fff"/>
        <path id="Trazado_226465" data-name="Trazado 226465" d="M240.012,78.816,108.091,80.59l-.968-19.123a2.9,2.9,0,0,1,2.9-2.9L237.711,56.7a2.9,2.9,0,0,1,2.9,2.9Z" transform="translate(53.697 28.421)" fill="#2d489c"/>
        <path id="Trazado_226466" data-name="Trazado 226466" d="M209.873,68.552H137.078l-.605-5.34h73.4Z" transform="translate(68.409 31.686)" fill="#fff"/>
        <path id="Trazado_226467" data-name="Trazado 226467" d="M120.422,67.668H116.27V63.592l3.951.125Z" transform="translate(58.282 31.876)" fill="#fff"/>
        <path id="Trazado_226468" data-name="Trazado 226468" d="M126.265,67.7h-3.951l-.236-4.183,4.005.231Z" transform="translate(61.193 31.841)" fill="#ffc008"/>
        <path id="Trazado_226469" data-name="Trazado 226469" d="M131.468,67.626h-3.747l-.2-3.951h3.951Z" transform="translate(63.92 31.918)" fill="#ff7201"/>
        <g id="Grupo_177433" data-name="Grupo 177433" transform="translate(172.952 135.54)" opacity="0.4">
          <g id="Grupo_177432" data-name="Grupo 177432">
            <g id="Grupo_177431" data-name="Grupo 177431" clip-path="url(#clip-path-20)">
              <path id="Trazado_226470" data-name="Trazado 226470" d="M115.2,90.284h29.575l1.091,24.738-29.524-1.132Z" transform="translate(-115.204 -90.284)" fill="#ade5fa"/>
            </g>
          </g>
        </g>
        <path id="Trazado_226471" data-name="Trazado 226471" d="M117.828,93.53l-.059-1.2h1.2v.477h-.7l.033.7Z" transform="translate(59.034 46.282)" fill="#009aef"/>
        <path id="Trazado_226472" data-name="Trazado 226472" d="M135.931,92.807h-1.8V92.33h1.8Zm-3.591,0h-1.8V92.33h1.8Zm-3.593,0h-1.8V92.33h1.8Zm-3.593,0h-1.8V92.33h1.8Zm-3.591,0h-1.8V92.33h1.8Z" transform="translate(60.035 46.282)" fill="#009aef"/>
        <path id="Trazado_226473" data-name="Trazado 226473" d="M132.488,93.528l-.032-.721h-.725V92.33h1.18l.053,1.178Z" transform="translate(66.032 46.282)" fill="#009aef"/>
        <path id="Trazado_226474" data-name="Trazado 226474" d="M132.845,106.948l-.08-1.8.476-.02.08,1.8Zm-.159-3.6-.08-1.8.476-.02.081,1.8Zm-.159-3.6-.08-1.8.477-.02.08,1.8Zm-.159-3.6-.08-1.8.477-.02.08,1.8Z" transform="translate(66.311 47.277)" fill="#009aef"/>
        <path id="Trazado_226475" data-name="Trazado 226475" d="M133.468,105.125l-1.21-.047.018-.476.694.026-.032-.691.477-.02Z" transform="translate(66.296 52.09)" fill="#009aef"/>
        <path id="Trazado_226476" data-name="Trazado 226476" d="M136.452,105.012l-1.792-.068.018-.477,1.793.068Zm-3.587-.138-1.793-.068.018-.477,1.793.068Zm-3.587-.137-1.791-.071.018-.476,1.791.071ZM125.7,104.6l-1.794-.068.018-.477,1.794.069Zm-3.587-.138-1.793-.068.018-.477,1.793.069Z" transform="translate(60.31 52.089)" fill="#009aef"/>
        <path id="Trazado_226477" data-name="Trazado 226477" d="M119.531,104.6l-1.169-.044-.056-1.171.474-.023.036.733.733.029Z" transform="translate(59.303 51.813)" fill="#009aef"/>
        <path id="Trazado_226478" data-name="Trazado 226478" d="M118.443,106.245l-.084-1.71.476-.024.084,1.71Zm-.165-3.418-.084-1.71.476-.026.083,1.711Zm-.168-3.421-.081-1.71.476-.024.083,1.71Zm-.164-3.418-.083-1.71.474-.024.083,1.71Z" transform="translate(59.081 47.246)" fill="#009aef"/>
        <path id="Trazado_226479" data-name="Trazado 226479" d="M142.256,90.284h27.889v22.879l-25.506,1.859Z" transform="translate(71.308 45.256)" fill="#ff7201"/>
        <g id="Grupo_177436" data-name="Grupo 177436" transform="translate(251.159 134.772)" opacity="0.7">
          <g id="Grupo_177435" data-name="Grupo 177435">
            <g id="Grupo_177434" data-name="Grupo 177434" clip-path="url(#clip-path-21)">
              <path id="Trazado_226480" data-name="Trazado 226480" d="M167.3,90.54l26.553-.769v22.436l-24.934.79Z" transform="translate(-167.298 -89.772)" fill="#ade5fa"/>
            </g>
          </g>
        </g>
        <g id="Grupo_177439" data-name="Grupo 177439" transform="translate(172.952 207.556)" opacity="0.7">
          <g id="Grupo_177438" data-name="Grupo 177438">
            <g id="Grupo_177437" data-name="Grupo 177437" clip-path="url(#clip-path-20)">
              <path id="Trazado_226481" data-name="Trazado 226481" d="M115.2,138.254h29.575l1.091,24.738-29.524-1.132Z" transform="translate(-115.204 -138.254)" fill="#ade5fa"/>
            </g>
          </g>
        </g>
        <path id="Trazado_226482" data-name="Trazado 226482" d="M142.256,138.254h27.889v22.879l-25.506,1.859Z" transform="translate(71.308 69.302)" fill="#ade5fa"/>
        <g id="Grupo_177442" data-name="Grupo 177442" transform="translate(251.159 206.787)" opacity="0.3">
          <g id="Grupo_177441" data-name="Grupo 177441">
            <g id="Grupo_177440" data-name="Grupo 177440" clip-path="url(#clip-path-21)">
              <path id="Trazado_226483" data-name="Trazado 226483" d="M167.3,138.51l26.553-.769v22.436l-24.934.79Z" transform="translate(-167.298 -137.742)" fill="#ade5fa"/>
            </g>
          </g>
        </g>
        <path id="Trazado_226484" data-name="Trazado 226484" d="M195.224,136.6H165.649l-1.091-24.738L194.082,113Z" transform="translate(82.487 56.073)" fill="#ade5fa"/>
        <g id="Grupo_177445" data-name="Grupo 177445" transform="translate(209.21 167.936)" opacity="0.7">
          <g id="Grupo_177444" data-name="Grupo 177444">
            <g id="Grupo_177443" data-name="Grupo 177443" clip-path="url(#clip-path-24)">
              <path id="Trazado_226485" data-name="Trazado 226485" d="M167.245,136.6H139.356V113.722l25.506-1.859Z" transform="translate(-139.356 -111.863)" fill="#ade5fa"/>
            </g>
          </g>
        </g>
        <path id="Trazado_226486" data-name="Trazado 226486" d="M141.756,135.84l-26.553.769V114.172l24.935-.79Z" transform="translate(57.747 56.835)" fill="#ffc008"/>
        <path id="Trazado_226487" data-name="Trazado 226487" d="M145.253,98.337l4.564-3h1.838s.641,1.213,3.369,1.213,2.3-1.606,2.3-1.606H159.2l4.174,1.695-.731,3.067-3.067-.587.48,6.9-9.051.641-.309-7.539-2.033,1.683Z" transform="translate(72.81 47.595)" fill="#fff"/>
        <path id="Trazado_226488" data-name="Trazado 226488" d="M189.411,124.333H167.964l-.342-4.87h22.132Z" transform="translate(84.023 59.883)" fill="#2d489c"/>
        <path id="Trazado_226489" data-name="Trazado 226489" d="M169.4,121.224a.416.416,0,1,1-.416-.416.416.416,0,0,1,.416.416" transform="translate(84.498 60.557)" fill="#fff"/>
        <path id="Trazado_226490" data-name="Trazado 226490" d="M170.49,121.224a.416.416,0,1,1-.416-.416.416.416,0,0,1,.416.416" transform="translate(85.044 60.557)" fill="#fff"/>
        <path id="Trazado_226491" data-name="Trazado 226491" d="M180.265,121.224a.417.417,0,1,1-.416-.416.416.416,0,0,1,.416.416" transform="translate(89.943 60.557)" fill="#fff"/>
        <path id="Trazado_226492" data-name="Trazado 226492" d="M181.353,121.224a.416.416,0,1,1-.416-.416.416.416,0,0,1,.416.416" transform="translate(90.489 60.557)" fill="#fff"/>
        <path id="Trazado_226493" data-name="Trazado 226493" d="M182.515,122.925A5.511,5.511,0,1,1,177,117.414a5.511,5.511,0,0,1,5.511,5.511" transform="translate(85.963 58.856)" fill="#ffcb08"/>
        <path id="Trazado_226494" data-name="Trazado 226494" d="M180.976,122.54a4.358,4.358,0,1,1-4.358-4.358,4.359,4.359,0,0,1,4.358,4.358" transform="translate(86.348 59.24)" fill="#fff"/>
        <path id="Trazado_226495" data-name="Trazado 226495" d="M178.115,121.589a5.047,5.047,0,0,0-2.337-.059.464.464,0,0,0-.116-.114c.086-.5.216-1.509-.056-1.781a.522.522,0,0,0-.513,0c-.27.272-.14,1.276-.054,1.781a.529.529,0,0,0-.248.429.559.559,0,0,0,.558.558.53.53,0,0,0,.428-.243,5.064,5.064,0,0,0,2.337-.06.409.409,0,0,0,0-.512" transform="translate(87.617 59.935)" fill="#44339c"/>
        <path id="Trazado_226496" data-name="Trazado 226496" d="M162.15,142.823l-3.942,1.3-.137-2.009-12.306,1.333,1.368,9.686,11.621-.994-.14-2.046,3.535.359ZM160.8,148.69h-2.286l-.218-3.213,2.7-1.115Z" transform="translate(73.067 71.235)" fill="#208aee"/>
        <path id="Trazado_226497" data-name="Trazado 226497" d="M170.41,141.818l-.042-.9h.9v.356h-.53l.027.527Z" transform="translate(85.399 70.638)" fill="#009aef"/>
        <path id="Trazado_226498" data-name="Trazado 226498" d="M184.017,141.275h-1.35v-.356h1.35Zm-2.7,0h-1.35v-.356h1.35Zm-2.7,0h-1.35v-.356h1.35Zm-2.7,0h-1.35v-.356h1.35Zm-2.7,0h-1.35v-.356h1.35Z" transform="translate(86.152 70.638)" fill="#009aef"/>
        <path id="Trazado_226499" data-name="Trazado 226499" d="M181.428,141.818l-.023-.543h-.545v-.356h.887l.039.883Z" transform="translate(90.659 70.638)" fill="#009aef"/>
        <path id="Trazado_226500" data-name="Trazado 226500" d="M181.7,151.906l-.06-1.354.357-.015.062,1.353Zm-.12-2.708-.06-1.353.359-.017.06,1.354Zm-.12-2.707-.06-1.356.359-.017.06,1.356Zm-.119-2.71-.06-1.354.359-.017.06,1.354Z" transform="translate(90.869 71.385)" fill="#009aef"/>
        <path id="Trazado_226501" data-name="Trazado 226501" d="M182.166,150.534l-.908-.035.014-.356.521.018-.024-.519.357-.015Z" transform="translate(90.858 75.003)" fill="#009aef"/>
        <path id="Trazado_226502" data-name="Trazado 226502" d="M184.408,150.448l-1.348-.053.015-.356,1.348.053Zm-2.695-.105-1.348-.05.015-.356,1.348.051Zm-2.695-.1-1.347-.051.014-.357,1.347.053Zm-2.695-.1-1.348-.052.014-.356,1.348.053Zm-2.695-.1-1.348-.053.013-.356,1.348.051Z" transform="translate(86.358 75.003)" fill="#009aef"/>
        <path id="Trazado_226503" data-name="Trazado 226503" d="M171.692,150.139l-.88-.035-.042-.877.357-.015.027.548.551.022Z" transform="translate(85.601 74.795)" fill="#009aef"/>
        <path id="Trazado_226504" data-name="Trazado 226504" d="M170.874,151.374l-.062-1.287.357-.015.063,1.285Zm-.126-2.57-.06-1.285.357-.017.062,1.287Zm-.123-2.572-.063-1.284.359-.015.062,1.284Zm-.125-2.569-.063-1.287.359-.015.062,1.285Z" transform="translate(85.434 71.361)" fill="#009aef"/>
        <path id="Trazado_226505" data-name="Trazado 226505" d="M90.724,24.685,270.8,19l4.507,24.235L89.116,46.2Z" transform="translate(44.671 9.523)" fill="#2d489c"/>
        <path id="Trazado_226506" data-name="Trazado 226506" d="M89.116,38.1V50.617l183.1-1.633,3.1-13.842Z" transform="translate(44.671 17.615)" fill="#223675"/>
        <path id="Trazado_226507" data-name="Trazado 226507" d="M104.129,22.535l-1.35,21.825L120.4,44.08l.353-22.07Z" transform="translate(51.52 11.033)" fill="#ffc008"/>
        <path id="Trazado_226508" data-name="Trazado 226508" d="M127.229,21.822l.5,22.349,20.743-.33-1.735-22.635Z" transform="translate(63.776 10.63)" fill="#ffc008"/>
        <path id="Trazado_226509" data-name="Trazado 226509" d="M155.185,20.958l1.332,22.993,20.82-.332-.844-23.334Z" transform="translate(77.789 10.168)" fill="#ffc008"/>
        <path id="Trazado_226510" data-name="Trazado 226510" d="M208.375,19.3l-23.343.737,1.75,23.69L210,43.356Z" transform="translate(92.75 9.674)" fill="#ffc008"/>
        <path id="Trazado_226511" data-name="Trazado 226511" d="M103.095,36.991l17.622-.281v12.78l-18.566.165Z" transform="translate(51.204 18.402)" fill="#ff7201"/>
        <path id="Trazado_226512" data-name="Trazado 226512" d="M127.563,36.613l.113,12.915,21.015-.188-.384-13.058Z" transform="translate(63.943 18.187)" fill="#ff7201"/>
        <path id="Trazado_226513" data-name="Trazado 226513" d="M156.071,36.16,157,49.368l21.142-.189-1.252-13.351Z" transform="translate(78.233 17.959)" fill="#ff7201"/>
        <path id="Trazado_226514" data-name="Trazado 226514" d="M186.383,35.693l-.555,13.537,24.262-.218L209.6,35.324Z" transform="translate(93.149 17.707)" fill="#ff7201"/>
        <path id="Trazado_226515" data-name="Trazado 226515" d="M89.116,45.508s9.375,8.391,19.569-.174Z" transform="translate(44.671 22.724)" fill="#1a2958"/>
        <path id="Trazado_226516" data-name="Trazado 226516" d="M102.151,45.389s8.374,8.4,18.566-.165Z" transform="translate(51.205 22.669)" fill="#bf5601"/>
        <path id="Trazado_226517" data-name="Trazado 226517" d="M114.518,45.282s9.5,8.389,19.7-.176Z" transform="translate(57.404 22.61)" fill="#1a2958"/>
        <path id="Trazado_226518" data-name="Trazado 226518" d="M127.638,45.147s10.821,8.4,21.013-.165Z" transform="translate(63.98 22.548)" fill="#bf5601"/>
        <path id="Trazado_226519" data-name="Trazado 226519" d="M141.636,45.053s12.409,8.361,22.6-.206Z" transform="translate(70.997 22.48)" fill="#1a2958"/>
        <path id="Trazado_226520" data-name="Trazado 226520" d="M156.69,44.9s10.95,8.386,21.142-.18Z" transform="translate(78.543 22.417)" fill="#bf5601"/>
        <path id="Trazado_226521" data-name="Trazado 226521" d="M170.773,44.788s12.408,8.364,22.6-.2Z" transform="translate(85.603 22.35)" fill="#1a2958"/>
        <path id="Trazado_226522" data-name="Trazado 226522" d="M185.819,44.624s14.082,8.385,24.275-.182Z" transform="translate(93.145 22.277)" fill="#bf5601"/>
        <path id="Trazado_226523" data-name="Trazado 226523" d="M201.989,44.42s7,4.918,13.646-.059Z" transform="translate(101.25 22.237)" fill="#1a2958"/>
        <g id="Grupo_177448" data-name="Grupo 177448" transform="translate(343.485 323.857)" opacity="0.2">
          <g id="Grupo_177447" data-name="Grupo 177447">
            <g id="Grupo_177446" data-name="Grupo 177446" clip-path="url(#clip-path-25)">
              <path id="Trazado_226524" data-name="Trazado 226524" d="M228.8,218.189c0,1.362,11.859,2.467,26.488,2.467s26.488-1.1,26.488-2.467-11.86-2.467-26.488-2.467-26.488,1.1-26.488,2.467" transform="translate(-228.797 -215.723)" fill="#005386"/>
            </g>
          </g>
        </g>
        <path id="Trazado_226525" data-name="Trazado 226525" d="M246.174,130.124A2.825,2.825,0,1,0,249,127.3a2.825,2.825,0,0,0-2.825,2.825" transform="translate(123.398 63.811)" fill="#1a2958"/>
        <path id="Trazado_226526" data-name="Trazado 226526" d="M259.307,211.006l-3.235.339-.323,4.541-4.918,2.645.579,1.177,7.951-.129.2-2.429-.146-1.392Z" transform="translate(125.733 105.77)" fill="#ffc590"/>
        <path id="Trazado_226527" data-name="Trazado 226527" d="M261.638,215.382l-.1-.764c-.006-.413-.994.395-1.282.468-1.248.318-3.677,1.354-5.5,1.4-.264.007.2-.74.48-1.1l-.248-.09-1.895.841-6.083,1.623-.006,1.043h14.733l.012-1.543Z" transform="translate(123.817 107.522)" fill="#1a2958"/>
        <path id="Trazado_226528" data-name="Trazado 226528" d="M247.01,217.85l0-.513,14.744-.938v.512l-.012.94Z" transform="translate(123.817 108.473)" fill="#58595b"/>
        <path id="Trazado_226529" data-name="Trazado 226529" d="M245.848,211.006l-3.235.339-.323,4.541-4.918,2.645.579,1.177,7.951-.129.2-2.429-.146-1.392Z" transform="translate(118.986 105.77)" fill="#ffc590"/>
        <path id="Trazado_226530" data-name="Trazado 226530" d="M248.18,215.382l-.1-.764c-.006-.413-.994.395-1.282.468-1.248.318-3.677,1.354-5.5,1.4-.264.007.2-.74.48-1.1l-.248-.09-1.895.841-6.083,1.623-.006,1.043h14.733l.012-1.543Z" transform="translate(117.071 107.522)" fill="#1a2958"/>
        <path id="Trazado_226531" data-name="Trazado 226531" d="M233.551,217.85l0-.513L248.3,216.4v.512l-.012.94Z" transform="translate(117.071 108.473)" fill="#58595b"/>
      </g>
    </g>
    <g id="Grupo_177452" data-name="Grupo 177452" transform="translate(360.913 234.741)">
      <g id="Grupo_177451" data-name="Grupo 177451" clip-path="url(#clip-path-26)">
        <rect id="Rectángulo_57508" data-name="Rectángulo 57508" width="58.729" height="83.01" transform="matrix(0.866, -0.5, 0.5, 0.866, -36.827, 21.262)" fill="url(#linear-gradient-8)"/>
      </g>
    </g>
    <g id="Grupo_177454" data-name="Grupo 177454" transform="translate(373.519 234.176)">
      <g id="Grupo_177453" data-name="Grupo 177453" clip-path="url(#clip-path-27)">
        <rect id="Rectángulo_57509" data-name="Rectángulo 57509" width="75.257" height="66.51" transform="matrix(0.643, -0.766, 0.766, 0.643, -42.246, 50.347)" fill="url(#linear-gradient-9)"/>
      </g>
    </g>
    <g id="Grupo_177456" data-name="Grupo 177456">
      <g id="Grupo_177455" data-name="Grupo 177455" clip-path="url(#clip-path)">
        <path id="Trazado_226534" data-name="Trazado 226534" d="M258.072,124.03h-9.62v11.786l3.153,1.444-.555,6.374,5.822.329-.925-7.09,2.126-1.057Z" transform="translate(124.54 62.172)" fill="#ffc590"/>
      </g>
    </g>
    <g id="Grupo_177458" data-name="Grupo 177458" transform="translate(360.068 201.863)">
      <g id="Grupo_177457" data-name="Grupo 177457" clip-path="url(#clip-path-29)">
        <rect id="Rectángulo_57511" data-name="Rectángulo 57511" width="34.19" height="34.106" transform="translate(-0.577)" fill="url(#linear-gradient-10)"/>
      </g>
    </g>
    <g id="Grupo_177460" data-name="Grupo 177460">
      <g id="Grupo_177459" data-name="Grupo 177459" clip-path="url(#clip-path)">
        <path id="Trazado_226536" data-name="Trazado 226536" d="M244.426,148.355l3.693-2.428,1.384-.408,2.5.742-.026.584-1.537-.371,3.891,2.142-.377.649-2.8-1.537-.054.1,1.13.625-.623.512-.884-.489-.053.09.853.468-.625.513-.605-.333-.05.087.573.312-.567.467-1.8-1.064-.252-.15-.77.578-2.482,1.959Z" transform="translate(122.522 72.944)" fill="#ffc590"/>
        <path id="Trazado_226537" data-name="Trazado 226537" d="M255.347,134.517l-2.914,14.139L250.4,134.548Z" transform="translate(125.519 67.429)" fill="#fff"/>
        <path id="Trazado_226538" data-name="Trazado 226538" d="M246.505,127.655a2.348,2.348,0,1,0,2.328-2.641,2.5,2.5,0,0,0-2.328,2.641" transform="translate(123.564 62.665)" fill="#1a2958"/>
        <path id="Trazado_226539" data-name="Trazado 226539" d="M262.21,131.754a8.441,8.441,0,0,0,.263-2.112c0-2.546-1.069-4.667-2.5-5.208-.231-.856-1.962-1.817-4.195-2.262-2.515-.5-4.7-.161-4.885.764a.47.47,0,0,0,0,.066,1.591,1.591,0,0,0-.413.068c-2.054.724-3.687,4.591-1.1,4.84,1.755.17,2.945.21,3.833-1.473.616-1.166,1.573-.08,1.573-.08l.036.06a1.255,1.255,0,0,0,.152.525,1.23,1.23,0,0,0-.395.558l-.009.014,0,.011a1.256,1.256,0,0,0-.075.375,1.24,1.24,0,0,0,.263.737,2.006,2.006,0,0,0,.749,2.585,2.761,2.761,0,0,0-.072.614,2.814,2.814,0,0,0,1.929,2.666,2.818,2.818,0,1,0,4.836-2.749" transform="translate(124.342 61.124)" fill="#1a2958"/>
        <path id="Trazado_226540" data-name="Trazado 226540" d="M254.669,134.517l2.277,3.369h-2.31l1.516,4.663-4.4,6.107Z" transform="translate(126.196 67.429)" fill="#94c7f7"/>
        <path id="Trazado_226541" data-name="Trazado 226541" d="M251.044,134.517l-1.928,3.541h2.31l-1.866,4.49,3.517,6.107Z" transform="translate(124.873 67.429)" fill="#94c7f7"/>
        <path id="Trazado_226542" data-name="Trazado 226542" d="M251.444,154.08l3.546.1a.712.712,0,0,0,.727-.694l.276-8.056a.71.71,0,0,0-.688-.734l-3.544-.1a.71.71,0,0,0-.727.694l-.278,8.056a.711.711,0,0,0,.688.734" transform="translate(125.695 72.481)" fill="#1a2958"/>
        <path id="Trazado_226543" data-name="Trazado 226543" d="M251.661,145.521l1.139.027a.275.275,0,0,0,.013-.549l-1.139-.027a.275.275,0,0,0-.013.549" transform="translate(126.015 72.669)" fill="#d1d4de"/>
        <path id="Trazado_226544" data-name="Trazado 226544" d="M258.394,149.869l-.718-.462-.9-.709-.919-.6-.035.584.441.326,0,.131-3.208-1.091-1.366-.784.024.733,1.267.872,1.716.982-.012.113-2.166-.6-1.767-.9.075.6,1.488.83,2.292.833-.01.105-2.22-.641-1.432-.88.018.616,1.4.928,2.157.74-.01.1-1.258-.335-1.114-.48.2.557,1.055.552,2.639.5.429.08,1.094.06,4.459,1.009,1.744-2.684Z" transform="translate(125.695 73.817)" fill="#ffc590"/>
      </g>
    </g>
    <g id="Grupo_177462" data-name="Grupo 177462" transform="translate(384.459 201.946)">
      <g id="Grupo_177461" data-name="Grupo 177461" clip-path="url(#clip-path-31)">
        <rect id="Rectángulo_57513" data-name="Rectángulo 57513" width="27.9" height="32.784" transform="matrix(0.866, -0.5, 0.5, 0.866, -12.507, 7.221)" fill="url(#linear-gradient-11)"/>
      </g>
    </g>
    <g id="Grupo_177464" data-name="Grupo 177464" transform="translate(355.393 201.946)">
      <g id="Grupo_177463" data-name="Grupo 177463" clip-path="url(#clip-path-32)">
        <rect id="Rectángulo_57514" data-name="Rectángulo 57514" width="31.151" height="33.277" transform="matrix(0.766, -0.643, 0.643, 0.766, -15.505, 13.01)" fill="url(#linear-gradient-12)"/>
      </g>
    </g>
    <g id="Grupo_177481" data-name="Grupo 177481">
      <g id="Grupo_177480" data-name="Grupo 177480" clip-path="url(#clip-path)">
        <g id="Grupo_177467" data-name="Grupo 177467" transform="translate(362.035 213.241)" opacity="0.25">
          <g id="Grupo_177466" data-name="Grupo 177466">
            <g id="Grupo_177465" data-name="Grupo 177465" clip-path="url(#clip-path-34)">
              <path id="Trazado_226547" data-name="Trazado 226547" d="M244.222,142.041l-3.069,8.725.108.788Z" transform="translate(-241.153 -142.041)" fill="#1a2958"/>
            </g>
          </g>
        </g>
        <g id="Grupo_177470" data-name="Grupo 177470" transform="translate(363.087 223.382)" opacity="0.25">
          <g id="Grupo_177469" data-name="Grupo 177469">
            <g id="Grupo_177468" data-name="Grupo 177468" clip-path="url(#clip-path-35)">
              <path id="Trazado_226548" data-name="Trazado 226548" d="M248.4,148.8l-6.55,6.3.1.757Z" transform="translate(-241.854 -148.796)" fill="#1a2958"/>
            </g>
          </g>
        </g>
        <g id="Grupo_177473" data-name="Grupo 177473" transform="translate(389.625 209.556)" opacity="0.25">
          <g id="Grupo_177472" data-name="Grupo 177472">
            <g id="Grupo_177471" data-name="Grupo 177471" clip-path="url(#clip-path-36)">
              <path id="Trazado_226549" data-name="Trazado 226549" d="M259.531,139.586l1.881,6.766-.456,2.774Z" transform="translate(-259.531 -139.586)" fill="#1a2958"/>
            </g>
          </g>
        </g>
        <g id="Grupo_177476" data-name="Grupo 177476" transform="translate(384.457 227.135)" opacity="0.25">
          <g id="Grupo_177475" data-name="Grupo 177475">
            <g id="Grupo_177474" data-name="Grupo 177474" clip-path="url(#clip-path-37)">
              <path id="Trazado_226550" data-name="Trazado 226550" d="M256.089,151.3l4.927,2.112.119-.722Z" transform="translate(-256.089 -151.296)" fill="#1a2958"/>
            </g>
          </g>
        </g>
        <path id="Trazado_226551" data-name="Trazado 226551" d="M13.463,143.1l-3.3-3.83-.67-.6-2.273-3.678-.318.9.787,1.784-.029.354L.252,136.471,0,137.328l6.071,1.285-.021.128-4.718-1.033.128.926,4.445.973-.021.12-4.37-.839.15.923,4.074.782-.018.114-4.047-.769.068.824,6.121,1.26.029-.174L9.137,142l2.265,3.683Z" transform="translate(0 67.663)" fill="#ffc590"/>
        <g id="Grupo_177479" data-name="Grupo 177479" transform="translate(17.175 316.943)" opacity="0.2">
          <g id="Grupo_177478" data-name="Grupo 177478">
            <g id="Grupo_177477" data-name="Grupo 177477" clip-path="url(#clip-path-38)">
              <path id="Trazado_226552" data-name="Trazado 226552" d="M84.646,213.584c0,1.362-16.388,2.467-36.6,2.467s-36.6-1.1-36.6-2.467,16.388-2.467,36.6-2.467,36.6,1.1,36.6,2.467" transform="translate(-11.44 -211.117)" fill="#005386"/>
            </g>
          </g>
        </g>
        <path id="Trazado_226553" data-name="Trazado 226553" d="M35.514,135.277a2.577,2.577,0,1,1-2.576-2.576,2.576,2.576,0,0,1,2.576,2.576" transform="translate(15.218 66.518)" fill="#141f42"/>
        <path id="Trazado_226554" data-name="Trazado 226554" d="M28.408,206.031l-3.424.359-.341,4.806-5.2,2.8.614,1.246,8.413-.137.215-2.57-.155-1.473Z" transform="translate(9.744 103.276)" fill="#ffc590"/>
        <path id="Trazado_226555" data-name="Trazado 226555" d="M30.876,210.663l-.1-.809c-.008-.437-1.052.417-1.357.5-1.321.336-3.891,1.434-5.819,1.485-.278.008.213-.784.509-1.169l-.263-.1-2,.89L15.4,213.176l-.006,1.1H30.987L31,212.647Z" transform="translate(7.717 105.13)" fill="#191a2d"/>
        <path id="Trazado_226556" data-name="Trazado 226556" d="M15.4,213.273l0-.543,15.6-.992v.54l-.012,1Z" transform="translate(7.718 106.136)" fill="#58595b"/>
        <path id="Trazado_226557" data-name="Trazado 226557" d="M54.1,198.306l-1.744,2.968,3.665,3.129-.839,5.849,1.368.245,4.885-6.849-1.941-1.7-1.276-.751Z" transform="translate(26.242 99.404)" fill="#ffc590"/>
        <path id="Trazado_226558" data-name="Trazado 226558" d="M59.556,200.777l-.712-.4c-.356-.254-.288,1.094-.407,1.386-.513,1.263-1.157,3.981-2.261,5.564-.159.228-.5-.637-.64-1.1l-.231.155-.474,2.141-2.441,6.2.884.661,9.258-12.545-1.308-.979Z" transform="translate(26.261 100.427)" fill="#191a2d"/>
        <path id="Trazado_226559" data-name="Trazado 226559" d="M53.124,214.858l-.437-.324,8.466-13.142.435.321.794.6Z" transform="translate(26.41 100.95)" fill="#58595b"/>
      </g>
    </g>
    <g id="Grupo_177483" data-name="Grupo 177483" transform="translate(33.802 233.226)">
      <g id="Grupo_177482" data-name="Grupo 177482" clip-path="url(#clip-path-39)">
        <rect id="Rectángulo_57521" data-name="Rectángulo 57521" width="54.726" height="77.357" transform="matrix(0.866, -0.5, 0.5, 0.866, -34.321, 19.815)" fill="url(#linear-gradient-13)"/>
      </g>
    </g>
    <g id="Grupo_177485" data-name="Grupo 177485" transform="translate(44.892 231.162)">
      <g id="Grupo_177484" data-name="Grupo 177484" clip-path="url(#clip-path-40)">
        <rect id="Rectángulo_57522" data-name="Rectángulo 57522" width="78.155" height="49.818" transform="matrix(0.174, -0.985, 0.985, 0.174, -12.433, 70.51)" fill="url(#linear-gradient-14)"/>
      </g>
    </g>
    <g id="Grupo_177487" data-name="Grupo 177487">
      <g id="Grupo_177486" data-name="Grupo 177486" clip-path="url(#clip-path)">
        <path id="Trazado_226562" data-name="Trazado 226562" d="M39.329,134.812l-.877-2.924-.036-4.448H29.182l.491,8.818-1.133,8.688,5.31-.3-.6-6.924,4.24.555a.9.9,0,0,0,1.01-.817l-.017-2.18Z" transform="translate(14.306 63.881)" fill="#ffc590"/>
      </g>
    </g>
    <g id="Grupo_177489" data-name="Grupo 177489" transform="translate(31.838 204.93)">
      <g id="Grupo_177488" data-name="Grupo 177488" clip-path="url(#clip-path-42)">
        <rect id="Rectángulo_57524" data-name="Rectángulo 57524" width="39.896" height="39.943" transform="translate(-10.181 27.467) rotate(-70)" fill="url(#linear-gradient-15)"/>
      </g>
    </g>
    <g id="Grupo_177491" data-name="Grupo 177491" transform="translate(9.571 204.929)">
      <g id="Grupo_177490" data-name="Grupo 177490" clip-path="url(#clip-path-43)">
        <rect id="Rectángulo_57525" data-name="Rectángulo 57525" width="28.228" height="27.072" fill="url(#linear-gradient-16)"/>
      </g>
    </g>
    <g id="Grupo_177493" data-name="Grupo 177493">
      <g id="Grupo_177492" data-name="Grupo 177492" clip-path="url(#clip-path)">
        <path id="Trazado_226565" data-name="Trazado 226565" d="M8.056,145.7l-5.233,2.052a.364.364,0,0,1-.422-.3L0,133.663a.365.365,0,0,1,.3-.422l5.235-2.052a.363.363,0,0,1,.419.3l2.4,13.792a.363.363,0,0,1-.3.42" transform="translate(0 65.758)" fill="#141f42"/>
        <path id="Trazado_226566" data-name="Trazado 226566" d="M7.4,143.322l-5.029,1.947L.449,134.2l5.029-1.947Z" transform="translate(0.225 66.296)" fill="#fff"/>
        <path id="Trazado_226567" data-name="Trazado 226567" d="M28.871,136.555l2.657,12.9,1.851-12.867Z" transform="translate(14.472 68.45)" fill="#fff"/>
        <path id="Trazado_226568" data-name="Trazado 226568" d="M39.586,126.113a1.5,1.5,0,0,0-.377-.062c0-.02.009-.041,0-.06-.168-.844-2.163-1.156-4.456-.7-2.036.407-3.615,1.284-3.827,2.066-1.249.471-2.184,2.273-2.261,4.468a2.561,2.561,0,0,0-2.413,2.351A2.531,2.531,0,0,0,25.6,137.2a2.561,2.561,0,0,0,2.588,4.316,2.551,2.551,0,0,0,1.717.67,2.577,2.577,0,0,0,2.578-2.576,2.474,2.474,0,0,0-.032-.3,2.575,2.575,0,0,0,1.512-2.34,2.617,2.617,0,0,0-.054-.524,2.523,2.523,0,0,0,1.363-3.115,1.789,1.789,0,0,0,.4-2.129,1,1,0,0,0,.174-1.021l.006-.009-.011-.014a1.135,1.135,0,0,0-.384-.536l-.06-.084.257-.423s.874-.991,1.435.074c.809,1.534,1.895,1.5,3.495,1.344,2.36-.227.869-3.756-1-4.415" transform="translate(12.41 62.699)" fill="#141f42"/>
        <path id="Trazado_226569" data-name="Trazado 226569" d="M29.565,136.555l-2.076,3.073h2.106l-1.383,4.253,4.01,5.57Z" transform="translate(13.779 68.45)" fill="#94c7f7"/>
        <path id="Trazado_226570" data-name="Trazado 226570" d="M32.5,136.555l1.758,3.231H32.147l1.7,4.1-3.208,5.57Z" transform="translate(15.36 68.45)" fill="#94c7f7"/>
        <path id="Trazado_226571" data-name="Trazado 226571" d="M57.456,148.665l2.945-1.548,1.494-.44,2.7.8-.027.631-1.66-.4,4.2,2.312-.407.7-3.015-1.659-.06.1,1.221.674-.673.552-.955-.527-.056.1.919.506-.673.554-.652-.359-.056.092.62.338-.613.5-1.944-1.148-.272-.162-1.082-.243-2.654,1.79Z" transform="translate(28.45 73.524)" fill="#ffc590"/>
      </g>
    </g>
    <g id="Grupo_177495" data-name="Grupo 177495" transform="translate(52.963 204.92)">
      <g id="Grupo_177494" data-name="Grupo 177494" clip-path="url(#clip-path-45)">
        <rect id="Rectángulo_57527" data-name="Rectángulo 57527" width="38.951" height="34.074" transform="matrix(0.985, -0.174, 0.174, 0.985, -4.876, 0.86)" fill="url(#linear-gradient-17)"/>
      </g>
    </g>
    <g id="Grupo_177506" data-name="Grupo 177506">
      <g id="Grupo_177505" data-name="Grupo 177505" clip-path="url(#clip-path)">
        <path id="Trazado_226573" data-name="Trazado 226573" d="M1.532,137.029l-.851-.222.068.907.7.09Z" transform="translate(0.341 68.577)" fill="#ffc590"/>
        <path id="Trazado_226574" data-name="Trazado 226574" d="M1.826,137.826l-1.019-.245.161.928.772.092Z" transform="translate(0.404 68.965)" fill="#ffc590"/>
        <path id="Trazado_226575" data-name="Trazado 226575" d="M1.419,138.473l-.51-.185.084.818.426-.006Z" transform="translate(0.455 69.319)" fill="#ffc590"/>
        <g id="Grupo_177498" data-name="Grupo 177498" transform="translate(46.207 244.823)" opacity="0.5">
          <g id="Grupo_177497" data-name="Grupo 177497">
            <g id="Grupo_177496" data-name="Grupo 177496" clip-path="url(#clip-path-47)">
              <path id="Trazado_226576" data-name="Trazado 226576" d="M30.779,163.078l.869,7.673-.434,1.928Z" transform="translate(-30.779 -163.078)" fill="#141f42"/>
            </g>
          </g>
        </g>
        <g id="Grupo_177501" data-name="Grupo 177501" transform="translate(117.414 346.156)" opacity="0.2">
          <g id="Grupo_177500" data-name="Grupo 177500">
            <g id="Grupo_177499" data-name="Grupo 177499" clip-path="url(#clip-path-48)">
              <path id="Trazado_226577" data-name="Trazado 226577" d="M143.042,233.043c0,1.362-14.513,2.467-32.415,2.467s-32.417-1.1-32.417-2.467,14.513-2.467,32.417-2.467,32.415,1.1,32.415,2.467" transform="translate(-78.21 -230.576)" fill="#005386"/>
            </g>
          </g>
        </g>
        <g id="Grupo_177504" data-name="Grupo 177504" transform="translate(120.57 356.33)" opacity="0.2">
          <g id="Grupo_177503" data-name="Grupo 177503">
            <g id="Grupo_177502" data-name="Grupo 177502" clip-path="url(#clip-path-49)">
              <path id="Trazado_226578" data-name="Trazado 226578" d="M137.6,239.82c0,1.362-12.825,2.467-28.646,2.467s-28.646-1.1-28.646-2.467,12.824-2.467,28.646-2.467,28.646,1.1,28.646,2.467" transform="translate(-80.312 -237.353)" fill="#005386"/>
            </g>
          </g>
        </g>
        <rect id="Rectángulo_57531" data-name="Rectángulo 57531" width="57.766" height="40.794" transform="translate(119.951 308.163)" fill="#ffc008"/>
        <path id="Trazado_226579" data-name="Trazado 226579" d="M79.9,205.269l57.766,40.794V205.269Z" transform="translate(40.051 102.894)" fill="#ff7201"/>
        <path id="Trazado_226580" data-name="Trazado 226580" d="M110.854,169.343l-.991-3.307-.041-5.026H99.383l.555,9.968L98.656,180.8l6-.339-.682-7.829,4.794.628a1.014,1.014,0,0,0,1.142-.922l-.02-2.465Z" transform="translate(49.453 80.708)" fill="#ffc590"/>
        <path id="Trazado_226581" data-name="Trazado 226581" d="M104.76,162.539s.986-1.12,1.623.084c.914,1.734,2.141,1.692,3.951,1.518,2.668-.257.982-4.246-1.135-4.992a5.483,5.483,0,0,0-2.172,0,6.962,6.962,0,0,0-3.339.842c-.692.5-3.369.468-3.806.593s-1.654,2.339-1.621,3.462a48.258,48.258,0,0,0,1.624,5.148l1.3-.338.468-3.379.853-.27.6,1.341.62-.138.006-1.422.83-.384.422-.871-.513-.715Z" transform="translate(49.255 79.734)" fill="#1a2958"/>
        <path id="Trazado_226582" data-name="Trazado 226582" d="M115.44,230.5l-4.52.363.284,8.194-.54,2.473-.1,1.734,9.7.625.06-1.036-2.51-1.7-1.677-2.094Z" transform="translate(55.42 115.539)" fill="#141f42"/>
        <path id="Trazado_226583" data-name="Trazado 226583" d="M111.423,239.259l.336-.6.6.036.339.641Z" transform="translate(55.852 119.63)" fill="#606060"/>
        <path id="Trazado_226584" data-name="Trazado 226584" d="M131.607,168.542l-1.022-.3-.863,3.289-.137-.039,1.147-4.3-1.024-.3-1.145,4.3-.141-.041,1.324-4.929-1.022-.3-1.324,4.927-.15-.044,1.168-4.376-1.024-.3-1.626,6.1-.916-1.952-.815.165,1.462,4.127-.336,1.839-1.224,3.364,3.7,1.213,1.435-4.318.745-2.168.206.06Z" transform="translate(62.126 83.174)" fill="#ffc590"/>
      </g>
    </g>
    <g id="Grupo_177508" data-name="Grupo 177508" transform="translate(162.856 257.056)">
      <g id="Grupo_177507" data-name="Grupo 177507" clip-path="url(#clip-path-50)">
        <rect id="Rectángulo_57533" data-name="Rectángulo 57533" width="28.548" height="31.827" transform="translate(0)" fill="url(#linear-gradient-18)"/>
      </g>
    </g>
    <g id="Grupo_177510" data-name="Grupo 177510" transform="translate(130.084 257.104)">
      <g id="Grupo_177509" data-name="Grupo 177509" clip-path="url(#clip-path-51)">
        <rect id="Rectángulo_57534" data-name="Rectángulo 57534" width="49.567" height="50.262" transform="translate(-12.925 33.874) rotate(-70)" fill="url(#linear-gradient-19)"/>
      </g>
    </g>
    <g id="Grupo_177512" data-name="Grupo 177512">
      <g id="Grupo_177511" data-name="Grupo 177511" clip-path="url(#clip-path)">
        <path id="Trazado_226587" data-name="Trazado 226587" d="M94.046,232.471l4.93-.029,1.183,5.607.456,3.22-.023,1.434-3.294.149-.922-.566L94.6,242.3l-.494.628-9,.14.017-.968,6.6-1.83,2.912-2.395Z" transform="translate(42.657 116.515)" fill="#141f42"/>
      </g>
    </g>
    <g id="Grupo_177514" data-name="Grupo 177514" transform="translate(124.061 295.465)">
      <g id="Grupo_177513" data-name="Grupo 177513" clip-path="url(#clip-path-53)">
        <rect id="Rectángulo_57536" data-name="Rectángulo 57536" width="70.846" height="73.436" transform="translate(-24.417 14.087) rotate(-30)" fill="url(#linear-gradient-20)"/>
      </g>
    </g>
    <g id="Grupo_177516" data-name="Grupo 177516" transform="translate(151.637 255.907)">
      <g id="Grupo_177515" data-name="Grupo 177515" clip-path="url(#clip-path-54)">
        <rect id="Rectángulo_57537" data-name="Rectángulo 57537" width="2.894" height="4.026" transform="translate(0)" fill="url(#linear-gradient-21)"/>
      </g>
    </g>
    <g id="Grupo_177518" data-name="Grupo 177518" transform="translate(147.944 255.907)">
      <g id="Grupo_177517" data-name="Grupo 177517" clip-path="url(#clip-path-55)">
        <rect id="Rectángulo_57538" data-name="Rectángulo 57538" width="2.768" height="4.026" fill="url(#linear-gradient-22)"/>
      </g>
    </g>
    <g id="Grupo_177520" data-name="Grupo 177520">
      <g id="Grupo_177519" data-name="Grupo 177519" clip-path="url(#clip-path)">
        <path id="Trazado_226591" data-name="Trazado 226591" d="M100.638,171.257h.976l.823,1.069-.848,1.069h-.95l-.794-1.145Z" transform="translate(50.048 85.845)" fill="#fff"/>
        <path id="Trazado_226592" data-name="Trazado 226592" d="M101.589,172.61l2.6,29.872-1.956,2.473-2.389-2.363.794-29.982Z" transform="translate(50.048 86.523)" fill="#fff"/>
        <path id="Trazado_226593" data-name="Trazado 226593" d="M91.119,195.544l4.246,3.318,1.632.41L99.07,201.5l-.372.572-1.326-1.282,2.306,3.926-.952.108-1.372-2.349-.113.063.766,1.3-.929.146-.6-1.015-.105.059.578.976-.929.146-.41-.692-.1.056.392.655-.847.132-1.18-2.135-.164-.3-.56-1.117-4.107-2.93Z" transform="translate(44.635 98.019)" fill="#fff"/>
      </g>
    </g>
    <g id="Grupo_177522" data-name="Grupo 177522" transform="translate(119.844 257.102)">
      <g id="Grupo_177521" data-name="Grupo 177521" clip-path="url(#clip-path-57)">
        <rect id="Rectángulo_57540" data-name="Rectángulo 57540" width="19.327" height="41.523" transform="translate(-0.312)" fill="url(#linear-gradient-23)"/>
      </g>
    </g>
    <g id="Grupo_177524" data-name="Grupo 177524">
      <g id="Grupo_177523" data-name="Grupo 177523" clip-path="url(#clip-path)">
        <path id="Trazado_226595" data-name="Trazado 226595" d="M109.394,204.438l3.707-3.89-29.779.1-4.174,3.794Z" transform="translate(39.674 100.528)" fill="#bcbec0"/>
        <path id="Trazado_226596" data-name="Trazado 226596" d="M106.758,193.847H76.512L80.47,207.8h30.244Z" transform="translate(38.353 97.169)" fill="#fafdfd"/>
      </g>
    </g>
  </g>
</svg>
