<svg xmlns="http://www.w3.org/2000/svg" width="83.769" height="91.818" viewBox="0 0 83.769 91.818">
  <g id="decision" transform="translate(-22.441)">
    <g id="Grupo_181056" data-name="Grupo 181056" transform="translate(23.786 1.345)">
      <path id="Trazado_231235" data-name="Trazado 231235" d="M231.528,7.5H182.75a2.7,2.7,0,0,0-2.69,2.69V75.108L232.425,76.9l1.793-66.711A2.7,2.7,0,0,0,231.528,7.5Z" transform="translate(-153.139 -7.5)" fill="#e1dee2"/>
      <path id="Trazado_231236" data-name="Trazado 231236" d="M230.632,25.19v2.69H180.06V91h51.468a2.7,2.7,0,0,0,2.69-2.69V22.5h-.9A2.7,2.7,0,0,0,230.632,25.19Z" transform="translate(-153.139 -19.81)" fill="#c5bec6"/>
      <path id="Trazado_231237" data-name="Trazado 231237" d="M201.528,37.5H152.75a2.7,2.7,0,0,0-2.69,2.69v64.918l52.365,1.793,1.793-66.711A2.7,2.7,0,0,0,201.528,37.5Z" transform="translate(-128.519 -32.12)" fill="#faf8f8"/>
      <path id="Trazado_231238" data-name="Trazado 231238" d="M200.632,55.19v60.883a1.345,1.345,0,0,1-1.345,1.345H150.06v.9a2.7,2.7,0,0,0,2.69,2.69h48.778a2.7,2.7,0,0,0,2.69-2.69V52.5h-.9A2.7,2.7,0,0,0,200.632,55.19Z" transform="translate(-128.519 -44.43)" fill="#e1dee2"/>
      <path id="Trazado_231239" data-name="Trazado 231239" d="M75.59,462.326a8.61,8.61,0,0,0-1.174-.079H44.249a7.519,7.519,0,0,0-6.753,3.991l41.441,1.793A8.883,8.883,0,0,0,75.59,462.326Z" transform="translate(-36.141 -380.696)" fill="#eeac3a"/>
      <path id="Trazado_231240" data-name="Trazado 231240" d="M76.323,470.185s-1.091-6.7-6.934-7.5a11.336,11.336,0,0,1,1.039,2.105,1.343,1.343,0,0,1-1.264,1.806H31.295a11.632,11.632,0,0,0-1.355,3.587Z" transform="translate(-29.94 -381.058)" fill="#ebcf9e"/>
      <path id="Trazado_231241" data-name="Trazado 231241" d="M303.142,425.794c.451-.782,1.111-3.733-.422-4.543-4.159-2.128-14.411-7.127-14.412-7.127l-2.69,1.27v3.389s9.455,6.379,13.378,8.917C300.464,428.623,302.69,426.576,303.142,425.794Z" transform="translate(-239.767 -341.203)" fill="#ebcf9e"/>
      <path id="Trazado_231242" data-name="Trazado 231242" d="M365.475,454.678c-.269-.155-.809-.439-1.533-.81a6.735,6.735,0,0,1-3.723,6.449c.683.442,1.2.768,1.468.923a3.789,3.789,0,1,0,3.789-6.562Z" transform="translate(-300.989 -373.82)" fill="#eeac3a"/>
      <path id="Trazado_231243" data-name="Trazado 231243" d="M239.94,386.2l-10.569-6.1-2.69,1.358v3.3l10.569,6.1Z" transform="translate(-191.399 -313.279)" fill="#ebcf9e"/>
      <path id="Trazado_231244" data-name="Trazado 231244" d="M0,0H5.38V5.949H0Z" transform="matrix(0.5, -0.866, 0.866, 0.5, 30.128, 68.504)" fill="#eeac3a"/>
      <path id="Trazado_231245" data-name="Trazado 231245" d="M171.124,345.6s3.788,2.094,2.542,4.252l-2.69,4.659c-1.246,2.158-4.953-.075-4.953-.075l-3.136-7.7Z" transform="translate(-139.045 -284.965)" fill="#eeac3a"/>
      <path id="Trazado_231246" data-name="Trazado 231246" d="M109.271,279.7l-2.215-4.8-10.9,1c-1.349,2.336-1.349,6.122-2.7,8.458s-4.627,4.229-5.976,6.565l4.585,9.938,5.266-.483Z" transform="translate(-77.164 -226.944)" fill="#eeac3a"/>
      <path id="Trazado_231247" data-name="Trazado 231247" d="M154.353,301.676c-1.965,3.186-6.412,5.8-8.266,9.011s-1.895,8.37-3.671,11.664l5.633-.516c1.349-2.336,1.349-6.121,2.7-8.458s4.627-4.229,5.976-6.565Z" transform="translate(-122.245 -248.921)" fill="#ebcf9e"/>
      <path id="Trazado_231248" data-name="Trazado 231248" d="M70.994,401.269c2.443,0,7.257-3.191,7.257-3.191l-18.5-7.959a7.6,7.6,0,0,0-.326,3.933c.361,1.346,2.17,3.095,4.468,4.693a16.34,16.34,0,0,0,7.1,2.524Z" transform="translate(-54.02 -321.504)" fill="#eeac3a"/>
      <path id="Trazado_231249" data-name="Trazado 231249" d="M91.283,436.435c-1.346.361-3.765-.333-6.3-1.523,3.738,2.6,8.768,4.8,10.957,4.213a7.632,7.632,0,0,0,3.248-2.246v-2.69H94.531a7.631,7.631,0,0,1-3.248,2.246Z" transform="translate(-75.114 -357.67)" fill="#ebcf9e"/>
      <path id="Trazado_231250" data-name="Trazado 231250" d="M66.476,363.038a1.861,1.861,0,0,0-2.588.693l-1.263,2.187a9.171,9.171,0,0,0-.74,1.76l13.688,7.9,5.526-1.914c.523-.906-1.123-2.836-3.617-4.276Z" transform="translate(-56.157 -299.064)" fill="#eeac3a"/>
      <path id="Trazado_231251" data-name="Trazado 231251" d="M140.126,399.676a1.726,1.726,0,0,1,.511,2.482l-1.263,2.188a9.117,9.117,0,0,1-1.157,1.52l4.659,2.69a9.113,9.113,0,0,0,1.157-1.52l1.263-2.187a1.894,1.894,0,0,0-.693-2.588Z" transform="translate(-118.799 -329.346)" fill="#ebcf9e"/>
      <path id="Trazado_231252" data-name="Trazado 231252" d="M160.742,238.795c1.222,2.116.865,7.88.865,7.88l-16.144-12.044a7.6,7.6,0,0,1,3.243-2.249c1.346-.361,3.765.332,6.3,1.523A16.337,16.337,0,0,1,160.742,238.795Z" transform="translate(-124.747 -191.976)" fill="#ebcf9e"/>
      <path id="Trazado_231253" data-name="Trazado 231253" d="M203.136,246.007c-.361-1.346-2.17-3.095-4.468-4.693,4.12,1.937,8.541,5.193,9.127,7.383a7.629,7.629,0,0,1-.321,3.936l-2.33,1.345-2.33-4.035A7.631,7.631,0,0,0,203.136,246.007Z" transform="translate(-168.41 -199.384)" fill="#ebcf9e"/>
      <path id="Trazado_231254" data-name="Trazado 231254" d="M131.436,251.654a1.86,1.86,0,0,1-.693-2.588l1.263-2.187a9.184,9.184,0,0,1,1.155-1.521l13.688,7.9L147.954,259c-.523.906-3.017.445-5.511-.994Z" transform="translate(-112.443 -202.703)" fill="#eeac3a"/>
      <path id="Trazado_231255" data-name="Trazado 231255" d="M197.227,294.175a1.726,1.726,0,0,0,2.405-.8l1.263-2.187a9.107,9.107,0,0,0,.738-1.762l4.659,2.69a9.126,9.126,0,0,1-.738,1.762l-1.263,2.187a1.894,1.894,0,0,1-2.588.693Z" transform="translate(-167.227 -238.869)" fill="#eeac3a"/>
    </g>
    <g id="Grupo_181057" data-name="Grupo 181057" transform="translate(22.441)">
      <path id="Trazado_231256" data-name="Trazado 231256" d="M408.641,85.5a1.345,1.345,0,0,0-1.345,1.345v52.276a1.346,1.346,0,0,1-1.345,1.345h-1.345v-7.388a1.345,1.345,0,0,0-2.69,0V145.4a1.346,1.346,0,0,1-1.345,1.345h-6.628a1.345,1.345,0,1,0,0,2.69h6.628a4.04,4.04,0,0,0,4.035-4.035v-2.242h1.345a4.04,4.04,0,0,0,4.035-4.035V86.843A1.345,1.345,0,0,0,408.641,85.5Z" transform="translate(-326.217 -70.165)"/>
      <path id="Trazado_231257" data-name="Trazado 231257" d="M200.753,0H151.975a4.04,4.04,0,0,0-4.035,4.035V5.38h-1.345a4.04,4.04,0,0,0-4.035,4.035V23.176a1.345,1.345,0,0,0,2.69,0V9.415a1.346,1.346,0,0,1,1.345-1.345h48.778a1.346,1.346,0,0,1,1.345,1.345V57.53a1.345,1.345,0,1,0,2.69,0V9.415a4.04,4.04,0,0,0-4.035-4.035H150.63V4.035a1.346,1.346,0,0,1,1.345-1.345h48.778A1.346,1.346,0,0,1,202.1,4.035V11.3a1.345,1.345,0,0,0,2.69,0V4.035A4.04,4.04,0,0,0,200.753,0Z" transform="translate(-121.019)"/>
      <path id="Trazado_231258" data-name="Trazado 231258" d="M193.585,172.99h31.3a1.345,1.345,0,1,0,0-2.69h-31.3a1.345,1.345,0,1,0,0,2.69Z" transform="translate(-161.79 -139.76)"/>
      <path id="Trazado_231259" data-name="Trazado 231259" d="M193.585,132.99h25.924a1.345,1.345,0,0,0,0-2.69H193.585a1.345,1.345,0,0,0,0,2.69Z" transform="translate(-161.79 -106.933)"/>
      <path id="Trazado_231260" data-name="Trazado 231260" d="M193.585,92.99h36.282a1.345,1.345,0,0,0,0-2.69H193.585a1.345,1.345,0,0,0,0,2.69Z" transform="translate(-161.79 -74.106)"/>
      <path id="Trazado_231261" data-name="Trazado 231261" d="M88.944,205.562c-1.7-.979-13.487-6.741-15.691-7.817h5.729a1.345,1.345,0,1,0,0-2.69H68.548l-7.765-4.483H90.518a1.345,1.345,0,1,0,0-2.69H59.378a7.052,7.052,0,0,0-1.416-1.553,12.642,12.642,0,0,0,.855-.994,3.238,3.238,0,0,0,3.2-1.595l.2-.341H90.518a1.345,1.345,0,1,0,0-2.69H63.694a11.466,11.466,0,0,0,.957-4.483H90.518a1.345,1.345,0,1,0,0-2.69H63.873a17.738,17.738,0,0,0-4.9-4.483H90.518a1.345,1.345,0,1,0,0-2.69H54.128c-2.16-.969-4.884-1.879-6.73-1.385a5.382,5.382,0,0,0-.726.255V153.08a1.345,1.345,0,0,0-2.69,0v14.043a11.273,11.273,0,0,0-1.8,2.25l-1.256,2.175a3.143,3.143,0,0,0-.36,2.417,3.24,3.24,0,0,0,.569,1.167,21.948,21.948,0,0,0-1.02,3.628,14.281,14.281,0,0,1-1.2,3.846,1.345,1.345,0,1,0,2.33,1.345,16.308,16.308,0,0,0,1.5-4.612,26.528,26.528,0,0,1,.663-2.6l12.884,7.439a26.534,26.534,0,0,1-1.923,1.875,16.3,16.3,0,0,0-3.245,3.6,16.308,16.308,0,0,0-1.5,4.612,26.526,26.526,0,0,1-.663,2.6L36.078,189.43c.38-.429.811-.848,1.242-1.251a1.345,1.345,0,0,0-1.835-1.967,17.268,17.268,0,0,0-1.932,2.053,3.234,3.234,0,0,0-1.3.091,3.143,3.143,0,0,0-1.913,1.521l-1.256,2.175c-.792,1.372-1.818,4.407-1.2,6.714.793,2.959,5.841,6.068,7.369,6.95.17.1.385.22.637.358h-4c-6.343,0-8.945,5.7-9.435,8.706a1.345,1.345,0,0,0,1.327,1.561H70.168a1.345,1.345,0,0,0,1.327-1.561c-.49-3.011-3.093-8.706-9.435-8.706H48.771a10.486,10.486,0,0,0,1.412-1.844l1.263-2.187a3.241,3.241,0,0,0-.217-3.569,12.677,12.677,0,0,0,.434-1.235,6.788,6.788,0,0,0,2.278.455,3.9,3.9,0,0,0,.975-.117,3.185,3.185,0,0,0,1.036-.476l6.924,4h-7.16a1.345,1.345,0,1,0,0,2.69H67.535l1.388.8c.931.628,13.087,8.824,14.887,9.863a5.134,5.134,0,0,0,5.134-8.892Zm-19.8-3.95-11.591-6.692,1.345-2.33,11.591,6.692Zm-21.05-34.036a1.922,1.922,0,0,1,.49-.054c1.325,0,3.992.855,7.173,2.692,3.643,2.1,5.834,4.267,6.116,5.317a4.212,4.212,0,0,1,.058,1.5l-15.164-8.755a4.189,4.189,0,0,1,1.329-.7Zm-4.862,5.36.018-.029,1.263-2.187c.083-.143.185-.3.3-.46L61.2,179.715a5.433,5.433,0,0,1-.247.491l-1.263,2.187a.55.55,0,0,1-.751.2l-15.484-8.94a.583.583,0,0,1-.277-.354A.463.463,0,0,1,43.232,172.935ZM36.6,203.387c-3.643-2.1-5.834-4.267-6.116-5.317a4.186,4.186,0,0,1-.055-1.5L45.6,205.323a4.21,4.21,0,0,1-1.331.7,1.68,1.68,0,0,1-.343.049h-.3A18.338,18.338,0,0,1,36.6,203.387Zm31.8,10.265H25.564a10.053,10.053,0,0,1,.843-1.738,6.134,6.134,0,0,1,5.487-3.149H62.061C65.963,208.764,67.692,211.741,68.4,213.652ZM49.117,200.7l-1.263,2.188a5.491,5.491,0,0,1-.3.46l-16.381-9.458c.082-.181.165-.348.248-.491l1.263-2.187.017-.03a.462.462,0,0,1,.289-.234.535.535,0,0,1,.145-.02.6.6,0,0,1,.3.082l15.484,8.939a.55.55,0,0,1,.2.75Zm3.187-6.1a13.323,13.323,0,0,1,1.147-3.6A13.312,13.312,0,0,1,56,188.2a3.658,3.658,0,0,1,1.292,1.5.436.436,0,0,1-.049.381l-2.69,4.659a.436.436,0,0,1-.305.233,3.656,3.656,0,0,1-1.942-.37ZM88.493,211.23a2.447,2.447,0,0,1-3.338.894c-1.3-.751-9.027-5.924-13.726-9.089l1.435-2.486c5.091,2.487,13.435,6.592,14.735,7.343A2.447,2.447,0,0,1,88.493,211.23Z" transform="translate(-22.441 -124.524)"/>
    </g>
  </g>
</svg>
