<svg xmlns="http://www.w3.org/2000/svg" width="81.469" height="81.469" viewBox="0 0 81.469 81.469">
  <g id="Grupo_181045" data-name="Grupo 181045" transform="translate(-349.266 -2057)">
    <circle id="Elipse_6259" data-name="Elipse 6259" cx="33" cy="33" r="33" transform="translate(357 2064)" fill="#e4d5ff"/>
    <g id="conversacion" transform="translate(349.266 2057)">
      <path id="Trazado_231217" data-name="Trazado 231217" d="M53.917,184H19.547A9.547,9.547,0,0,0,10,193.547v24.5a9.547,9.547,0,0,0,9.547,9.547H29.886l-.143.012,6.989,6.989,0-7h17.18a9.547,9.547,0,0,0,9.547-9.547v-24.5A9.547,9.547,0,0,0,53.917,184Z" transform="translate(-8.409 -154.722)" fill="#b8ede6"/>
      <path id="Trazado_231218" data-name="Trazado 231218" d="M28.323,227.782a1.591,1.591,0,0,1-1.125-.466l-6.535-6.535H11.138A11.151,11.151,0,0,1,0,209.643v-24.5A11.151,11.151,0,0,1,11.138,174H27.209a1.591,1.591,0,0,1,0,3.182H11.138a7.965,7.965,0,0,0-7.956,7.956v24.5a7.965,7.965,0,0,0,7.956,7.956H21.478a1.592,1.592,0,0,1,1.459.956l3.8,3.8,0-3.164a1.591,1.591,0,0,1,1.591-1.59h17.18a7.965,7.965,0,0,0,7.956-7.956V198.663a1.591,1.591,0,0,1,3.182,0v10.979a11.151,11.151,0,0,1-11.138,11.138H29.918l0,5.411a1.591,1.591,0,0,1-1.591,1.59Z" transform="translate(0 -146.313)"/>
      <path id="Trazado_231219" data-name="Trazado 231219" d="M231.563,10h-4.027A21.536,21.536,0,0,0,206,31.536h0a21.536,21.536,0,0,0,21.536,21.536h4.027a21.531,21.531,0,0,0,6.334-.947l6.61,6.606V48.749A21.5,21.5,0,0,0,253.1,31.536h0A21.536,21.536,0,0,0,231.563,10Z" transform="translate(-173.222 -8.409)" fill="#ffbc53"/>
      <path id="Trazado_231220" data-name="Trazado 231220" d="M236.1,51.913a1.591,1.591,0,0,1-1.125-.466L229.024,45.5a23.171,23.171,0,0,1-5.87.752h-4.027a23.127,23.127,0,1,1,0-46.254h4.027a23.153,23.153,0,0,1,23.127,23.127,22.878,22.878,0,0,1-2.513,10.494,23.349,23.349,0,0,1-6.079,7.495v9.206a1.591,1.591,0,0,1-1.591,1.591Zm-6.61-9.789a1.592,1.592,0,0,1,1.125.466l3.894,3.892V40.34a1.592,1.592,0,0,1,.634-1.271A19.945,19.945,0,0,0,223.154,3.182h-4.027a19.945,19.945,0,1,0,0,39.89h4.027a19.95,19.95,0,0,0,5.866-.877A1.59,1.59,0,0,1,229.488,42.125Z" transform="translate(-164.813)"/>
      <path id="Trazado_231221" data-name="Trazado 231221" d="M321.2,88.634a1.591,1.591,0,0,1-1.591-1.591V83.22a3.011,3.011,0,0,1,2.372-2.951,3.555,3.555,0,1,0-4.335-3.468,1.591,1.591,0,0,1-3.182,0,6.761,6.761,0,0,1,2.141-4.925,6.685,6.685,0,0,1,5.07-1.8,6.737,6.737,0,0,1,1.117,13.267v3.7A1.591,1.591,0,0,1,321.2,88.634Z" transform="translate(-264.425 -58.915)"/>
      <path id="Trazado_231222" data-name="Trazado 231222" d="M348.391,209.512a1.589,1.589,0,1,1,1.125-.465A1.6,1.6,0,0,1,348.391,209.512Z" transform="translate(-291.618 -173.499)"/>
      <path id="Trazado_231223" data-name="Trazado 231223" d="M89.165,313.182H55.591a1.591,1.591,0,0,1,0-3.182H89.165a1.591,1.591,0,0,1,0,3.182Z" transform="translate(-45.408 -260.673)"/>
      <path id="Trazado_231224" data-name="Trazado 231224" d="M266.591,369.182a1.592,1.592,0,1,1,1.125-.466A1.6,1.6,0,0,1,266.591,369.182Z" transform="translate(-222.834 -307.763)"/>
      <path id="Trazado_231225" data-name="Trazado 231225" d="M82.907,369.182H55.591a1.591,1.591,0,0,1,0-3.182H82.907a1.591,1.591,0,0,1,0,3.182Z" transform="translate(-45.408 -307.763)"/>
      <path id="Trazado_231226" data-name="Trazado 231226" d="M78.823,257.182H55.591a1.591,1.591,0,0,1,0-3.182H78.823a1.591,1.591,0,0,1,0,3.182Z" transform="translate(-45.408 -213.584)"/>
    </g>
  </g>
</svg>
