<svg id="Grupo_181044" data-name="Grupo 181044" xmlns="http://www.w3.org/2000/svg" xmlns:xlink="http://www.w3.org/1999/xlink" width="400" height="366.944" viewBox="0 0 400 366.944">
  <defs>
    <clipPath id="clip-path">
      <rect id="Rectángulo_59506" data-name="Rectángulo 59506" width="400" height="366.944" fill="none"/>
    </clipPath>
    <clipPath id="clip-path-2">
      <rect id="Rectángulo_59505" data-name="Rectángulo 59505" width="399.999" height="366.946" fill="none"/>
    </clipPath>
    <clipPath id="clip-path-3">
      <rect id="Rectángulo_59388" data-name="Rectángulo 59388" width="128.989" height="7.589" fill="none"/>
    </clipPath>
  </defs>
  <g id="Grupo_181043" data-name="Grupo 181043" clip-path="url(#clip-path)">
    <g id="Grupo_181042" data-name="Grupo 181042" transform="translate(0 -0.001)">
      <g id="Grupo_181041" data-name="Grupo 181041" clip-path="url(#clip-path-2)">
        <path id="Trazado_231116" data-name="Trazado 231116" d="M492.546,174.67l-11.373-14.712-15.124,8.873a44.277,44.277,0,0,0-10.1-5.783l0-17.537L437.5,143.151l-4.42,16.97a44.277,44.277,0,0,0-11.235,3.052l-12.4-12.4-14.712,11.373,8.874,15.124a44.279,44.279,0,0,0-5.783,10.1l-17.537,0-2.361,18.445,16.97,4.42a44.275,44.275,0,0,0,3.052,11.235l-12.4,12.4L396.921,248.6l15.124-8.873a44.283,44.283,0,0,0,10.1,5.783l0,17.537L440.6,265.4l4.42-16.971a44.276,44.276,0,0,0,11.235-3.052l12.4,12.4L483.365,246.4l-8.873-15.124a44.28,44.28,0,0,0,5.783-10.1l17.537,0,2.361-18.445-16.971-4.42a44.288,44.288,0,0,0-3.052-11.235Z" transform="translate(-292.233 -110.693)" fill="#e5e6eb"/>
        <path id="Trazado_231117" data-name="Trazado 231117" d="M549.077,274.375l-1.019,1.332A32.645,32.645,0,0,1,562.3,296.236l0,0,1.717.072a34.336,34.336,0,0,0-14.943-21.936m13.806,32.007A32.658,32.658,0,0,1,521.2,334.574l-.9,1.471a34.325,34.325,0,0,0,44.231-29.4ZM509.339,276.01a34.405,34.405,0,0,0-6.172,48.206q.227.293.461.58l1.088-1.309c-.078-.1-.154-.193-.229-.291A32.71,32.71,0,0,1,518.051,272.9l.091-1.824a34.145,34.145,0,0,0-8.8,4.933" transform="translate(-383.544 -209.613)" fill="#fff"/>
        <path id="Trazado_231118" data-name="Trazado 231118" d="M607.314,374.761a12.338,12.338,0,0,1-16.968-17.727l-1.04-1.346a14.006,14.006,0,0,0,19.028,20.392c.156-.12.31-.243.456-.37l-.776-1.533c-.223.2-.457.4-.7.583M596.4,351.407l.551,1.581a12.334,12.334,0,0,1,14.142,16.9l1.438.879A14,14,0,0,0,596.4,351.407" transform="translate(-452.954 -271.416)" fill="#fff"/>
        <path id="Trazado_231119" data-name="Trazado 231119" d="M96.776,365.714l-2.865-13.522L80.92,353.25a32.908,32.908,0,0,0-4.9-7.134l5.66-11.743L70.1,326.837l-8.439,9.935a32.912,32.912,0,0,0-8.508-1.584l-4.3-12.3-13.522,2.865,1.058,12.991a32.913,32.913,0,0,0-7.134,4.9l-11.743-5.66L9.971,349.565,19.906,358a32.915,32.915,0,0,0-1.584,8.508l-12.3,4.3,2.865,13.522,12.991-1.058a32.916,32.916,0,0,0,4.9,7.134l-5.66,11.743L32.7,409.689l8.439-9.935a32.907,32.907,0,0,0,8.508,1.584l4.3,12.3,13.522-2.865L66.41,397.786a32.924,32.924,0,0,0,7.134-4.9l11.743,5.66,7.536-11.587-9.935-8.439a32.914,32.914,0,0,0,1.584-8.508Z" transform="translate(-4.654 -249.674)" fill="#e5e6eb"/>
        <path id="Trazado_231120" data-name="Trazado 231120" d="M140.868,422.649l-1.113.563a24.262,24.262,0,0,1,2.907,18.343v0l1.126.6a25.524,25.524,0,0,0-2.922-19.512m-1.091,25.887a24.275,24.275,0,0,1-37.01,5.417l-1.077.695a25.514,25.514,0,0,0,39.106-5.4Zm-26.042-37.624a25.574,25.574,0,0,0-19.7,30.283q.057.269.121.537l1.151-.525c-.022-.089-.04-.179-.059-.269a24.313,24.313,0,0,1,25.321-29.294l.65-1.192a25.383,25.383,0,0,0-7.486.461" transform="translate(-72.285 -317.313)" fill="#fff"/>
        <path id="Trazado_231121" data-name="Trazado 231121" d="M172.554,497.251a9.171,9.171,0,0,1-5.637-17.347l-.262-1.237a10.411,10.411,0,0,0,6.156,19.8c.143-.03.286-.063.425-.1l-.025-1.277c-.215.063-.434.117-.657.165m.232-19.161-.141,1.236a9.168,9.168,0,0,1,4.013,15.879l.679,1.052a10.408,10.408,0,0,0-4.551-18.168" transform="translate(-123.91 -369.689)" fill="#fff"/>
        <path id="Trazado_231122" data-name="Trazado 231122" d="M371.042,646.013l-2.446-8.965-8.679,1.213a22.128,22.128,0,0,0-3.564-4.6l3.345-8.1-8.069-4.61-5.28,7a22.127,22.127,0,0,0-5.772-.734l-3.363-8.092-8.966,2.446,1.213,8.679a22.127,22.127,0,0,0-4.6,3.564l-8.1-3.345-4.61,8.069,7,5.28a22.128,22.128,0,0,0-.734,5.772l-8.092,3.363,2.446,8.966,8.679-1.213a22.122,22.122,0,0,0,3.564,4.6l-3.345,8.1,8.069,4.61,5.28-7a22.142,22.142,0,0,0,5.772.734l3.363,8.092,8.966-2.446-1.213-8.679a22.12,22.12,0,0,0,4.6-3.564l8.1,3.345,4.61-8.069-7-5.28a22.13,22.13,0,0,0,.734-5.772Z" transform="translate(-239.959 -478.742)" fill="#e5e6eb"/>
        <path id="Trazado_231123" data-name="Trazado 231123" d="M399.791,684.71l-.725.421a16.312,16.312,0,0,1,2.662,12.2v0l.78.361a17.159,17.159,0,0,0-2.716-12.984m.27,17.419a16.321,16.321,0,0,1-24.632,5.069l-.7.508a17.154,17.154,0,0,0,26.04-5.14Zm-18.937-24.246a17.2,17.2,0,0,0-12.049,21.089q.049.178.1.356l.752-.4c-.018-.059-.034-.119-.05-.178a16.348,16.348,0,0,1,15.862-20.643l.39-.825a17.066,17.066,0,0,0-5.007.6" transform="translate(-284.923 -523.713)" fill="#fff"/>
        <path id="Trazado_231124" data-name="Trazado 231124" d="M421.977,735.37a6.166,6.166,0,0,1-4.455-11.426l-.224-.82a7,7,0,0,0,4.9,13.05c.1-.026.189-.053.281-.084l-.066-.856c-.142.051-.287.1-.435.136m-.586-12.87-.047.835a6.164,6.164,0,0,1,3.308,10.5l.5.68a7,7,0,0,0-3.758-12.019" transform="translate(-319.632 -558.683)" fill="#fff"/>
        <path id="Trazado_231125" data-name="Trazado 231125" d="M92.688,557.315l2.206-4.535,68.111-139.947H355.874l75.6-155.336,2.605-5.355-12.232-5.952-2.605,5.353L347.365,399.229H154.5L79.767,552.78l-2.208,4.535Z" transform="translate(-59.973 -190.369)" fill="#eeac3a"/>
        <path id="Trazado_231126" data-name="Trazado 231126" d="M1530.816,165.957l33.716-22.783,2.877,40.592Z" transform="translate(-1183.728 -110.71)" fill="#eeac3a"/>
        <path id="Trazado_231127" data-name="Trazado 231127" d="M509.96,542.509V715.088a12.021,12.021,0,0,1-12.019,12.019H213.217A12.021,12.021,0,0,1,201.2,715.088V542.509a12.02,12.02,0,0,1,12.019-12.019H497.941a12.02,12.02,0,0,1,12.019,12.019" transform="translate(-155.58 -410.209)" fill="#050f64"/>
        <rect id="Rectángulo_59385" data-name="Rectángulo 59385" width="287.154" height="165.044" transform="translate(56.422 131.083)" fill="#ff654f"/>
        <rect id="Rectángulo_59386" data-name="Rectángulo 59386" width="128.988" height="27.691" transform="translate(135.506 316.898)" fill="#e5e6eb"/>
        <g id="Grupo_181040" data-name="Grupo 181040" transform="translate(135.506 316.898)" opacity="0.3">
          <g id="Grupo_181039" data-name="Grupo 181039">
            <g id="Grupo_181038" data-name="Grupo 181038" clip-path="url(#clip-path-3)">
              <rect id="Rectángulo_59387" data-name="Rectángulo 59387" width="128.988" height="7.589" transform="translate(0)" fill="#050f64"/>
            </g>
          </g>
        </g>
        <path id="Trazado_231128" data-name="Trazado 231128" d="M680.5,1535.194H513.232l19.138-18.349H661.358Z" transform="translate(-396.865 -1172.923)" fill="#e5e6eb"/>
        <path id="Trazado_231129" data-name="Trazado 231129" d="M553,578.13H282.028V737.073H554.137V578.13Z" transform="translate(-218.083 -447.047)" fill="#da5544"/>
        <path id="Trazado_231130" data-name="Trazado 231130" d="M562.334,537.586H297.027V332.467a7.919,7.919,0,0,1,7.919-7.919H554.415a7.919,7.919,0,0,1,7.919,7.919Z" transform="translate(-229.681 -250.961)" fill="#e5e6eb"/>
        <path id="Trazado_231131" data-name="Trazado 231131" d="M302.848,540.768v-203.8a6.606,6.606,0,0,1,6.6-6.6H558.916a6.606,6.606,0,0,1,6.6,6.6v203.8Z" transform="translate(-234.182 -255.463)" fill="#fff"/>
        <path id="Trazado_231132" data-name="Trazado 231132" d="M567.96,524.024a9.671,9.671,0,0,1,8.132-7.923l-.139-3.825-.35-9.363a22.83,22.83,0,0,0-20.818,20.293l9.349.58Z" transform="translate(-428.997 -388.884)" fill="#43a99b"/>
        <path id="Trazado_231133" data-name="Trazado 231133" d="M608.381,638.814a9.67,9.67,0,0,1-9.307-1.217l-2.594,2.818L590.13,647.3a22.847,22.847,0,0,0,24.4,3.2l-4.363-8.294Z" transform="translate(-456.327 -493.031)" fill="#ffbd00"/>
        <path id="Trazado_231134" data-name="Trazado 231134" d="M701.781,619.551l-9.237-1.6a13.529,13.529,0,0,1-5.881,8.091l4.364,8.286,2.042,3.888A27.224,27.224,0,0,0,706.1,620.3Z" transform="translate(-530.973 -477.838)" fill="#ffbd00"/>
        <path id="Trazado_231135" data-name="Trazado 231135" d="M548.6,601.293l-9.349-.587-4.384-.273c-.007.217-.007.434-.007.65a27.149,27.149,0,0,0,8.007,19.286l2.979-3.231,6.349-6.881a13.418,13.418,0,0,1-3.594-8.965" transform="translate(-413.59 -464.293)" fill="#43a99b"/>
        <path id="Trazado_231136" data-name="Trazado 231136" d="M680.513,524.6l-1.776,3.391a9.682,9.682,0,0,1,4.28,8.035q0,.3-.021.609l3.769.65,9.244,1.6a24.033,24.033,0,0,0,.175-2.86A22.84,22.84,0,0,0,684.863,516.3Z" transform="translate(-524.844 -399.234)" fill="#155bcd"/>
        <path id="Trazado_231137" data-name="Trazado 231137" d="M655.647,496.96a13.2,13.2,0,0,1,4.762,1.077l4.349-8.307,2.042-3.888a27.092,27.092,0,0,0-11.657-2.636l.161,4.384Z" transform="translate(-506.6 -373.645)" fill="#155bcd"/>
        <rect id="Rectángulo_59389" data-name="Rectángulo 59389" width="100.791" height="8.066" transform="translate(80.173 85.44)" fill="#155bcd"/>
        <rect id="Rectángulo_59390" data-name="Rectángulo 59390" width="18.851" height="2.115" transform="translate(84.394 246.141)" fill="#e5e6eb"/>
        <rect id="Rectángulo_59391" data-name="Rectángulo 59391" width="18.851" height="2.115" transform="translate(110.182 246.141)" fill="#e5e6eb"/>
        <rect id="Rectángulo_59392" data-name="Rectángulo 59392" width="13.643" height="2.115" transform="translate(161.519 246.141)" fill="#e5e6eb"/>
        <rect id="Rectángulo_59393" data-name="Rectángulo 59393" width="21.22" height="2.115" transform="translate(186.88 246.141)" fill="#e5e6eb"/>
        <rect id="Rectángulo_59394" data-name="Rectángulo 59394" width="9.657" height="2.115" transform="translate(169.011 253.456)" fill="#e5e6eb"/>
        <rect id="Rectángulo_59395" data-name="Rectángulo 59395" width="9.657" height="2.115" transform="translate(169.011 259.084)" fill="#e5e6eb"/>
        <rect id="Rectángulo_59396" data-name="Rectángulo 59396" width="9.657" height="2.115" transform="translate(169.011 264.711)" fill="#e5e6eb"/>
        <rect id="Rectángulo_59397" data-name="Rectángulo 59397" width="9.657" height="2.115" transform="translate(169.011 270.338)" fill="#e5e6eb"/>
        <rect id="Rectángulo_59398" data-name="Rectángulo 59398" width="6.968" height="2.115" transform="translate(96.277 253.456)" fill="#ff654f"/>
        <rect id="Rectángulo_59399" data-name="Rectángulo 59399" width="6.968" height="2.115" transform="translate(96.277 259.084)" fill="#84a9ff"/>
        <rect id="Rectángulo_59400" data-name="Rectángulo 59400" width="6.968" height="2.115" transform="translate(96.277 264.711)" fill="#155bcd"/>
        <rect id="Rectángulo_59401" data-name="Rectángulo 59401" width="6.968" height="2.115" transform="translate(96.277 270.338)" fill="#ffbd00"/>
        <rect id="Rectángulo_59402" data-name="Rectángulo 59402" width="9.657" height="2.115" transform="translate(200.524 253.456)" fill="#e5e6eb"/>
        <rect id="Rectángulo_59403" data-name="Rectángulo 59403" width="9.657" height="2.115" transform="translate(200.524 259.084)" fill="#e5e6eb"/>
        <rect id="Rectángulo_59404" data-name="Rectángulo 59404" width="9.657" height="2.115" transform="translate(200.524 264.711)" fill="#e5e6eb"/>
        <rect id="Rectángulo_59405" data-name="Rectángulo 59405" width="9.657" height="2.115" transform="translate(200.524 270.338)" fill="#e5e6eb"/>
        <rect id="Rectángulo_59406" data-name="Rectángulo 59406" width="9.657" height="2.115" transform="translate(109.951 253.456)" fill="#e5e6eb"/>
        <rect id="Rectángulo_59407" data-name="Rectángulo 59407" width="14.303" height="2.115" transform="translate(109.951 259.084)" fill="#e5e6eb"/>
        <rect id="Rectángulo_59408" data-name="Rectángulo 59408" width="18.054" height="2.115" transform="translate(109.951 264.711)" fill="#e5e6eb"/>
        <rect id="Rectángulo_59409" data-name="Rectángulo 59409" width="8.3" height="2.115" transform="translate(109.951 270.338)" fill="#e5e6eb"/>
        <rect id="Rectángulo_59410" data-name="Rectángulo 59410" width="68.934" height="3.803" transform="translate(80.173 170.923)" fill="#e5e6eb"/>
        <rect id="Rectángulo_59411" data-name="Rectángulo 59411" width="30.762" height="2.115" transform="translate(80.173 108.449)" fill="#e5e6eb"/>
        <rect id="Rectángulo_59412" data-name="Rectángulo 59412" width="2.116" height="2.116" transform="translate(80.173 127.247)" fill="#e5e6eb"/>
        <rect id="Rectángulo_59413" data-name="Rectángulo 59413" width="26.531" height="2.116" transform="translate(84.405 127.247)" fill="#e5e6eb"/>
        <rect id="Rectángulo_59414" data-name="Rectángulo 59414" width="2.116" height="2.116" transform="translate(80.173 135.275)" fill="#155bcd"/>
        <rect id="Rectángulo_59415" data-name="Rectángulo 59415" width="26.531" height="2.116" transform="translate(84.405 135.275)" fill="#e5e6eb"/>
        <rect id="Rectángulo_59416" data-name="Rectángulo 59416" width="2.116" height="2.116" transform="translate(80.173 143.304)" fill="#6292ff"/>
        <rect id="Rectángulo_59417" data-name="Rectángulo 59417" width="26.531" height="2.116" transform="translate(84.405 143.304)" fill="#e5e6eb"/>
        <rect id="Rectángulo_59418" data-name="Rectángulo 59418" width="2.116" height="2.116" transform="translate(80.173 151.346)" fill="#da5544"/>
        <rect id="Rectángulo_59419" data-name="Rectángulo 59419" width="26.531" height="2.116" transform="translate(84.405 151.346)" fill="#e5e6eb"/>
        <rect id="Rectángulo_59420" data-name="Rectángulo 59420" width="2.116" height="2.116" transform="translate(80.173 159.375)" fill="#ffbd00"/>
        <rect id="Rectángulo_59421" data-name="Rectángulo 59421" width="26.531" height="2.116" transform="translate(84.405 159.375)" fill="#e5e6eb"/>
        <rect id="Rectángulo_59422" data-name="Rectángulo 59422" width="30.762" height="7.128" transform="translate(80.173 114.202)" fill="#e5e6eb"/>
        <rect id="Rectángulo_59423" data-name="Rectángulo 59423" width="83.597" height="2.115" transform="translate(237.088 210.661)" fill="#e5e6eb"/>
        <rect id="Rectángulo_59424" data-name="Rectángulo 59424" width="2.116" height="2.116" transform="translate(237.088 229.458)" fill="#e5e6eb"/>
        <rect id="Rectángulo_59425" data-name="Rectángulo 59425" width="79.365" height="2.116" transform="translate(241.319 229.458)" fill="#e5e6eb"/>
        <rect id="Rectángulo_59426" data-name="Rectángulo 59426" width="2.116" height="2.116" transform="translate(237.088 237.487)" fill="#155bcd"/>
        <rect id="Rectángulo_59427" data-name="Rectángulo 59427" width="79.365" height="2.116" transform="translate(241.319 237.487)" fill="#e5e6eb"/>
        <rect id="Rectángulo_59428" data-name="Rectángulo 59428" width="2.116" height="2.116" transform="translate(237.088 245.515)" fill="#6292ff"/>
        <rect id="Rectángulo_59429" data-name="Rectángulo 59429" width="79.365" height="2.116" transform="translate(241.319 245.515)" fill="#e5e6eb"/>
        <rect id="Rectángulo_59430" data-name="Rectángulo 59430" width="2.116" height="2.116" transform="translate(237.088 253.558)" fill="#da5544"/>
        <rect id="Rectángulo_59431" data-name="Rectángulo 59431" width="79.365" height="2.116" transform="translate(241.319 253.558)" fill="#e5e6eb"/>
        <rect id="Rectángulo_59432" data-name="Rectángulo 59432" width="2.116" height="2.116" transform="translate(237.088 261.586)" fill="#ffbd00"/>
        <rect id="Rectángulo_59433" data-name="Rectángulo 59433" width="79.365" height="2.116" transform="translate(241.319 261.587)" fill="#e5e6eb"/>
        <rect id="Rectángulo_59434" data-name="Rectángulo 59434" width="83.597" height="7.128" transform="translate(237.088 216.413)" fill="#e5e6eb"/>
        <rect id="Rectángulo_59435" data-name="Rectángulo 59435" width="83.597" height="7.128" transform="translate(237.088 267.832)" fill="#e5e6eb"/>
        <rect id="Rectángulo_59436" data-name="Rectángulo 59436" width="30.762" height="2.115" transform="translate(185.665 108.449)" fill="#e5e6eb"/>
        <rect id="Rectángulo_59437" data-name="Rectángulo 59437" width="30.762" height="2.115" transform="translate(185.665 127.246)" fill="#e5e6eb"/>
        <rect id="Rectángulo_59438" data-name="Rectángulo 59438" width="30.762" height="2.115" transform="translate(185.665 135.278)" fill="#e5e6eb"/>
        <rect id="Rectángulo_59439" data-name="Rectángulo 59439" width="30.762" height="2.115" transform="translate(185.665 143.309)" fill="#e5e6eb"/>
        <rect id="Rectángulo_59440" data-name="Rectángulo 59440" width="30.762" height="2.115" transform="translate(185.665 151.341)" fill="#e5e6eb"/>
        <rect id="Rectángulo_59441" data-name="Rectángulo 59441" width="30.762" height="2.115" transform="translate(185.665 159.373)" fill="#e5e6eb"/>
        <rect id="Rectángulo_59442" data-name="Rectángulo 59442" width="30.762" height="7.128" transform="translate(185.665 114.202)" fill="#e5e6eb"/>
        <rect id="Rectángulo_59443" data-name="Rectángulo 59443" width="9.754" height="4.127" transform="translate(80.173 185.043)" fill="#155bcd"/>
        <rect id="Rectángulo_59444" data-name="Rectángulo 59444" width="9.754" height="4.127" transform="translate(99.775 185.043)" fill="#155bcd"/>
        <rect id="Rectángulo_59445" data-name="Rectángulo 59445" width="9.754" height="4.127" transform="translate(119.377 185.043)" fill="#155bcd"/>
        <rect id="Rectángulo_59446" data-name="Rectángulo 59446" width="9.754" height="4.127" transform="translate(138.978 185.043)" fill="#155bcd"/>
        <rect id="Rectángulo_59447" data-name="Rectángulo 59447" width="9.754" height="4.127" transform="translate(158.58 185.043)" fill="#155bcd"/>
        <rect id="Rectángulo_59448" data-name="Rectángulo 59448" width="9.754" height="4.127" transform="translate(178.182 185.043)" fill="#155bcd"/>
        <rect id="Rectángulo_59449" data-name="Rectángulo 59449" width="9.754" height="4.127" transform="translate(197.783 185.043)" fill="#155bcd"/>
        <rect id="Rectángulo_59450" data-name="Rectángulo 59450" width="137.056" height="1.25" transform="translate(80.173 193.484)" fill="#e5e6eb"/>
        <path id="Trazado_231138" data-name="Trazado 231138" d="M486.741,902.971H351.4V853.345h-1.11v50.736H487.852V853.345h-1.111Z" transform="translate(-270.868 -659.862)" fill="#e5e6eb"/>
        <rect id="Rectángulo_59451" data-name="Rectángulo 59451" width="1.111" height="50.18" transform="translate(203.463 193.484)" fill="#e5e6eb"/>
        <rect id="Rectángulo_59452" data-name="Rectángulo 59452" width="1.126" height="50.18" transform="translate(191.053 193.484)" fill="#e5e6eb"/>
        <rect id="Rectángulo_59453" data-name="Rectángulo 59453" width="1.11" height="50.18" transform="translate(178.658 193.484)" fill="#e5e6eb"/>
        <rect id="Rectángulo_59454" data-name="Rectángulo 59454" width="1.111" height="50.18" transform="translate(166.248 193.484)" fill="#e5e6eb"/>
        <rect id="Rectángulo_59455" data-name="Rectángulo 59455" width="1.111" height="50.18" transform="translate(153.853 193.484)" fill="#e5e6eb"/>
        <rect id="Rectángulo_59456" data-name="Rectángulo 59456" width="1.111" height="50.18" transform="translate(141.443 193.484)" fill="#e5e6eb"/>
        <rect id="Rectángulo_59457" data-name="Rectángulo 59457" width="1.111" height="50.18" transform="translate(129.033 193.484)" fill="#e5e6eb"/>
        <rect id="Rectángulo_59458" data-name="Rectángulo 59458" width="1.111" height="50.18" transform="translate(116.638 193.484)" fill="#e5e6eb"/>
        <rect id="Rectángulo_59459" data-name="Rectángulo 59459" width="1.11" height="50.18" transform="translate(104.228 193.484)" fill="#e5e6eb"/>
        <rect id="Rectángulo_59460" data-name="Rectángulo 59460" width="1.126" height="50.18" transform="translate(91.818 193.484)" fill="#e5e6eb"/>
        <rect id="Rectángulo_59461" data-name="Rectángulo 59461" width="137.561" height="1.111" transform="translate(79.423 193.484)" fill="#e5e6eb"/>
        <rect id="Rectángulo_59462" data-name="Rectángulo 59462" width="136.452" height="1.113" transform="translate(79.975 205.892)" fill="#e5e6eb"/>
        <rect id="Rectángulo_59463" data-name="Rectángulo 59463" width="136.452" height="1.113" transform="translate(79.975 218.297)" fill="#e5e6eb"/>
        <rect id="Rectángulo_59464" data-name="Rectángulo 59464" width="136.452" height="1.113" transform="translate(79.975 230.701)" fill="#e5e6eb"/>
        <rect id="Rectángulo_59465" data-name="Rectángulo 59465" width="8.908" height="27.491" transform="translate(92.936 215.662)" fill="#84a9ff"/>
        <rect id="Rectángulo_59466" data-name="Rectángulo 59466" width="8.908" height="33.207" transform="translate(117.746 209.946)" fill="#84a9ff"/>
        <rect id="Rectángulo_59467" data-name="Rectángulo 59467" width="8.908" height="19.626" transform="translate(142.556 223.526)" fill="#84a9ff"/>
        <rect id="Rectángulo_59468" data-name="Rectángulo 59468" width="8.908" height="39.835" transform="translate(167.367 203.318)" fill="#84a9ff"/>
        <rect id="Rectángulo_59469" data-name="Rectángulo 59469" width="8.908" height="29.08" transform="translate(192.177 214.072)" fill="#84a9ff"/>
        <rect id="Rectángulo_59470" data-name="Rectángulo 59470" width="8.908" height="27.491" transform="translate(91.823 215.662)" fill="#ff654f"/>
        <rect id="Rectángulo_59471" data-name="Rectángulo 59471" width="8.908" height="33.207" transform="translate(116.633 209.946)" fill="#ff654f"/>
        <rect id="Rectángulo_59472" data-name="Rectángulo 59472" width="8.908" height="19.626" transform="translate(141.442 223.526)" fill="#ff654f"/>
        <rect id="Rectángulo_59473" data-name="Rectángulo 59473" width="8.908" height="39.835" transform="translate(166.253 203.318)" fill="#ff654f"/>
        <rect id="Rectángulo_59474" data-name="Rectángulo 59474" width="8.908" height="29.08" transform="translate(191.063 214.072)" fill="#ff654f"/>
        <rect id="Rectángulo_59475" data-name="Rectángulo 59475" width="137.561" height="1.126" transform="translate(79.423 256.765)" fill="#e5e6eb"/>
        <rect id="Rectángulo_59476" data-name="Rectángulo 59476" width="137.561" height="1.126" transform="translate(79.423 262.392)" fill="#e5e6eb"/>
        <rect id="Rectángulo_59477" data-name="Rectángulo 59477" width="137.561" height="1.126" transform="translate(79.423 268.02)" fill="#e5e6eb"/>
        <rect id="Rectángulo_59478" data-name="Rectángulo 59478" width="137.561" height="1.126" transform="translate(79.423 273.647)" fill="#e5e6eb"/>
        <rect id="Rectángulo_59479" data-name="Rectángulo 59479" width="2.115" height="2.115" transform="translate(80.173 127.246)" fill="#777eeb"/>
        <rect id="Rectángulo_59480" data-name="Rectángulo 59480" width="11.213" height="46.196" transform="translate(264.931 120.267)" fill="#84a9ff"/>
        <rect id="Rectángulo_59481" data-name="Rectángulo 59481" width="11.213" height="54.419" transform="translate(278.886 112.044)" fill="#ffbd00"/>
        <rect id="Rectángulo_59482" data-name="Rectángulo 59482" width="11.213" height="27.092" transform="translate(250.977 139.371)" fill="#ff654f"/>
        <rect id="Rectángulo_59483" data-name="Rectángulo 59483" width="11.213" height="49.685" transform="translate(292.84 116.779)" fill="#84a9ff"/>
        <rect id="Rectángulo_59484" data-name="Rectángulo 59484" width="11.213" height="67.875" transform="translate(306.794 98.588)" fill="#ffbd00"/>
        <path id="Trazado_231139" data-name="Trazado 231139" d="M1026.868,425.181a16.526,16.526,0,0,1-3.812-.445c-4.989-1.183-7.861-5.533-9.588-8.7l1.585-.864c2.482,4.554,5.157,7.036,8.42,7.809,6.6,1.564,13.537-1.6,16.146-7.358a34.942,34.942,0,0,0,2.052-7.113q.133-.621.268-1.241c.711-3.237,1.876-7.379,4.588-10.7a13.58,13.58,0,0,1,12.507-5.266,36.5,36.5,0,0,1,5,1.261c3.253.986,6.325,1.917,9.494.981,5.085-1.5,8.814-5.829,12.42-10.014,3.094-3.59,6.292-7.3,10.4-9.346l.8,1.616c-3.779,1.882-6.72,5.3-9.834,8.909-3.777,4.383-7.682,8.915-13.276,10.567-3.688,1.089-7.166.035-10.529-.985a34.625,34.625,0,0,0-4.747-1.2,11.8,11.8,0,0,0-10.833,4.623c-2.471,3.029-3.555,6.908-4.224,9.95q-.135.614-.265,1.23a36.285,36.285,0,0,1-2.173,7.48c-2.453,5.415-8.254,8.815-14.4,8.815" transform="translate(-783.68 -289.339)" fill="#ff654f"/>
        <path id="Trazado_231140" data-name="Trazado 231140" d="M1375.354,373.177l3.458-4.149-5.322-.921Z" transform="translate(-1062.073 -284.643)" fill="#ff654f"/>
        <path id="Trazado_231141" data-name="Trazado 231141" d="M1049.539,794.832a7.529,7.529,0,0,1,6.967-6.967V783.99a11.388,11.388,0,0,0-10.843,10.842Z" transform="translate(-808.575 -606.232)" fill="#84a9ff"/>
        <path id="Trazado_231142" data-name="Trazado 231142" d="M1098.18,787.866a7.529,7.529,0,0,1,6.967,6.967h3.876a11.387,11.387,0,0,0-10.843-10.842Z" transform="translate(-849.185 -606.232)" fill="#84a9ff"/>
        <path id="Trazado_231143" data-name="Trazado 231143" d="M1056.505,843.474a7.53,7.53,0,0,1-6.967-6.967h-3.876a11.387,11.387,0,0,0,10.843,10.843Z" transform="translate(-808.575 -646.841)" fill="#84a9ff"/>
        <path id="Trazado_231144" data-name="Trazado 231144" d="M1105.147,836.507a7.529,7.529,0,0,1-6.967,6.967v3.876a11.387,11.387,0,0,0,10.843-10.843Z" transform="translate(-849.185 -646.841)" fill="#84a9ff"/>
        <rect id="Rectángulo_59485" data-name="Rectángulo 59485" width="8.837" height="4.058" transform="translate(244.044 187.104)" fill="#e5e6eb"/>
        <path id="Trazado_231145" data-name="Trazado 231145" d="M1183.72,794.832a7.529,7.529,0,0,1,6.966-6.967V783.99a11.388,11.388,0,0,0-10.842,10.842Z" transform="translate(-912.333 -606.232)" fill="#84a9ff"/>
        <path id="Trazado_231146" data-name="Trazado 231146" d="M1232.361,787.866a7.529,7.529,0,0,1,6.967,6.967h3.876a11.387,11.387,0,0,0-10.843-10.842Z" transform="translate(-952.943 -606.232)" fill="#84a9ff"/>
        <path id="Trazado_231147" data-name="Trazado 231147" d="M1190.686,843.474a7.529,7.529,0,0,1-6.967-6.967h-3.876a11.387,11.387,0,0,0,10.842,10.843Z" transform="translate(-912.333 -646.841)" fill="#84a9ff"/>
        <path id="Trazado_231148" data-name="Trazado 231148" d="M1239.328,836.507a7.53,7.53,0,0,1-6.967,6.967v3.876a11.388,11.388,0,0,0,10.843-10.843Z" transform="translate(-952.943 -646.841)" fill="#84a9ff"/>
        <rect id="Rectángulo_59486" data-name="Rectángulo 59486" width="8.837" height="4.058" transform="translate(274.467 187.104)" fill="#e5e6eb"/>
        <path id="Trazado_231149" data-name="Trazado 231149" d="M1317.9,794.832a7.529,7.529,0,0,1,6.967-6.967V783.99a11.387,11.387,0,0,0-10.842,10.842Z" transform="translate(-1016.09 -606.232)" fill="#84a9ff"/>
        <path id="Trazado_231150" data-name="Trazado 231150" d="M1366.541,787.866a7.529,7.529,0,0,1,6.967,6.967h3.876a11.387,11.387,0,0,0-10.843-10.842Z" transform="translate(-1056.699 -606.232)" fill="#84a9ff"/>
        <path id="Trazado_231151" data-name="Trazado 231151" d="M1324.866,843.474a7.53,7.53,0,0,1-6.967-6.967h-3.875a11.387,11.387,0,0,0,10.842,10.843Z" transform="translate(-1016.09 -646.841)" fill="#84a9ff"/>
        <path id="Trazado_231152" data-name="Trazado 231152" d="M1373.509,836.507a7.529,7.529,0,0,1-6.967,6.967v3.876a11.387,11.387,0,0,0,10.842-10.843Z" transform="translate(-1056.7 -646.841)" fill="#84a9ff"/>
        <rect id="Rectángulo_59487" data-name="Rectángulo 59487" width="8.837" height="4.058" transform="translate(304.891 187.104)" fill="#e5e6eb"/>
        <path id="Trazado_231153" data-name="Trazado 231153" d="M1325.785,888.022l3.948,93.424L1262.3,984.3a26.3,26.3,0,0,1-4-.135,26.02,26.02,0,0,1-23-23.447q-.062-.651-.089-1.31l-2.85-67.434Z" transform="translate(-952.943 -686.676)" fill="#8c5be1"/>
        <path id="Trazado_231154" data-name="Trazado 231154" d="M1268.325,1232.072a26.02,26.02,0,0,1-23-23.447s4.944,8.394,10.674,9.74c0,0,2.791,10.041,12.328,13.706" transform="translate(-962.966 -934.587)" fill="#dca000"/>
        <rect id="Rectángulo_59488" data-name="Rectángulo 59488" width="74.904" height="3.608" transform="translate(289.386 220.849) rotate(-2.42)" fill="#fff"/>
        <rect id="Rectángulo_59489" data-name="Rectángulo 59489" width="74.904" height="3.608" transform="translate(289.786 230.317) rotate(-2.42)" fill="#fff"/>
        <rect id="Rectángulo_59490" data-name="Rectángulo 59490" width="74.904" height="3.608" transform="translate(290.186 239.784) rotate(-2.42)" fill="#fff"/>
        <rect id="Rectángulo_59491" data-name="Rectángulo 59491" width="74.904" height="3.608" transform="translate(290.586 249.252) rotate(-2.42)" fill="#fff"/>
        <rect id="Rectángulo_59492" data-name="Rectángulo 59492" width="74.904" height="3.608" transform="translate(290.986 258.719) rotate(-2.42)" fill="#fff"/>
        <rect id="Rectángulo_59493" data-name="Rectángulo 59493" width="74.904" height="3.608" transform="translate(291.386 268.186) rotate(-2.42)" fill="#fff"/>
        <rect id="Rectángulo_59494" data-name="Rectángulo 59494" width="9.096" height="0.453" transform="translate(323.659 210.218) rotate(-60)" fill="#fff"/>
        <path id="Trazado_231155" data-name="Trazado 231155" d="M1454.037,863.008a3.034,3.034,0,1,1-.823-3.891,2.826,2.826,0,0,1,.823,3.891" transform="translate(-1120.288 -663.8)" fill="#050f64"/>
        <path id="Trazado_231156" data-name="Trazado 231156" d="M1436.253,877.454c-1.533,2.027-4.668,2.238-7,.472s-2.985-4.84-1.453-6.867,4.668-2.238,7-.472,2.985,4.84,1.453,6.867" transform="translate(-1103.425 -672.268)" fill="#050f64"/>
        <path id="Trazado_231157" data-name="Trazado 231157" d="M397.732,1602.924H2.267a2.267,2.267,0,1,1,0-4.535H397.732a2.267,2.267,0,1,1,0,4.535" transform="translate(0 -1235.979)" fill="#050f64"/>
        <path id="Trazado_231158" data-name="Trazado 231158" d="M753.218,54.979l31.063,11.39L788.9,76.813l-9.832-4.827,1.546-3.464Z" transform="translate(-582.438 -42.513)" fill="#155bcd"/>
        <path id="Trazado_231159" data-name="Trazado 231159" d="M784.281,66.369l11.734-8.161-42.8-3.228Z" transform="translate(-582.438 -42.512)" fill="#84a9ff"/>
        <path id="Trazado_231160" data-name="Trazado 231160" d="M780.617,68.521,774.353,82.56l-21.136-27.58Z" transform="translate(-582.437 -42.512)" fill="#84a9ff"/>
        <path id="Trazado_231161" data-name="Trazado 231161" d="M265.222,54.783a15.369,15.369,0,0,0-1.494-3.622,15.549,15.549,0,0,0-2.843-3.623,15.176,15.176,0,0,0-6.447-3.621,15.727,15.727,0,0,0-8.157,0,15.173,15.173,0,0,0-6.447,3.621,15.542,15.542,0,0,0-2.843,3.623,15.366,15.366,0,0,0-1.494,3.622,15.077,15.077,0,0,0-.524,3.622h0a15.053,15.053,0,0,0,.357,3.623,15.644,15.644,0,0,0,.834,2.629l12.018,28.895a2.359,2.359,0,0,0,4.356,0l12.018-28.895a15.641,15.641,0,0,0,.833-2.629,15.067,15.067,0,0,0,.357-3.623h0a15.088,15.088,0,0,0-.523-3.622m-9.769,4.257a5.281,5.281,0,0,1-3.379,3.621h0a5.3,5.3,0,0,1-3.424,0h0a5.274,5.274,0,0,1-3.049-7.244h0a5.273,5.273,0,0,1,9.528,0h0a5.232,5.232,0,0,1,.507,2.258,5.327,5.327,0,0,1-.178,1.364" transform="translate(-181.693 -33.542)" fill="#8c5be1"/>
        <path id="Trazado_231162" data-name="Trazado 231162" d="M927.41,1585.615l-11.5.079a1.77,1.77,0,0,1,.316-1.08,1.822,1.822,0,0,1,1.149-.622,11.056,11.056,0,0,1,1.335-.087,7.065,7.065,0,0,0,3.114-.926,10.592,10.592,0,0,1,1.493-.828l3.136.061a3.592,3.592,0,0,1,.849,1.685,6.329,6.329,0,0,1,.111,1.717" transform="translate(-708.24 -1223.423)" fill="#050f64"/>
        <path id="Trazado_231163" data-name="Trazado 231163" d="M1039.924,1585.662l-11.5.064a1.772,1.772,0,0,1,.317-1.08,1.824,1.824,0,0,1,1.15-.62,11.112,11.112,0,0,1,1.335-.085,7.068,7.068,0,0,0,3.116-.921,10.582,10.582,0,0,1,1.494-.826l3.136.065a3.6,3.6,0,0,1,.847,1.686,6.339,6.339,0,0,1,.108,1.717" transform="translate(-795.243 -1223.455)" fill="#050f64"/>
        <path id="Trazado_231164" data-name="Trazado 231164" d="M974.965,1316.457s-11.242-2.08-11.242-2.08v.006c-.022.583-13.258-3.335-13.467-.249,0,0-2.668,21.881-2.668,21.881q-.317,2.6-.4,5.23l-.985,32.921,4.013-.025,11.677-46.734,9.8,46.614,4,.041Z" transform="translate(-731.669 -1015.247)" fill="#050f64"/>
        <path id="Trazado_231165" data-name="Trazado 231165" d="M820.619,1231.8l2.435-.04-.195,2.547-2.4-.373a1.071,1.071,0,1,1,.163-2.134" transform="translate(-633.639 -952.475)" fill="#ea8096"/>
        <path id="Trazado_231166" data-name="Trazado 231166" d="M834.317,1168.232l.123-2.979a77.168,77.168,0,0,0,9.773-.658,28.732,28.732,0,0,0,4.538-1.036,20.067,20.067,0,0,0,4.074-1.812,25.578,25.578,0,0,0,6.667-5.957c.974-1.2,1.891-2.47,2.773-3.78l.653-.992.636-1.013.317-.507.308-.517.616-1.033c.03-.05.061-.1.093-.149a3.6,3.6,0,0,1,1.049-1.047,3.985,3.985,0,0,1,4.288-.057l.008.005a3.791,3.791,0,0,1,1.738,2.524,3.914,3.914,0,0,1-.7,3.054l-.8,1.037-.4.517-.413.512c-.276.341-.548.684-.828,1.022l-.854,1.01c-1.156,1.338-2.364,2.65-3.663,3.9a37.637,37.637,0,0,1-4.215,3.512,27.329,27.329,0,0,1-4.861,2.77,25.206,25.206,0,0,1-5.313,1.635,33.236,33.236,0,0,1-5.343.565c-1.758.053-3.485,0-5.192-.1s-3.393-.256-5.07-.425" transform="translate(-645.149 -886.236)" fill="#155bcd"/>
        <path id="Trazado_231167" data-name="Trazado 231167" d="M863.263,1149.491l.316-.506.308-.517.616-1.034c.03-.049.061-.1.093-.149a3.6,3.6,0,0,1,1.049-1.047,4.571,4.571,0,0,1,.438-.248l-.028-.151a4.287,4.287,0,0,0-.491.275,3.737,3.737,0,0,0-1.092,1.09c-.033.05-.065.1-.1.154l-.922,1.548-.317.506-.12.192.1.121Zm-1.992,3.03-.115-.1c-.667.953-1.306,1.809-1.937,2.592l.1.112c.675-.838,1.323-1.711,1.951-2.608m9.827-.669a4.083,4.083,0,0,0,.728-3.169,3.927,3.927,0,0,0-.628-1.506,3.968,3.968,0,0,0-1.177-1.117l-.009-.005a4.137,4.137,0,0,0-2.367-.615l.029.148a4.006,4.006,0,0,1,2.26.594l.008.006a3.789,3.789,0,0,1,1.738,2.524,3.911,3.911,0,0,1-.7,3.054l-.36.468.164.031ZM859.891,1163.4a37.573,37.573,0,0,0,4.232-3.526c1.181-1.14,2.382-2.42,3.674-3.915l.855-1.011,0,0-.1-.114-.018.021-.855,1.01c-1.156,1.338-2.364,2.65-3.663,3.9a37.717,37.717,0,0,1-4.215,3.511c-.576.408-1.17.8-1.78,1.168l.061.137q.913-.551,1.8-1.184m-11.439,4.487a34.671,34.671,0,0,1-4.163.363c-1.757.053-3.485,0-5.192-.1q-1.037-.063-2.066-.148l-.124.139c.771.063,1.484.115,2.182.157,1.974.119,3.628.152,5.205.1a34.761,34.761,0,0,0,4.165-.362c0-.05-.005-.1-.007-.15m-4.529-3.8a28.8,28.8,0,0,0,4.538-1.037,19.639,19.639,0,0,0,5.957-3.074l-.119-.1a19.486,19.486,0,0,1-5.884,3.029,28.33,28.33,0,0,1-4.514,1.031q-.645.1-1.3.174l-.031.154c.455-.054.906-.113,1.355-.181m-2.726.174c-2.419.222-4.86.29-7.051.335l-.139,0-.065,1.589.151-.066.057-1.377c2.376-.048,4.745-.123,7.052-.334Z" transform="translate(-644.858 -885.725)" fill="#fff"/>
        <path id="Trazado_231168" data-name="Trazado 231168" d="M989.526,1180.872c-8.208,2.635-15.226,2.616-24.489-1.956l.357-24.832.053-3.193.021-1.172.038-2.257c0-.316.022-.629.054-.935a9.982,9.982,0,0,1,6.2-8.214,9.545,9.545,0,0,1,1-.341,9.94,9.94,0,0,1,3.681-.331q.505.049,1,.137a12.07,12.07,0,0,1,2.062.56,12.221,12.221,0,0,1,8,11.246l.006.308.021,1.172.031,1.482Z" transform="translate(-746.23 -879.662)" fill="#155bcd"/>
        <path id="Trazado_231169" data-name="Trazado 231169" d="M995.529,1112.374l.87,7.4a4.13,4.13,0,0,0,4.82-.567l-.871-7.4Z" transform="translate(-769.808 -859.721)" fill="#f5bdc8"/>
        <path id="Trazado_231170" data-name="Trazado 231170" d="M995.529,1112.374l.394,3.346a3.926,3.926,0,0,0,1.108.12q.184-.007.366-.028a4.365,4.365,0,0,0,3.186-2.02l-.234-1.985Z" transform="translate(-769.808 -859.721)" fill="#ea8096"/>
        <path id="Trazado_231171" data-name="Trazado 231171" d="M983.352,1079.137l.482,3.077.195,1.245a3.457,3.457,0,0,0,3.532,2.923,3.876,3.876,0,0,0,1.627-.418c.115-.058.227-.122.334-.191.067-.042.133-.086.2-.133a3.8,3.8,0,0,0,1.355-1.828c.219-.632.414-1.324.592-2.052.1-.416.2-.843.293-1.276a5.259,5.259,0,0,0-1.735-5.172,4.24,4.24,0,0,0-6.871,3.826" transform="translate(-760.354 -830.75)" fill="#f5bdc8"/>
        <path id="Trazado_231172" data-name="Trazado 231172" d="M987.561,1068.84l-.553-.267s.942-2.247.553-2.974c-.553-1.033-3.256-1.163-4.6-.777a1.143,1.143,0,0,0-.891.7,9.77,9.77,0,0,0-.406,4.394s-2-5.194-.378-8.01c1.059-1.844,2.03-3.142,4.464-2.094,3.866,1.664,6,4.733,5.385,9.28l-2.538-.932Z" transform="translate(-758.305 -819.228)" fill="#050f64"/>
        <path id="Trazado_231173" data-name="Trazado 231173" d="M1010.929,1096.064a1.831,1.831,0,1,0,1.617-1.82,1.727,1.727,0,0,0-1.617,1.82" transform="translate(-781.709 -846.13)" fill="#f5bdc8"/>
        <path id="Trazado_231174" data-name="Trazado 231174" d="M964.256,1173.856h.2l.238-16.552,0-.164-.2.041,0,.12Zm16.659-31.278a12.242,12.242,0,0,1,5.489,7.338c.024.093.049.185.069.28l.2-.045c-.022-.1-.047-.191-.071-.286a12.445,12.445,0,0,0-5.581-7.462Zm6.259,14.727-.2.045,1.52,21.9h.2Zm-22.614-4.017h.205l.006-.348.037-2.258c0-.315.022-.628.055-.935a9.973,9.973,0,0,1,5.294-7.8l-.067-.193a10.133,10.133,0,0,0-5.428,7.966c-.034.313-.053.634-.057.955Zm-.425,28.974.114.057a38.979,38.979,0,0,0,7.4,2.837,27.373,27.373,0,0,0,6.973.916,32.088,32.088,0,0,0,9.477-1.54l-.061-.193c-7.873,2.384-14.735,2.223-23.7-2.2l.059-4.111h-.2Z" transform="translate(-745.533 -882.882)" fill="#fff"/>
        <path id="Trazado_231175" data-name="Trazado 231175" d="M996.256,1153.77q-.677-.154-1.354-.312a101.927,101.927,0,0,0-2.726,29.494q1.076,1.462,2.192,2.87.823-1.561,1.691-3.071a100.379,100.379,0,0,1,.2-28.981" transform="translate(-767.105 -891.929)" fill="#ff654f"/>
        <path id="Trazado_231176" data-name="Trazado 231176" d="M1002.429,1138.992l-3.513,5.756-1.281-2.741-2.717,2.351-.225-5.391a7.136,7.136,0,0,1,.86-.3l2.14,2.1,2.716-2.327a11.533,11.533,0,0,1,2.02.552" transform="translate(-769.162 -880.316)" fill="#84a9ff"/>
        <path id="Trazado_231177" data-name="Trazado 231177" d="M1060.048,1332.58l.721-2.327,2.36.979-1.1,2.168a1.071,1.071,0,1,1-1.977-.82" transform="translate(-819.643 -1028.638)" fill="#f4bcc7"/>
        <path id="Trazado_231178" data-name="Trazado 231178" d="M1038,1192.687l-2.793-1.044a77.271,77.271,0,0,0,2.419-9.492,28.753,28.753,0,0,0,.429-4.635,20.071,20.071,0,0,0-.453-4.436,25.578,25.578,0,0,0-3.583-8.191c-.835-1.3-1.758-2.566-2.728-3.813l-.74-.93-.765-.92-.383-.459-.4-.454-.79-.907c-.038-.044-.077-.089-.113-.134a3.593,3.593,0,0,1-.668-1.323,3.985,3.985,0,0,1,1.282-4.092l.008-.006a3.791,3.791,0,0,1,2.94-.865,3.915,3.915,0,0,1,2.684,1.619l.736,1.082.367.541.359.552c.238.369.479.733.713,1.1l.694,1.127c.912,1.515,1.782,3.072,2.568,4.7a37.593,37.593,0,0,1,2.024,5.1,27.326,27.326,0,0,1,1.118,5.482,25.179,25.179,0,0,1-.1,5.558,33.275,33.275,0,0,1-1.127,5.253c-.5,1.687-1.088,3.311-1.717,4.9s-1.3,3.144-1.984,4.685" transform="translate(-794.377 -889.992)" fill="#155bcd"/>
        <path id="Trazado_231179" data-name="Trazado 231179" d="M1029.405,1158.717l-.383-.458-.4-.454-.79-.907c-.038-.044-.077-.089-.113-.135a3.588,3.588,0,0,1-.668-1.323,4.62,4.62,0,0,1-.1-.493l-.153-.021a4.255,4.255,0,0,0,.108.552,3.736,3.736,0,0,0,.7,1.378c.037.047.078.094.116.139l1.184,1.358.382.459.146.174.146-.057Zm2.259,2.837-.128.079c.7.931,1.312,1.805,1.86,2.648l.138-.061c-.585-.9-1.214-1.79-1.87-2.666m2.426-9.546a4.083,4.083,0,0,0-2.785-1.679,3.939,3.939,0,0,0-3.054.9l-.008.007a4.135,4.135,0,0,0-1.322,2.057l.15.019a4,4,0,0,1,1.268-1.962l.008-.006a3.788,3.788,0,0,1,2.939-.865,3.91,3.91,0,0,1,2.683,1.619l.332.488.081-.146Zm7.483,14.247a37.57,37.57,0,0,0-2.032-5.12c-.715-1.478-1.558-3.018-2.576-4.711l-.695-1.128h0l-.139.057.015.024.694,1.127c.911,1.515,1.781,3.072,2.568,4.7a37.714,37.714,0,0,1,2.023,5.1q.314,1.013.556,2.055l.149-.015q-.239-1.039-.562-2.083m.7,12.268a34.636,34.636,0,0,1-.952,4.069c-.5,1.686-1.088,3.311-1.717,4.9q-.383.966-.784,1.917l.094.162c.3-.712.571-1.375.829-2.024.728-1.838,1.275-3.4,1.721-4.914a34.7,34.7,0,0,0,.954-4.07l-.145-.04m-5.026,3.119a28.794,28.794,0,0,0,.429-4.635,19.631,19.631,0,0,0-1.065-6.619l-.129.083a19.476,19.476,0,0,1,1.045,6.535,28.3,28.3,0,0,1-.427,4.61q-.109.643-.24,1.291l.137.077c.09-.449.175-.9.25-1.344m-.684,2.644c-.543,2.367-1.238,4.709-1.878,6.8l-.04.133,1.489.557c-.005-.057-.01-.112-.015-.165l-1.291-.483c.694-2.273,1.361-4.547,1.879-6.805Z" transform="translate(-793.992 -889.483)" fill="#fff"/>
        <path id="Trazado_231180" data-name="Trazado 231180" d="M681.959,1585.615l11.5.079a1.771,1.771,0,0,0-.316-1.08,1.822,1.822,0,0,0-1.149-.622,11.06,11.06,0,0,0-1.335-.087,7.065,7.065,0,0,1-3.115-.926,10.593,10.593,0,0,0-1.493-.828l-3.135.061a3.592,3.592,0,0,0-.85,1.685,6.333,6.333,0,0,0-.111,1.717" transform="translate(-527.325 -1223.423)" fill="#050f64"/>
        <path id="Trazado_231181" data-name="Trazado 231181" d="M569.443,1585.662l11.5.064a1.772,1.772,0,0,0-.317-1.08,1.824,1.824,0,0,0-1.15-.62,11.11,11.11,0,0,0-1.335-.085,7.068,7.068,0,0,1-3.116-.921,10.588,10.588,0,0,0-1.494-.826l-3.136.065a3.6,3.6,0,0,0-.847,1.686,6.332,6.332,0,0,0-.109,1.717" transform="translate(-440.32 -1223.455)" fill="#050f64"/>
        <path id="Trazado_231182" data-name="Trazado 231182" d="M573.082,1316.457s11.242-2.08,11.242-2.08v.006c.022.583,13.258-3.335,13.467-.249l2.668,21.881q.317,2.6.4,5.23l.985,32.921-4.013-.025-11.677-46.734-9.8,46.614-4,.041Z" transform="translate(-442.573 -1015.247)" fill="#050f64"/>
        <path id="Trazado_231183" data-name="Trazado 231183" d="M776.894,1281.531l-2.251-.931-.754,2.441,2.373.535a1.071,1.071,0,1,0,.632-2.045" transform="translate(-598.423 -990.243)" fill="#ea8096"/>
        <path id="Trazado_231184" data-name="Trazado 231184" d="M676.135,1178.644l.979-2.816a77.177,77.177,0,0,1-8.849-4.2,28.716,28.716,0,0,1-3.841-2.63,20.06,20.06,0,0,1-3.124-3.181,25.566,25.566,0,0,1-4.016-7.988c-.466-1.471-.853-2.991-1.192-4.534l-.244-1.163-.219-1.176-.109-.588-.1-.594-.193-1.187c-.009-.057-.02-.116-.031-.173a3.6,3.6,0,0,0-.592-1.359,3.985,3.985,0,0,0-3.968-1.626l-.01,0a3.792,3.792,0,0,0-2.543,1.71,3.915,3.915,0,0,0-.467,3.1l.363,1.258.182.628.2.628c.132.419.259.837.395,1.255l.424,1.253c.584,1.669,1.227,3.333,1.975,4.975a37.629,37.629,0,0,0,2.632,4.814,27.346,27.346,0,0,0,3.5,4.361,25.218,25.218,0,0,0,4.342,3.471,33.257,33.257,0,0,0,4.762,2.486c1.616.694,3.243,1.277,4.868,1.808s3.25,1.007,4.873,1.466" transform="translate(-500.68 -885.672)" fill="#fff"/>
        <path id="Trazado_231185" data-name="Trazado 231185" d="M655.177,1150.721l.137-.076-.041-.223-.109-.587-.289-1.779c-.01-.059-.02-.12-.033-.179a3.739,3.739,0,0,0-.616-1.415,4.309,4.309,0,0,0-.356-.436l-.082.131a4.377,4.377,0,0,1,.316.392,3.588,3.588,0,0,1,.592,1.358c.012.057.022.116.032.173l.193,1.188.1.594.108.587Zm1.549,6.42.135-.067c-.3-.96-.58-1.992-.85-3.123l-.142.048c.256,1.064.537,2.115.858,3.142m-9.609-6.871.164.031-.164-.567a3.911,3.911,0,0,1,.467-3.1,3.788,3.788,0,0,1,2.542-1.71l.01,0a4,4,0,0,1,2.32.277l.082-.127a4.137,4.137,0,0,0-2.428-.3l-.01,0a3.961,3.961,0,0,0-1.5.607,3.918,3.918,0,0,0-1.137,1.17,4.082,4.082,0,0,0-.486,3.215Zm7.286,16.119.107-.1c-.432-.566-.841-1.149-1.227-1.74a37.709,37.709,0,0,1-2.632-4.813c-.748-1.643-1.39-3.307-1.975-4.975l-.424-1.254c0-.008-.006-.018-.009-.026l-.133.07v0l.425,1.255c.653,1.864,1.3,3.5,1.98,4.99a37.51,37.51,0,0,0,2.643,4.833q.6.916,1.244,1.764m7.689,6.745a34.726,34.726,0,0,0,3.742,1.865c1.45.623,3,1.2,4.881,1.813.664.216,1.347.43,2.087.654l-.065-.175q-.988-.3-1.976-.621c-1.626-.53-3.253-1.113-4.869-1.808a34.575,34.575,0,0,1-3.739-1.866c-.02.047-.04.092-.061.137m6.864-1.348.028-.155q-.581-.312-1.147-.639a28.292,28.292,0,0,1-3.821-2.616,19.494,19.494,0,0,1-4.362-4.977l-.146.046a19.632,19.632,0,0,0,4.414,5.046,28.837,28.837,0,0,0,3.84,2.629q.589.341,1.194.665m1.219.634c2.069,1.044,4.245,1.982,6.438,2.9l-.453,1.3.117.117.522-1.5-.129-.054c-2.021-.845-4.267-1.805-6.436-2.9Z" transform="translate(-500.178 -885.165)" fill="#84a9ff"/>
        <path id="Trazado_231186" data-name="Trazado 231186" d="M575.6,1180.872c8.208,2.635,15.225,2.616,24.489-1.956l-.357-24.832-.054-3.193-.021-1.172-.038-2.257c0-.316-.022-.629-.054-.935a9.982,9.982,0,0,0-6.2-8.214,9.552,9.552,0,0,0-1-.341,9.941,9.941,0,0,0-3.681-.331q-.505.049-1,.137a12.076,12.076,0,0,0-2.062.56,12.221,12.221,0,0,0-8,11.246l-.006.308-.021,1.172-.031,1.482Z" transform="translate(-445.093 -879.662)" fill="#fff"/>
        <path id="Trazado_231187" data-name="Trazado 231187" d="M633.307,1112.743l-.082,7.452a4.132,4.132,0,0,1-4.856-.053l.082-7.452Z" transform="translate(-485.897 -860.404)" fill="#f5bdc8"/>
        <path id="Trazado_231188" data-name="Trazado 231188" d="M633.511,1112.743l-.037,3.371a3.931,3.931,0,0,1-1.09.237c-.122.009-.245.012-.367.011a4.368,4.368,0,0,1-3.384-1.672l.022-2Z" transform="translate(-486.101 -860.404)" fill="#ea8096"/>
        <path id="Trazado_231189" data-name="Trazado 231189" d="M630.444,1078.145l-.153,3.112-.061,1.259a3.458,3.458,0,0,1-3.2,3.282,3.878,3.878,0,0,1-1.663-.243c-.12-.046-.238-.1-.352-.155-.071-.035-.141-.072-.21-.111a3.8,3.8,0,0,1-1.542-1.675c-.285-.606-.552-1.274-.807-1.979-.147-.4-.289-.817-.427-1.239a5.262,5.262,0,0,1,1.178-5.33,4.242,4.242,0,0,1,7.241,3.078" transform="translate(-480.777 -830.339)" fill="#f5bdc8"/>
        <path id="Trazado_231190" data-name="Trazado 231190" d="M620.477,1067.989c-1.214-3.8.733-4.454.733-4.454a2.3,2.3,0,0,1-.051-.534,1.6,1.6,0,0,1,.152-.541c.578-1.22,1.873-1.041,2.993-1.028a2.152,2.152,0,0,0,1.6-.6,13.519,13.519,0,0,1,1.32-1.454,1.961,1.961,0,0,1,2.606.591,1.99,1.99,0,0,1,.295.614,4.075,4.075,0,0,1-.587,3.55,4.446,4.446,0,0,1-3,1.239c-.346.042-.693.069-1.04.1a2.792,2.792,0,0,1-2.6-1.347,2.855,2.855,0,0,1,.239,2.544,4.786,4.786,0,0,0-.013,2.3l-.127-.02c-.812-1.217-1.71-1.648-2.521-.956" transform="translate(-479.486 -818.959)" fill="#050f64"/>
        <path id="Trazado_231191" data-name="Trazado 231191" d="M657.083,1083.073a14.413,14.413,0,0,1,.586,3.839,9.97,9.97,0,0,0,.055-4.333Z" transform="translate(-508.1 -837.12)" fill="#050f64"/>
        <path id="Trazado_231192" data-name="Trazado 231192" d="M621.109,1097.042a1.832,1.832,0,1,1-1.8-1.639,1.728,1.728,0,0,1,1.8,1.639" transform="translate(-477.469 -847.037)" fill="#f5bdc8"/>
        <path id="Trazado_231193" data-name="Trazado 231193" d="M600.384,1157.3l0-.12-.2-.041,0,.165.238,16.552h.2Zm-16.527-14.9a12.444,12.444,0,0,0-5.58,7.462c-.024.1-.049.191-.071.286l.2.045c.02-.1.045-.187.069-.28a12.242,12.242,0,0,1,5.489-7.338Zm-7.677,36.842h.205l1.52-21.9-.2-.044Zm24.093-28.565c0-.321-.022-.642-.057-.955a10.132,10.132,0,0,0-5.428-7.966l-.067.193a9.972,9.972,0,0,1,5.294,7.8c.033.307.051.62.055.935l.037,2.258.006.348h.205Zm.409,27.346h-.2l.059,4.111c-8.966,4.424-15.828,4.585-23.7,2.2l-.061.193a32.09,32.09,0,0,0,9.478,1.54,27.359,27.359,0,0,0,6.972-.917,38.954,38.954,0,0,0,7.4-2.837l.114-.057Z" transform="translate(-445.54 -882.882)" fill="#84a9ff"/>
        <path id="Trazado_231194" data-name="Trazado 231194" d="M637.987,1153.77q.677-.154,1.354-.312a101.927,101.927,0,0,1,2.726,29.494q-1.076,1.462-2.192,2.87-.823-1.561-1.691-3.071a100.374,100.374,0,0,0-.2-28.981" transform="translate(-493.333 -891.929)" fill="#ff654f"/>
        <path id="Trazado_231195" data-name="Trazado 231195" d="M619.834,1139.033l3.513,5.756,1.281-2.741,2.717,2.351.225-5.391a8.436,8.436,0,0,0-.937-.325l-2.063,2.126-2.783-2.315a10.861,10.861,0,0,0-1.953.54" transform="translate(-479.296 -880.357)" fill="#155bcc"/>
        <path id="Trazado_231196" data-name="Trazado 231196" d="M586.068,1334.318l-.847-2.283-2.3,1.107,1.221,2.1a1.071,1.071,0,1,0,1.929-.927" transform="translate(-450.751 -1030.016)" fill="#f4bcc7"/>
        <path id="Trazado_231197" data-name="Trazado 231197" d="M561.651,1193.986l2.731-1.2a77.257,77.257,0,0,1-2.936-9.345,28.792,28.792,0,0,1-.682-4.6,20.092,20.092,0,0,1,.209-4.454,25.582,25.582,0,0,1,3.129-8.375c.762-1.343,1.615-2.659,2.515-3.957l.687-.969.713-.96.357-.479.37-.475.739-.948c.036-.046.072-.094.105-.141a3.6,3.6,0,0,0,.594-1.358,3.986,3.986,0,0,0-1.5-4.015l-.008-.006a3.791,3.791,0,0,0-2.983-.7,3.914,3.914,0,0,0-2.591,1.764l-.675,1.121-.337.56-.328.571c-.217.381-.438.759-.652,1.142l-.631,1.163c-.827,1.563-1.61,3.165-2.307,4.83a37.615,37.615,0,0,0-1.741,5.2,27.337,27.337,0,0,0-.816,5.535,25.226,25.226,0,0,0,.406,5.544,33.275,33.275,0,0,0,1.414,5.183c.589,1.657,1.268,3.247,1.984,4.8s1.471,3.068,2.238,4.57" transform="translate(-429.619 -890.752)" fill="#fff"/>
        <path id="Trazado_231198" data-name="Trazado 231198" d="M568.684,1159.837l.149.049.135-.182.357-.479,1.108-1.422c.036-.047.074-.1.109-.145a3.733,3.733,0,0,0,.619-1.414,4.29,4.29,0,0,0,.078-.557l-.151.029a4.6,4.6,0,0,1-.072.5,3.589,3.589,0,0,1-.595,1.357c-.033.048-.07.095-.105.141l-.739.949-.37.475-.357.479Zm-3.656,5.5.141.053c.5-.872,1.066-1.779,1.712-2.746l-.132-.072c-.607.911-1.186,1.831-1.721,2.765m-1.493-11.718.089.141.3-.506a3.912,3.912,0,0,1,2.591-1.764,3.789,3.789,0,0,1,2.982.7l.009.006a4,4,0,0,1,1.373,1.89l.149-.027a4.135,4.135,0,0,0-1.433-1.982l-.008-.007a3.937,3.937,0,0,0-3.1-.73,4.083,4.083,0,0,0-2.689,1.829Zm-6.869,16.3.15.007q.183-1.052.442-2.083a37.721,37.721,0,0,1,1.741-5.2c.7-1.665,1.48-3.267,2.307-4.83l.631-1.163.013-.024-.142-.05h0l-.632,1.165c-.923,1.746-1.68,3.33-2.313,4.845a37.55,37.55,0,0,0-1.748,5.224q-.266,1.059-.447,2.111m.28,10.224a34.687,34.687,0,0,0,1.176,4.012c.529,1.487,1.16,3.016,1.988,4.812.293.634.6,1.281.939,1.976l.084-.167q-.452-.928-.888-1.871c-.716-1.553-1.395-3.143-1.984-4.8a34.732,34.732,0,0,1-1.174-4.01l-.142.048m5.655,4.118.132-.085q-.166-.639-.311-1.276a28.324,28.324,0,0,1-.679-4.581,19.486,19.486,0,0,1,.685-6.582l-.133-.076a19.621,19.621,0,0,0-.7,6.667,28.829,28.829,0,0,0,.682,4.6q.15.664.324,1.328m.363,1.325c.641,2.227,1.432,4.461,2.25,6.692l-1.263.553c0,.053,0,.108-.006.165l1.456-.638-.048-.131c-.754-2.057-1.576-4.357-2.249-6.691Z" transform="translate(-430.452 -890.242)" fill="#84a9ff"/>
        <path id="Trazado_231199" data-name="Trazado 231199" d="M1547.466,1570.825c.006,3.247-4.832,5.25-5.706,5.414-.575.109-.778-.626-.873-1.128a4.826,4.826,0,0,0,2.384-1.592c1.55-1.688,1.594-2.731,1.594-2.731l2.6.031,0,0" transform="translate(-1191.515 -1214.636)" fill="#f4bcc7"/>
        <path id="Trazado_231200" data-name="Trazado 231200" d="M1542.356,1570.949c-.123,3.205-4.527,4.984-5.4,5.148a1.06,1.06,0,0,1-1.177-.862c-.236.068-.931.266-1.145.358-.782.334-.117.935.563,1.234a3.768,3.768,0,0,0,2.2.1,9.241,9.241,0,0,0,4.369-2.9l-.035,2.885,1.091.013.043-3.5a4.406,4.406,0,0,0-.511-2.469" transform="translate(-1186.406 -1214.76)" fill="#050f64"/>
        <path id="Trazado_231201" data-name="Trazado 231201" d="M1605.2,1569.771c.15,3.243-4.6,5.458-5.462,5.66-.57.134-.805-.591-.922-1.089a4.824,4.824,0,0,0,2.312-1.7c1.475-1.755,1.472-2.8,1.472-2.8l2.595-.083,0,0" transform="translate(-1236.307 -1213.845)" fill="#f4bcc7"/>
        <path id="Trazado_231202" data-name="Trazado 231202" d="M1600.2,1569.786c.019,3.208-4.3,5.179-5.169,5.382a1.059,1.059,0,0,1-1.214-.81c-.233.079-.918.307-1.129.408-.766.368-.076.939.617,1.208a3.765,3.765,0,0,0,2.206,0,9.242,9.242,0,0,0,4.237-3.091l.092,2.883,1.091-.035-.112-3.5a4.408,4.408,0,0,0-.619-2.444" transform="translate(-1231.313 -1213.861)" fill="#050f64"/>
        <path id="Trazado_231203" data-name="Trazado 231203" d="M1531.241,1300.711v-.007a4.713,4.713,0,0,1,.03-1.048h0l0-.014c.023-.158,5.274-27.532,5.274-27.532s17.484,0,17.484,0c2.961,10.746,3.219,21.243.013,28.7l-1.036,38.805-2.816.084-6.068-43.741a27.768,27.768,0,0,1-3.461,5.588l-.526,38.317-2.958-.041s-5.924-38.969-5.937-39.116" transform="translate(-1184.043 -983.677)" fill="#050f64"/>
        <path id="Trazado_231204" data-name="Trazado 231204" d="M1583.126,1071.814s2.036-.055,2.58,3.024c.647,3.661-.591,8.033-4.078,9.492-4.7,1.968-7.52-2.768-7.52-2.768s1.456.347.983-2.154,8.035-7.593,8.035-7.593" transform="translate(-1217.204 -828.796)" fill="#050f64"/>
        <path id="Trazado_231205" data-name="Trazado 231205" d="M1417.647,1055.485a1.161,1.161,0,0,1,1.536.334c.882,1.421,1.772,2.832,2.687,4.21s1.85,2.729,2.835,4a27.314,27.314,0,0,0,3.136,3.466,16.607,16.607,0,0,0,3.565,2.509,19.952,19.952,0,0,0,4.108,1.5,39.843,39.843,0,0,0,4.557.844c.4.048.782.106,1.184.147l1.2.129c.807.073,1.609.151,2.426.21,1.624.129,3.272.225,4.924.315a4.227,4.227,0,0,1-1.086,8.358c-1.667-.345-3.336-.7-5.019-1.088-.838-.188-1.686-.4-2.528-.608l-1.271-.334c-.422-.109-.851-.239-1.275-.357a45.954,45.954,0,0,1-5.128-1.782,25.611,25.611,0,0,1-4.97-2.741,21.724,21.724,0,0,1-4.106-3.925,31.675,31.675,0,0,1-2.982-4.483c-.854-1.527-1.608-3.068-2.328-4.611s-1.4-3.089-2.064-4.637a1.155,1.155,0,0,1,.605-1.452" transform="translate(-1095.686 -816.053)" fill="#ea8096"/>
        <path id="Trazado_231206" data-name="Trazado 231206" d="M1553.6,1131.7h0a11.522,11.522,0,0,0-11.394,13.235l2.73,18.6c5.039,1.884,11.65,1.627,17.484,0l.682-21.555a9.532,9.532,0,0,0-9.5-10.283" transform="translate(-1192.437 -875.101)" fill="#84a9ff"/>
        <path id="Trazado_231207" data-name="Trazado 231207" d="M1584.592,1110.911l-.25,7.064a3.92,3.92,0,0,0,4.6.163l.25-7.064Z" transform="translate(-1225.117 -859.028)" fill="#f4bcc7"/>
        <path id="Trazado_231208" data-name="Trazado 231208" d="M1585.132,1113.734l-.062,1.752a5.028,5.028,0,0,0,2.313.787l.143.008a3.064,3.064,0,0,0,2.151-.769l.057-1.616Z" transform="translate(-1225.68 -861.211)" fill="#ea8096"/>
        <path id="Trazado_231209" data-name="Trazado 231209" d="M1577.874,1075.614l-.049,4.31-.008.721a4.377,4.377,0,0,0,4.016,4.373,2.5,2.5,0,0,0,1.008-.125,2.369,2.369,0,0,0,.9-.548,7.365,7.365,0,0,0,1.3-1.812c.07-.128.14-.257.207-.385a6.888,6.888,0,0,0,.975-3.436l-.355-3.663-6.579-1.1Z" transform="translate(-1220.072 -830.448)" fill="#f4bcc7"/>
        <path id="Trazado_231210" data-name="Trazado 231210" d="M1581.328,1066.376s-3.164-1.058-5-.032c-.938.524-1.364,2.411-1.59,5.013,0,0-2.092-3.467.071-6.478s7.454-3.2,8.564.255Z" transform="translate(-1216.99 -821.658)" fill="#050f64"/>
        <path id="Trazado_231211" data-name="Trazado 231211" d="M1606.9,1075.119a7.182,7.182,0,0,1,.886,5.338s1.536.659,1.83-.646,1.26-4.948-1.514-5.922Z" transform="translate(-1242.559 -830.401)" fill="#050f64"/>
        <path id="Trazado_231212" data-name="Trazado 231212" d="M1607.808,1092.779a1.675,1.675,0,1,0,1.734-1.615,1.675,1.675,0,0,0-1.734,1.615" transform="translate(-1243.263 -843.757)" fill="#f4bcc7"/>
        <path id="Trazado_231213" data-name="Trazado 231213" d="M1602.212,1190.357a1.161,1.161,0,0,1-.643-1.435c.621-1.553,1.229-3.106,1.8-4.66s1.1-3.108,1.539-4.655a27.308,27.308,0,0,0,.93-4.58,16.614,16.614,0,0,0-.094-4.358,19.983,19.983,0,0,0-1.229-4.2,39.839,39.839,0,0,0-2.024-4.169c-.2-.347-.378-.693-.584-1.04l-.605-1.04c-.42-.693-.832-1.385-1.27-2.077-.859-1.384-1.76-2.768-2.667-4.151a4.227,4.227,0,0,1,7.374-4.082c.711,1.547,1.418,3.1,2.1,4.686.346.787.677,1.6,1.01,2.4l.485,1.222c.163.4.313.827.469,1.239a45.946,45.946,0,0,1,1.607,5.186,25.6,25.6,0,0,1,.741,5.628,21.728,21.728,0,0,1-.725,5.634,31.672,31.672,0,0,1-1.841,5.06c-.723,1.593-1.517,3.114-2.332,4.609s-1.658,2.958-2.509,4.412a1.155,1.155,0,0,1-1.528.374" transform="translate(-1234.798 -887.665)" fill="#f4bcc7"/>
        <rect id="Rectángulo_59495" data-name="Rectángulo 59495" width="19.414" height="14.119" transform="translate(231.088 216.793)" fill="#84a9ff"/>
        <path id="Trazado_231214" data-name="Trazado 231214" d="M1019.2,1018.423v5.393l7.648-5.393Z" transform="translate(-788.112 -787.511)" fill="#155bcd"/>
        <rect id="Rectángulo_59496" data-name="Rectángulo 59496" width="1.634" height="1.634" transform="translate(245.419 223.036)" fill="#fff"/>
        <rect id="Rectángulo_59497" data-name="Rectángulo 59497" width="1.634" height="1.634" transform="translate(241.791 223.036)" fill="#fff"/>
        <rect id="Rectángulo_59498" data-name="Rectángulo 59498" width="1.634" height="1.634" transform="translate(238.163 223.036)" fill="#fff"/>
        <rect id="Rectángulo_59499" data-name="Rectángulo 59499" width="1.634" height="1.634" transform="translate(234.535 223.036)" fill="#fff"/>
        <rect id="Rectángulo_59500" data-name="Rectángulo 59500" width="19.414" height="14.119" transform="translate(118.298 222.059)" fill="#84a9ff"/>
        <path id="Trazado_231215" data-name="Trazado 231215" d="M581.289,1041.646v5.393l-7.648-5.393Z" transform="translate(-443.577 -805.468)" fill="#155bcd"/>
        <rect id="Rectángulo_59501" data-name="Rectángulo 59501" width="1.634" height="1.634" transform="translate(121.746 228.301)" fill="#fff"/>
        <rect id="Rectángulo_59502" data-name="Rectángulo 59502" width="1.634" height="1.634" transform="translate(125.374 228.301)" fill="#fff"/>
        <rect id="Rectángulo_59503" data-name="Rectángulo 59503" width="1.634" height="1.634" transform="translate(129.002 228.301)" fill="#fff"/>
        <rect id="Rectángulo_59504" data-name="Rectángulo 59504" width="1.634" height="1.634" transform="translate(132.63 228.301)" fill="#fff"/>
        <path id="Trazado_231216" data-name="Trazado 231216" d="M1017.484,59.537c-1.482,0-2.936-.029-4.322-.087l.047-1.133c1.371.057,2.809.086,4.275.086h.234l0,1.134Zm4.789-.092-.041-1.133c1.439-.053,2.915-.127,4.514-.228l.071,1.132c-1.609.1-3.095.176-4.544.229m-13.665-.3c-1.545-.145-3.07-.335-4.534-.564l.176-1.12c1.441.225,2.943.412,4.464.555Zm-9.026-1.428c-1.5-.347-2.99-.751-4.418-1.2l.341-1.081c1.4.441,2.857.837,4.332,1.177Zm-8.726-2.761c-1.433-.591-2.83-1.245-4.154-1.945l.53-1c1.292.683,2.657,1.322,4.056,1.9Zm-8.1-4.3a40.307,40.307,0,0,1-3.666-2.774l.736-.863a39.185,39.185,0,0,0,3.562,2.7Zm-12.88-4.182c-.506,0-1.019-.005-1.526-.016l.024-1.133c1.494.031,3.01.015,4.5-.047l.048,1.133c-1.007.042-2.032.064-3.044.064m-6.088-.255c-1.511-.127-3.039-.3-4.54-.523l.165-1.122c1.478.217,2.982.391,4.469.515Zm13.69-.146-.12-1.127c1.489-.158,2.988-.366,4.455-.618l.192,1.117c-1.491.256-3.014.467-4.527.628m-22.728-1.183c-1.484-.314-2.978-.68-4.439-1.087l.3-1.092c1.438.4,2.908.76,4.369,1.07Zm21.033-.211a35.437,35.437,0,0,1-2.867-3.605l.932-.646a34.277,34.277,0,0,0,2.774,3.489Zm10.7-.155-.265-1.1c1.454-.349,2.912-.752,4.334-1.2l.338,1.082c-1.445.451-2.928.86-4.407,1.216M945.953,42.44c-1.437-.5-2.871-1.053-4.265-1.643l.442-1.044c1.371.58,2.783,1.124,4.2,1.617Zm49.255-.651-.419-1.053c1.442-.573,2.814-1.2,4.079-1.849l.52,1.008c-1.3.67-2.7,1.308-4.18,1.894m-57.669-2.91c-1.36-.684-2.71-1.421-4.013-2.19l.576-.977c1.281.756,2.609,1.481,3.947,2.154Zm65.8-1.338-.642-.935a28.986,28.986,0,0,0,3.465-2.78l.777.825a30.1,30.1,0,0,1-3.6,2.89m-32.789-.419a31.954,31.954,0,0,1-1.792-4.25l1.074-.363a30.78,30.78,0,0,0,1.728,4.1Zm39.462-5.941-.919-.664a21.59,21.59,0,0,0,2.207-3.82l1.035.463a22.747,22.747,0,0,1-2.322,4.021m-42.388-2.787a27.285,27.285,0,0,1-.389-4.559v-.049h1.134v.049a26.159,26.159,0,0,0,.373,4.369Zm46.138-5.661-1.112-.224a17.346,17.346,0,0,0,.348-3.415c0-.318-.01-.637-.028-.95l1.131-.067c.02.334.03.677.03,1.017a18.547,18.547,0,0,1-.37,3.639M968.8,19.387l-1.113-.215a25.466,25.466,0,0,1,1.289-4.449l1.056.413a24.384,24.384,0,0,0-1.231,4.251m43.289-5.5a15.369,15.369,0,0,0-2.092-3.822l.91-.677a16.5,16.5,0,0,1,2.245,4.1Zm-40.079-2.708-.963-.6a24.2,24.2,0,0,1,2.807-3.69l.831.771a23.1,23.1,0,0,0-2.675,3.517m34.954-4.284a22.738,22.738,0,0,0-3.666-2.464l.541-1a23.915,23.915,0,0,1,3.849,2.588ZM978,4.755l-.653-.927a20.351,20.351,0,0,1,4.085-2.23l.424,1.051A19.2,19.2,0,0,0,978,4.755m21.234-2.1c-.742-.253-1.5-.476-2.265-.664-.677-.168-1.364-.313-2.041-.432l.2-1.116c.7.123,1.414.274,2.116.448.793.2,1.586.429,2.359.692Zm-13.137-1.2L985.9.342A25.128,25.128,0,0,1,990.1,0c.139,0,.278,0,.418,0L990.5,1.132c-.133,0-.266,0-.4,0a23.966,23.966,0,0,0-4.012.331" transform="translate(-721.864 0.005)" fill="#84a9ff"/>
      </g>
    </g>
  </g>
</svg>
