<svg xmlns="http://www.w3.org/2000/svg" xmlns:xlink="http://www.w3.org/1999/xlink" width="1030" height="395" viewBox="0 0 1030 395">
  <defs>
    <clipPath id="clip-path">
      <rect id="Rectángulo_57015" data-name="Rectángulo 57015" width="1030" height="395" fill="none"/>
    </clipPath>
    <clipPath id="clip-path-2">
      <rect id="Rectángulo_56988" data-name="Rectángulo 56988" width="35.274" height="88" transform="translate(994.726)" fill="none"/>
    </clipPath>
    <clipPath id="clip-path-3">
      <rect id="Rectángulo_57014" data-name="Rectángulo 57014" width="35.274" height="88" transform="translate(11.726 294.521)" fill="none"/>
    </clipPath>
  </defs>
  <g id="Grupo_181378" data-name="Grupo 181378" transform="translate(-285 -662)">
    <path id="Trazado_222324" data-name="Trazado 222324" d="M505.082,302.535l-18.908-18.908-10.893,18.908Z" transform="translate(310 654)" fill="#c60"/>
    <path id="Trazado_222326" data-name="Trazado 222326" d="M555.442,215.3,536.59,196.344,525.645,215.3Z" transform="translate(310 654)" fill="#083e7d"/>
    <path id="Trazado_222328" data-name="Trazado 222328" d="M605.8,128.075l-18.848-18.964L576,128.075Z" transform="translate(310 654)" fill="#065f80"/>
    <path id="Trazado_222330" data-name="Trazado 222330" d="M626.364,40.848h29.8L637.313,21.884Z" transform="translate(310 654)" fill="#503383"/>
    <path id="Trazado_222322" data-name="Trazado 222322" d="M0,0V395H421.9L649.948,0Z" transform="translate(285 662)" fill="#ecf3fb"/>
    <g id="Grupo_176906" data-name="Grupo 176906" transform="translate(285 662)" clip-path="url(#clip-path)">
      <g id="Grupo_176902" data-name="Grupo 176902" opacity="0.65">
        <g id="Grupo_176901" data-name="Grupo 176901">
          <g id="Grupo_176900" data-name="Grupo 176900" clip-path="url(#clip-path-2)">
            <rect id="Rectángulo_56963" data-name="Rectángulo 56963" width="24.393" height="81.918" transform="translate(994.726)" fill="#def2f4"/>
            <rect id="Rectángulo_56964" data-name="Rectángulo 56964" width="4.145" height="4.145" transform="translate(1025.855 22.197)" fill="#7f4fc7"/>
            <rect id="Rectángulo_56965" data-name="Rectángulo 56965" width="4.145" height="4.145" transform="translate(1025.855 31.005)" fill="#7f4fc7"/>
            <rect id="Rectángulo_56966" data-name="Rectángulo 56966" width="4.145" height="4.145" transform="translate(1025.855 39.813)" fill="#7f4fc7"/>
            <rect id="Rectángulo_56967" data-name="Rectángulo 56967" width="4.145" height="4.145" transform="translate(1025.855 48.622)" fill="#7f4fc7"/>
            <rect id="Rectángulo_56968" data-name="Rectángulo 56968" width="4.145" height="4.145" transform="translate(1025.855 57.43)" fill="#7f4fc7"/>
            <rect id="Rectángulo_56969" data-name="Rectángulo 56969" width="4.145" height="4.145" transform="translate(1025.855 66.238)" fill="#7f4fc7"/>
            <rect id="Rectángulo_56970" data-name="Rectángulo 56970" width="4.145" height="4.145" transform="translate(1025.855 75.047)" fill="#7f4fc7"/>
            <rect id="Rectángulo_56971" data-name="Rectángulo 56971" width="4.145" height="4.145" transform="translate(1025.855 83.855)" fill="#7f4fc7"/>
            <rect id="Rectángulo_56972" data-name="Rectángulo 56972" width="4.145" height="4.145" transform="translate(1017.046 22.197)" fill="#7f4fc7"/>
            <rect id="Rectángulo_56973" data-name="Rectángulo 56973" width="4.145" height="4.145" transform="translate(1017.046 31.005)" fill="#7f4fc7"/>
            <rect id="Rectángulo_56974" data-name="Rectángulo 56974" width="4.145" height="4.145" transform="translate(1017.046 39.813)" fill="#7f4fc7"/>
            <rect id="Rectángulo_56975" data-name="Rectángulo 56975" width="4.145" height="4.145" transform="translate(1017.046 48.622)" fill="#7f4fc7"/>
            <rect id="Rectángulo_56976" data-name="Rectángulo 56976" width="4.145" height="4.145" transform="translate(1017.046 57.43)" fill="#7f4fc7"/>
            <rect id="Rectángulo_56977" data-name="Rectángulo 56977" width="4.145" height="4.145" transform="translate(1017.046 66.238)" fill="#7f4fc7"/>
            <rect id="Rectángulo_56978" data-name="Rectángulo 56978" width="4.145" height="4.145" transform="translate(1017.046 75.047)" fill="#7f4fc7"/>
            <rect id="Rectángulo_56979" data-name="Rectángulo 56979" width="4.145" height="4.145" transform="translate(1017.046 83.855)" fill="#7f4fc7"/>
            <rect id="Rectángulo_56980" data-name="Rectángulo 56980" width="4.145" height="4.145" transform="translate(1008.238 22.197)" fill="#7f4fc7"/>
            <rect id="Rectángulo_56981" data-name="Rectángulo 56981" width="4.145" height="4.145" transform="translate(1008.238 31.005)" fill="#7f4fc7"/>
            <rect id="Rectángulo_56982" data-name="Rectángulo 56982" width="4.145" height="4.145" transform="translate(1008.238 39.813)" fill="#7f4fc7"/>
            <rect id="Rectángulo_56983" data-name="Rectángulo 56983" width="4.145" height="4.145" transform="translate(1008.238 48.622)" fill="#7f4fc7"/>
            <rect id="Rectángulo_56984" data-name="Rectángulo 56984" width="4.145" height="4.145" transform="translate(1008.238 57.43)" fill="#7f4fc7"/>
            <rect id="Rectángulo_56985" data-name="Rectángulo 56985" width="4.145" height="4.145" transform="translate(1008.238 66.238)" fill="#7f4fc7"/>
            <rect id="Rectángulo_56986" data-name="Rectángulo 56986" width="4.145" height="4.145" transform="translate(1008.238 75.047)" fill="#7f4fc7"/>
            <rect id="Rectángulo_56987" data-name="Rectángulo 56987" width="4.145" height="4.145" transform="translate(1008.238 83.855)" fill="#7f4fc7"/>
          </g>
        </g>
      </g>
      <g id="Grupo_176905" data-name="Grupo 176905" opacity="0.65">
        <g id="Grupo_176904" data-name="Grupo 176904">
          <g id="Grupo_176903" data-name="Grupo 176903" clip-path="url(#clip-path-3)">
            <rect id="Rectángulo_56989" data-name="Rectángulo 56989" width="24.393" height="81.918" transform="translate(11.726 294.521)" fill="#fff"/>
            <rect id="Rectángulo_56990" data-name="Rectángulo 56990" width="4.145" height="4.145" transform="translate(42.855 316.718)" fill="#7f4fc7"/>
            <rect id="Rectángulo_56991" data-name="Rectángulo 56991" width="4.145" height="4.145" transform="translate(42.855 325.526)" fill="#7f4fc7"/>
            <rect id="Rectángulo_56992" data-name="Rectángulo 56992" width="4.145" height="4.145" transform="translate(42.855 334.334)" fill="#7f4fc7"/>
            <rect id="Rectángulo_56993" data-name="Rectángulo 56993" width="4.145" height="4.145" transform="translate(42.855 343.143)" fill="#7f4fc7"/>
            <rect id="Rectángulo_56994" data-name="Rectángulo 56994" width="4.145" height="4.145" transform="translate(42.855 351.951)" fill="#7f4fc7"/>
            <rect id="Rectángulo_56995" data-name="Rectángulo 56995" width="4.145" height="4.145" transform="translate(42.855 360.759)" fill="#7f4fc7"/>
            <rect id="Rectángulo_56996" data-name="Rectángulo 56996" width="4.145" height="4.145" transform="translate(42.855 369.568)" fill="#7f4fc7"/>
            <rect id="Rectángulo_56997" data-name="Rectángulo 56997" width="4.145" height="4.145" transform="translate(42.855 378.376)" fill="#7f4fc7"/>
            <rect id="Rectángulo_56998" data-name="Rectángulo 56998" width="4.145" height="4.145" transform="translate(34.046 316.718)" fill="#7f4fc7"/>
            <rect id="Rectángulo_56999" data-name="Rectángulo 56999" width="4.145" height="4.145" transform="translate(34.046 325.526)" fill="#7f4fc7"/>
            <rect id="Rectángulo_57000" data-name="Rectángulo 57000" width="4.145" height="4.145" transform="translate(34.046 334.334)" fill="#7f4fc7"/>
            <rect id="Rectángulo_57001" data-name="Rectángulo 57001" width="4.145" height="4.145" transform="translate(34.046 343.143)" fill="#7f4fc7"/>
            <rect id="Rectángulo_57002" data-name="Rectángulo 57002" width="4.145" height="4.145" transform="translate(34.046 351.951)" fill="#7f4fc7"/>
            <rect id="Rectángulo_57003" data-name="Rectángulo 57003" width="4.145" height="4.145" transform="translate(34.046 360.759)" fill="#7f4fc7"/>
            <rect id="Rectángulo_57004" data-name="Rectángulo 57004" width="4.145" height="4.145" transform="translate(34.046 369.568)" fill="#7f4fc7"/>
            <rect id="Rectángulo_57005" data-name="Rectángulo 57005" width="4.145" height="4.145" transform="translate(34.046 378.376)" fill="#7f4fc7"/>
            <rect id="Rectángulo_57006" data-name="Rectángulo 57006" width="4.145" height="4.145" transform="translate(25.238 316.718)" fill="#7f4fc7"/>
            <rect id="Rectángulo_57007" data-name="Rectángulo 57007" width="4.145" height="4.145" transform="translate(25.238 325.526)" fill="#7f4fc7"/>
            <rect id="Rectángulo_57008" data-name="Rectángulo 57008" width="4.145" height="4.145" transform="translate(25.238 334.334)" fill="#7f4fc7"/>
            <rect id="Rectángulo_57009" data-name="Rectángulo 57009" width="4.145" height="4.145" transform="translate(25.238 343.143)" fill="#7f4fc7"/>
            <rect id="Rectángulo_57010" data-name="Rectángulo 57010" width="4.145" height="4.145" transform="translate(25.238 351.951)" fill="#7f4fc7"/>
            <rect id="Rectángulo_57011" data-name="Rectángulo 57011" width="4.145" height="4.145" transform="translate(25.238 360.759)" fill="#7f4fc7"/>
            <rect id="Rectángulo_57012" data-name="Rectángulo 57012" width="4.145" height="4.145" transform="translate(25.238 369.568)" fill="#7f4fc7"/>
            <rect id="Rectángulo_57013" data-name="Rectángulo 57013" width="4.145" height="4.145" transform="translate(25.238 378.376)" fill="#7f4fc7"/>
          </g>
        </g>
      </g>
    </g>
    <path id="Trazado_222323" data-name="Trazado 222323" d="M412.718,302.535h92.364L458.9,382.521Z" transform="translate(310 654)" fill="#eeac3a"/>
    <path id="Trazado_222325" data-name="Trazado 222325" d="M362.358,215.3H555.442L516.03,283.571H401.77Z" transform="translate(310 654)" fill="#0b67d1"/>
    <path id="Trazado_222327" data-name="Trazado 222327" d="M312,128.075H605.8l-39.412,68.269H351.41Z" transform="translate(310 654)" fill="#43a99b"/>
    <path id="Trazado_222329" data-name="Trazado 222329" d="M262,41l39.412,68.263h315.7L656.524,41Z" transform="translate(310 654)" fill="#8c5be1"/>
    <path id="Trazado_231455" data-name="Trazado 231455" d="M13.726-3.984H6.68L5.449,0H-.044L7.778-21.328h4.834L20.493,0H14.971ZM7.91-7.954H12.5l-2.3-7.4Z" transform="translate(761.5 739.631)" fill="#fff"/>
    <path id="Trazado_231456" data-name="Trazado 231456" d="M7.09,0H1.963V-21.328H7.09Z" transform="translate(764.5 826.709)" fill="#fff"/>
    <path id="Trazado_231457" data-name="Trazado 231457" d="M1.611,0V-21.328h6.87a10.106,10.106,0,0,1,5.083,1.282,9.009,9.009,0,0,1,3.523,3.618,10.924,10.924,0,0,1,1.282,5.237v.981a10.987,10.987,0,0,1-1.238,5.251,9.048,9.048,0,0,1-3.486,3.633A9.884,9.884,0,0,1,8.628,0ZM6.753-17.358v13.4H8.54a4,4,0,0,0,3.4-1.575,7.717,7.717,0,0,0,1.187-4.68v-.923a7.653,7.653,0,0,0-1.187-4.658,4.069,4.069,0,0,0-3.457-1.567Z" transform="translate(761.5 909.709)" fill="#fff"/>
    <path id="Trazado_231458" data-name="Trazado 231458" d="M13.726-3.984H6.68L5.449,0H-.044L7.778-21.328h4.834L20.493,0H14.971ZM7.91-7.954H12.5l-2.3-7.4Z" transform="translate(761.5 998.709)" fill="#fff"/>
    <path id="Trazado_231459" data-name="Trazado 231459" d="M14.106-4.966H5.845L4.116,0H.264L8.32-21.328h3.325L19.717,0H15.85ZM6.885-7.954h6.182L9.976-16.8Zm17.5-7.9.1,1.831a5.7,5.7,0,0,1,4.614-2.124q4.951,0,5.039,5.669V0h-3.56V-10.269a3.264,3.264,0,0,0-.652-2.234,2.742,2.742,0,0,0-2.131-.725,3.43,3.43,0,0,0-3.208,1.948V0h-3.56V-15.85ZM42.231-19.7v3.853h2.8v2.637h-2.8v8.848a1.948,1.948,0,0,0,.359,1.311,1.664,1.664,0,0,0,1.282.4A5.483,5.483,0,0,0,45.117-2.8V-.044a8.767,8.767,0,0,1-2.344.337q-4.1,0-4.1-4.526v-8.979H36.064V-15.85h2.607V-19.7Zm12.5,20a7.364,7.364,0,0,1-5.486-2.131,7.732,7.732,0,0,1-2.1-5.676v-.439a9.511,9.511,0,0,1,.916-4.241A6.968,6.968,0,0,1,50.625-15.1a6.8,6.8,0,0,1,3.691-1.04,6.221,6.221,0,0,1,5,2.065,8.734,8.734,0,0,1,1.765,5.845V-6.8H50.728a4.76,4.76,0,0,0,1.311,3.105,3.936,3.936,0,0,0,2.893,1.143,4.82,4.82,0,0,0,3.984-1.978L60.835-2.7a6.408,6.408,0,0,1-2.542,2.2A7.957,7.957,0,0,1,54.727.293ZM54.3-13.286a3,3,0,0,0-2.366,1.025A5.315,5.315,0,0,0,50.786-9.4h6.782v-.264a4.327,4.327,0,0,0-.952-2.7A2.975,2.975,0,0,0,54.3-13.286ZM67.148-15.85l.1,1.831a5.7,5.7,0,0,1,4.614-2.124q4.951,0,5.039,5.669V0h-3.56V-10.269a3.264,3.264,0,0,0-.652-2.234,2.742,2.742,0,0,0-2.131-.725,3.43,3.43,0,0,0-3.208,1.948V0h-3.56V-15.85Zm19.893,13.3a3.218,3.218,0,0,0,2.212-.776,2.652,2.652,0,0,0,.938-1.919h3.354a5.228,5.228,0,0,1-.923,2.761A6.053,6.053,0,0,1,90.278-.454a6.985,6.985,0,0,1-3.193.747A6.758,6.758,0,0,1,81.812-1.86a8.541,8.541,0,0,1-1.948-5.947v-.366A8.4,8.4,0,0,1,81.8-13.967a6.7,6.7,0,0,1,5.273-2.175,6.512,6.512,0,0,1,4.607,1.648,5.9,5.9,0,0,1,1.868,4.329H90.19a3.26,3.26,0,0,0-.93-2.241,2.993,2.993,0,0,0-2.219-.879,3.132,3.132,0,0,0-2.666,1.252,6.391,6.391,0,0,0-.952,3.8v.571a6.5,6.5,0,0,0,.93,3.845A3.13,3.13,0,0,0,87.041-2.549ZM100.02,0H96.46V-15.85h3.56ZM96.24-19.98a1.912,1.912,0,0,1,.52-1.373,1.956,1.956,0,0,1,1.487-.546,1.98,1.98,0,0,1,1.494.546,1.9,1.9,0,0,1,.527,1.373,1.853,1.853,0,0,1-.527,1.351,2,2,0,0,1-1.494.539,1.971,1.971,0,0,1-1.487-.539A1.867,1.867,0,0,1,96.24-19.98Zm6.987,11.909a9.346,9.346,0,0,1,.923-4.2,6.74,6.74,0,0,1,2.593-2.871,7.305,7.305,0,0,1,3.838-1,6.923,6.923,0,0,1,5.208,2.065A8.124,8.124,0,0,1,117.949-8.6l.015.835a9.429,9.429,0,0,1-.9,4.189,6.659,6.659,0,0,1-2.578,2.856A7.359,7.359,0,0,1,110.61.293a6.875,6.875,0,0,1-5.369-2.234A8.556,8.556,0,0,1,103.228-7.9Zm3.56.308A6.386,6.386,0,0,0,107.8-3.933a3.286,3.286,0,0,0,2.813,1.384,3.25,3.25,0,0,0,2.805-1.406,7.054,7.054,0,0,0,1-4.116,6.3,6.3,0,0,0-1.033-3.809,3.3,3.3,0,0,0-2.805-1.406,3.267,3.267,0,0,0-2.769,1.384A6.921,6.921,0,0,0,106.787-7.764ZM111.563-22.5h4.058l-4.058,4.438-2.856-.007Zm12.715,6.65.1,1.831a5.7,5.7,0,0,1,4.614-2.124q4.951,0,5.039,5.669V0h-3.56V-10.269a3.264,3.264,0,0,0-.652-2.234,2.742,2.742,0,0,0-2.131-.725,3.43,3.43,0,0,0-3.208,1.948V0h-3.56V-15.85Z" transform="translate(1032.5 739.631)" fill="#8c5be1"/>
    <path id="Trazado_231460" data-name="Trazado 231460" d="M6.079,0H2.388V-21.328H6.079Zm7.515-15.85.1,1.831a5.7,5.7,0,0,1,4.614-2.124q4.951,0,5.039,5.669V0H19.79V-10.269a3.264,3.264,0,0,0-.652-2.234,2.742,2.742,0,0,0-2.131-.725A3.43,3.43,0,0,0,13.8-11.279V0h-3.56V-15.85ZM31.436-19.7v3.853h2.8v2.637h-2.8v8.848a1.948,1.948,0,0,0,.359,1.311,1.664,1.664,0,0,0,1.282.4A5.483,5.483,0,0,0,34.321-2.8V-.044a8.767,8.767,0,0,1-2.344.337q-4.1,0-4.1-4.526v-8.979H25.269V-15.85h2.607V-19.7Zm12.5,20a7.364,7.364,0,0,1-5.486-2.131,7.732,7.732,0,0,1-2.1-5.676v-.439a9.511,9.511,0,0,1,.916-4.241A6.968,6.968,0,0,1,39.829-15.1a6.8,6.8,0,0,1,3.691-1.04,6.221,6.221,0,0,1,5,2.065,8.734,8.734,0,0,1,1.765,5.845V-6.8H39.932a4.76,4.76,0,0,0,1.311,3.105,3.936,3.936,0,0,0,2.893,1.143A4.82,4.82,0,0,0,48.12-4.526L50.039-2.7A6.408,6.408,0,0,1,47.5-.491,7.957,7.957,0,0,1,43.931.293Zm-.425-13.579a3,3,0,0,0-2.366,1.025A5.315,5.315,0,0,0,39.99-9.4h6.782v-.264a4.327,4.327,0,0,0-.952-2.7A2.975,2.975,0,0,0,43.506-13.286Zm17.842.688a8.808,8.808,0,0,0-1.45-.117,3.265,3.265,0,0,0-3.3,1.875V0h-3.56V-15.85h3.4l.088,1.772A4.011,4.011,0,0,1,60.1-16.143a3.332,3.332,0,0,1,1.26.205ZM70.3.293a7.364,7.364,0,0,1-5.486-2.131,7.732,7.732,0,0,1-2.1-5.676v-.439a9.511,9.511,0,0,1,.916-4.241A6.968,6.968,0,0,1,66.2-15.1a6.8,6.8,0,0,1,3.691-1.04,6.221,6.221,0,0,1,5,2.065,8.734,8.734,0,0,1,1.765,5.845V-6.8H66.3A4.76,4.76,0,0,0,67.61-3.691,3.936,3.936,0,0,0,70.5-2.549a4.82,4.82,0,0,0,3.984-1.978L76.406-2.7a6.408,6.408,0,0,1-2.542,2.2A7.957,7.957,0,0,1,70.3.293Zm-.425-13.579a3,3,0,0,0-2.366,1.025A5.315,5.315,0,0,0,66.357-9.4H73.14v-.264a4.327,4.327,0,0,0-.952-2.7A2.975,2.975,0,0,0,69.873-13.286Zm.806-9.214h4.058l-4.058,4.438-2.856-.007ZM88.3-4.307a1.614,1.614,0,0,0-.784-1.45,8.335,8.335,0,0,0-2.6-.879A13.366,13.366,0,0,1,81.885-7.6a4.047,4.047,0,0,1-2.666-3.735,4.219,4.219,0,0,1,1.729-3.428,6.833,6.833,0,0,1,4.395-1.377,7.11,7.11,0,0,1,4.592,1.406,4.462,4.462,0,0,1,1.75,3.647h-3.56a2.194,2.194,0,0,0-.762-1.707,2.919,2.919,0,0,0-2.021-.681,3.154,3.154,0,0,0-1.912.542,1.709,1.709,0,0,0-.74,1.45,1.443,1.443,0,0,0,.688,1.274,9.467,9.467,0,0,0,2.783.916,13.175,13.175,0,0,1,3.289,1.1,4.657,4.657,0,0,1,1.772,1.531A3.9,3.9,0,0,1,91.8-4.5a4.13,4.13,0,0,1-1.772,3.464A7.558,7.558,0,0,1,85.386.293a8.2,8.2,0,0,1-3.472-.7,5.714,5.714,0,0,1-2.373-1.934A4.577,4.577,0,0,1,78.691-5h3.457A2.508,2.508,0,0,0,83.1-3.054a3.7,3.7,0,0,0,2.329.681,3.6,3.6,0,0,0,2.139-.535A1.655,1.655,0,0,0,88.3-4.307Z" transform="translate(1032.5 826.709)" fill="#43a99b"/>
    <path id="Trazado_231461" data-name="Trazado 231461" d="M2.168,0V-21.328h6.3a9.88,9.88,0,0,1,5.017,1.26,8.59,8.59,0,0,1,3.391,3.574,11.346,11.346,0,0,1,1.2,5.3v1.069A11.3,11.3,0,0,1,16.868-4.79a8.486,8.486,0,0,1-3.442,3.545A10.337,10.337,0,0,1,8.306,0ZM5.874-18.34V-2.988H8.291a5.571,5.571,0,0,0,4.475-1.82,7.919,7.919,0,0,0,1.589-5.227V-11.22a8.125,8.125,0,0,0-1.509-5.293,5.354,5.354,0,0,0-4.38-1.828ZM28.4.293a7.364,7.364,0,0,1-5.486-2.131,7.732,7.732,0,0,1-2.1-5.676v-.439a9.511,9.511,0,0,1,.916-4.241A6.968,6.968,0,0,1,24.3-15.1a6.8,6.8,0,0,1,3.691-1.04,6.221,6.221,0,0,1,5,2.065,8.734,8.734,0,0,1,1.765,5.845V-6.8H24.4a4.76,4.76,0,0,0,1.311,3.105,3.936,3.936,0,0,0,2.893,1.143,4.82,4.82,0,0,0,3.984-1.978L34.512-2.7a6.408,6.408,0,0,1-2.542,2.2A7.957,7.957,0,0,1,28.4.293Zm-.425-13.579a3,3,0,0,0-2.366,1.025A5.315,5.315,0,0,0,24.463-9.4h6.782v-.264a4.327,4.327,0,0,0-.952-2.7A2.975,2.975,0,0,0,27.979-13.286ZM46.406-4.307a1.614,1.614,0,0,0-.784-1.45,8.335,8.335,0,0,0-2.6-.879A13.366,13.366,0,0,1,39.99-7.6a4.047,4.047,0,0,1-2.666-3.735,4.219,4.219,0,0,1,1.729-3.428,6.833,6.833,0,0,1,4.395-1.377,7.11,7.11,0,0,1,4.592,1.406,4.462,4.462,0,0,1,1.75,3.647H46.23a2.194,2.194,0,0,0-.762-1.707,2.919,2.919,0,0,0-2.021-.681,3.154,3.154,0,0,0-1.912.542,1.709,1.709,0,0,0-.74,1.45,1.443,1.443,0,0,0,.688,1.274,9.467,9.467,0,0,0,2.783.916,13.175,13.175,0,0,1,3.289,1.1,4.657,4.657,0,0,1,1.772,1.531A3.9,3.9,0,0,1,49.907-4.5a4.13,4.13,0,0,1-1.772,3.464A7.558,7.558,0,0,1,43.491.293a8.2,8.2,0,0,1-3.472-.7,5.714,5.714,0,0,1-2.373-1.934A4.577,4.577,0,0,1,36.8-5h3.457a2.508,2.508,0,0,0,.952,1.941,3.7,3.7,0,0,0,2.329.681,3.6,3.6,0,0,0,2.139-.535A1.655,1.655,0,0,0,46.406-4.307ZM59.985.293A7.364,7.364,0,0,1,54.5-1.838a7.732,7.732,0,0,1-2.1-5.676v-.439a9.511,9.511,0,0,1,.916-4.241A6.968,6.968,0,0,1,55.884-15.1a6.8,6.8,0,0,1,3.691-1.04,6.221,6.221,0,0,1,5,2.065,8.734,8.734,0,0,1,1.765,5.845V-6.8H55.986A4.76,4.76,0,0,0,57.3-3.691,3.936,3.936,0,0,0,60.19-2.549a4.82,4.82,0,0,0,3.984-1.978L66.094-2.7a6.408,6.408,0,0,1-2.542,2.2A7.957,7.957,0,0,1,59.985.293Zm-.425-13.579a3,3,0,0,0-2.366,1.025A5.315,5.315,0,0,0,56.045-9.4h6.782v-.264a4.327,4.327,0,0,0-.952-2.7A2.975,2.975,0,0,0,59.561-13.286Zm8.877,5.215a9.346,9.346,0,0,1,.923-4.2,6.74,6.74,0,0,1,2.593-2.871,7.305,7.305,0,0,1,3.838-1A6.923,6.923,0,0,1,81-14.077,8.124,8.124,0,0,1,83.159-8.6l.015.835a9.429,9.429,0,0,1-.9,4.189A6.659,6.659,0,0,1,79.695-.718,7.359,7.359,0,0,1,75.82.293a6.875,6.875,0,0,1-5.369-2.234A8.556,8.556,0,0,1,68.438-7.9ZM72-7.764a6.386,6.386,0,0,0,1.011,3.831A3.286,3.286,0,0,0,75.82-2.549a3.25,3.25,0,0,0,2.805-1.406,7.054,7.054,0,0,0,1-4.116A6.3,6.3,0,0,0,78.6-11.88a3.3,3.3,0,0,0-2.805-1.406A3.267,3.267,0,0,0,73.022-11.9,6.921,6.921,0,0,0,72-7.764Z" transform="translate(1032.5 909.709)" fill="#0b67d1"/>
    <path id="Trazado_231462" data-name="Trazado 231462" d="M14.106-4.966H5.845L4.116,0H.264L8.32-21.328h3.325L19.717,0H15.85ZM6.885-7.954h6.182L9.976-16.8ZM28.3-2.549a3.218,3.218,0,0,0,2.212-.776,2.652,2.652,0,0,0,.938-1.919H34.8a5.228,5.228,0,0,1-.923,2.761A6.053,6.053,0,0,1,31.538-.454a6.985,6.985,0,0,1-3.193.747A6.758,6.758,0,0,1,23.071-1.86a8.541,8.541,0,0,1-1.948-5.947v-.366a8.4,8.4,0,0,1,1.934-5.793,6.7,6.7,0,0,1,5.273-2.175,6.512,6.512,0,0,1,4.607,1.648A5.9,5.9,0,0,1,34.8-10.166H31.45a3.26,3.26,0,0,0-.93-2.241,2.993,2.993,0,0,0-2.219-.879,3.132,3.132,0,0,0-2.666,1.252,6.391,6.391,0,0,0-.952,3.8v.571a6.5,6.5,0,0,0,.93,3.845A3.13,3.13,0,0,0,28.3-2.549Zm15.7,0a3.218,3.218,0,0,0,2.212-.776,2.652,2.652,0,0,0,.938-1.919h3.354a5.228,5.228,0,0,1-.923,2.761A6.053,6.053,0,0,1,47.241-.454a6.985,6.985,0,0,1-3.193.747A6.758,6.758,0,0,1,38.774-1.86a8.541,8.541,0,0,1-1.948-5.947v-.366a8.4,8.4,0,0,1,1.934-5.793,6.7,6.7,0,0,1,5.273-2.175,6.512,6.512,0,0,1,4.607,1.648,5.9,5.9,0,0,1,1.868,4.329H47.153a3.26,3.26,0,0,0-.93-2.241A2.993,2.993,0,0,0,44-13.286a3.132,3.132,0,0,0-2.666,1.252,6.391,6.391,0,0,0-.952,3.8v.571a6.5,6.5,0,0,0,.93,3.845A3.13,3.13,0,0,0,44-2.549ZM56.982,0h-3.56V-15.85h3.56ZM53.2-19.98a1.912,1.912,0,0,1,.52-1.373A1.956,1.956,0,0,1,55.21-21.9a1.98,1.98,0,0,1,1.494.546,1.9,1.9,0,0,1,.527,1.373A1.853,1.853,0,0,1,56.7-18.63a2,2,0,0,1-1.494.539,1.971,1.971,0,0,1-1.487-.539A1.867,1.867,0,0,1,53.2-19.98ZM60.19-8.071a9.346,9.346,0,0,1,.923-4.2,6.74,6.74,0,0,1,2.593-2.871,7.305,7.305,0,0,1,3.838-1,6.923,6.923,0,0,1,5.208,2.065A8.124,8.124,0,0,1,74.912-8.6l.015.835a9.429,9.429,0,0,1-.9,4.189A6.659,6.659,0,0,1,71.448-.718,7.359,7.359,0,0,1,67.573.293,6.875,6.875,0,0,1,62.2-1.941,8.556,8.556,0,0,1,60.19-7.9Zm3.56.308a6.386,6.386,0,0,0,1.011,3.831,3.286,3.286,0,0,0,2.813,1.384,3.25,3.25,0,0,0,2.805-1.406,7.054,7.054,0,0,0,1-4.116,6.3,6.3,0,0,0-1.033-3.809,3.3,3.3,0,0,0-2.805-1.406A3.267,3.267,0,0,0,64.775-11.9,6.921,6.921,0,0,0,63.75-7.764ZM68.525-22.5h4.058l-4.058,4.438-2.856-.007ZM81.24-15.85l.1,1.831a5.7,5.7,0,0,1,4.614-2.124q4.951,0,5.039,5.669V0h-3.56V-10.269a3.264,3.264,0,0,0-.652-2.234,2.742,2.742,0,0,0-2.131-.725,3.43,3.43,0,0,0-3.208,1.948V0h-3.56V-15.85Z" transform="translate(1032.5 998.709)" fill="#eeac3a"/>
    <path id="Trazado_230580" data-name="Trazado 230580" d="M-3450.2-10961.869h44.358" transform="translate(4410.358 11691)" fill="none" stroke="#8c5be1" stroke-width="1"/>
    <path id="Trazado_231463" data-name="Trazado 231463" d="M8,0l8,14H0Z" transform="translate(1019 721) rotate(90)" fill="#8c5be1"/>
    <path id="Trazado_230581" data-name="Trazado 230581" d="M-3450.2-10961.869h88.716" transform="translate(4366 11778.209)" fill="none" stroke="#43a99b" stroke-width="1"/>
    <path id="Trazado_231464" data-name="Trazado 231464" d="M8,0l8,14H0Z" transform="translate(1019 808.209) rotate(90)" fill="#43a99b"/>
    <path id="Trazado_230582" data-name="Trazado 230582" d="M-3450.2-10961.869h134.292" transform="translate(4320.424 11861.209)" fill="none" stroke="#0b67d1" stroke-width="1"/>
    <path id="Trazado_231465" data-name="Trazado 231465" d="M8,0l8,14H0Z" transform="translate(1019 891.209) rotate(90)" fill="#0b67d1"/>
    <path id="Trazado_230583" data-name="Trazado 230583" d="M-3450.2-10961.869h184.284" transform="translate(4270.432 11950.528)" fill="none" stroke="#eeac3a" stroke-width="1"/>
    <path id="Trazado_231466" data-name="Trazado 231466" d="M8,0l8,14H0Z" transform="translate(1019 980.528) rotate(90)" fill="#eeac3a"/>
  </g>
</svg>
