<svg xmlns="http://www.w3.org/2000/svg" xmlns:xlink="http://www.w3.org/1999/xlink" width="400" height="457" viewBox="0 0 400 457">
  <defs>
    <clipPath id="clip-path">
      <rect id="Rect치ngulo_59045" data-name="Rect치ngulo 59045" width="254.304" height="250.477" fill="none"/>
    </clipPath>
  </defs>
  <g id="Grupo_181379" data-name="Grupo 181379" transform="translate(-810 -2554)">
    <path id="Trazado_231457" data-name="Trazado 231457" d="M20,0H380a20,20,0,0,1,20,20V437a20,20,0,0,1-20,20H20A20,20,0,0,1,0,437V20A20,20,0,0,1,20,0Z" transform="translate(810 2554)" fill="#2c8377"/>
    <path id="Trazado_231458" data-name="Trazado 231458" d="M6.592-3.867,9.424-14.219h3.828L8.467,0H4.717L-.029-14.219h3.8ZM18.818.2a5.432,5.432,0,0,1-3.936-1.45,5.008,5.008,0,0,1-1.5-3.774V-5.3a6.489,6.489,0,0,1,.6-2.861,4.395,4.395,0,0,1,1.753-1.919,5.292,5.292,0,0,1,2.734-.679A4.574,4.574,0,0,1,21.982-9.38a5.43,5.43,0,0,1,1.289,3.853v1.279H16.729a2.372,2.372,0,0,0,.771,1.4,2.3,2.3,0,0,0,1.543.508,2.958,2.958,0,0,0,2.441-1.094l1.5,1.777A4.2,4.2,0,0,1,21.245-.308,5.891,5.891,0,0,1,18.818.2Zm-.371-8.418q-1.445,0-1.719,1.914h3.32v-.254a1.63,1.63,0,0,0-.4-1.226A1.593,1.593,0,0,0,18.447-8.223Zm9.17-2.344.107,1.24a3.583,3.583,0,0,1,3.018-1.436,3.015,3.015,0,0,1,2.466.986,4.7,4.7,0,0,1,.845,2.969V0h-3.3V-6.67a1.783,1.783,0,0,0-.322-1.177,1.491,1.491,0,0,0-1.172-.376,1.569,1.569,0,0,0-1.436.762V0H24.531V-10.566Zm12.09-2.627v2.627h1.738v2.285H39.707v4.834a1.234,1.234,0,0,0,.215.83,1.152,1.152,0,0,0,.85.234,4.828,4.828,0,0,0,.82-.059V-.088A6.074,6.074,0,0,1,39.736.2a3.448,3.448,0,0,1-2.51-.8,3.282,3.282,0,0,1-.811-2.432V-8.281H35.068v-2.285h1.348v-2.627ZM48.691,0a3.716,3.716,0,0,1-.312-.947A3.06,3.06,0,0,1,45.84.2a3.749,3.749,0,0,1-2.539-.9,2.875,2.875,0,0,1-1.045-2.271,2.955,2.955,0,0,1,1.27-2.6,6.468,6.468,0,0,1,3.691-.879h1.016v-.559q0-1.462-1.26-1.462A1.03,1.03,0,0,0,45.8-7.319H42.51a2.95,2.95,0,0,1,1.3-2.487,5.479,5.479,0,0,1,3.325-.956,4.8,4.8,0,0,1,3.193.986,3.429,3.429,0,0,1,1.2,2.705v4.678a4.79,4.79,0,0,0,.449,2.227V0ZM46.631-2.148a1.836,1.836,0,0,0,1.021-.264,1.653,1.653,0,0,0,.581-.6V-4.7h-.957q-1.719,0-1.719,1.543a.942.942,0,0,0,.3.728A1.1,1.1,0,0,0,46.631-2.148ZM57.92-5.381A6.236,6.236,0,0,1,58.535-8.2,4.4,4.4,0,0,1,60.3-10.1a5.323,5.323,0,0,1,2.705-.664,4.858,4.858,0,0,1,3.74,1.47,5.64,5.64,0,0,1,1.367,4v.117a5.472,5.472,0,0,1-1.372,3.921A4.871,4.871,0,0,1,63.027.2,4.927,4.927,0,0,1,59.4-1.157,5.29,5.29,0,0,1,57.93-4.824Zm3.291.205a3.932,3.932,0,0,0,.459,2.148,1.529,1.529,0,0,0,1.357.684q1.758,0,1.8-2.705v-.332q0-2.842-1.816-2.842-1.65,0-1.787,2.451ZM75.859-1.143A3.393,3.393,0,0,1,73.037.2,3.328,3.328,0,0,1,70.405-.815a4.251,4.251,0,0,1-.894-2.905v-6.846H72.8V-3.7a1.183,1.183,0,0,0,1.318,1.357,1.72,1.72,0,0,0,1.611-.811v-7.412h3.311V0H75.957Zm8.818-12.051v2.627h1.738v2.285H84.678v4.834a1.234,1.234,0,0,0,.215.83,1.152,1.152,0,0,0,.85.234,4.828,4.828,0,0,0,.82-.059V-.088A6.074,6.074,0,0,1,84.707.2a3.448,3.448,0,0,1-2.51-.8,3.282,3.282,0,0,1-.811-2.432V-8.281H80.039v-2.285h1.348v-2.627Zm12.842,8A6.44,6.44,0,0,1,96.445-1.2,3.6,3.6,0,0,1,93.418.2a3.122,3.122,0,0,1-2.6-1.279L90.684,0H87.734V-15h3.291v5.283A3.013,3.013,0,0,1,93.4-10.762a3.6,3.6,0,0,1,3.047,1.416A6.473,6.473,0,0,1,97.52-5.361Zm-3.3-.21a4.3,4.3,0,0,0-.405-2.169,1.366,1.366,0,0,0-1.245-.648,1.576,1.576,0,0,0-1.543.848v4.192a1.585,1.585,0,0,0,1.563.838,1.4,1.4,0,0,0,1.475-1.131A8.121,8.121,0,0,0,94.219-5.405Zm4.336.024A6.236,6.236,0,0,1,99.17-8.2a4.4,4.4,0,0,1,1.768-1.9,5.323,5.323,0,0,1,2.705-.664,4.858,4.858,0,0,1,3.74,1.47,5.64,5.64,0,0,1,1.367,4v.117a5.472,5.472,0,0,1-1.372,3.921A4.871,4.871,0,0,1,103.662.2a4.927,4.927,0,0,1-3.623-1.353,5.29,5.29,0,0,1-1.475-3.667Zm3.291.205a3.932,3.932,0,0,0,.459,2.148,1.529,1.529,0,0,0,1.357.684q1.758,0,1.8-2.705v-.332q0-2.842-1.816-2.842-1.65,0-1.787,2.451Zm14.648,4.033A3.393,3.393,0,0,1,113.672.2,3.328,3.328,0,0,1,111.04-.815a4.251,4.251,0,0,1-.894-2.905v-6.846h3.291V-3.7a1.183,1.183,0,0,0,1.318,1.357,1.72,1.72,0,0,0,1.611-.811v-7.412h3.311V0h-3.086Zm8.008-9.424.107,1.24a3.583,3.583,0,0,1,3.018-1.436,3.015,3.015,0,0,1,2.466.986,4.7,4.7,0,0,1,.845,2.969V0h-3.3V-6.67a1.783,1.783,0,0,0-.322-1.177,1.491,1.491,0,0,0-1.172-.376,1.569,1.569,0,0,0-1.436.762V0h-3.291V-10.566Zm7.842,5.205a6.455,6.455,0,0,1,1.084-3.955,3.568,3.568,0,0,1,3.027-1.445,3.035,3.035,0,0,1,2.383,1.113V-15h3.3V0H139.18l-.166-1.133A3.116,3.116,0,0,1,136.436.2a3.562,3.562,0,0,1-2.988-1.445A6.659,6.659,0,0,1,132.344-5.361Zm3.291.205q0,2.813,1.641,2.813a1.62,1.62,0,0,0,1.563-.918V-7.285a1.576,1.576,0,0,0-1.543-.937q-1.523,0-1.65,2.461Z" transform="translate(945 2631)" fill="#fff"/>
    <g id="Grupo_180195" data-name="Grupo 180195" transform="translate(895 2691.922)">
      <g id="Grupo_180194" data-name="Grupo 180194" clip-path="url(#clip-path)">
        <path id="Trazado_230796" data-name="Trazado 230796" d="M696.525,269.737c0,16.649-7.224,30.146-16.134,30.146s-16.134-13.5-16.134-30.146,7.223-30.146,16.134-30.146,16.134,13.5,16.134,30.146" transform="translate(-452.123 -163.076)" fill="#d8e5f3"/>
        <path id="Trazado_230797" data-name="Trazado 230797" d="M233.669,662c0,3.664-10.151,6.634-22.673,6.634s-22.672-2.97-22.672-6.634,10.15-6.634,22.672-6.634,22.673,2.97,22.673,6.634" transform="translate(-128.182 -446.074)" fill="#d8e5f3"/>
        <path id="Trazado_230798" data-name="Trazado 230798" d="M18.594,140.63c4.634,13.2,2.531,31.645-7.33,42.161-9.444,10.071-13.089,23.95-7.616,37.382,3.765,9.239,15.684,13.057,25.068,14.024,13.373,1.379,26.078-5.449,39.267-8.054,17.553-3.467,35.655.628,52.891,5.428s34.643,10.383,52.529,9.915,36.79-8.334,45.092-24.184c9.086-17.347,3.314-38.418-2.706-57.053s-11.991-39.587-3.218-57.094c5.2-10.383,15.384-18.987,15.69-30.6.2-7.381-3.91-14.351-9.376-19.315S206.672,45,200.026,41.78c-15.506-7.5-32.448-15.21-49.326-11.763-14.063,2.872-25.325,12.969-36.579,21.877S89.578,69.24,75.3,67.812c-10.523-1.051-19.835-7.359-30.216-9.379A38.618,38.618,0,0,0,10.212,69.692,38.618,38.618,0,0,0,1.174,105.2c3.334,12.77,13.049,22.976,17.42,35.429" transform="translate(0 -19.855)" fill="#a8eae1"/>
        <path id="Trazado_230799" data-name="Trazado 230799" d="M1.91,149.259a.32.32,0,0,1-.313-.383,42.018,42.018,0,0,1,6.076-13.5,38.417,38.417,0,0,1,26.638-16.668.319.319,0,0,1,.1.631A37.792,37.792,0,0,0,8.216,135.718,41.372,41.372,0,0,0,2.223,149a.32.32,0,0,1-.313.255" transform="translate(-1.082 -80.798)" fill="#8abae7"/>
        <rect id="Rect치ngulo_59044" data-name="Rect치ngulo 59044" width="7.487" height="7.487" transform="translate(12.96 69.421)" fill="#fff"/>
        <path id="Trazado_230800" data-name="Trazado 230800" d="M30.346,213.082a4.4,4.4,0,1,1,4.4-4.4,4.408,4.408,0,0,1-4.4,4.4m0-8.168a3.765,3.765,0,1,0,3.765,3.765,3.769,3.769,0,0,0-3.765-3.765" transform="translate(-17.658 -139.039)"/>
        <path id="Trazado_230801" data-name="Trazado 230801" d="M264.058,477.28a.319.319,0,0,1-.319-.319v-8.554a.319.319,0,0,1,.639,0v8.554a.319.319,0,0,1-.319.319" transform="translate(-179.513 -318.601)"/>
        <path id="Trazado_230802" data-name="Trazado 230802" d="M259.22,482.119h-8.554a.319.319,0,1,1,0-.639h8.554a.319.319,0,0,1,0,.639" transform="translate(-170.397 -327.717)"/>
        <path id="Trazado_230803" data-name="Trazado 230803" d="M518.812,645.347a.319.319,0,0,1-.226-.545l6.049-6.049a.319.319,0,0,1,.452.452l-6.049,6.049a.318.318,0,0,1-.226.094" transform="translate(-352.909 -434.7)"/>
        <path id="Trazado_230804" data-name="Trazado 230804" d="M524.862,645.347a.319.319,0,0,1-.226-.094l-6.049-6.049a.319.319,0,0,1,.452-.452l6.049,6.049a.319.319,0,0,1-.226.545" transform="translate(-352.91 -434.7)"/>
        <path id="Trazado_230805" data-name="Trazado 230805" d="M244.865,393.224a4.725,4.725,0,1,0-4.725,4.725,4.725,4.725,0,0,0,4.725-4.725" transform="translate(-160.234 -264.43)" fill="#8abae7"/>
        <path id="Trazado_230806" data-name="Trazado 230806" d="M421.326,670.468c-7.369,0-17.363-1.419-29.875-4.249-14.019-3.171-26.131-7.027-26.252-7.065a.319.319,0,0,1,.194-.608c.481.154,48.328,15.325,64.916,10.216a.319.319,0,1,1,.188.61,31.871,31.871,0,0,1-9.172,1.1" transform="translate(-248.419 -448.225)" fill="#8abae7"/>
        <path id="Trazado_230807" data-name="Trazado 230807" d="M635.657,479.26a2.846,2.846,0,1,1,2.846-2.846,2.849,2.849,0,0,1-2.846,2.846m0-5.054a2.208,2.208,0,1,0,2.207,2.208,2.21,2.21,0,0,0-2.207-2.208" transform="translate(-430.719 -322.331)"/>
        <path id="Trazado_230808" data-name="Trazado 230808" d="M600.065,525.853a4.716,4.716,0,1,0-4.716,4.716,4.716,4.716,0,0,0,4.716-4.716" transform="translate(-402.011 -354.709)" fill="#fff"/>
        <path id="Trazado_230809" data-name="Trazado 230809" d="M478.742,44.6a.319.319,0,0,1-.319-.319V41.289a.319.319,0,1,1,.639,0v2.995a.319.319,0,0,1-.319.319" transform="translate(-325.636 -27.886)"/>
        <path id="Trazado_230810" data-name="Trazado 230810" d="M478.742,63.359a.319.319,0,0,1-.319-.319V60.044a.319.319,0,1,1,.639,0v2.995a.319.319,0,0,1-.319.319" transform="translate(-325.636 -40.651)"/>
        <path id="Trazado_230811" data-name="Trazado 230811" d="M486.426,55.676h-2.995a.319.319,0,0,1,0-.639h2.995a.319.319,0,0,1,0,.639" transform="translate(-328.828 -37.461)"/>
        <path id="Trazado_230812" data-name="Trazado 230812" d="M467.67,55.676h-2.995a.319.319,0,1,1,0-.639h2.995a.319.319,0,1,1,0,.639" transform="translate(-316.061 -37.461)"/>
        <path id="Trazado_230813" data-name="Trazado 230813" d="M498.479,672.991a64.161,64.161,0,0,1-18.1-2.451.319.319,0,1,1,.2-.606,64.792,64.792,0,0,0,20.72,2.36,59.478,59.478,0,0,0,40.541-17.828.319.319,0,0,1,.455.448A60.109,60.109,0,0,1,501.3,672.933q-1.443.06-2.823.059" transform="translate(-326.819 -445.394)" fill="#8abae7"/>
        <path id="Trazado_230814" data-name="Trazado 230814" d="M77.954,341.337s2.141,47.889,30.163,112.426l-22.945,7.324s-22.343-64.522-27.014-90.429c0,0,1.964,61.557,5.36,96.373L33.8,455.992s-5.519-78.972,8.067-117.609Z" transform="translate(-22.249 -230.319)" fill="#0b67d1"/>
        <path id="Trazado_230815" data-name="Trazado 230815" d="M36.154,702.121c-.375-6.785,28.659,4.246,29.721,11.039s-29.285-3.145-29.721-11.039" transform="translate(-24.606 -476.448)"/>
        <path id="Trazado_230816" data-name="Trazado 230816" d="M40.538,703.354c.951,18.745-11.362,18.037-12.353,25.538,13.587-.779,14.082-5.307,23.21-8.067-.92-6.811-4.027-7.583-3.641-14.9Z" transform="translate(-19.184 -478.734)" fill="#fff"/>
        <path id="Trazado_230817" data-name="Trazado 230817" d="M27.5,728.53a.319.319,0,0,1-.316-.361c.38-2.881,2.325-4.57,4.577-6.525,3.727-3.237,8.366-7.265,7.773-18.954a.319.319,0,0,1,.426-.317l7.216,2.569a.32.32,0,0,1,.212.318,15.385,15.385,0,0,0,1.655,8.294,21.617,21.617,0,0,1,1.984,6.548.319.319,0,0,1-.224.348,33.264,33.264,0,0,0-7.688,3.521c-3.607,2.092-7.015,4.068-15.6,4.56H27.5m12.693-25.4c.46,11.634-4.233,15.709-8.014,18.993-2.047,1.778-3.829,3.325-4.3,5.742,8.138-.521,11.432-2.43,14.915-4.451a34.08,34.08,0,0,1,7.561-3.5,21.2,21.2,0,0,0-1.9-6.106,16.049,16.049,0,0,1-1.72-8.348Z" transform="translate(-18.504 -478.053)"/>
        <path id="Trazado_230818" data-name="Trazado 230818" d="M237.133,704.753l2.959,13.853h27.385c-3.184-6.157-15.909-2.383-22.915-16.225Z" transform="translate(-161.403 -478.073)" fill="#fff"/>
        <path id="Trazado_230819" data-name="Trazado 230819" d="M266.8,718.245H239.411a.319.319,0,0,1-.312-.253l-2.958-13.853a.319.319,0,0,1,.215-.371l7.429-2.371a.319.319,0,0,1,.382.16c4.145,8.191,10.337,10.127,15.312,11.683,3.364,1.052,6.269,1.961,7.6,4.539a.319.319,0,0,1-.284.466m-27.127-.639h26.571c-1.31-1.992-3.826-2.779-6.953-3.757-5.041-1.577-11.3-3.535-15.567-11.762l-6.9,2.2Z" transform="translate(-160.723 -477.391)"/>
        <path id="Trazado_230820" data-name="Trazado 230820" d="M36.223,234.069C51.913,247.347,81,243.6,81,243.6a377.065,377.065,0,0,1,4.457-51.657,17.754,17.754,0,0,0-1.714-1.979c-11.185-11.385-30.535-5.433-33.67,10.217-2.106,10.513-1.979,15.963-13.848,33.892" transform="translate(-24.655 -125.271)" fill="#8abae7"/>
        <path id="Trazado_230821" data-name="Trazado 230821" d="M185.908,207.852c6.835,9.309,28.975,6.581,36.884-.425,0,0,7.272,7.006,4.725,17.2,0,0-21.759,22.615-43.709-1.2Z" transform="translate(-125.109 -141.184)" fill="#8abae7"/>
        <path id="Trazado_230822" data-name="Trazado 230822" d="M132.133,142.06c3.179,13.976-4.179,13.868-4.179,13.868s10.6,10.121,13.642,1.953c0,0-5.452-.254-2.338-14.265Z" transform="translate(-87.091 -96.692)" fill="#fff"/>
        <path id="Trazado_230823" data-name="Trazado 230823" d="M136.848,160.7c-4.269,0-9.553-5-9.794-5.226a.319.319,0,0,1-.075-.352.316.316,0,0,1,.3-.2,4.183,4.183,0,0,0,3.1-1.657c1.229-1.527,2.359-4.818.766-11.821a.319.319,0,0,1,.379-.383l7.124,1.557a.319.319,0,0,1,.243.381c-1.75,7.879-.772,11.294.358,12.771a2.525,2.525,0,0,0,1.684,1.105.319.319,0,0,1,.284.431,4.7,4.7,0,0,1-3.294,3.276,4.789,4.789,0,0,1-1.073.117m-8.842-5.227c1.567,1.369,6.4,5.265,9.772,4.488a3.937,3.937,0,0,0,2.7-2.53,3.468,3.468,0,0,1-1.738-1.272c-1.2-1.565-2.251-5.086-.543-12.984l-6.325-1.382c1.2,5.579.861,9.577-1.012,11.888a5.023,5.023,0,0,1-2.855,1.792" transform="translate(-86.411 -96.012)"/>
        <path id="Trazado_230824" data-name="Trazado 230824" d="M149.422,107.272c1.06,6.72-1.258,12.669-5.176,13.287s-7.955-4.328-9.015-11.048,1.258-12.669,5.176-13.287,7.955,4.328,9.015,11.048" transform="translate(-91.869 -65.459)" fill="#fff"/>
        <path id="Trazado_230825" data-name="Trazado 230825" d="M142.891,120.248c-1.783,0-3.589-1.024-5.154-2.942a19.4,19.4,0,0,1-2.764-17.525c1.021-2.62,2.691-4.237,4.7-4.555s4.1.707,5.877,2.886a19.4,19.4,0,0,1,2.765,17.525c-1.021,2.62-2.691,4.237-4.7,4.555a4.612,4.612,0,0,1-.722.057m-2.5-24.44a3.953,3.953,0,0,0-.62.049c-1.778.28-3.273,1.756-4.208,4.156a18.766,18.766,0,0,0,2.664,16.889c1.628,2,3.5,2.939,5.282,2.659s3.273-1.756,4.208-4.155a18.766,18.766,0,0,0-2.664-16.889c-1.44-1.764-3.074-2.707-4.663-2.707" transform="translate(-91.187 -64.776)"/>
        <path id="Trazado_230826" data-name="Trazado 230826" d="M132.6,102.844l3.867-1.769s-1.457-6.086-.592-8.527c2.775,1.274,9.038,1.38,9.569-3.078,4.883-3.715-4.246-12.313-8.067-4.352-5.944-.424-9.447,7.536-4.777,17.726" transform="translate(-88.782 -55.707)"/>
        <path id="Trazado_230827" data-name="Trazado 230827" d="M68.779,709.826a.319.319,0,0,1-.2-.074c-12.788-10.681-24.976-10.138-25.1-10.132a.319.319,0,1,1-.035-.638c.125-.008,12.564-.561,25.544,10.279a.32.32,0,0,1-.205.565" transform="translate(-29.362 -475.754)"/>
        <path id="Trazado_230828" data-name="Trazado 230828" d="M64.4,690.326a.319.319,0,0,1-.224-.092c-14.484-14.281-28.48-10.417-28.62-10.376a.319.319,0,0,1-.179-.613,22.924,22.924,0,0,1,9.052-.255c4.959.728,12.488,3.19,20.2,10.789a.319.319,0,0,1-.224.547" transform="translate(-23.925 -461.945)"/>
        <path id="Trazado_230829" data-name="Trazado 230829" d="M189.479,686.89a.319.319,0,0,1-.1-.622l22.43-7.556a.319.319,0,1,1,.2.606l-22.43,7.555a.316.316,0,0,1-.1.017" transform="translate(-128.75 -461.95)"/>
        <path id="Trazado_230830" data-name="Trazado 230830" d="M196.35,706.637a.319.319,0,0,1-.1-.624l22.945-7.324a.319.319,0,1,1,.194.608l-22.945,7.324a.322.322,0,0,1-.1.015" transform="translate(-133.427 -475.548)"/>
        <path id="Trazado_230831" data-name="Trazado 230831" d="M267.128,742.977H242.439a.319.319,0,0,1,0-.639h24.688a.319.319,0,1,1,0,.639" transform="translate(-164.798 -505.268)"/>
        <path id="Trazado_230832" data-name="Trazado 230832" d="M32.6,755.791c-.2,0-.4,0-.6-.012a.319.319,0,1,1,.027-.638c5.185.217,10.04-2.577,13.942-4.822,2.785-1.6,5.191-2.987,7.148-3.019h0a.319.319,0,0,1,.005.639c-1.792.029-4.131,1.375-6.84,2.934-3.825,2.2-8.55,4.919-13.687,4.919" transform="translate(-21.569 -508.646)"/>
        <path id="Trazado_230833" data-name="Trazado 230833" d="M64.838,736.811a.319.319,0,0,1-.239-.108l-3.068-3.459a.32.32,0,0,1,.112-.505l4.059-1.761a.319.319,0,0,1,.254.586L62.3,733.15l2.776,3.13a.32.32,0,0,1-.239.531" transform="translate(-41.826 -497.518)"/>
        <path id="Trazado_230834" data-name="Trazado 230834" d="M262.424,722.516a.32.32,0,0,1-.291-.451l1.485-3.281-3.945-.528a.319.319,0,0,1,.084-.633l4.371.585a.319.319,0,0,1,.248.448l-1.662,3.673a.319.319,0,0,1-.291.188" transform="translate(-176.556 -488.444)"/>
        <path id="Trazado_230835" data-name="Trazado 230835" d="M111.76,417.578a.319.319,0,0,1-.319-.319V407.167a.319.319,0,1,1,.639,0v10.091a.319.319,0,0,1-.319.319" transform="translate(-75.852 -276.919)"/>
        <path id="Trazado_230836" data-name="Trazado 230836" d="M133.156,135.789c1.018,1.774.915,3.745-.231,4.4s-2.9-.248-3.917-2.022-.915-3.745.231-4.4,2.9.248,3.917,2.022" transform="translate(-87.332 -90.902)" fill="#fff"/>
        <path id="Trazado_230837" data-name="Trazado 230837" d="M131.4,140.039a4.27,4.27,0,0,1-3.348-2.4,5.2,5.2,0,0,1-.738-2.8A2.373,2.373,0,0,1,128.4,132.8c1.317-.756,3.23.184,4.353,2.14a.319.319,0,1,1-.554.318c-.913-1.591-2.506-2.463-3.481-1.9a1.764,1.764,0,0,0-.767,1.522,4.56,4.56,0,0,0,.654,2.444c.913,1.591,2.507,2.463,3.481,1.9a.319.319,0,1,1,.318.554,2,2,0,0,1-1,.261" transform="translate(-86.651 -90.212)"/>
        <path id="Trazado_230838" data-name="Trazado 230838" d="M67.374,350.333h0A59.248,59.248,0,0,1,35.35,340.254a.319.319,0,0,1,.384-.511,58.569,58.569,0,0,0,31.643,9.952.319.319,0,0,1,0,.639" transform="translate(-23.974 -231.201)"/>
        <path id="Trazado_230839" data-name="Trazado 230839" d="M167.886,213.159s-18.814,68.358-32.971,60.715,23.843-66.447,23.843-66.447Z" transform="translate(-89.678 -141.184)" fill="#fff"/>
        <path id="Trazado_230840" data-name="Trazado 230840" d="M136.512,274.108a5.069,5.069,0,0,1-2.436-.634A6.093,6.093,0,0,1,131.1,269.4c-1.644-6.41,2.356-18.939,11.886-37.239,7.079-13.591,14.735-25.47,14.811-25.589a.319.319,0,0,1,.438-.1l9.128,5.732a.319.319,0,0,1,.138.355c-.038.138-3.86,13.964-9.265,28.308-7.281,19.323-13.821,30.338-19.44,32.737a5.808,5.808,0,0,1-2.289.5m21.656-66.923c-1.168,1.829-8.134,12.834-14.613,25.276a165.37,165.37,0,0,0-9.327,20.751c-2.539,7.217-3.382,12.611-2.5,16.03a5.48,5.48,0,0,0,2.656,3.671,4.546,4.546,0,0,0,4.171.109c5.375-2.3,11.977-13.489,19.092-32.371,5.015-13.307,8.664-26.169,9.185-28.028Z" transform="translate(-88.991 -140.503)"/>
        <path id="Trazado_230841" data-name="Trazado 230841" d="M249.363,79.733,225.693,78.3c-17.054-.007-34.32,34.617-27.916,45.7l15.816,23.538s30.358-26.722,35.771-67.8" transform="translate(-133.686 -53.294)" fill="#eeac3a"/>
        <path id="Trazado_230842" data-name="Trazado 230842" d="M275.413,185.884c-1.213-57.425-25.2-84.641-25.2-84.641s3.927-33.293,30.994-57.381c47.553,0,47.553,0,87.153-24.033Z" transform="translate(-170.305 -13.496)" fill="#fff"/>
        <path id="Trazado_230843" data-name="Trazado 230843" d="M274.732,185.523a.32.32,0,0,1-.319-.313c-.625-29.593-7.423-50.975-13.015-63.7-6.059-13.788-12.047-20.667-12.107-20.735a.321.321,0,0,1-.078-.249,91.343,91.343,0,0,1,5.366-19.735c4-10.374,11.7-25.362,25.733-37.848a.319.319,0,0,1,.212-.081c47.464,0,47.464,0,86.988-23.987a.319.319,0,0,1,.444.429L275.01,185.36a.318.318,0,0,1-.278.164m-24.867-85.06c.8.943,6.424,7.843,12.1,20.758,5.548,12.616,12.276,33.7,13.055,62.809L366.807,20.05C328.2,43.48,327.748,43.5,280.646,43.5c-13.876,12.385-21.51,27.234-25.471,37.519a92.092,92.092,0,0,0-5.31,19.443" transform="translate(-169.624 -12.815)"/>
        <path id="Trazado_230844" data-name="Trazado 230844" d="M414.752,110.008c-29.553,51.188-65.21,85.93-79.642,77.6s-2.173-56.583,27.381-107.771S427.7-6.1,442.133,2.237s2.173,56.583-27.381,107.771" transform="translate(-223.971 -0.683)" fill="#43a99b"/>
        <path id="Trazado_230845" data-name="Trazado 230845" d="M339.346,188.478a10.016,10.016,0,0,1-5.093-1.278c-7.115-4.108-8.164-17.663-2.954-38.17,5.178-20.383,15.91-45.256,30.218-70.038S392,32.48,407.062,17.8C422.216,3.039,434.48-2.829,441.595,1.277s8.164,17.664,2.954,38.17c-5.178,20.383-15.91,45.256-30.217,70.038l-.277-.16.277.16c-14.308,24.781-30.483,46.512-45.546,61.188-12,11.69-22.186,17.8-29.439,17.8M436.458.625c-7.047,0-17.068,6.059-28.95,17.637C392.486,32.9,376.349,54.579,362.07,79.312s-24.987,49.548-30.152,69.875c-5.133,20.2-4.191,33.508,2.654,37.459s18.837-1.884,33.768-16.431c15.022-14.636,31.159-36.318,45.438-61.05s24.988-49.548,30.152-69.876c5.133-20.2,4.191-33.507-2.654-37.459A9.475,9.475,0,0,0,436.458.625" transform="translate(-223.273 0)"/>
        <path id="Trazado_230846" data-name="Trazado 230846" d="M379.087,217.007a6.039,6.039,0,0,1-3.072-.772c-4.267-2.464-4.91-10.54-1.81-22.742,3.069-12.078,9.427-26.815,17.9-41.5s18.06-27.556,26.986-36.252c9.017-8.786,16.332-12.267,20.6-9.8s4.91,10.54,1.81,22.742c-3.069,12.078-9.427,26.815-17.9,41.5l-.277-.16.277.16c-8.476,14.681-18.06,27.556-26.986,36.252-7.127,6.944-13.192,10.575-17.528,10.575M436.65,105.82c-4.146,0-10.167,3.616-17.111,10.382-8.885,8.657-18.43,21.483-26.878,36.114s-14.782,29.311-17.837,41.334c-2.98,11.727-2.429,19.757,1.51,22.031s11.168-1.264,19.835-9.708c8.885-8.657,18.43-21.483,26.878-36.114s14.782-29.311,17.837-41.334c2.979-11.727,2.429-19.757-1.51-22.031a5.361,5.361,0,0,0-2.723-.674" transform="translate(-253.384 -71.583)" fill="#4666c9"/>
        <path id="Trazado_230847" data-name="Trazado 230847" d="M365.99,101.059c-5.154,0-8.729-.114-8.781-.116a.319.319,0,0,1-.309-.33.325.325,0,0,1,.33-.309c.078,0,7.92.253,17.162.009,12.212-.323,21.313-1.361,26.318-3a.319.319,0,1,1,.2.607c-5.136,1.683-14.053,2.7-26.5,3.032-3.03.08-5.909.107-8.415.107" transform="translate(-242.922 -66.224)"/>
        <path id="Trazado_230848" data-name="Trazado 230848" d="M507.523,84.307a.319.319,0,0,1-.136-.608l9.088-4.264a.319.319,0,0,1,.271.578l-9.089,4.263a.314.314,0,0,1-.135.03" transform="translate(-345.225 -54.046)"/>
        <path id="Trazado_230849" data-name="Trazado 230849" d="M264.77,267.29c2.142-9,23.069,23.635,26.006,39.062,1.641,8.623-5.634,17.369-6.7,11.213a101.139,101.139,0,0,0-5.3-21.828c-6.349-17.591-14.609-25.937-14.011-28.447" transform="translate(-180.193 -180.879)" fill="#d8e5f3"/>
        <path id="Trazado_230850" data-name="Trazado 230850" d="M238.076,144.155h-.023a.319.319,0,0,1-.3-.341,89.156,89.156,0,0,1,5.341-22.082c4.262-11.491,12.814-27.9,29.355-40.8a.319.319,0,0,1,.393.5c-16.416,12.8-24.908,29.088-29.141,40.495a88.522,88.522,0,0,0-5.311,21.926.32.32,0,0,1-.318.3" transform="translate(-161.828 -55.041)"/>
        <path id="Trazado_230851" data-name="Trazado 230851" d="M462.379,246.882c-7.408,13.9-17.835,22.817-23.288,19.911s-3.869-16.532,3.54-30.435,17.835-22.817,23.288-19.911,3.869,16.532-3.539,30.435" transform="translate(-296.657 -146.95)" fill="#d8e5f3"/>
        <path id="Trazado_230852" data-name="Trazado 230852" d="M475.155,253.69c-7.408,13.9-17.835,22.817-23.288,19.911s-3.869-16.532,3.54-30.435,17.835-22.817,23.288-19.911,3.869,16.532-3.54,30.435" transform="translate(-305.353 -151.584)" fill="#fff"/>
        <path id="Trazado_230853" data-name="Trazado 230853" d="M468.106,282.361a4.257,4.257,0,0,1-2.03-.484c-2.265-1.207-3.2-4.517-2.645-9.322a46.7,46.7,0,0,1,5.386-15.81c6.189-11.614,14.681-18.771,19.333-16.291,2.265,1.207,3.2,4.517,2.645,9.322a52.014,52.014,0,0,1-15.506,29.1c-2.689,2.3-5.162,3.487-7.182,3.487M486.08,240.6c-4.523,0-11.517,6.721-16.7,16.447a46.064,46.064,0,0,0-5.316,15.584c-.526,4.526.294,7.61,2.311,8.685s5.035.036,8.5-2.925A51.394,51.394,0,0,0,490.16,249.7c.527-4.526-.294-7.61-2.311-8.685a3.711,3.711,0,0,0-1.769-.419" transform="translate(-315.324 -163.33)"/>
        <path id="Trazado_230854" data-name="Trazado 230854" d="M101.143,194.132c-2.194,30.166,19.743,34.178,19.743,34.178s4.033,9.644-3.4,16.438c-29.866,3.2-31.207-28.325-28.022-42.973Z" transform="translate(-60.086 -132.135)" fill="#8abae7"/>
        <path id="Trazado_230855" data-name="Trazado 230855" d="M104.192,259.826a.331.331,0,0,1-.1-.015c-10.043-3.195-16-11.572-17.239-24.227a61.967,61.967,0,0,1,1.17-18.276.319.319,0,1,1,.621.151,61.28,61.28,0,0,0-1.154,18.078,32.857,32.857,0,0,0,4.272,13.975,22.011,22.011,0,0,0,12.524,9.69.32.32,0,0,1-.1.624" transform="translate(-58.956 -147.744)"/>
        <path id="Trazado_230856" data-name="Trazado 230856" d="M139.518,237.9a.316.316,0,0,1-.184-.059,29.743,29.743,0,0,1-12.955-25.176.319.319,0,0,1,.636.057,29.1,29.1,0,0,0,12.688,24.6.319.319,0,0,1-.185.58" transform="translate(-85.999 -144.549)"/>
        <path id="Trazado_230857" data-name="Trazado 230857" d="M189.282,308.575s-1.132-7.642-11.605-2.83c-4.588,2.108-6.382,8.875-1.981,11.181,2.972,1.557,4.247-.28,8.775,1.064Z" transform="translate(-117.867 -207.021)" fill="#fff"/>
        <path id="Trazado_230858" data-name="Trazado 230858" d="M183.79,317.622a.319.319,0,0,1-.091-.013,11.745,11.745,0,0,0-4.805-.444,6.454,6.454,0,0,1-4.027-.644,5.014,5.014,0,0,1-2.694-4.759,8.235,8.235,0,0,1,4.69-7c3.915-1.8,7.022-2.1,9.234-.905a5.8,5.8,0,0,1,2.821,3.979.319.319,0,0,1-.031.192l-4.812,9.415a.319.319,0,0,1-.284.174m-3.424-1.169a11.791,11.791,0,0,1,3.259.47l4.642-9.083a5.217,5.217,0,0,0-2.482-3.421c-2.025-1.092-4.938-.781-8.655.928a7.575,7.575,0,0,0-4.318,6.432,4.341,4.341,0,0,0,2.352,4.176,5.858,5.858,0,0,0,3.682.573c.473-.036.969-.075,1.521-.075" transform="translate(-117.187 -206.334)"/>
        <path id="Trazado_230859" data-name="Trazado 230859" d="M206.365,316.1a.32.32,0,0,1-.293-.191,4.972,4.972,0,0,0-5.975-3.164.319.319,0,0,1-.181-.613,5.689,5.689,0,0,1,6.741,3.52.319.319,0,0,1-.164.421.315.315,0,0,1-.128.027" transform="translate(-135.916 -212.338)"/>
        <path id="Trazado_230860" data-name="Trazado 230860" d="M202.727,325.611a.319.319,0,0,1-.278-.162,5.842,5.842,0,0,0-5.737-2.751.319.319,0,1,1-.1-.631c.042-.007,4.3-.632,6.392,3.067a.319.319,0,0,1-.278.477" transform="translate(-133.64 -219.184)"/>
        <path id="Trazado_230861" data-name="Trazado 230861" d="M199.474,335.476a.318.318,0,0,1-.227-.095c-2.047-2.07-5.488-1.741-5.523-1.737a.319.319,0,0,1-.065-.636c.154-.016,3.783-.362,6.043,1.924a.319.319,0,0,1-.227.544" transform="translate(-131.617 -226.642)"/>
        <path id="Trazado_230862" data-name="Trazado 230862" d="M158.3,313.764a.32.32,0,0,1-.311-.248c-1.485-6.5.059-11.057,1.617-13.738a13.611,13.611,0,0,1,3.805-4.328.319.319,0,0,1,.352.533c-.08.052-7.9,5.386-5.151,17.391a.32.32,0,0,1-.24.383.323.323,0,0,1-.072.008" transform="translate(-107.126 -201.06)"/>
        <path id="Trazado_230863" data-name="Trazado 230863" d="M592.26,246.767l55.62-6.961-11.888,20.057-45.43-3.612Z" transform="translate(-401.963 -163.222)" fill="#fff"/>
        <path id="Trazado_230864" data-name="Trazado 230864" d="M635.312,248.975h-.025l-45.43-3.612a.32.32,0,0,1-.289-.375l1.7-9.484a.319.319,0,0,1,.275-.261l55.62-6.961a.319.319,0,0,1,.315.48l-11.889,20.057a.319.319,0,0,1-.275.156m-45.054-4.222,44.881,3.568L646.593,229l-54.74,6.851Z" transform="translate(-401.282 -155.377)" fill="#4666c9"/>
        <path id="Trazado_230865" data-name="Trazado 230865" d="M557.123,330.123l63.063,13.387-28.66,23.9-41.653-26.8Z" transform="translate(-374.268 -224.696)" fill="#fff"/>
        <path id="Trazado_230866" data-name="Trazado 230866" d="M590.846,356.522a.317.317,0,0,1-.173-.051l-41.654-26.795a.319.319,0,0,1-.09-.45l7.249-10.49a.319.319,0,0,1,.329-.131l63.063,13.386a.319.319,0,0,1,.138.558l-28.659,23.9a.32.32,0,0,1-.2.074m-41.2-27.2,41.179,26.49L618.8,332.48l-62.212-13.206Z" transform="translate(-373.587 -216.852)" fill="#4666c9"/>
        <path id="Trazado_230867" data-name="Trazado 230867" d="M526.977,403.294l21.952,25.974L535.7,432.86l-13.266-25.073Z" transform="translate(-355.591 -274.5)" fill="#fff"/>
        <path id="Trazado_230868" data-name="Trazado 230868" d="M535.018,421.973a.319.319,0,0,1-.282-.17L521.47,396.73a.319.319,0,0,1,.057-.377l4.544-4.492a.323.323,0,0,1,.239-.092.319.319,0,0,1,.23.113l21.952,25.974a.319.319,0,0,1-.16.514L535.1,421.962a.31.31,0,0,1-.083.011m-12.873-25.332,13.035,24.638,12.5-3.393-21.405-25.327Z" transform="translate(-354.91 -266.656)" fill="#4666c9"/>
        <path id="Trazado_230869" data-name="Trazado 230869" d="M481.161,489.372l3.762-14.667,2.491-.137L484.8,485.322l11.468-2.283-2.886,15.346,14.132-1.564-2.784,22.762-4.109-1.059,2.337-16.627-13.778,1.168,3.189-15.684Z" transform="translate(-327.5 -323.012)" fill="#eeac3a"/>
        <path id="Trazado_230870" data-name="Trazado 230870" d="M641.457,530.639l5.768-9.218a23.354,23.354,0,0,0-11.94-3.524,83.172,83.172,0,0,0-19.756,31.568,23.356,23.356,0,0,0,8.389,9.2l5.769-9.218a18.671,18.671,0,0,1-5.725-5.577,32.831,32.831,0,0,1,9.976-15.941,18.675,18.675,0,0,1,7.518,2.711" transform="translate(-418.957 -352.504)" fill="#43a99b"/>
        <path id="Trazado_230871" data-name="Trazado 230871" d="M388.478,522.455l6.61,34.914L422.3,541.48,403.4,514.316Z" transform="translate(-264.416 -350.067)" fill="#fff"/>
        <path id="Trazado_230872" data-name="Trazado 230872" d="M445.838,541.119a.324.324,0,0,1-.1-.018l-22.463-7.765a.319.319,0,0,1-.213-.338l2.229-19.4a.32.32,0,0,1,.635.073l-2.2,19.144,22.221,7.681a.32.32,0,0,1-.1.621" transform="translate(-287.95 -349.386)"/>
        <path id="Trazado_230873" data-name="Trazado 230873" d="M605.756,43.821l60.291-26.868L663.075,66.41,605.4,71.543Z" transform="translate(-412.062 -11.539)" fill="#d8e5f3"/>
        <path id="Trazado_230874" data-name="Trazado 230874" d="M632.678,52.194a.322.322,0,0,1-.1-.016l-26.843-8.734a.32.32,0,0,1,.2-.608l26.65,8.672,33.309-35.455a.319.319,0,1,1,.466.437l-33.448,35.6a.32.32,0,0,1-.233.1" transform="translate(-412.141 -10.859)"/>
        <path id="Trazado_230875" data-name="Trazado 230875" d="M604.719,176.59a.319.319,0,0,1-.028-.637l57.675-5.134a.319.319,0,1,1,.057.636l-57.675,5.134h-.029" transform="translate(-411.382 -116.266)"/>
        <path id="Trazado_230876" data-name="Trazado 230876" d="M557.024,200.832c18.115-5.826,8.841-19.224,0,0" transform="translate(-379.135 -129.895)" fill="#d8e5f3"/>
        <path id="Trazado_230877" data-name="Trazado 230877" d="M560.343,216.774c25.94,6.719,25-16.208,0,0" transform="translate(-381.394 -143.514)" fill="#d8e5f3"/>
        <path id="Trazado_230878" data-name="Trazado 230878" d="M426.241,399.1c-26.165,26.155,1.768,41.1,0,0" transform="translate(-282.464 -271.642)" fill="#d8e5f3"/>
        <path id="Trazado_230879" data-name="Trazado 230879" d="M462.553,401.228c-2.928,22.328,16.1,19.181,0,0" transform="translate(-314.622 -273.094)" fill="#d8e5f3"/>
        <path id="Trazado_230880" data-name="Trazado 230880" d="M409.783,402.468c-20.041,6.006-6.835,15.681,0,0" transform="translate(-271.683 -273.938)" fill="#d8e5f3"/>
      </g>
    </g>
  </g>
</svg>
