<svg xmlns="http://www.w3.org/2000/svg" width="122.885" height="121.557" viewBox="0 0 122.885 121.557">
  <g id="bienestar" transform="translate(-0.268 -0.64)">
    <path id="Trazado_226615" data-name="Trazado 226615" d="M47.262,6.642a1.034,1.034,0,0,1-.517-1.929l6.574-3.8a1.034,1.034,0,1,1,1.034,1.791L47.779,6.5a1.055,1.055,0,0,1-.517.139Z" transform="translate(49.08 0.146)" fill="#f76c82"/>
    <path id="Trazado_226616" data-name="Trazado 226616" d="M59.953,56.059a1.034,1.034,0,0,1-.682-1.809l2.291-2.016-3.309,1.909a1.034,1.034,0,0,1-1.152-1.71l10.949-8.557-12.67,7.316a1.034,1.034,0,1,1-1.092-1.756l5.019-3.344-5.695,3.286a1.034,1.034,0,0,1-1.077-1.764l2.608-1.683-3.129,1.807a1.035,1.035,0,0,1-1.084-1.764l8.433-5.494-9.225,5.329a1.035,1.035,0,0,1-1.075-1.768l3.218-2.051-3.755,2.167a1.034,1.034,0,0,1-1.1-1.751l20.294-13.76L45.767,41.324a1.034,1.034,0,0,1-1.088-1.758L62.234,27.938l-18.886,10.9a1.034,1.034,0,0,1-1.075-1.764l10.861-7L41.412,36.851a1.034,1.034,0,1,1-1.086-1.76l16.4-10.769L39.113,34.494a1.034,1.034,0,0,1-1.094-1.754L57.885,19.419,36.468,31.783a1.034,1.034,0,0,1-1.1-1.751L54.508,17.084,33.8,29.041a1.034,1.034,0,0,1-1.141-1.72L43.7,18.976l-12.24,7.068a1.034,1.034,0,0,1-1.137-1.723L40.9,16.354,29.886,22.713a1.034,1.034,0,0,1-1.127-1.731l7.556-5.509L29.2,19.582a1.034,1.034,0,0,1-1.15-1.714l8.358-6.45-7.173,4.136a1.034,1.034,0,0,1-1.158-1.706L33.4,9.631,30.425,11.35a1.034,1.034,0,0,1-1.2-1.675l3.48-3.036a1.034,1.034,0,0,1-.077-1.83L39.16,1.046a1.034,1.034,0,0,1,1.2,1.675L38.612,4.24l6-3.464a1.034,1.034,0,0,1,1.158,1.706L40.446,6.7l8.307-4.8A1.034,1.034,0,0,1,49.9,3.618L41.538,10.07l10.573-6.1A1.034,1.034,0,0,1,53.238,5.7L45.68,11.205l8.842-5.1a1.034,1.034,0,0,1,1.137,1.72L45.087,15.787,57.167,8.813a1.034,1.034,0,0,1,1.141,1.72L47.262,18.877,78.6.785a1.034,1.034,0,0,1,1.1,1.751L60.563,15.481,83.516,2.226A1.034,1.034,0,0,1,84.608,3.98L64.75,17.307,86.856,4.544A1.034,1.034,0,1,1,87.942,6.3l-16.4,10.763L88.973,7a1.034,1.034,0,0,1,1.075,1.764l-10.863,7L90.353,9.317a1.034,1.034,0,0,1,1.088,1.758L73.89,22.7l17.6-10.162a1.034,1.034,0,0,1,1.1,1.751L72.29,28.06,91.8,16.795a1.034,1.034,0,0,1,1.073,1.768L89.635,20.63l1.82-1.05a1.035,1.035,0,1,1,1.081,1.764L84.114,26.82l5.881-3.4a1.034,1.034,0,0,1,1.077,1.764l-4.483,2.9a1.034,1.034,0,0,1,.62,1.892l-6.857,4.578a1.034,1.034,0,0,1,.62,1.849L69.806,45.125a1.034,1.034,0,0,1,.941,1.778l-6.553,5.765a1.034,1.034,0,0,1-.414,1.34l-3.309,1.911a1.034,1.034,0,0,1-.519.141Z" transform="translate(29.23 0)" fill="#eeac3a"/>
    <path id="Trazado_226617" data-name="Trazado 226617" d="M64.42,100.857a1.034,1.034,0,0,1-.6-1.876l10.153-7.213L59.848,99.926a1.034,1.034,0,0,1-1.1-1.747l13.472-9.268L55.7,98.452a1.034,1.034,0,1,1-1.086-1.76l10.546-6.946L52.311,97.164a1.034,1.034,0,0,1-1.1-1.747l22.164-15.18-34.3,19.8A1.034,1.034,0,0,1,38,98.276L57.091,86.088,31.807,100.679a1.034,1.034,0,0,1-1.071-1.768l22.982-14.57-27,15.59a1.035,1.035,0,0,1-1.065-1.774L43.7,86.907,23.23,98.721a1.034,1.034,0,0,1-1.073-1.766L57.67,74.179,19.061,96.467A1.034,1.034,0,1,1,17.988,94.7L53.227,72.3,15.709,93.961a1.034,1.034,0,1,1-1.055-1.779l.441-.267L14.08,92.5a1.035,1.035,0,0,1-1.055-1.78l.98-.6-1.448.827A1.034,1.034,0,1,1,11.5,89.176L31,77.147,10.852,88.791a1.034,1.034,0,0,1-1.061-1.774L32.1,73.222,9.117,86.487a1.034,1.034,0,1,1-1.061-1.776L30.312,70.955,7.729,84A1.034,1.034,0,0,1,6.66,82.227L44.845,57.986,5.926,80.455a1.034,1.034,0,0,1-1.067-1.77L39.122,57.076,4.625,76.992a1.034,1.034,0,1,1-1.059-1.776L22.973,63.222,3.773,74.305a1.034,1.034,0,0,1-1.057-1.776l7.73-4.729L3.262,71.936A1.034,1.034,0,0,1,2.2,70.165l26.028-16.3L2.553,68.687a1.034,1.034,0,0,1-1.065-1.77L25.866,51.594,2.293,65.211a1.034,1.034,0,0,1-1.079-1.762L33.95,42.179,2.117,60.556A1.034,1.034,0,0,1,1.029,58.8L27.81,41.029,2.462,55.661A1.034,1.034,0,0,1,1.379,53.9l14.454-9.512L3.155,51.718a1.034,1.034,0,0,1-1.092-1.751l14.612-9.8-12.5,7.215A1.034,1.034,0,0,1,3.1,45.62l2.157-1.394a1.034,1.034,0,0,1-1-1.791L18.73,31.746,8.622,37.582A1.034,1.034,0,0,1,7.44,35.9L15.36,29.2a1.034,1.034,0,0,1-.517-1.929l8.939-5.17a1.034,1.034,0,0,1,1.183,1.685l-7.331,6.2,15.972-9.223A1.034,1.034,0,0,1,34.738,22.5L20.262,33.186,39.7,21.965a1.034,1.034,0,0,1,1.079,1.764l-1.991,1.286,3.567-2.068A1.034,1.034,0,0,1,43.45,24.7L28.838,34.5,45.664,24.78a1.034,1.034,0,1,1,1.086,1.76L32.275,36.052,55.547,22.61a1.034,1.034,0,0,1,1.09,1.756L29.866,42.129,66.881,20.782a1.034,1.034,0,0,1,1.079,1.764L35.23,43.812,72.971,22.023A1.034,1.034,0,0,1,74.038,23.8L49.647,39.108,76.656,23.514a1.034,1.034,0,1,1,1.067,1.772L51.715,41.591,79.776,25.385a1.034,1.034,0,1,1,1.057,1.778L73.093,31.9l8.662-5a1.034,1.034,0,0,1,1.061,1.776L63.378,40.69,83.922,28.829a1.034,1.034,0,1,1,1.069,1.77L50.741,52.2,86.414,31.6a1.034,1.034,0,0,1,1.071,1.77L49.3,57.609,88.86,34.767a1.034,1.034,0,0,1,1.059,1.774L67.665,50.3,90.252,37.259a1.034,1.034,0,0,1,1.059,1.774L69.021,52.818,91.644,39.757A1.034,1.034,0,0,1,92.7,41.534L73.178,53.577,92.659,42.332a1.034,1.034,0,0,1,1.053,1.778l-.916.558.608-.352A1.034,1.034,0,1,1,94.458,46.1l-.434.262.093-.052a1.034,1.034,0,0,1,1.071,1.766L59.929,70.488l35.042-20.23a1.034,1.034,0,0,1,1.073,1.766L60.528,74.8,95.637,54.538A1.034,1.034,0,1,1,96.7,56.311L78.676,67.548l17.18-9.926a1.034,1.034,0,0,1,1.069,1.766L73.951,73.956,95.9,61.282a1.034,1.034,0,0,1,1.073,1.766l-19.095,12.2L95.641,65a1.034,1.034,0,0,1,1.1,1.747L74.59,81.917l20.178-11.65a1.034,1.034,0,0,1,1.086,1.758L85.277,78.987l8.592-4.963a1.034,1.034,0,0,1,1.1,1.747L81.5,85.031l10.509-6.065A1.034,1.034,0,0,1,93.128,80.7L82.977,87.912l6.137-3.542a1.034,1.034,0,0,1,1.137,1.723l-5.354,4a1.034,1.034,0,0,1,.649,1.919l-14.2,8.2a1.034,1.034,0,0,1-1.137-1.723l4.812-3.6-10.081,5.819a1.019,1.019,0,0,1-.517.143Z" transform="translate(0.317 21.34)" fill="#43a99b"/>
    <path id="Trazado_226618" data-name="Trazado 226618" d="M12.36,39.356a1.034,1.034,0,0,1-.7-1.795l4.241-3.91-5.8,3.356a1.034,1.034,0,0,1-1.276-1.594l4.713-4.975L12.567,31A1.034,1.034,0,1,1,11.533,29.2l7.124-4.132a1.034,1.034,0,0,1,1.27,1.607l-4.715,4.975,7.728-4.46a1.034,1.034,0,0,1,1.218,1.654l-4.245,3.91,2.808-1.621a1.034,1.034,0,1,1,1.034,1.791l-10.877,6.28a1.021,1.021,0,0,1-.517.147Z" transform="translate(8.848 25.941)" fill="#78ddd5"/>
    <path id="Trazado_226619" data-name="Trazado 226619" d="M9.4,53.286a1.034,1.034,0,0,1-.846-1.627l1.621-2.312L6.81,51.288A1.034,1.034,0,0,1,5.523,49.7L8.8,46.057,6.111,47.612a1.034,1.034,0,0,1-1.253-1.621l2.756-2.8L6.2,44.01A1.034,1.034,0,0,1,4.791,42.6L6.942,38.91A1.034,1.034,0,0,1,6.1,37.03l3.158-1.82a1.034,1.034,0,0,1,1.41,1.417L8.54,40.277l4.684-2.7a1.034,1.034,0,0,1,1.251,1.621l-2.759,2.794,1.685-.972A1.034,1.034,0,0,1,14.688,42.6l-3.276,3.648L13.2,45.215a1.034,1.034,0,0,1,1.371,1.5l-1.621,2.312h.01a1.034,1.034,0,1,1,1.034,1.791l-4.07,2.335a1.034,1.034,0,0,1-.523.139Z" transform="translate(4.584 36.769)" fill="#78ddd5"/>
    <path id="Trazado_226620" data-name="Trazado 226620" d="M25.356,26.623a1.034,1.034,0,0,1-.755-1.741l1.936-2.068-6.264,3.621a1.034,1.034,0,0,1-1.2-1.671l4.109-3.623-7.36,4.249a1.034,1.034,0,0,1-1.166-1.7l4.431-3.561-6.375,3.681a1.034,1.034,0,0,1-1.189-1.681l6.4-5.467-7.9,4.56A1.034,1.034,0,0,1,8.85,19.528L12.159,16.8,8.742,18.769a1.034,1.034,0,0,1-1.448-1.361l.827-1.654a1.034,1.034,0,0,1-1.022-1.8l2.988-1.725a1.034,1.034,0,0,1,1.448,1.361l-.827,1.654L21.948,8.763a1.034,1.034,0,0,1,1.172,1.694l-3.309,2.732,6.812-3.929a1.034,1.034,0,0,1,1.189,1.681L21.41,16.4l8.29-4.785a1.034,1.034,0,0,1,1.164,1.7l-4.429,3.561,4.7-2.713a1.034,1.034,0,0,1,1.2,1.671l-4.109,3.621,3.325-1.919a1.034,1.034,0,0,1,1.274,1.6l-2.455,2.618a1.034,1.034,0,0,1,.372,1.919l-4.868,2.81a1.034,1.034,0,0,1-.517.139Z" transform="translate(6.737 8.53)" fill="#43a99b"/>
    <g id="Grupo_177537" data-name="Grupo 177537" transform="translate(0.268 0.642)">
      <path id="Trazado_226621" data-name="Trazado 226621" d="M27.523,121.753a27.414,27.414,0,0,0,10.809-.261,28.744,28.744,0,0,0,5.831-2,9.541,9.541,0,0,1,9.359-.083,27.561,27.561,0,0,0,21.2,1.127c15.759-5.6,23.555-22.914,23.681-38.69,0-.043-.029-.066-.035-.105s.035-.07.033-.11a46.827,46.827,0,0,0-7.784-26.068,17.7,17.7,0,0,0,5.114-4.293l13.3-13.648c3.168-3.251,6.373-6.466,9.512-9.752a16.229,16.229,0,0,0-.926-23.539A17.275,17.275,0,0,0,94.663,5.939c-1.526,1.52-3.294,3.052-4.686,4.729-.269-.29-.728-.645-.837-.759L85.852,6.537A17.736,17.736,0,0,0,76.66.97a17.784,17.784,0,0,0-13.028,2.5,16.291,16.291,0,0,0-4.218,23.425A139.5,139.5,0,0,0,70.643,38.566l4.891,5.019a28.473,28.473,0,0,0-24.782,3.172.62.62,0,0,0,.1-.281v-9.9a.575.575,0,0,0,0-.438V19.593c0-.79-2.994-.271-2.994.8V31.457a18.507,18.507,0,0,0-7.444-4.835,8.613,8.613,0,0,0-7.153-9.19c-5.641-.966-10.416,2.413-15.658,3.66-2.107.5-5.288.908-4.829,3.848a10.656,10.656,0,0,0,2.384,5.17c2.868,3.4,7.606,4.549,11.857,4.888a15.333,15.333,0,0,0,8.418-1.332A9.326,9.326,0,0,0,39.9,28.932,15.66,15.66,0,0,1,44.24,31.7a14.668,14.668,0,0,1,3.617,5.232v9.326a28.586,28.586,0,0,0-35.545,4.756C1.555,61.859-1.812,78.64,1.474,93.243c2.938,13.052,12.159,26.033,26.049,28.51Zm6.592-88.805a8.863,8.863,0,0,1-5.914.715,15.716,15.716,0,0,1-9.62-3.917,9.887,9.887,0,0,1-2.424-3.983,6.617,6.617,0,0,1-.469-2.254c.025-.414.155-.461.236-.778a.782.782,0,0,1,.13-.287c.525-.13,1.1-.182,1.617-.306,4.181-1,8.307-3.929,12.726-3.553a7.92,7.92,0,0,1,7,7.157c-.775-.167-1.561-.3-2.353-.4a14.405,14.405,0,0,0-1.689-.122,2.18,2.18,0,0,0-1.964.866c-.308.62.267,1.069.864,1.069.4,0,.806.033,1.208.072.451.041.9.1,1.348.17h.114l.414.077q.451.087.893.192c.385.091.761.221,1.144.331a7.581,7.581,0,0,1-3.255,4.946Zm31.357-3.662c-4-4.121-7.031-8.671-6.231-14.769a14.43,14.43,0,0,1,8.685-11.64,13.441,13.441,0,0,1,14.088,3.7c2.531,2.506,5.877,8.356,9.853,5.006,5.058-4.264,8.164-10.4,15.976-9.305,10.85,1.53,15.675,14.858,9.684,23.553a62.4,62.4,0,0,1-7.008,7.48L96.841,47.352l-5.269,5.405c-.341.352-.9,1.2-1.35,1.385-.089.037-.207.314-.312.323.023,0-.341-.414-.653-.765a34.145,34.145,0,0,0-4.9-5.05ZM8.685,59.714A31.655,31.655,0,0,1,23.7,45.318a24.194,24.194,0,0,1,24.246,4.09,2.275,2.275,0,0,0,2.593-.339C60.857,41,74.154,42.5,83.325,51.405,91.586,59.423,95.29,71.032,95.4,82.343c-.134,13.083-5.279,27.422-16.884,34.581a23.009,23.009,0,0,1-20.166,2.084c-3.472-1.288-6.218-3.127-10.091-2.618s-7.128,3.015-11,3.722c-13.567,2.448-25.108-7.934-30.172-19.637a47.52,47.52,0,0,1,1.6-40.762Z" transform="translate(-0.268 -0.641)" fill="#262626"/>
      <path id="Trazado_226622" data-name="Trazado 226622" d="M9.794,38.11a5.583,5.583,0,0,0,4.537.9,7.842,7.842,0,0,0,2.645-1,14.946,14.946,0,0,0,2.033-1.778,11.2,11.2,0,0,1,2.386-1.671,18.673,18.673,0,0,0,2.481-1.2,4.723,4.723,0,0,0,2.068-3.946,4.44,4.44,0,0,0-1.971-3.6,5.745,5.745,0,0,0-4.663-.542,21.874,21.874,0,0,0-9.287,5.618,5.248,5.248,0,0,0-1.931,3.842A4.384,4.384,0,0,0,9.794,38.11Zm2.1-6.489a17.962,17.962,0,0,1,6.53-4.841,4.02,4.02,0,0,1,1.241-.438,2.852,2.852,0,0,1,1.563.565A4.018,4.018,0,0,1,22.941,30.2,3.7,3.7,0,0,1,21.726,33a4.874,4.874,0,0,1-1.338.664,14.762,14.762,0,0,0-2.018,1.077,15.508,15.508,0,0,0-1.729,1.3c-.55.471-1.034,1.048-1.592,1.493a1.654,1.654,0,0,1-.414.25.777.777,0,0,1-.155,0,3.449,3.449,0,0,1-1.555-.519,3.912,3.912,0,0,1-1.032-5.645Z" transform="translate(8.088 25.368)" fill="#262626"/>
      <path id="Trazado_226623" data-name="Trazado 226623" d="M6.217,52.262a5.656,5.656,0,0,0,4.332,1.05,6.274,6.274,0,0,0,4.4-2.715,9.485,9.485,0,0,0,.6-5.459q0-1.573.151-3.141a15.044,15.044,0,0,0,.207-2.637,4.682,4.682,0,0,0-2.033-3.416,6.3,6.3,0,0,0-8.367,1.7A9.655,9.655,0,0,0,4.376,42.56a41.824,41.824,0,0,0,0,5.871,5,5,0,0,0,1.84,3.832ZM7.732,39.168A2.982,2.982,0,0,1,9.24,37.009a2.093,2.093,0,0,1,2.186.414,3.588,3.588,0,0,1,1.489,2.943c-.01.751-.184,1.516-.25,2.275-.081.943-.116,1.888-.12,2.833,0,1.958.755,5.017-1.582,6a.5.5,0,0,1-.093.029c-.058.01-.167.029-.182.029a3.081,3.081,0,0,1-.585-.023,3.056,3.056,0,0,1-1.317-.61,3.77,3.77,0,0,1-1.371-2.651,30.53,30.53,0,0,1,.318-9.076Z" transform="translate(4.01 36.088)" fill="#262626"/>
      <path id="Trazado_226624" data-name="Trazado 226624" d="M36.951,16.859a8.546,8.546,0,0,1-2.374-3.58A7.089,7.089,0,0,1,36.2,6.394c.5-.527-.414-.8-.79-.8a2.75,2.75,0,0,0-1.985.8,7.972,7.972,0,0,0-.017,10.846c1.429,1.5,2.9,2.972,4.343,4.458l1.873,1.923c.684.7,3.515-.393,2.792-1.141Z" transform="translate(32.863 4.647)" fill="#262626"/>
    </g>
  </g>
</svg>
