<svg xmlns="http://www.w3.org/2000/svg" width="123.216" height="122.268" viewBox="0 0 123.216 122.268">
  <g id="redes-sociales" transform="translate(-0.184 -0.39)">
    <path id="Trazado_226656" data-name="Trazado 226656" d="M45.121,122.447a1.034,1.034,0,0,1-.565-1.9l7.633-5-11.7,6.75a1.034,1.034,0,0,1-1.086-1.758l14.428-9.5L34.325,122.3a1.034,1.034,0,0,1-1.094-1.752l24.7-16.594L26.152,122.3a1.034,1.034,0,0,1-1.078-1.762L49.221,104.9,19.237,122.218a1.034,1.034,0,0,1-1.08-1.762l30.234-19.529L15.41,119.957a1.034,1.034,0,0,1-1.059-1.775L20.5,114.4l-6.137,3.562a1.034,1.034,0,0,1-1.072-1.769L42.856,97.366,14.1,113.97a1.034,1.034,0,0,1-1.059-1.775l9.571-5.91L14.092,111.2a1.034,1.034,0,0,1-1.061-1.773L26,101.4l-11.909,6.874a1.034,1.034,0,0,1-1.067-1.769L36.768,91.578l-22.676,13.09a1.034,1.034,0,0,1-1.061-1.773l14.4-8.932-13.334,7.7A1.034,1.034,0,1,1,13.016,99.9L46.463,78.416,14.092,97.105a1.034,1.034,0,1,1-1.055-1.779L15.6,93.759l-1.506.869a1.034,1.034,0,0,1-1.074-1.767l32.39-20.746L14.092,90.194a1.034,1.034,0,1,1-1.065-1.773L34.445,75.007,14.092,86.758a1.034,1.034,0,1,1-1.065-1.773L33.9,71.929,14.092,83.36a1.034,1.034,0,0,1-1.072-1.767l28.96-18.41L14.092,79.3a1.034,1.034,0,0,1-1.057-1.775L19.1,73.8l-5.008,2.9a1.034,1.034,0,0,1-1.057-1.777L18.751,71.4l-4.658,2.689a1.034,1.034,0,1,1-1.055-1.779l2.172-1.33-1.117.643a1.034,1.034,0,0,1-1.057-1.775l7.24-4.452-6.183,3.558a1.034,1.034,0,0,1-1.057-1.775l3.488-2.139-2.431,1.411a1.034,1.034,0,0,1-1.074-1.767L45.148,44.111,14.092,62.041a1.034,1.034,0,0,1-1.072-1.769L43.093,41.126l-29,16.739A1.034,1.034,0,0,1,13.019,56.1L45.681,35.162,14.092,53.4a1.034,1.034,0,0,1-1.059-1.775l12.73-7.879L14.092,50.484a1.034,1.034,0,1,1-1.063-1.775L30.115,38.075,14.092,47.323a1.034,1.034,0,0,1-1.055-1.777l.912-.559a1.034,1.034,0,0,1-.937-1.833L44.8,22.534,14.092,40.263A1.034,1.034,0,0,1,13.019,38.5L34.635,24.639,14.092,36.494a1.034,1.034,0,0,1-1.074-1.767l14.666-9.375L14.092,33.2a1.034,1.034,0,0,1-1.076-1.762L25.176,23.6l-11.083,6.4A1.034,1.034,0,0,1,13,28.239l13.955-9.263L14.092,26.4a1.034,1.034,0,0,1-1.08-1.762l3.413-2.213-2.333,1.347a1.034,1.034,0,0,1-1.123-1.733l13.156-9.515L14.092,19.466a1.034,1.034,0,0,1-1.123-1.733l7.194-5.2-6.071,3.5a1.034,1.034,0,0,1-1.185-1.682l7.259-6.158-6.073,3.517a1.034,1.034,0,0,1-1.185-1.686l2.126-1.8-.941.544a1.034,1.034,0,0,1-1.3-1.574l1.831-2.106a1.018,1.018,0,0,1-.741-.5,1.034,1.034,0,0,1,.376-1.411L18.5.712a1.034,1.034,0,0,1,1.3,1.574L18.422,3.869,23.97.671a1.034,1.034,0,0,1,1.185,1.684l-2.124,1.8L29.067.671a1.034,1.034,0,0,1,1.185,1.682l-7.261,6.16L36.575.671A1.034,1.034,0,0,1,37.7,2.4l-7.184,5.19,12-6.923A1.034,1.034,0,0,1,43.64,2.4L30.484,11.92,49.974.671a1.034,1.034,0,0,1,1.08,1.762L47.628,4.651l6.9-3.98a1.034,1.034,0,0,1,1.088,1.756L41.67,11.686,60.759.671a1.034,1.034,0,0,1,1.076,1.762L49.665,10.275,66.309.671a1.034,1.034,0,0,1,1.076,1.764L52.731,11.8,72.014.671A1.034,1.034,0,0,1,73.09,2.435L51.475,16.295,78.319.8A1.035,1.035,0,0,1,79.4,2.56l-31.8,20.622L82.123,3.255A1.034,1.034,0,0,1,83.18,5.031l-.5.3.35-.207A1.034,1.034,0,1,1,84.1,6.9L67.029,17.532,83.265,8.159a1.034,1.034,0,0,1,1.059,1.773l-12.73,7.881,11.671-6.737a1.034,1.034,0,0,1,1.074,1.764L51.676,33.768,83.265,15.54a1.034,1.034,0,0,1,1.072,1.769L54.274,36.457,83.265,19.716a1.034,1.034,0,0,1,1.074,1.764L52.2,42.057,83.265,24.12A1.034,1.034,0,0,1,84.322,25.9L80.888,28l2.377-1.371a1.034,1.034,0,0,1,1.057,1.777l-7.24,4.449,6.177-3.562a1.034,1.034,0,0,1,1.055,1.777L82.142,32.4l1.117-.643a1.034,1.034,0,0,1,1.057,1.775L78.6,37.049l4.658-2.689a1.034,1.034,0,0,1,1.057,1.775L78.2,39.9l5.06-2.921a1.034,1.034,0,0,1,1.072,1.769L55.37,57.153,83.265,41.037A1.034,1.034,0,1,1,84.33,42.81L63.492,55.842,83.265,44.427A1.034,1.034,0,0,1,84.33,46.2L62.881,59.638,83.265,47.872a1.034,1.034,0,0,1,1.074,1.764L51.949,70.382,83.265,52.3a1.034,1.034,0,0,1,1.055,1.777l-2.505,1.535,1.448-.827a1.034,1.034,0,0,1,1.076,1.764L50.878,78.035,83.265,59.342a1.034,1.034,0,0,1,1.061,1.773L69.97,70.009l13.295-7.674a1.034,1.034,0,0,1,1.067,1.771L60.589,79.041l22.676-13.09a1.034,1.034,0,0,1,1.061,1.775L71.356,75.76l11.909-6.874a1.034,1.034,0,1,1,1.059,1.777l-9.582,5.9,8.52-4.919a1.034,1.034,0,0,1,1.072,1.769L54.779,92.226,83.265,75.781a1.034,1.034,0,0,1,1.057,1.777L78.116,81.37l5.138-2.964a1.034,1.034,0,0,1,1.078,1.762L54.09,99.7,83.257,82.865a1.034,1.034,0,0,1,1.078,1.764l-24.14,15.636L83.265,86.949A1.034,1.034,0,0,1,84.357,88.7L59.663,105.293l23.6-13.628a1.034,1.034,0,0,1,1.086,1.758l-14.437,9.515,13.351-7.714a1.034,1.034,0,0,1,1.082,1.758l-7.629,4.994L83.265,98.2a1.034,1.034,0,0,1,1.111,1.742L71.64,108.888l11.625-6.71a1.034,1.034,0,0,1,1.09,1.756l-1.072.714a1.034,1.034,0,0,1,1.111,1.742l-6.425,4.716,5.3-3.055a1.034,1.034,0,0,1,1.148,1.713l-4.027,3.121,2.879-1.655a1.034,1.034,0,0,1,1.289,1.585L80.535,117.3l2.54-1.465a1.034,1.034,0,1,1,1.034,1.791l-8.1,4.673a1.034,1.034,0,0,1-1.289-1.582l4.009-4.5L68.2,122.3a1.034,1.034,0,0,1-1.15-1.713l4.032-3.124L62.7,122.3a1.034,1.034,0,0,1-1.129-1.729L68,115.855,56.831,122.3a1.034,1.034,0,0,1-1.09-1.754l1.061-.707-4.27,2.462a1.034,1.034,0,0,1-1.111-1.74l12.74-8.955L45.638,122.3A1.034,1.034,0,0,1,45.121,122.447Z" transform="translate(13.182 0.153)" fill="#e4d5ff"/>
    <path id="Trazado_226657" data-name="Trazado 226657" d="M30.086,14.917a1.034,1.034,0,0,1-.621-1.862l2.344-1.744-5.964,3.442a1.034,1.034,0,0,1-1.129-1.729l1.429-1.047L23.31,13.614a1.034,1.034,0,0,1-1.194-1.68l4.629-3.988-4.665,2.689a1.034,1.034,0,0,1-1.357-1.5l3.053-4.251-1.7.978a1.034,1.034,0,0,1-1.5-1.2l.48-1.572a1.034,1.034,0,0,1,0-1.8L22.089.7A1.034,1.034,0,0,1,23.6,1.9l-.263.863L26.913.692a1.034,1.034,0,0,1,1.359,1.5L25.211,6.434,35.185.677a1.034,1.034,0,0,1,1.194,1.678l-4.634,4L41.6.667A1.034,1.034,0,0,1,42.727,2.4L41.31,3.43,46.118.658a1.034,1.034,0,0,1,1.136,1.725L44.9,4.138,50.94.65a1.034,1.034,0,0,1,1.183,1.688L46.453,7.1,57.652.638a1.034,1.034,0,0,1,1.2,1.676L52.725,7.648l5.432-3.136a1.034,1.034,0,0,1,1.212,1.655L57.193,8.153l.964-.554A1.034,1.034,0,0,1,59.5,9.111l-1.318,1.769A1.034,1.034,0,0,1,58.6,12.8l-3.423,1.971a1.034,1.034,0,0,1-1.347-1.512l1.022-1.374-5.01,2.886a1.034,1.034,0,0,1-1.212-1.655l2.18-1.978-6.3,3.632a1.034,1.034,0,0,1-1.2-1.673L49.427,7.77l-12.13,7a1.034,1.034,0,0,1-1.183-1.686l5.674-4.758L30.6,14.772A1.02,1.02,0,0,1,30.086,14.917Z" transform="translate(21.742 0.118)" fill="#e1efff"/>
    <path id="Trazado_226658" data-name="Trazado 226658" d="M41.827,55.459a1.034,1.034,0,0,1-.517-1.93L77.876,32.418a1.034,1.034,0,1,1,1.092,1.756l-5.527,3.7,4.435-2.561a1.034,1.034,0,0,1,1.146,1.715l-11.3,8.7,10.159-5.862a1.034,1.034,0,0,1,1.138,1.723l-4.307,3.221,3.169-1.831a1.034,1.034,0,0,1,1.163,1.7l-2.513,2.009,1.351-.778a1.034,1.034,0,0,1,1.318,1.547l-2.642,3.246.523-.3A1.034,1.034,0,1,1,78.11,52.2l-5.391,3.1a1.034,1.034,0,0,1-1.32-1.547l2.637-3.239L65.74,55.3a1.034,1.034,0,0,1-1.165-1.7l2.517-2.015-6.442,3.723a1.034,1.034,0,0,1-1.138-1.723l4.307-3.219-8.568,4.944A1.034,1.034,0,0,1,54.106,53.6l11.317-8.7L47.369,55.317a1.034,1.034,0,0,1-1.094-1.754l5.529-3.7-9.449,5.455a1.034,1.034,0,0,1-.527.141Z" transform="translate(43.393 34.057)" fill="#eeac3a"/>
    <path id="Trazado_226659" data-name="Trazado 226659" d="M61.152,93.128a1.034,1.034,0,0,1-.55-1.911l12.972-8.142L58.2,91.947a1.034,1.034,0,0,1-1.072-1.769l23.11-14.7L55.292,89.884a1.034,1.034,0,0,1-1.061-1.775L62.821,82.8l-9.633,5.558a1.034,1.034,0,0,1-1.065-1.771L72.748,73.652l-22.175,12.8a1.034,1.034,0,0,1-1.065-1.771L69.795,72.022,48.01,84.6a1.034,1.034,0,0,1-1.067-1.771L75.357,64.938l-30.311,17.5a1.034,1.034,0,1,1-1.076-1.767L81.8,56.512,41.432,79.819a1.034,1.034,0,0,1-1.059-1.777l13.491-8.274L38.7,78.524a1.034,1.034,0,0,1-1.067-1.771L72.347,55,31.6,78.524a1.034,1.034,0,0,1-1.059-1.775L54.7,61.932,25.955,78.524a1.034,1.034,0,0,1-1.063-1.773L68.541,49.564,18.37,78.524a1.034,1.034,0,0,1-1.059-1.775L60.438,50.12l-49.207,28.4a1.034,1.034,0,1,1-1.055-1.779l29.289-17.8L6.176,78.166a1.035,1.035,0,0,1-1.051-1.783l9.021-5.422L3.991,76.823A1.034,1.034,0,0,1,2.93,75.051L51.568,44.86,2.175,73.373A1.034,1.034,0,1,1,1.12,71.594L22.608,58.537,2.088,70.384a1.038,1.038,0,0,1-1.053-1.789L17.874,58.362,2.088,67.484a1.034,1.034,0,0,1-1.067-1.771L43.348,39.029,2.088,62.846a1.034,1.034,0,0,1-1.055-1.777L11.4,54.735,2.088,60.114a1.034,1.034,0,0,1-1.072-1.769L36.338,35.814,2.088,55.588a1.034,1.034,0,1,1-1.055-1.779l.914-.558a1.034,1.034,0,0,1-.927-1.839l19.3-12.157L2.088,49.771A1.034,1.034,0,0,1,1.015,48l20.214-12.92L2.088,46.122a1.034,1.034,0,0,1-1.069-1.769L11.662,37.61,2.088,43.137A1.034,1.034,0,0,1,1,41.379L19.64,29,2.088,39.14a1.034,1.034,0,0,1-1.072-1.767l.989-.621a1.034,1.034,0,0,1-1-1.806l5.161-3.38L2.088,33.926A1.034,1.034,0,0,1,1,32.167l4.793-3.184-3.7,2.139A1.034,1.034,0,0,1,.967,29.387l9.114-6.547L2.088,27.453A1.034,1.034,0,0,1,.977,25.711l2.091-1.467-.981.567A1.034,1.034,0,0,1,.88,23.157l6.365-5.7L2.088,20.424A1.034,1.034,0,0,1,.719,18.949l2.859-4.156-.279.159a1.034,1.034,0,0,1-1.034-1.789L6.5,10.716A1.034,1.034,0,0,1,7.866,12.2l-2.853,4.15,9.834-5.672a1.034,1.034,0,0,1,1.208,1.655l-6.365,5.7,12.757-7.358a1.034,1.034,0,0,1,1.111,1.74l-2.1,1.469,5.562-3.208a1.034,1.034,0,0,1,1.121,1.736L19.04,18.949l14.339-8.274a1.034,1.034,0,0,1,1.09,1.756l-4.8,3.188,8.568-4.944a1.034,1.034,0,0,1,1.082,1.76L34.145,15.8l8.895-5.13a1.034,1.034,0,0,1,1.074,1.767l-.9.573,4.054-2.34a1.034,1.034,0,0,1,1.09,1.756L29.72,24.8,54.189,10.675a1.034,1.034,0,0,1,1.069,1.769L44.616,19.187l14.745-8.512a1.034,1.034,0,0,1,1.074,1.764L40.224,25.362,65.688,10.675a1.034,1.034,0,0,1,1.069,1.769L47.471,24.6,71.584,10.675a1.034,1.034,0,0,1,1.057,1.777l-.559.339,3.672-2.116a1.034,1.034,0,0,1,1.072,1.767L41.507,34.97,83.6,10.675a1.034,1.034,0,0,1,1.055,1.777L74.281,18.78l14.048-8.109A1.034,1.034,0,0,1,89.4,12.439L47.071,39.124,96.359,10.675a1.034,1.034,0,0,1,1.053,1.779L80.58,22.673l20.8-12a1.034,1.034,0,1,1,1.055,1.779L80.963,25.5l25.683-14.823a1.034,1.034,0,0,1,1.063,1.773l-48.661,30.2L114.44,10.675a1.034,1.034,0,0,1,1.051,1.781l-8.94,5.378,11.116-6.413a1.034,1.034,0,1,1,1.055,1.779L89.423,31l30.456-17.583a1.034,1.034,0,0,1,1.059,1.775L77.816,41.819l43.09-24.877a1.034,1.034,0,0,1,1.063,1.773L78.3,45.923l42.612-24.6a1.034,1.034,0,0,1,1.057,1.775L97.836,37.9l23.071-13.319a1.034,1.034,0,1,1,1.065,1.773L87.272,48.1l33.635-19.424a1.034,1.034,0,0,1,1.057,1.777l-13.53,8.3,12.473-7.2a1.034,1.034,0,0,1,1.074,1.769L84.15,57.468l36.756-21.221a1.034,1.034,0,0,1,1.067,1.769L93.56,55.914l27.346-15.789A1.034,1.034,0,0,1,121.97,41.9L101.7,54.549,120.9,43.46a1.034,1.034,0,1,1,1.065,1.773L101.334,58.171l19.573-11.3a1.034,1.034,0,0,1,1.059,1.773l-8.547,5.285,7.484-4.321a1.034,1.034,0,0,1,1.072,1.767L98.852,66.092l22.055-12.734a1.034,1.034,0,1,1,1.065,1.773l-46.2,29.005a1.034,1.034,0,0,1-.511,1.007l-13.59,7.846A1.034,1.034,0,0,1,61.152,93.128Z" transform="translate(0.363 10.835)" fill="#eeac3a"/>
    <path id="Trazado_226660" data-name="Trazado 226660" d="M20.983,23.932A1.034,1.034,0,0,1,20.466,22l5.583-3.221a1.034,1.034,0,1,1,1.034,1.789L21.5,23.793A1.022,1.022,0,0,1,20.983,23.932Z" transform="translate(21.124 19.482)" fill="#a53c50"/>
    <path id="Trazado_226661" data-name="Trazado 226661" d="M27.6,52.711a1.034,1.034,0,0,1-.6-1.876l.064-.043-.511.292a1.034,1.034,0,0,1-1.132-1.725l9.722-7.2L24.028,48.57a1.034,1.034,0,0,1-1.134-1.727l12.428-9.2L21.234,45.79A1.034,1.034,0,0,1,20.1,44.062l13.543-10L18.338,42.9a1.034,1.034,0,0,1-1.125-1.733l12.455-9.027-14.019,8.09a1.034,1.034,0,0,1-1.132-1.727l11.84-8.721L12.949,37.526a1.034,1.034,0,0,1-1.142-1.719l3.064-2.329-3.444,1.988a1.034,1.034,0,0,1-1.2-1.667l6.955-6.162L10.144,31.7a1.034,1.034,0,0,1-1.16-1.707l2.275-1.8-1.125.647a1.034,1.034,0,0,1-1.27-1.6l3.126-3.324a1.02,1.02,0,0,1-1.005-.511,1.034,1.034,0,0,1,.379-1.411l5.461-3.155A1.034,1.034,0,0,1,18.1,20.443l-2.915,3.1L22.5,19.324a1.037,1.037,0,0,1,1.167,1.707l-2.275,1.791,3.626-2.093a1.034,1.034,0,0,1,1.2,1.669l-6.963,6.166,8.717-5.033a1.034,1.034,0,0,1,1.144,1.719l-3.066,2.321L41.41,18.7a1.034,1.034,0,0,1,1.132,1.727L30.7,29.154l15.187-8.769a1.034,1.034,0,0,1,1.125,1.733L34.553,31.148l14-8.08A1.034,1.034,0,0,1,49.681,24.8l-13.553,10,13.921-8.036a1.034,1.034,0,0,1,1.134,1.727l-12.43,9.2,11.09-6.413A1.034,1.034,0,0,1,50.975,33l-9.722,7.194,3.423-1.975a1.034,1.034,0,0,1,1.117,1.738l-5.7,4.063a1.011,1.011,0,0,1,.246.29,1.034,1.034,0,0,1-.376,1.411L28.11,52.562a1.022,1.022,0,0,1-.507.149Z" transform="translate(8.978 19.423)" fill="#fff"/>
    <path id="Trazado_226662" data-name="Trazado 226662" d="M45.6,40.989a1.034,1.034,0,0,1-.691-1.8l4.081-3.668-6.9,3.984a1.034,1.034,0,0,1-1.187-1.684l6.1-5.192-7.734,4.466a1.034,1.034,0,0,1-1.134-1.725l1.905-1.413-2.023,1.169a1.034,1.034,0,0,1-1.154-1.711l4.243-3.31-3.955,2.275a1.034,1.034,0,0,1-1.216-1.655l5.778-5.3-4.344,2.511a1.034,1.034,0,0,1-1.227-1.655l2.586-2.435a1.034,1.034,0,0,1-.13-1.862l5.548-3.206a1.034,1.034,0,0,1,1.227,1.655L44.04,21.689l4.822-2.78a1.034,1.034,0,0,1,1.216,1.655l-5.78,5.3,8.518-4.917a1.034,1.034,0,0,1,1.154,1.709l-4.238,3.31,5.012-2.9a1.034,1.034,0,0,1,1.134,1.725l-1.9,1.409,1.862-1.069a1.034,1.034,0,0,1,1.187,1.684l-6.1,5.192,5.608-3.237a1.034,1.034,0,0,1,1.208,1.655L53.657,34.1l2-1.154a1.034,1.034,0,0,1,1.034,1.789l-10.55,6.094A1.011,1.011,0,0,1,45.6,40.989Z" transform="translate(37.858 19.489)" fill="#fff"/>
    <path id="Trazado_226663" data-name="Trazado 226663" d="M44.646,42.773a1.034,1.034,0,0,1-.741-1.758l5.324-5.453-11.954,6.9a1.034,1.034,0,0,1-1.154-1.709l3.626-2.838L36.1,40.026a1.034,1.034,0,0,1-1.3-1.57l4.168-4.832-.265.151a1.034,1.034,0,1,1-1.034-1.789l5.548-3.2a1.034,1.034,0,0,1,1.3,1.57L40.35,35.182l11.11-6.413a1.034,1.034,0,0,1,1.154,1.709l-3.63,2.842,5.72-3.31a1.034,1.034,0,0,1,1.256,1.618l-5.324,5.453,7.2-4.158a1.034,1.034,0,0,1,1.314,1.551l-2.9,3.517,3.1-1.789a1.034,1.034,0,0,1,1.365,1.487l-.67.96a1.034,1.034,0,0,1,.691,1.913l-3.593,2.069a1.034,1.034,0,0,1-1.365-1.485l.583-.827-4.013,2.311a1.034,1.034,0,0,1-1.316-1.551l2.9-3.517-8.775,5.068A1.014,1.014,0,0,1,44.646,42.773Z" transform="translate(36.723 30.182)" fill="#fff"/>
    <path id="Trazado_226664" data-name="Trazado 226664" d="M.349,82.344a7.432,7.432,0,0,0,7.619,7.331c2.1.048,4.21,0,6.309,0H25.193c0,8.537-.112,17.082,0,25.617.122,9.178,11.621,7.182,17.769,7.182H88.934c4.137,0,8.715-1.558,9.5-6.237a28.878,28.878,0,0,0,.089-4.673V89.686c5.651.027,11.363.271,17-.01a7.923,7.923,0,0,0,7.848-7.583c.064-1.686,0-3.384,0-5.07V28.442A7.447,7.447,0,0,0,115.7,21.2c-.879-.019-1.758,0-2.637,0H98.548V11.066c0-4.067-.116-8.274-4.607-10.018a16.426,16.426,0,0,0-5.96-.54H49.435c-5.442,0-10.963-.265-16.4,0A8.237,8.237,0,0,0,26.19,4.386a10.09,10.09,0,0,0-1.018,5.463V21.193H10.812c-.854,0-1.719-.037-2.573,0A7.931,7.931,0,0,0,.349,28.64c-.217,4.551,0,9.16,0,13.71C.349,55.67-.023,69.039.349,82.344ZM93.4,120.067a5.016,5.016,0,0,1-3.31.716H35.645c-.7,0-1.409.037-2.106,0a5.713,5.713,0,0,1-5.347-5.877c-.354-8.38-.05-16.834-.01-25.237h8.963c.151,0,1.009.083,1.6.081a9.548,9.548,0,0,0,.974.66l9.259,6.729c2.4,1.748,4.758,3.577,7.217,5.248a9.668,9.668,0,0,0,11.274-.225c5.618-3.905,11.079-8.055,16.615-12.078.132-.1.321-.207.5-.316a16.882,16.882,0,0,0,2.038-.1h8.907v24.7A6.264,6.264,0,0,1,93.4,120.067ZM39.16,89.733c.074-.014.13-.031.147-.058A.149.149,0,0,1,39.16,89.733ZM76.94,13.279H50.9c-2.517,0-5.492.285-6.088-3.039a26.015,26.015,0,0,1-.07-4.489V2.765c.792.012,1.587.031,2.371.031H73.337c1.874,0,3.759-.029,5.643-.056V7.274C78.98,8.931,79.485,13.132,76.94,13.279ZM32.795,2.8c2.948-.207,5.949-.157,8.94-.087-.019,2.526-.126,5.08,0,7.6.188,3.506,3.19,4.541,6.179,4.541H75.74a5.92,5.92,0,0,0,6.235-6q0-3.072,0-6.144c2.772-.031,5.542-.029,8.293.1,4.758.207,5.236,4.292,5.236,8.034V21.2H28.217V12.218C28.217,8.461,27.6,3.166,32.795,2.8ZM8.22,23.481c5.827-.325,11.723-.24,17.6-.132a2.044,2.044,0,0,0,1.322.023c3.064.056,6.121.11,9.16.11H84.366c3.968,0,7.945-.046,11.923-.087a2.069,2.069,0,0,0,1.132,0c5.792-.056,11.6-.083,17.376.1a5.331,5.331,0,0,1,5.525,5.171v36.5c0,5.5.06,11,0,16.495-.031,3.039-1.363,5.531-4.735,5.726-2.246.13-4.538,0-6.787,0H86.863a6.46,6.46,0,0,0-3.949.637c-2.482,1.609-4.834,3.517-7.24,5.256l-8.812,6.413c-2.8,2.04-5.548,2.867-8.688.7C52.7,96.611,47.4,92.555,42.019,88.643a5.014,5.014,0,0,0-3.43-1.241c-2.9-.01-5.78,0-8.669,0-6.895,0-13.791.056-20.686,0C2.863,87.35,3.4,81.587,3.4,77.036V33.644c0-4.036-.865-9.846,4.824-10.163Z" transform="translate(0 0)" fill="#262626"/>
    <path id="Trazado_226665" data-name="Trazado 226665" d="M14.6,40.685c3.817,3.792,7.54,7.712,11.464,11.394C31.319,57,36.7,49.706,40.135,46.287l7.689-7.641a13.26,13.26,0,0,0,4.836-9.222A11.2,11.2,0,0,0,39.94,18.589c-4.03.5-6.7,2.923-9.35,5.585a18.9,18.9,0,0,0-5.937-4.758,12.24,12.24,0,0,0-14.273,3.769,11.187,11.187,0,0,0-.325,12.571A30.454,30.454,0,0,0,14.6,40.685Zm6.578-19.891c3.322.738,5.531,3.591,7.821,5.885a1.947,1.947,0,0,0,2.619-.246c2.033-2.033,4.044-4.677,6.9-5.521,5.662-1.676,10.939,3.227,11.1,8.785-.161,5.525-5.291,9.158-8.911,12.755l-6.063,6.026c-.937.931-2.422,3.028-3.876,3.128-1.667.112-3.337-2.189-4.373-3.219q-2.9-2.873-5.792-5.751c-3.225-3.2-8.165-6.785-9.129-11.47-1.191-5.823,3.459-11.758,9.7-10.374Z" transform="translate(8.652 19.335)" fill="#262626"/>
    <path id="Trazado_226666" data-name="Trazado 226666" d="M44.218,53.952h10.91c1.835,0,4.212.453,5.463-1.241,1.415-1.922.352-5.188-.548-7.07a11.17,11.17,0,0,0-6.487-5.817,12.457,12.457,0,0,0,5.608-9.867c0-.041-.01-.066-.01-.1a1.18,1.18,0,0,0,.027-.207A11.346,11.346,0,0,0,46.926,18.462,11.8,11.8,0,0,0,36.558,30.1a11.447,11.447,0,0,0,5.7,9.929,9.838,9.838,0,0,0-7.654,9.089C34.107,55.167,40,53.952,44.218,53.952ZM38.556,29.808c.054-12.093,17.939-11.224,18.671.352C56.365,41.89,38.494,41.574,38.556,29.808ZM36.651,48.619c1.611-6.533,7.79-7.081,13.328-7.087,3.459.277,10.15,3.256,9.309,7.927-.492,2.706-1.448,1.862-3.124,2.019-3.848.356-7.908,0-11.77,0-2.85-.008-8.81,1.44-7.751-2.859Z" transform="translate(36.75 19.272)" fill="#262626"/>
    <path id="Trazado_226667" data-name="Trazado 226667" d="M16.8,8a3.568,3.568,0,0,0,1.1-.147,3.494,3.494,0,0,0,1.034-.414c.159-.112.35-.23.35-.447V4.92c0-.18-.457-.207-.525-.207a4.334,4.334,0,0,0-2.12.567c-.159.112-.35.23-.35.447V7.8C16.271,7.957,16.734,7.983,16.8,8Z" transform="translate(17.201 4.619)" fill="#262626"/>
    <path id="Trazado_226668" data-name="Trazado 226668" d="M42.623,8.444a1.655,1.655,0,0,0,1.016.207,2.251,2.251,0,0,0,1.127-.414l.265-.232a1.011,1.011,0,0,0,.271-.527V5.409a.513.513,0,0,0-.077-.393.571.571,0,0,0-.273-.31A1.655,1.655,0,0,0,43.937,4.5a2.251,2.251,0,0,0-1.127.414l-.265.232a1.011,1.011,0,0,0-.271.527V7.74a.513.513,0,0,0,.077.393A.571.571,0,0,0,42.623,8.444Z" transform="translate(44.964 4.378)" fill="#262626"/>
    <path id="Trazado_226669" data-name="Trazado 226669" d="M53.692,54.729H24.733a3.79,3.79,0,0,0-2.118.563c-.381.3-.507.556.149.556h28.96a3.79,3.79,0,0,0,2.118-.556C54.222,54.981,54.348,54.729,53.692,54.729Z" transform="translate(23.633 58.063)" fill="#262626"/>
  </g>
</svg>
