<svg xmlns="http://www.w3.org/2000/svg" width="60" height="60" viewBox="0 0 60 60">
  <g id="Grupo_177549" data-name="Grupo 177549" transform="translate(-1125 -2931)">
    <rect id="Rectángulo_57546" data-name="Rectángulo 57546" width="60" height="60" transform="translate(1125 2931)" fill="none"/>
    <g id="proposicion" transform="translate(1131.943 2937.576)">
      <path id="Trazado_226601" data-name="Trazado 226601" d="M30.17,46.086a.393.393,0,0,1-.224-.715l4.771-3.32L29.29,45.184a.393.393,0,0,1-.422-.66L35.3,39.989l-7.272,4.2a.393.393,0,0,1-.42-.663l6.972-4.836L26.768,43.2a.393.393,0,1,1-.415-.667l5.733-3.813-6.35,3.666a.393.393,0,0,1-.414-.667l6.656-4.424-7.332,4.234a.393.393,0,0,1-.415-.666l8.492-5.7L23.4,40.539a.393.393,0,1,1-.415-.667l9.42-6.295-10.3,5.944a.393.393,0,0,1-.407-.671l5.505-3.506-6,3.463a.393.393,0,0,1-.4-.672l2.675-1.673L20.447,38.21a.393.393,0,0,1-.4-.672l3.436-2.149-3.815,2.2a.393.393,0,0,1-.4-.674l.323-.2-.593.342a.393.393,0,0,1-.409-.669l9.545-6.151-10.27,5.929a.393.393,0,1,1-.4-.673l3.881-2.434-4.28,2.471a.393.393,0,0,1-.411-.669l7.738-5.014-8.261,4.767a.393.393,0,0,1-.406-.671L19.3,31.665l-3.18,1.84a.393.393,0,0,1-.418-.664l7.932-5.419L16.119,31.76a.393.393,0,0,1-.413-.666l3.927-2.609-3.513,2.028a.393.393,0,0,1-.424-.66l4.907-3.5-4.483,2.588a.393.393,0,0,1-.43-.656l3.477-2.569-3.047,1.758a.393.393,0,0,1-.426-.659l.891-.64-.465.269a.393.393,0,0,1-.442-.646l1.237-.993-.795.459a.393.393,0,0,1-.493-.6l1.083-1.249-.59.341a.393.393,0,0,1-.576-.439l.214-.825a.386.386,0,0,1-.174-.157.393.393,0,0,1,.143-.536l.393-.227a.393.393,0,0,1,.576.438l-.157.6,1.8-1.039a.393.393,0,0,1,.493.6l-1.083,1.249,3.2-1.847a.393.393,0,0,1,.442.646l-1.236.993L23,21.573a.393.393,0,0,1,.426.659l-.893.641,2.255-1.3a.393.393,0,0,1,.43.656l-3.473,2.562,5.587-3.224a.393.393,0,0,1,.424.66l-4.908,3.5,7.2-4.162a.393.393,0,0,1,.414.667l-3.927,2.612,5.681-3.28a.393.393,0,1,1,.419.664l-7.932,5.419,10.537-6.084a.393.393,0,0,1,.406.671l-3.6,2.277,5.117-2.954a.393.393,0,0,1,.41.67l-7.735,5.014,9.849-5.682a.393.393,0,1,1,.4.673l-3.89,2.434L41.6,21.549a.393.393,0,0,1,.408.67l-9.539,6.152,9.909-5.721a.393.393,0,0,1,.4.674l-.373.23a.393.393,0,0,1,.375.688L39.34,26.4l3.039-1.754a.393.393,0,0,1,.4.672l-2.677,1.674,2.277-1.312a.393.393,0,0,1,.407.671l-5.5,3.5,5.1-2.941a.393.393,0,0,1,.414.666l-9.419,6.292,9-5.2a.393.393,0,0,1,.415.665l-8.492,5.7,8.078-4.665a.393.393,0,0,1,.413.666L36.14,35.464l6.246-3.6a.393.393,0,0,1,.414.667l-5.733,3.815,5.32-3.071a.393.393,0,1,1,.421.663l-6.971,4.835,6.551-3.782a.393.393,0,0,1,.423.66l-6.428,4.53,6-3.466a.393.393,0,0,1,.421.662L36.72,41.614a.393.393,0,0,1,.068.711l-6.422,3.707A.387.387,0,0,1,30.17,46.086Z" transform="translate(-3.322 -4.524)" fill="#e4d5ff"/>
      <path id="Trazado_226602" data-name="Trazado 226602" d="M37.288,28.686a.393.393,0,0,1-.22-.718l.992-.67-1.539.888a.393.393,0,0,1-.424-.66L40.061,24.7l-4.267,2.463a.393.393,0,0,1-.416-.664l1.831-1.24-1.942,1.12a.393.393,0,0,1-.429-.657l3.9-2.859-4.207,2.429a.393.393,0,0,1-.438-.649L37.4,22.058l-3.632,2.1a.393.393,0,0,1-.433-.653l1.456-1.1-1.586.915a.393.393,0,0,1-.393-.679l7.039-4.064a.393.393,0,0,1,.433.653l-1.455,1.1,3.042-1.757a.393.393,0,0,1,.438.649l-3.306,2.584,5.6-3.233a.393.393,0,0,1,.429.657L41.13,22.088l5.2-3a.393.393,0,0,1,.416.665l-1.834,1.242,1.862-1.077a.393.393,0,0,1,.424.66L43.235,23.4l4.128-2.387a.393.393,0,0,1,.415.665l-.989.67.982-.565a.393.393,0,0,1,.44.648L46.3,23.948l2-1.154a.393.393,0,0,1,.463.628l-.327.3a.393.393,0,0,1,.32.713l-2.935,1.695a.393.393,0,0,1-.463-.628l.3-.28L42,27.333a.393.393,0,0,1-.439-.648l1.916-1.514-6,3.464A.393.393,0,0,1,37.288,28.686Z" transform="translate(-6.994 -3.885)" fill="#e4d5ff"/>
      <path id="Trazado_226603" data-name="Trazado 226603" d="M24.165,28.694a.393.393,0,0,1-.29-.659l1.146-1.243-2.4,1.384a.393.393,0,0,1-.435-.652l.953-.726-1.728,1A.393.393,0,0,1,21,27.127l1.021-.664-1.713.986a.393.393,0,0,1-.428-.657l5.3-3.868-6.791,3.92a.393.393,0,0,1-.416-.665l1.985-1.341-2.8,1.618a.393.393,0,0,1-.435-.652l4.6-3.517-6.141,3.545a.393.393,0,0,1-.416-.665l.7-.477-1.366.785a.393.393,0,0,1-.43-.656l2.842-2.1L13.25,24.6a.393.393,0,0,1-.436-.651l2.237-1.721-1.653.958a.393.393,0,0,1-.466-.628l1.7-1.6L14.566,21a.393.393,0,0,1-.509-.578l.73-.959-.008-.013a.393.393,0,0,1,.144-.536l.569-.327A.393.393,0,0,1,16,19.16l-.136.178,1.312-.756a.393.393,0,0,1,.466.628l-1.7,1.6L19.8,18.583a.393.393,0,0,1,.436.651L18,20.954l4.109-2.372a.393.393,0,0,1,.43.656l-2.844,2.1,4.783-2.757a.393.393,0,0,1,.416.664l-.7.477,1.978-1.141a.393.393,0,0,1,.435.652l-4.6,3.51,7.225-4.168a.393.393,0,0,1,.416.664l-1.985,1.341,3.475-2.006a.393.393,0,0,1,.428.657l-5.3,3.868,7.84-4.527a.393.393,0,0,1,.411.668l-6,3.916a.32.32,0,0,1,.027.035.393.393,0,0,1-.089.529l-1.374,1.049a.4.4,0,0,1,.278.147.393.393,0,0,1-.018.511L25.7,27.222a.393.393,0,0,1-.024.664l-1.307.754A.387.387,0,0,1,24.165,28.694Z" transform="translate(-2.706 -3.886)" fill="#e4d5ff"/>
      <path id="Trazado_226604" data-name="Trazado 226604" d="M29,22.243a.393.393,0,0,1-.247-.7l3.167-2.573-4.611,2.661a.393.393,0,0,1-.428-.657l1.632-1.191-2.527,1.458a.393.393,0,0,1-.437-.649l2.716-2.115-3.941,2.277a.393.393,0,0,1-.448-.641l3.071-2.559L22.4,20.189a.393.393,0,0,1-.459-.628l2.688-2.438-4.271,2.466a.393.393,0,0,1-.445-.644l.737-.6-1.531.883a.393.393,0,0,1-.518-.564l.431-.62-1.329.767a.393.393,0,0,1-.471-.06l-.442-.433-.26.149a.393.393,0,1,1-.393-.681l.518-.3a.393.393,0,0,1,.471.06l.443.434,2.592-1.492a.393.393,0,0,1,.519.563l-.431.621,4.15-2.4a.393.393,0,0,1,.445.643l-.736.6,3.349-1.936a.393.393,0,0,1,.459.628l-2.7,2.434,5.309-3.063a.393.393,0,0,1,.448.641L27.9,17.787l4.9-2.827a.393.393,0,0,1,.438.649l-2.719,2.118,3.958-2.284a.393.393,0,0,1,.428.657l-1.626,1.187,2.533-1.462a.393.393,0,0,1,.444.644l-3.17,2.575,4.633-2.674a.393.393,0,0,1,.456.634L36.483,18.5l2.876-1.66a.392.392,0,0,1,.576.441l-.266,1,1.571-.907a.393.393,0,1,1,.393.68l-2.392,1.381a.393.393,0,0,1-.576-.441l.269-1-5.426,3.132a.393.393,0,0,1-.456-.634l1.69-1.5-5.542,3.2a.387.387,0,0,1-.2.055Z" transform="translate(-3.409 -3.03)" fill="#e4d5ff"/>
      <path id="Trazado_226605" data-name="Trazado 226605" d="M30.416,16.127a.393.393,0,0,1-.27-.679l.727-.687-1,.579a.393.393,0,0,1-.441-.648l1.33-1.055-1.516.875a.393.393,0,0,1-.438-.649l4.032-3.154-4.5,2.6a.393.393,0,0,1-.425-.66L31.633,10,27.6,12.329a.393.393,0,0,1-.415-.666l1.144-.768-1.264.728a.393.393,0,0,1-.423-.66l3.8-2.694-4.119,2.378a.393.393,0,0,1-.416-.665l1.871-1.267L25.747,9.885a.393.393,0,0,1-.414-.667l.5-.33-.583.337a.393.393,0,0,1-.43-.656L29.9,4.81,24.338,8.021a.393.393,0,0,1-.42-.661l2.034-1.414-2.217,1.28a.393.393,0,0,1-.444-.645L26.8,3.719,23.206,5.8a.393.393,0,0,1-.459-.628l2.264-2.042-.371.208a.393.393,0,0,1-.485-.605l.86-.932a.33.33,0,0,1-.052-.07.393.393,0,0,1,.143-.536l1.056-.6a.393.393,0,0,1,.485.605l-.163.177L27.841.584a.393.393,0,0,1,.459.628L26.038,3.256,30.665.586a.393.393,0,0,1,.444.644L27.594,4.091l6.074-3.5a.393.393,0,0,1,.42.661L32.053,2.661l3.456-2a.393.393,0,0,1,.43.656L30.859,5.077l5.576-3.22a.393.393,0,0,1,.413.667l-.507.336.509-.294a.393.393,0,0,1,.417.665L35.4,4.5,37.33,3.383a.393.393,0,0,1,.423.658l-3.8,2.7,3.994-2.306a.393.393,0,0,1,.415.666l-1.143.768,1.148-.663a.393.393,0,0,1,.424.66L35.075,8.511l2.216-1.28a.393.393,0,0,1,.437.649L33.7,11.034l1.277-.737a.393.393,0,0,1,.44.647L33.63,12.358a.393.393,0,0,1,.212.674l-1.571,1.483a.4.4,0,0,1,.079.1.393.393,0,0,1-.144.536l-1.59.926A.385.385,0,0,1,30.416,16.127Z" transform="translate(-4.845 -0.024)" fill="#eeac3a"/>
      <path id="Trazado_226606" data-name="Trazado 226606" d="M32.922,17.317a.393.393,0,0,1-.285-.661l1.111-1.178-.628.363a.393.393,0,0,1-.456-.633l2.127-1.885-1.672.964a.393.393,0,0,1-.441-.646l3.03-2.415-2.592,1.492a.393.393,0,0,1-.448-.642l3.063-2.551-2.613,1.512a.393.393,0,0,1-.449-.64l1.1-.927-.653.377a.393.393,0,0,1-.471-.62l.453-.448a.383.383,0,0,1-.415-.038.393.393,0,0,1-.143-.411l.217-.832a.382.382,0,0,1-.176-.161.393.393,0,0,1,.143-.536l.393-.228a.393.393,0,0,1,.577.438l-.157.609L35.36,6.567a.393.393,0,0,1,.471.62l-.452.444,1.853-1.069a.394.394,0,1,1,.456.642l-1.107.926L39.307,6.56a.393.393,0,0,1,.448.642L36.692,9.752l3.171-1.831a.393.393,0,0,1,.441.646l-3.033,2.416.488-.281a.393.393,0,0,1,.456.633L35.882,13.4a.393.393,0,0,1,.277.662l-1.893,2.006a.378.378,0,0,1,.038.055.393.393,0,0,1-.144.536l-1.042.6a.384.384,0,0,1-.2.053Z" transform="translate(-6.971 -1.302)" fill="#eeac3a"/>
      <path id="Trazado_226607" data-name="Trazado 226607" d="M36.714,5.981a.393.393,0,0,1-.274-.675l.514-.5-1.94,1.118a.393.393,0,0,1-.471-.619L36.33,3.542,34.664,4.5a.393.393,0,0,1-.48-.611l2.266-2.371a.393.393,0,0,1,.161-.5l.754-.433a.393.393,0,0,1,.48.612l-1.2,1.258,1.944-1.122a.393.393,0,0,1,.471.619L37.27,3.718,39.3,2.549a.393.393,0,0,1,.471.621l-.516.5.526-.3a.393.393,0,0,1,.5.585l-.2.254.144-.079a.393.393,0,0,1,.583.408l-.055.314a.393.393,0,0,1,.307.716l-.642.37a.393.393,0,0,1-.583-.408l.053-.3-1.221.707a.393.393,0,0,1-.5-.585l.2-.254-1.457.827A.387.387,0,0,1,36.714,5.981Z" transform="translate(-7.304 -0.023)" fill="#eeac3a"/>
      <path id="Trazado_226608" data-name="Trazado 226608" d="M24.349,6a.393.393,0,0,1-.266-.682l1.065-.981-1.521.877a.393.393,0,0,1-.459-.628l1.36-1.228a.393.393,0,0,1-.261-.657l.839-.9a.385.385,0,0,1-.049-.068A.393.393,0,0,1,25.2,1.2L26.256.586a.393.393,0,0,1,.484.606l-.127.138.5-.287a.393.393,0,0,1,.459.628L26.442,2.693l1.379-.8a.393.393,0,0,1,.463.628L27.218,3.5l1.312-.757a.393.393,0,0,1,.525.555l-.746,1.133,1.1-.635a.393.393,0,0,1,.527.55l-.061.1.05-.029a.393.393,0,0,1,.565.208l.15.419a.4.4,0,0,1,.386.194.393.393,0,0,1-.144.537l-.267.157a.386.386,0,0,1-.332.027.393.393,0,0,1-.236-.236l-.139-.388-1.044.6a.393.393,0,0,1-.527-.55l.061-.1-1.132.654a.393.393,0,0,1-.525-.555l.746-1.133-2.942,1.7A.393.393,0,0,1,24.349,6Z" transform="translate(-4.936 -0.024)" fill="#eeac3a"/>
      <path id="Trazado_226609" data-name="Trazado 226609" d="M50.193,40.165a.393.393,0,0,1-.2-.732l4.934-2.85a.393.393,0,1,1,.393.679l-4.937,2.85a.388.388,0,0,1-.193.053Z" transform="translate(-10.68 -7.75)" fill="#eabea3"/>
      <path id="Trazado_226610" data-name="Trazado 226610" d="M28.3,43.97a.393.393,0,0,1-.2-.733l8.119-4.688a.393.393,0,0,1,.444.646l-1.925,1.56,3.318-1.915a.393.393,0,0,1,.455.635l-2,1.751,3.5-2.023a.393.393,0,0,1,.433.653l-.229.173.55-.318a.393.393,0,0,1,.477.613l-1.455,1.5,1.537-.89a.393.393,0,0,1,.5.589l-.635.771a.393.393,0,0,1,.162.731l-1.513.877a.393.393,0,0,1-.5-.589l.5-.613L37.74,43.918a.393.393,0,0,1-.478-.613l1.457-1.5L35.06,43.918a.393.393,0,0,1-.433-.653l.225-.17-1.426.823a.393.393,0,0,1-.455-.635l2-1.75-4.133,2.386a.393.393,0,0,1-.444-.645l1.925-1.561L28.5,43.918A.393.393,0,0,1,28.3,43.97Z" transform="translate(-5.98 -8.174)" fill="#f6f0ff"/>
      <path id="Trazado_226611" data-name="Trazado 226611" d="M26.327,54.326a.393.393,0,0,1-.225-.714l4.947-3.467-6.434,3.711a.393.393,0,0,1-.405-.672l1.819-1.139L23.509,53.5a.393.393,0,0,1-.412-.668l11.4-7.468-12.98,7.494a.393.393,0,0,1-.407-.671l8.617-5.471-9.769,5.64a.393.393,0,0,1-.444-.644l3.03-2.46-4.377,2.527a.393.393,0,0,1-.437-.649l3.033-2.356-4.275,2.467a.393.393,0,0,1-.422-.66l1.343-.949-2.12,1.223a.393.393,0,0,1-.43-.656l3.014-2.23-4.131,2.382a.393.393,0,0,1-.419-.664l.891-.609-1.585.915a.393.393,0,0,1-.419-.663l8.34-5.69-9.9,5.715a.393.393,0,0,1-.409-.67l4.024-2.6L9.315,48.942a.393.393,0,0,1-.418-.664l7.786-5.32L6.547,48.809a.393.393,0,0,1-.416-.664l7.834-5.316L3.632,48.8a.393.393,0,0,1-.407-.671l3.259-2.079L2,48.635a.393.393,0,0,1-.409-.67l5.251-3.4L1.227,47.8a.393.393,0,0,1-.407-.668l4.9-3.193L1.119,46.6a.393.393,0,0,1-.41-.668l3.184-2.069-2.774,1.6a.393.393,0,0,1-.408-.671l.338-.217A.393.393,0,0,1,.667,43.9l2.774-2.373L1.119,42.87a.393.393,0,0,1-.471-.62l1.328-1.3-.857.494a.392.392,0,0,1-.51-.575l.5-.662a.393.393,0,0,1-.153-.73l1.3-.748a.393.393,0,0,1,.51.575l-.379.507,1.878-1.085a.393.393,0,0,1,.471.62L3.4,40.646l3.331-1.923a.393.393,0,0,1,.452.638L4.411,41.732l10.643-6.148a.393.393,0,1,1,.408.671l-.2.129,1.178-.679a.393.393,0,0,1,.411.668l-3.184,2.069,4.319-2.493a.393.393,0,0,1,.41.669l-4.9,3.192,6.216-3.588a.393.393,0,1,1,.41.67L14.862,40.3l6.581-3.8a.393.393,0,0,1,.408.671L18.593,39.25l4.349-2.513a.393.393,0,0,1,.417.665l-7.835,5.317L25.25,37.1a.393.393,0,0,1,.418.664l-7.786,5.32L27.6,37.478a.393.393,0,0,1,.409.669l-4.022,2.6,5.223-3.016a.393.393,0,0,1,.418.664L21.29,44.081l1.414-.818a.393.393,0,1,1,.419.664l-.9.614,1.231-.707a.393.393,0,0,1,.43.656l-3.006,2.225L24.5,44.624a.393.393,0,0,1,.422.66l-1.345.949,1.728-1a.393.393,0,0,1,.437.649l-3.034,2.361,3.726-2.152a.393.393,0,0,1,.444.645L23.849,49.2,45.485,36.708a.393.393,0,0,1,.407.671l-8.607,5.465,8.885-5.13a.393.393,0,0,1,.412.668l-11.4,7.471,8.681-5.008a.393.393,0,0,1,.405.672l-5.52,3.467a.393.393,0,0,1,.064.68l-8.225,5.761.022.035a.393.393,0,0,1-.144.536l-3.938,2.277a.387.387,0,0,1-.2.051Z" transform="translate(-0.101 -7.536)" fill="#f6f0ff"/>
      <path id="Trazado_226612" data-name="Trazado 226612" d="M.219,38.594c-.241,4.869,6.033,1.893,8.836,3l14.412,4.644c4.366,2.233,7.545-2.67,10.916-4.712,3.873-3.023,7.9-5.869,11.741-8.933a2.209,2.209,0,0,0-1.293-3.873c-1.928.049-3.335,1.706-4.982,2.539V21.891c4.454-1.033,1.117-4.615,0-7.029-3.22-1.085-6.646-1.9-9.932-2.89C31.2,9.8,33.744,7.917,34.3,5.49a.105.105,0,0,0-.038-.157C33.166,3.762,32.592.784,30.448.484c-3.264.188-6.71-.393-9.888.258-5.16,6.451-2.486,5.631,1.37,11.378-3.243,1.011-6.738,1.764-9.88,2.891-1.178,2.386-4.526,6.094-.041,6.961v7.175C5.4,34.473-1.058,25.614.219,38.594Zm38.486-7.687v1.075l-2.581,1.634C36.23,29.28,29.371,30.67,26.5,29.6v-8.78c.616.935,1.233,1.868,1.863,2.794,2.157,2.743,7.428-1.095,10.346-1.408Zm.869-9.534a.889.889,0,0,0-.8.236c-8.425,1.9-7.359,5.412-12.156-2.635,4.062-1.216,8.133-2.4,12.2-3.6C39.541,17.132,42.8,20.577,39.574,21.373ZM26.5,6.8V5.9h6.645c-1.839,3.165-4.52,6-6.644,9.046Zm4.286-5.237c.833,1.232,1.4,2.382,2.208,3.718h-6.33l3.363-4.036a.958.958,0,0,1,.758.318Zm-1.742-.294-3.01,3.612L22.984,1.218C25.015,1.246,27.021,1.282,29.045,1.269Zm-8.395.843c.251-.466.4-.885.972-.85l3.35,4.02H18.794C19.389,4.212,20.041,3.174,20.65,2.112Zm-1,5.126a5.712,5.712,0,0,1-.937-1.345h6.639v8.891C23.431,12.286,21.567,9.743,19.652,7.237Zm4.613,7.971c1.978,2.818,3.966-1.128,5.191-2.63l8.8,2.512c-4.091,1.186-8.061,2.434-12.183,3.523q-6.235-1.826-12.469-3.67l8.6-2.454ZM10.836,19.387a39.4,39.4,0,0,1,2.028-3.918c4.135,1.224,8.272,2.425,12.4,3.672-4.757,7.824-3.186,4.343-12.139,2.4-1.027-.34-2.639-.788-2.292-2.15Zm2.31,3.13v-.2c5.733,1.231,8.823,5.309,12.213-1.681v8.788c-4.005-.191-8.341-2.469-12.213-.906ZM1.4,32.783c.755-1.74,4.357-.471,5.968-.838,3.8-.175,6.578-4.351,10.6-2.759,5.162.822,10.328,1.63,15.488,2.454,1.366.271,2.216,2.042.938,3.036-4.03.973-8.638-.218-12.737.459-5.114-.241-5.744.864-.134.589,4.778,3.382,4.816,5.935,10.359,1.63l10.946-6.93c.605-.383,1.328-1.055,2.1-.728a1.527,1.527,0,0,1-.1,2.749C22.5,47.888,33.591,48.413,9.7,40.787,1.033,39.506,1.026,43.462,1.4,32.783Zm31.068,3.15c-5.116,3.148-4.059,4.011-8.995-.06,3.008-.042,5.98.065,8.995.06Z" transform="translate(0 0)" fill="#262626"/>
    </g>
  </g>
</svg>
