<svg id="Grupo_177315" data-name="Grupo 177315" xmlns="http://www.w3.org/2000/svg" xmlns:xlink="http://www.w3.org/1999/xlink" width="377.82" height="270.524" viewBox="0 0 377.82 270.524">
  <defs>
    <clipPath id="clip-path">
      <rect id="Rectángulo_57424" data-name="Rectángulo 57424" width="377.82" height="270.524" fill="none"/>
    </clipPath>
  </defs>
  <g id="Grupo_177314" data-name="Grupo 177314" clip-path="url(#clip-path)">
    <path id="Trazado_226208" data-name="Trazado 226208" d="M424.255,855.388c0,4.815-75.294,8.718-168.174,8.718s-168.174-3.9-168.174-8.718,75.294-8.718,168.174-8.718,168.174,3.9,168.174,8.718" transform="translate(-61.63 -593.582)" fill="#d1e7f4"/>
    <path id="Trazado_226209" data-name="Trazado 226209" d="M498.555,92.726c-1.262.255-2.729,1.652-2.457,3.169l11.741,63.266a1.982,1.982,0,0,0,2.3,1.6l100.188-17.952a1.983,1.983,0,0,0,1.6-2.3l-11.882-63.3c-.271-1.511-1.569-2.317-3.307-2.118Z" transform="translate(-347.781 -52.627)" fill="#a7c4e4"/>
    <path id="Trazado_226210" data-name="Trazado 226210" d="M563.507,143.314,513.763,124.4a1.868,1.868,0,0,0-2.5,2.076l9.235,51.539a1.868,1.868,0,0,0,2.168,1.509l94.411-16.917a1.868,1.868,0,0,0,1.509-2.168l-9.24-51.567a1.868,1.868,0,0,0-3.057-1.087l-40.9,35.2a1.868,1.868,0,0,1-1.883.33" transform="translate(-358.412 -75.248)" fill="#d1e7f4"/>
    <path id="Trazado_226211" data-name="Trazado 226211" d="M513.725,105.317l50.708,19.789a1.647,1.647,0,0,0,1.683-.3l41.447-36.3a1.646,1.646,0,0,0-1.375-2.859l-92.155,16.513a1.646,1.646,0,0,0-.308,3.155" transform="translate(-359.427 -60.027)" fill="#d64377"/>
    <path id="Trazado_226213" data-name="Trazado 226213" d="M778.124,285.365l-19.916,8.366a5.622,5.622,0,0,1-7.339-3l-31.194-75.219,26.89-5.276c4.2-.2,6.145.155,7.339,3l27.217,64.79a5.622,5.622,0,0,1-3,7.339" transform="translate(-504.549 -147.361)" fill="#2c4482"/>
    <path id="Trazado_226214" data-name="Trazado 226214" d="M251.842,530.008H49.345L0,394.824H202.5Z" transform="translate(0 -276.803)" fill="#45446c"/>
    <path id="Trazado_226215" data-name="Trazado 226215" d="M201.71,395.95l48.524,132.934H50.132L1.608,395.95Zm.787-1.125H0L49.345,530.009h202.5Z" transform="translate(0 -276.803)" fill="#45446c"/>
    <path id="Trazado_226216" data-name="Trazado 226216" d="M271.017,543.615H85.653L39.4,417.9H224.766Z" transform="translate(-27.623 -292.981)" fill="#60c0fd"/>
    <path id="Trazado_226217" data-name="Trazado 226217" d="M160.573,515.466a377.094,377.094,0,0,1-59.422-44.746c-17.822-16.346-34.137-34.244-49.6-52.82H39.4L85.654,543.615h131.16a408.153,408.153,0,0,1-56.241-28.149" transform="translate(-27.624 -292.981)" fill="#39abea"/>
    <path id="Trazado_226218" data-name="Trazado 226218" d="M452.883,847.3H157.2a3.074,3.074,0,0,1-3.074-3.074v-3.843a3.074,3.074,0,0,1,3.074-3.074H452.883a2.567,2.567,0,0,1,2.567,2.567v4.857a2.567,2.567,0,0,1-2.567,2.567" transform="translate(-108.054 -587.017)" fill="#52517b"/>
    <path id="Trazado_226219" data-name="Trazado 226219" d="M251.084,847.3H157.2a3.074,3.074,0,0,1-3.074-3.074v-3.843a3.074,3.074,0,0,1,3.074-3.074h93.883a2.523,2.523,0,0,1,2.523,2.523v4.946a2.523,2.523,0,0,1-2.523,2.523" transform="translate(-108.055 -587.017)" fill="#292951"/>
    <path id="Trazado_226220" data-name="Trazado 226220" d="M381.336,851.13H370.913a2.146,2.146,0,0,1,0-4.292h10.423a2.146,2.146,0,0,1,0,4.292" transform="translate(-258.535 -593.7)" fill="#52517b"/>
    <path id="Trazado_226221" data-name="Trazado 226221" d="M440.746,848.984a2.146,2.146,0,1,1-2.146-2.146,2.146,2.146,0,0,1,2.146,2.146" transform="translate(-305.988 -593.7)" fill="#52517b"/>
    <path id="Trazado_226222" data-name="Trazado 226222" d="M462.283,848.984a2.146,2.146,0,1,1-2.146-2.146,2.146,2.146,0,0,1,2.146,2.146" transform="translate(-321.088 -593.7)" fill="#52517b"/>
    <path id="Trazado_226223" data-name="Trazado 226223" d="M807.2,852.574H758.453a1.073,1.073,0,0,1,0-2.146H807.2a1.073,1.073,0,0,1,0,2.146" transform="translate(-530.983 -596.217)" fill="#a7c4e4"/>
    <path id="Trazado_226224" data-name="Trazado 226224" d="M334.05,689.652H316.341a14.478,14.478,0,0,1-14.436-14.436v-6.059a14.478,14.478,0,0,1,14.436-14.436H334.05a14.478,14.478,0,0,1,14.436,14.436v6.059a14.478,14.478,0,0,1-14.436,14.436" transform="translate(-211.659 -459.011)" fill="#d64377"/>
    <path id="Trazado_226225" data-name="Trazado 226225" d="M363.1,681.093l11.393,7.869a1.33,1.33,0,0,1,.056,2.149l-11.393,8.771a1.331,1.331,0,0,1-2.142-1.054V682.188a1.331,1.331,0,0,1,2.087-1.095" transform="translate(-253.1 -477.333)" fill="#f2f2f2"/>
    <path id="Trazado_226226" data-name="Trazado 226226" d="M286.262,553.978a.2.2,0,0,0-.129.162.054.054,0,0,0,0,.028c.009.019.033.024.053.03.109.034.163.15.2.253l.064.161a.331.331,0,0,0,.043.084.325.325,0,0,0,.19.094.207.207,0,0,0,.175-.016c.06-.05.042-.143.017-.217a.9.9,0,0,0-.252-.448c-.087-.07-.254-.173-.37-.131" transform="translate(-200.602 -388.375)" fill="#fed4c6"/>
    <path id="Trazado_226227" data-name="Trazado 226227" d="M266.722,552.33a.936.936,0,0,1-.146-.419c0-.08.018-.16.024-.241a1.492,1.492,0,0,0-.187-.753,9.92,9.92,0,0,0-.523-.977.786.786,0,0,0-.316-.33.349.349,0,0,0-.446.153c-.2-.212-.488-.05-.6.13-.078-.1-.15-.128-.35-.02a.508.508,0,0,0-.194.258.351.351,0,0,0-.439.139,1.178,1.178,0,0,0-.119.651,3.207,3.207,0,0,0,.2.755,2.9,2.9,0,0,0,.153.363c.052.1.1.233.2.276a3.422,3.422,0,0,0,.338.058.973.973,0,0,1,.418.218c.2.272.323.438.323.438s1.481,5.908,1.108,7.931a.556.556,0,0,1,.051.109c-3.784-1.512-10.272-5.169-10.272-5.169s-2.427.03-2.671,1.871,2.715,3.436,2.715,3.436,5.954,3.772,10.608,4.721c.117-.017.235-.032.352-.054a4.481,4.481,0,0,0,2.159-.917,2.134,2.134,0,0,0,.72-1.545c1.2-3.376-1.986-9-3.1-11.081" transform="translate(-177.552 -385.297)" fill="#ffaa81"/>
    <path id="Trazado_226228" data-name="Trazado 226228" d="M235.908,694.785c-.075,0-.15-.008-.225-.009a2.984,2.984,0,0,1-1.112-.141,3.653,3.653,0,0,1-.335-.16c.745-6.552,1.892-21.628-.668-26.986a142.858,142.858,0,0,1-8.214-21.455l10.293-2.3c.233,11.371,7.286,21.488,7.023,26.482-.214,4.044-3.626,17.829-5.284,24.339-.5.094-.99.182-1.478.232" transform="translate(-157.991 -451.307)" fill="#492817"/>
    <path id="Trazado_226229" data-name="Trazado 226229" d="M208.793,693.359a4.621,4.621,0,0,1-2.718-.837c.3-1.766.612-3.288.795-3.915q.385-1.317.74-2.642.177-.663.346-1.328a4.149,4.149,0,0,0,.308-1.255,47.033,47.033,0,0,0,1.588-11.065,10.867,10.867,0,0,0-.784-4.547,70.482,70.482,0,0,1-6.446-23.561l10.8-.956c.357,2.682,4.275,22.591,3.155,27.532a71.139,71.139,0,0,1-3.352,11.651q-1.491,3.618-3.043,7.211c-.541,1.258-1,2.477-1.391,3.711" transform="translate(-142.054 -450.972)" fill="#915151"/>
    <path id="Trazado_226230" data-name="Trazado 226230" d="M212.154,812.374c.148-1.356.369-2.866.6-4.234a8.966,8.966,0,0,0,2.723.812,32.651,32.651,0,0,0-.951,3.767c-.792-.112-1.583-.228-2.373-.345" transform="translate(-148.737 -566.57)" fill="#ffaa81"/>
    <path id="Trazado_226231" data-name="Trazado 226231" d="M249.189,564.26a4.668,4.668,0,0,0,.3-2.475s5.082,3,7.755,4.943a4.853,4.853,0,0,1-.393,2.7,5.187,5.187,0,0,1-1.359,1.9,49.083,49.083,0,0,0-4.467-2.769s-2.368-2.517-1.835-4.3" transform="translate(-174.646 -393.855)" fill="#5985fe"/>
    <path id="Trazado_226232" data-name="Trazado 226232" d="M204.224,572.816c1.99-8.55.085-9.679,2.451-10.97,2.8-1.237,7.112-1.951,10-1.035.761.242,3.722,6.214,3.019,10.244-.834,4.776.162,15.526.162,15.526-7.2,4.008-17.549.348-17.549.348a69.255,69.255,0,0,1,1.919-14.114" transform="translate(-141.832 -392.882)" fill="#5985fe"/>
    <path id="Trazado_226233" data-name="Trazado 226233" d="M207.884,579.084c.032-2.2.288-4.392.288-6.6,0-.572-.012-1.146-.048-1.717-.017-.262-.039-.525-.067-.787-.013-.066-.032-.154-.058-.259-.049-.2-.121-.41-.159-.615-.019,0-.034-.036-.045-.078a3.266,3.266,0,0,1-1.457-3.105c-1.838,1.227-.23,2.666-2.115,10.767a69.264,69.264,0,0,0-1.919,14.114,31.052,31.052,0,0,0,10.162,1.512,20.031,20.031,0,0,1-4.583-13.236" transform="translate(-141.832 -396.759)" fill="#2f6bf2"/>
    <path id="Trazado_226234" data-name="Trazado 226234" d="M255.8,817.431c-.882-.059-1.765-.1-2.648-.14.1-.548.192-.959.192-.959.084-.462.166-1.466.379-2.848a9.636,9.636,0,0,0,3.161.038c-.544,2.135-.949,3.494-.949,3.494Z" transform="translate(-177.482 -570.317)" fill="#ffaa81"/>
    <path id="Trazado_226235" data-name="Trazado 226235" d="M252.786,822.133a8.464,8.464,0,0,0,2.79.084c-.142.547-.567,1.85-.567,1.85a30.659,30.659,0,0,1,5.781.989c2.934.825,5.109,2.019-.832,1.858s-7.665-.317-7.672-1.393a19.428,19.428,0,0,1,.451-3.127c.013-.073.03-.164.048-.263" transform="translate(-176.873 -576.38)" fill="#2c4482"/>
    <path id="Trazado_226236" data-name="Trazado 226236" d="M214.36,818.467c-.15.652-.286,1.315-.4,2,0,0,3.362,2.1,3.7,2.856s-.137.729-1.981.656a14.173,14.173,0,0,1-4.045-.991,19.789,19.789,0,0,1,.252-4.942,8.321,8.321,0,0,0,2.472.419" transform="translate(-148.317 -573.516)" fill="#2c4482"/>
    <path id="Trazado_226237" data-name="Trazado 226237" d="M198.317,611.221c-.032-.045-.064-.089-.1-.132-.293-.387-.568-.8-.847-1.2-.715-1.023-1.388-2.076-2.005-3.16-1.19-2.093-2.526-4.63-2.413-7.115.018-.4,2.062-9.573,3.033-11.6a9.807,9.807,0,0,0,3.683,1.475c-.93,2.976-2.559,10.5-2.172,13.711a17.415,17.415,0,0,0,1.245,4.177c.471,1.209,1.056,3.656,2.644,3.712.171.006.349-.057.515-.037a.785.785,0,0,1,.4.268,3.511,3.511,0,0,1,.369.4,3.678,3.678,0,0,1,.59.885.969.969,0,0,1-.006.8c-.227.338-.693.142-.689.169.014.107-.168.262-.223.285-.265.11-.376.079-.515-.03a.52.52,0,0,1-.751.117.367.367,0,0,1-.482.13,1.242,1.242,0,0,1-.43-.314q-.405-.414-.772-.863c-.4-.49-.7-1.128-1.078-1.669" transform="translate(-135.272 -412.241)" fill="#ffaa81"/>
    <path id="Trazado_226238" data-name="Trazado 226238" d="M201.239,568.337c1.284-2.4,3.457-3.572,4.154-2.906.27.158.27.382.27.65-.178,3.338-1.073,6.6-1.343,9.913-2.747.4-3.872-.789-5.215-1.483a37.772,37.772,0,0,1,2.135-6.175" transform="translate(-139.588 -396.282)" fill="#5985fe"/>
    <path id="Trazado_226239" data-name="Trazado 226239" d="M232.426,526.914a13.949,13.949,0,0,1-.108-2.529c-1.721-4.709-6.394-1.692-7.587.291s.85,6.028,1.4,6.7a1.674,1.674,0,0,0,.463.383c.008.227.035.451.051.583a2.125,2.125,0,0,1,.014,1.008,3.431,3.431,0,0,1-.367.754c-.7,1.155,2.545,1.267,3.565.839.216-.091.456-.241.459-.475,0-.321-.415-.445-.621-.69-.342-.408-.148-.961.024-1.485.244,0,.5,0,.772,0,2.591-.04,2.122-3.849,1.935-5.379" transform="translate(-157.296 -365.88)" fill="#ffaa81"/>
    <path id="Trazado_226240" data-name="Trazado 226240" d="M219.355,521.342a1.923,1.923,0,0,1,.08-1.794,4.659,4.659,0,0,1,1.256-1.371,2.619,2.619,0,0,1,.816-.494c.9-.286,1.882.357,2.791.113a6.764,6.764,0,0,0,.739-.305,4.138,4.138,0,0,1,1.288-.254,3.451,3.451,0,0,1,1.267.111c.05,0,.1.007.149.015a1.313,1.313,0,0,1,.9.53.8.8,0,0,0,.179.236.18.18,0,0,0,.26-.032c.063-.127-.108-.248-.135-.387a.266.266,0,0,1,.225-.285.586.586,0,0,1,.385.09,1.641,1.641,0,0,1,.576,2.209,1.886,1.886,0,0,1-.507.529,2.258,2.258,0,0,1-1.284.415A3.908,3.908,0,0,1,225.883,522a3.306,3.306,0,0,0-1.628.532,1.19,1.19,0,0,0-.555.272l-.014.015a4.868,4.868,0,0,1,.036,1.239,1.581,1.581,0,0,1-.116.789.3.3,0,0,1-.247.182.283.283,0,0,1-.2-.127c-.238-.318-.154-.778-.3-1.144l-.008.012c-.013,0-.025-.01-.039-.013a.709.709,0,0,0-.712.239.863.863,0,0,0-.045.854.477.477,0,0,0,.041.079c.089.583,1.085.931,1.21,1.536a1.244,1.244,0,0,1-.272,1,1.648,1.648,0,0,1-.965,1.362.288.288,0,0,1-.173.032c-.135-.03-.169-.219-.109-.344.178-.374.382-.519.346-.9l-.01-.005c-.3-.2-.452-.784-.672-1.078-.28-.376-.641-.675-.9-1.072a4.28,4.28,0,0,1-.694-2.41,2.628,2.628,0,0,0-.068-.991,6.333,6.333,0,0,0-.444-.72" transform="translate(-153.654 -362.616)" fill="#2c4386"/>
    <path id="Trazado_226241" data-name="Trazado 226241" d="M317.354,533.825V538.7l-3.66-1.09v-2.831Z" transform="translate(-219.924 -374.253)" fill="#5985fe"/>
    <path id="Trazado_226242" data-name="Trazado 226242" d="M278.987,536.819h9.787a.688.688,0,0,0,.686-.686v-6.3a.688.688,0,0,0-.686-.686h-9.787a.688.688,0,0,0-.686.686v6.3a.688.688,0,0,0,.686.686" transform="translate(-195.111 -370.975)" fill="#2c4386"/>
    <path id="Trazado_226243" data-name="Trazado 226243" d="M296.67,520.416a1.576,1.576,0,1,1,1.576,1.576,1.578,1.578,0,0,1-1.576-1.576" transform="translate(-207.989 -363.748)" fill="#2c4482"/>
    <path id="Trazado_226244" data-name="Trazado 226244" d="M283.505,517.8a2.069,2.069,0,1,1,2.069,2.069,2.071,2.071,0,0,1-2.069-2.069" transform="translate(-198.759 -361.57)" fill="#2c4482"/>
    <path id="Trazado_226245" data-name="Trazado 226245" d="M283.591,535.481h2.855a.636.636,0,0,0,.635-.634V533.9a.636.636,0,0,0-.635-.634h-2.855a.636.636,0,0,0-.634.634v.942a.636.636,0,0,0,.634.634" transform="translate(-198.375 -373.864)" fill="#f2c777"/>
    <path id="Trazado_226246" data-name="Trazado 226246" d="M300.061,522.832a.587.587,0,1,0,.587-.587.587.587,0,0,0-.587.587" transform="translate(-210.366 -366.135)" fill="#f2c777"/>
    <path id="Trazado_226247" data-name="Trazado 226247" d="M287.505,520.662a.863.863,0,1,0,.863-.863.864.864,0,0,0-.863.863" transform="translate(-201.564 -364.42)" fill="#f2c777"/>
    <rect id="Rectángulo_57417" data-name="Rectángulo 57417" width="1.029" height="5.92" transform="translate(96.934 159.049)" fill="#2c4386"/>
    <path id="Trazado_226248" data-name="Trazado 226248" d="M368.762,488.339a33.065,33.065,0,0,1-5.186-14.051c-.876-9.289,3.884-18.4,10.544-24.932A48.035,48.035,0,0,1,421.1,438.047c13.963,4.371,26.2,17.239,25.44,31.85a38.6,38.6,0,0,1-3.29,12.756,44.1,44.1,0,0,1-9.215,14.538c-7.277,7.211-16.664,10.868-26.835,12.1a259.957,259.957,0,0,1-31.671,1.621c2.021-.266,5.89-1.937,7.218-3.525,2.556-3.057.977-2.949-1.97-5.408a56.366,56.366,0,0,1-12.017-13.636" transform="translate(-254.823 -305.671)" fill="#fff"/>
    <rect id="Rectángulo_57418" data-name="Rectángulo 57418" width="122.284" height="22.266" transform="translate(48.341 78.804)" fill="#4367c7"/>
    <rect id="Rectángulo_57419" data-name="Rectángulo 57419" width="96.13" height="15.474" transform="translate(51.05 82.2)" fill="#f2f2f2"/>
    <path id="Trazado_226249" data-name="Trazado 226249" d="M521.659,278.892a4.74,4.74,0,0,0-3.937,7.382l-3.518,3.409,0,0a.839.839,0,0,0,1.187,1.186h0l.012-.012.01-.008.008-.01,3.471-3.363a4.74,4.74,0,1,0,2.764-8.588m0,8.194a3.452,3.452,0,1,1,3.452-3.452,3.456,3.456,0,0,1-3.452,3.452" transform="translate(-360.34 -195.525)" fill="#f2f2f2"/>
    <path id="Trazado_226250" data-name="Trazado 226250" d="M301.766,84.688q-1.179-.444-2.4-.776c-16.181-4.417-33.448,7.2-37.009,20.246-1.454,5.326.1,10.211,1.1,15.466,1.117,5.877,1.994,11.789,2.966,17.69.449,2.738,1.538,5.965,1.218,8.7a9.337,9.337,0,0,1-.256,1.264l27.221,7.431a10.944,10.944,0,0,1,1.643-2.828c6.444-7.741,12.812-15.5,19.581-22.945,12.991-14.287,2.509-38.007-14.066-44.25" transform="translate(-183.52 -58.159)" fill="#ffd22e"/>
    <path id="Trazado_226251" data-name="Trazado 226251" d="M328.742,202.2a3.607,3.607,0,0,0-1.728-3.2,4.49,4.49,0,0,0-4.6-.208,8.964,8.964,0,0,0-3.362,3.368,23.282,23.282,0,0,1-3.724-3.671l.007-.007a12.614,12.614,0,0,1-.875-.978,9.361,9.361,0,0,0,2.612-1.841,5.151,5.151,0,0,0,1.4-5.028,4.044,4.044,0,0,0-7.834.621,6.159,6.159,0,0,0,.424,3.013,14.453,14.453,0,0,0,1.281,2.649l-.069.028a21.856,21.856,0,0,1-6.392,1.673,10.389,10.389,0,0,0-.243-2.736,5.65,5.65,0,0,0-3.009-3.933,3.809,3.809,0,0,0-4.816,1.455,3.851,3.851,0,0,0,.452,4.01,6.251,6.251,0,0,0,3.209,2.112,10.908,10.908,0,0,0,2.918.507c-.013.136-.027.272-.042.409-.2,1.9-.459,3.822-.713,5.684l-2.431,17.84,1.379.188,2.431-17.839c.256-1.874.52-3.812.719-5.73q.029-.281.056-.567a22.821,22.821,0,0,0,7-1.784c.117-.047.235-.094.354-.145A13.751,13.751,0,0,0,314.2,199.3h0a24.31,24.31,0,0,0,4.156,4.084,44.5,44.5,0,0,0-2.208,5.389c-.343.955-.666,1.857-.986,2.619l-6.1,14.525,1.284.538,6.1-14.525c.335-.8.664-1.715,1.013-2.688a45.118,45.118,0,0,1,2.058-5.07c2.1,1.285,4.517,1.971,6.875.9a3.5,3.5,0,0,0,2.356-2.878m-26.843-4a4.907,4.907,0,0,1-2.518-1.619,2.443,2.443,0,0,1-.337-2.527,2.369,2.369,0,0,1,2.679-.955,2.338,2.338,0,0,1,.345.123,4.26,4.26,0,0,1,2.218,2.984,9.054,9.054,0,0,1,.2,2.437,9.74,9.74,0,0,1-2.591-.443m11.734-1.848a13.034,13.034,0,0,1-1.263-2.561,4.868,4.868,0,0,1-.358-2.318,2.751,2.751,0,0,1,2.409-2.223,2.483,2.483,0,0,1,.849.084,2.757,2.757,0,0,1,1.88,1.732,3.755,3.755,0,0,1-1.086,3.629,8.318,8.318,0,0,1-2.431,1.657m12.178,7.458c-1.851.841-3.845.232-5.617-.863a7.686,7.686,0,0,1,2.854-2.923,3.109,3.109,0,0,1,3.195.13,2.257,2.257,0,0,1,1.112,1.933c-.056.694-.59,1.289-1.544,1.723" transform="translate(-208.529 -131.7)" fill="#fe912a"/>
    <path id="Trazado_226252" data-name="Trazado 226252" d="M301.414,303.868l-27.332-7.462c-.092.428-.2.853-.321,1.274-1.071,3.758-3.313,8.3-2.524,12.22.815,4.051,2.632,11.9,7.338,13.183l5.46,1.491c4.621,1.261,12.3-5.3,14.154-9.191a9.727,9.727,0,0,0,.553-1.648c.811-3,1.281-6.845,2.672-9.867" transform="translate(-190.043 -207.804)" fill="#60c0fd"/>
    <path id="Trazado_226253" data-name="Trazado 226253" d="M175.109,173.093a.928.928,0,0,1,.471-1.766l16.717,1.447a.928.928,0,0,1-.161,1.849l-16.717-1.447a.935.935,0,0,1-.31-.083" transform="translate(-122.388 -120.111)" fill="#f0a32f"/>
    <path id="Trazado_226254" data-name="Trazado 226254" d="M223.919,67.967a.926.926,0,0,1-.2-.128L209.677,56.213a.928.928,0,1,1,1.183-1.429L224.9,66.411a.928.928,0,0,1-.982,1.556" transform="translate(-146.764 -38.258)" fill="#f0a32f"/>
    <path id="Trazado_226255" data-name="Trazado 226255" d="M300.165,17.894a.925.925,0,0,1-.5-.586L295.039,1.184a.928.928,0,1,1,1.783-.511L301.446,16.8a.928.928,0,0,1-1.282,1.1" transform="translate(-206.82 0)" fill="#f0a32f"/>
    <path id="Trazado_226256" data-name="Trazado 226256" d="M401.359,30.062a.928.928,0,0,1-.451-1.232L408.066,13.4a.928.928,0,0,1,1.684.781L402.591,29.61a.928.928,0,0,1-1.232.451" transform="translate(-281.007 -9.016)" fill="#f0a32f"/>
    <path id="Trazado_226257" data-name="Trazado 226257" d="M464.116,96.458a.928.928,0,0,1,.007-1.686L479.9,87.6a.928.928,0,0,1,.769,1.689l-15.773,7.174a.925.925,0,0,1-.775,0" transform="translate(-325.005 -61.354)" fill="#fe912a"/>
    <path id="Trazado_226258" data-name="Trazado 226258" d="M485.611,191.1a.928.928,0,0,1,.654-1.732l16.052,4.718a.928.928,0,0,1-.523,1.781l-16.052-4.718a1.079,1.079,0,0,1-.13-.049" transform="translate(-340.076 -132.738)" fill="#f0a32f"/>
    <path id="Trazado_226259" data-name="Trazado 226259" d="M181.265,295.466c0,12.594-9.966,22.8-22.26,22.8s-22.26-10.209-22.26-22.8,9.966-22.8,22.26-22.8,22.26,10.209,22.26,22.8" transform="translate(-95.869 -191.158)" fill="#fff"/>
    <path id="Trazado_226260" data-name="Trazado 226260" d="M172.858,258.1c0-5.375-3.656-9.064-9.008-9.066q-19.521-.01-39.043,0a9.681,9.681,0,0,0-1.893.13,8.568,8.568,0,0,0-7.066,8.631c-.013,8.714.058,17.429.067,26.144,0,4.308-.071,8.616-.075,12.925,0,5.471,3.619,9.108,9.076,9.129,4.007.016,8.015.03,12.022-.016a1.583,1.583,0,0,1,1.71,1.071c1.6,3.537,3.262,7.043,4.906,10.559.18.385.39.757.758,1.465.413-.716.691-1.127.9-1.57,1.63-3.479,3.269-6.953,4.849-10.454a1.585,1.585,0,0,1,1.711-1.07c4.126.046,8.253.061,12.379.008a8.545,8.545,0,0,0,8.707-8.88c0-5.464-.025-10.928-.024-16.392q0-11.308.025-22.616M144.35,294.883a17.84,17.84,0,1,1,17.841-17.841,17.841,17.841,0,0,1-17.841,17.841" transform="translate(-81.214 -174.588)" fill="#f0a32f"/>
    <path id="Trazado_226261" data-name="Trazado 226261" d="M178.4,323.241a3.083,3.083,0,1,0-3.083-3.083,3.083,3.083,0,0,0,3.083,3.083" transform="translate(-122.911 -222.294)" fill="#fe912a"/>
    <path id="Trazado_226262" data-name="Trazado 226262" d="M230.84,317.075a3.083,3.083,0,1,0,3.083,3.083,3.083,3.083,0,0,0-3.083-3.083" transform="translate(-159.676 -222.294)" fill="#fe912a"/>
    <path id="Trazado_226263" data-name="Trazado 226263" d="M196.305,355.765a.787.787,0,0,0-1.074.294,10.138,10.138,0,0,1-17.619,0,.787.787,0,1,0-1.367.78,11.712,11.712,0,0,0,20.354,0,.787.787,0,0,0-.294-1.074" transform="translate(-123.489 -249.347)" fill="#fe912a"/>
    <path id="Trazado_226264" data-name="Trazado 226264" d="M492.094,466.815l-9.16,10.558,13.285,4.349Z" transform="translate(-338.574 -327.274)" fill="#a7c4e4"/>
    <path id="Trazado_226265" data-name="Trazado 226265" d="M485.536,492.1l-2.6,3,3.774,1.235Z" transform="translate(-338.575 -345.003)" fill="#092140"/>
    <path id="Trazado_226266" data-name="Trazado 226266" d="M643.561,429.981l-2.437-8.808a3.173,3.173,0,0,1,2.206-3.893l18.288-5.059a3.174,3.174,0,0,1,3.893,2.206l2.437,8.808a3.173,3.173,0,0,1-2.206,3.893l-18.288,5.06a3.173,3.173,0,0,1-3.893-2.206" transform="translate(-449.398 -288.919)" fill="#292951"/>
    <rect id="Rectángulo_57420" data-name="Rectángulo 57420" width="42.749" height="5.156" transform="translate(153.52 139.541) rotate(-15.464)" fill="#f7e2a6"/>
    <rect id="Rectángulo_57421" data-name="Rectángulo 57421" width="42.749" height="5.156" transform="translate(154.894 144.51) rotate(-15.464)" fill="#ffd22e"/>
    <rect id="Rectángulo_57422" data-name="Rectángulo 57422" width="42.749" height="5.156" transform="translate(156.269 149.479) rotate(-15.464)" fill="#f0a32f"/>
    <rect id="Rectángulo_57423" data-name="Rectángulo 57423" width="3.12" height="15.467" transform="matrix(0.964, -0.267, 0.267, 0.964, 192.845, 128.662)" fill="#f2f2f2"/>
    <path id="Trazado_226267" data-name="Trazado 226267" d="M616.564,482.4a.638.638,0,0,0-.337.242l-.021,0a.3.3,0,0,0,0-.082.159.159,0,0,0-.171-.147c-.161.021-.328.22-.46.4a1.333,1.333,0,0,0-.244.3l-.51.788c-.02.029-.04.06-.059.091l-.281.434c-.1-.1-.112-.868-.815-.594.443,1.15-.39,2.915-.124,3.773-.015,0,.242.23.016.814-.2.523,1.094.474,1.581.644a3.476,3.476,0,0,1,.974-1.678,10.9,10.9,0,0,0,1.041-3.112,3.349,3.349,0,0,0,.131-.963.447.447,0,0,0-.037-.2.159.159,0,0,0-.21-.084.269.269,0,0,0-.029.022c0-.018.011-.035.016-.054a.451.451,0,0,0,.018-.2.159.159,0,0,0-.179-.137.375.375,0,0,0-.161.086.444.444,0,0,0,.028-.193.159.159,0,0,0-.171-.147" transform="translate(-430.106 -338.202)" fill="#ffaa81"/>
    <path id="Trazado_226268" data-name="Trazado 226268" d="M609.708,516.961c.362.891,3.659,5.749,5.72,8.751a32.911,32.911,0,0,0-4.664,2.625c-1.216-2.661-3.249-5.619-3.827-6.684a9.228,9.228,0,0,1-1.367-5.46c.249-1.874,2.359-12.99,2.4-13.177a5.4,5.4,0,0,1,1.686.1c-.032.153-.482,12.54.049,13.846" transform="translate(-424.517 -352.632)" fill="#ff7faf"/>
    <path id="Trazado_226269" data-name="Trazado 226269" d="M594.673,815.458a26.971,26.971,0,0,1-.11,5.3c.369,1.563,2.986-.137,2.967-.418-.111-1.657-.175-3.309-.207-4.963a14.689,14.689,0,0,1-2.649.08" transform="translate(-416.835 -571.643)" fill="#ffaa81"/>
    <path id="Trazado_226270" data-name="Trazado 226270" d="M595.333,540.107c.111.321.456.37,1.336.566-.187.792-1.583,3.546-.648,3.779.989.247,7.179-3.161,7.79-3.977a5.546,5.546,0,0,0,.929-2.871,5.192,5.192,0,0,0-.394-2.828,4.435,4.435,0,0,0-1.507-1.6,7,7,0,0,0-6.693-.534c-2,.945-1.41,5.735-.813,7.462" transform="translate(-416.977 -372.997)" fill="#ffaa81"/>
    <path id="Trazado_226271" data-name="Trazado 226271" d="M534.588,479.086a.638.638,0,0,1,.326.256l.021,0a.3.3,0,0,1,0-.082.159.159,0,0,1,.177-.14c.159.029.318.234.442.417a1.331,1.331,0,0,1,.23.311l.474.81c.019.03.037.061.055.094l.261.447c.106-.092.15-.862.841-.557-.494,1.129.26,2.93-.045,3.775.014,0-.182.186.017.78.179.531-1.184.457-1.677.606a3.48,3.48,0,0,0-.9-1.72,10.886,10.886,0,0,1-.9-3.155,3.363,3.363,0,0,1-.088-.968.444.444,0,0,1,.046-.2.158.158,0,0,1,.213-.074.228.228,0,0,1,.028.023c0-.018-.01-.036-.013-.054a.452.452,0,0,1-.009-.2.159.159,0,0,1,.185-.129.372.372,0,0,1,.156.094.441.441,0,0,1-.019-.195.158.158,0,0,1,.177-.14" transform="translate(-374.248 -335.875)" fill="#ffaa81"/>
    <path id="Trazado_226272" data-name="Trazado 226272" d="M567.371,529.935a2.775,2.775,0,0,0-.673-1.521l.008-.093c-.158-6.043-3.7-9.64-7.176-9.84-.5.472-.311,1.29-.68,1.839a5.593,5.593,0,0,0-.707-.222l-2.56-.637a3.206,3.206,0,0,0-.982-.138c-.912-.734-2.3-1.853-3.719-3.021-2.45-2.01-5.011-4.157-5.451-4.708-.858-1.073-3.7-11.66-3.847-12.606a3.781,3.781,0,0,0-1.659.326l-.049.022c-.006,0-.024.022-.031.025.2,2.014,1.109,10.822,1.4,12.672a9.229,9.229,0,0,0,2.863,4.846c.673.673,2.539,2.211,4.241,3.908.265.264.526.532.777.8l.024.026q.183.2.36.394l.024.028q.163.183.318.365l.036.042q.157.186.3.37l.052.066c.089.113.175.225.257.337l.029.039c.086.118.167.235.245.351l.054.081c.076.116.149.232.216.345l0,0,.02.036q.137.236.265.474l0,.007q.135.253.262.506c-.043.111-.093.22-.131.333a6.515,6.515,0,0,0-.253,3.766,15.674,15.674,0,0,0,1.045,2.412c.076.166.146.334.215.5l.934,10.984h11.879l.012-.014c.012-.016.023-.032.034-.049a.467.467,0,0,1,.132-.135l.306-3.577a49.125,49.125,0,0,1,1.252-6.873,6.994,6.994,0,0,0,.349-2.476" transform="translate(-378.474 -349.828)" fill="#ff7faf"/>
    <path id="Trazado_226273" data-name="Trazado 226273" d="M604.78,576.343a2.776,2.776,0,0,0-.673-1.521l.008-.093c-.136-5.181-2.757-8.563-5.695-9.548a3.241,3.241,0,0,1-.818.646c-.4.219-.807.426-1.212.635a1.283,1.283,0,0,1-.13.265c-.07-.028-.147-.053-.224-.079q-.367.193-.726.4a2.808,2.808,0,0,1-.945,1.487c-.049.039-.189.188-.3.3-.055.1-.126.218-.184.315a3.219,3.219,0,0,0-.122.346c-.085.3-.167.6-.234.908-.054.244-.1.49-.14.736.016-.07-.06.485-.074.644-.063.722-.094,1.446-.1,2.17a36.9,36.9,0,0,0,.192,4.192c.017.166.036.331.055.5.034.219.067.438.107.657a17.178,17.178,0,0,0,.45,1.859,7.6,7.6,0,0,0,.754,1.886c.172.319.377.616.555.93.052.091.082.149.1.188.033.034.08.086.15.167a12.5,12.5,0,0,0,1.222,1.224c-.045-.05.452.346.506.383q.415.278.848.528c.594.345,1.209.638,1.83.932l.208.1c.04.013.107.037.221.081.4.152.8.309,1.2.457q.662.243,1.328.473l.241-2.821a49.146,49.146,0,0,1,1.252-6.872,6.994,6.994,0,0,0,.349-2.476" transform="translate(-415.883 -396.237)" fill="#f25c99"/>
    <path id="Trazado_226274" data-name="Trazado 226274" d="M575.842,830.573a21.187,21.187,0,0,1,4.055-.907,2.536,2.536,0,0,0,2.767,0,2.6,2.6,0,0,1,.165,1.548c-.289.945-1.437.92-6.305,1.067s-3.086-.95-.682-1.708" transform="translate(-402.026 -581.66)" fill="#2c4482"/>
    <path id="Trazado_226275" data-name="Trazado 226275" d="M681.93,747.374a21.455,21.455,0,0,1,4.143-.17c1.508-.55-.487-2.949-.763-2.9-1.164.217-2.328.406-3.494.581a5.931,5.931,0,0,1,.114,2.486" transform="translate(-478.007 -521.816)" fill="#ffaa81"/>
    <path id="Trazado_226276" data-name="Trazado 226276" d="M692.3,750.6c-1.015-2.253-1.656-3.844-1.671-3.924.561-1.751-.4-2.155-.292-2.671a3.581,3.581,0,0,1,1.779-.419c.973.176,1.082,1.319,1.8,6.137s-.581,3.176-1.616.878" transform="translate(-483.974 -521.305)" fill="#2c4482"/>
    <path id="Trazado_226277" data-name="Trazado 226277" d="M696.673,749.786c-.611-2.445-1-6.235-.661-6.174.973.176,1.082,1.319,1.8,6.137s-.451,2.791-1.14.037" transform="translate(-487.871 -521.33)" fill="#5985fe"/>
    <path id="Trazado_226278" data-name="Trazado 226278" d="M611.912,674.76c-6.365.275-16.4.142-17.251-1.669a2.525,2.525,0,0,1-.362-1.263c.122-1.616.45-3.257.713-4.869.524-3.208.707-6.224,1.289-9.435a21.537,21.537,0,0,0-.088-8.567c-.156-.716-1.8-4.453-2.126-4.453l-11.926-.066a45.353,45.353,0,0,0-1.254,8.571c-.251,6.252.723,12.48,1.14,18.705.343,5.129,1.229,9.677,2.025,14.762a88.7,88.7,0,0,1,1.069,11.143,5.4,5.4,0,0,0,2.642.028c-.083-2.16-.1-4.317-.075-6.485q.105-7.838.2-15.676.043-3.78.087-7.56.022-1.833.045-3.666.012-.939.024-1.878a4.92,4.92,0,0,1,.021-1.574,5.831,5.831,0,0,0,.255-.542c0,.054,0,.107.006.161.1,2.325.239,4.648.4,6.969.017.733.07,1.535.162,2.361,0,.04.005.08.008.119s.012.065.017.1c.368,3.083,1.287,6.427,2.993,7.6,4.093,2.805,13.938.881,20.273-.281.092-1.065-.3-1.458-.281-2.53" transform="translate(-407.233 -451.803)" fill="#45446c"/>
    <path id="Trazado_226279" data-name="Trazado 226279" d="M600.9,646.763a29.69,29.69,0,0,0,1.849,2.728,19.773,19.773,0,0,1,3.359,6.3c.312,1.132.434,2.3.665,3.453.059.294.154.591.2.886a2.6,2.6,0,0,0,.063.263,3.548,3.548,0,0,0,.193.346c.036.037.17.2.237.27a5.548,5.548,0,0,0,.809.595l.037-.07a3.167,3.167,0,0,1,1.017-1.141c.122-.926.257-1.858.429-2.807a21.535,21.535,0,0,0-.088-8.567c-.156-.716-1.8-4.453-2.126-4.453l-7.481-.042a6.244,6.244,0,0,0,.833,2.242" transform="translate(-420.694 -451.86)" fill="#373760"/>
    <path id="Trazado_226280" data-name="Trazado 226280" d="M595.125,530.3a.92.92,0,0,1-.129-.445.881.881,0,0,1,.188-.438,6.011,6.011,0,0,1,5.121-2.44,7.8,7.8,0,0,1,5.222,2.462,4.8,4.8,0,0,1,1.342,2.405c.14.817-.3,1.377-.482,2.04a9.75,9.75,0,0,0,.333,1.478c.274.344.626.656.869.967a15.457,15.457,0,0,0,1.964.507,3.719,3.719,0,0,1,2.352,2.654,5.43,5.43,0,0,1-.457,3.6,2.961,2.961,0,0,0-.495,1.739c.116.61.662,1.025,1.065,1.5a3.575,3.575,0,0,1,.415,4,3.243,3.243,0,0,1-3.378,1.518,2.87,2.87,0,0,1-1.655,1.045c-4.5,1.258-10.535-1.289-11.584-6.149a8.451,8.451,0,0,1,.97-5.082,1.556,1.556,0,0,1-.177-.931c.085-.628.586-1.215.419-1.827a4.4,4.4,0,0,0-.288-.605,1.519,1.519,0,0,1,.236-1.577,2.3,2.3,0,0,0,.423-.508,1.636,1.636,0,0,0,.037-.806,2.775,2.775,0,0,1,.433-1.7,10.217,10.217,0,0,1-2.744-3.4" transform="translate(-417.139 -369.445)" fill="#735152"/>
    <path id="Trazado_226281" data-name="Trazado 226281" d="M485.387,341.119h0a1.122,1.122,0,0,1-.437-1.536c13-22.712,39.362-40.94,59.279-40.833l.33,0c7.192-4.064,18.044-5.343,28.921-3.3a1.125,1.125,0,0,1-.4,2.213c-8.745-1.65-17.424-1.076-23.961,1.423,4.444.623,9.289,2.238,12.815,5.944a14.2,14.2,0,0,1,3.777,10.429,10.538,10.538,0,0,1-3.615,7.625c-5.35,4.475-13.769,2.57-19.32-1.625a14.752,14.752,0,0,1-6.118-11.91c.111-3.073,1.658-5.968,4.488-8.419-8.49.782-18.53,4.853-28.068,11.45a88.462,88.462,0,0,0-26.164,28.1,1.127,1.127,0,0,1-1.523.433m59.751-40.1a19.293,19.293,0,0,0-1.892,1.3c-2.747,2.15-4.249,4.681-4.345,7.32a12.48,12.48,0,0,0,5.226,10.034c4.723,3.569,12.118,5.376,16.52,1.694a8.32,8.32,0,0,0,2.813-6.027,12.077,12.077,0,0,0-3.161-8.75c-4.082-4.292-10.327-5.428-15.162-5.572" transform="translate(-339.885 -206.464)" fill="#f97910"/>
    <path id="Trazado_226282" data-name="Trazado 226282" d="M787.592,263.479l56.262-35.984L797.978,250.8Z" transform="translate(-552.164 -159.492)" fill="#ccc"/>
    <path id="Trazado_226283" data-name="Trazado 226283" d="M755.492,232.544s52.847-3.011,65.857-5.048c0,0-29.475,33.893-36.71,45.785L775.473,250.8l-4.208-6.082Z" transform="translate(-529.659 -159.493)" fill="#f2f2f2"/>
    <path id="Trazado_226284" data-name="Trazado 226284" d="M787.592,263.479,797.978,250.8l45.876-23.307L793.769,244.72Z" transform="translate(-552.164 -159.492)" fill="#b3b3b3"/>
    <path id="Trazado_226285" data-name="Trazado 226285" d="M963.154,650.871a28.385,28.385,0,0,1-4.551-12.024c-.818-7.967,3.2-15.821,8.874-21.477a41.235,41.235,0,0,1,40.248-10.042c12.017,3.653,22.613,14.611,22.064,27.159a33.151,33.151,0,0,1-2.733,10.973,37.861,37.861,0,0,1-7.807,12.545c-6.2,6.241-14.226,9.447-22.948,10.573a223.135,223.135,0,0,1-27.175,1.617c1.733-.242,5.042-1.7,6.171-3.077,2.172-2.642.817-2.539-1.73-4.628a48.386,48.386,0,0,1-10.412-11.62" transform="translate(-671.981 -424.621)" fill="#d1e7f4"/>
    <path id="Trazado_226286" data-name="Trazado 226286" d="M730.029,667.228c-2.33-8.179-1.148-17.547,3.064-24.282a15.7,15.7,0,0,1,5.913-5.85,19.5,19.5,0,0,1,6.708-1.612q18.171-2.089,36.449-3.03c2.469-.127,5.093-.2,7.275,1.3,2.822,1.928,4.143,5.917,5.028,9.642,1.719,7.239,2.465,15.58-1.123,21.531-4,6.638-11.752,7.819-18.652,8.46l-21.644,2.011c-2.956.274-6.458.03-7.4,3.458-1.023,3.716,3.3,7-4.407,3.679-4.93-2.127-9.7-10.02-11.209-15.3" transform="translate(-510.982 -443.357)" fill="#ffd22e"/>
    <path id="Trazado_226287" data-name="Trazado 226287" d="M889.056,700.878c-1.212-3.69-3.832-7.132-7.53-8.319-3.937-1.263-8.038.067-11.842,1.163a67.381,67.381,0,0,1-10.468,2c-6.48.81-12.46,2.486-15.323,8.96a16.307,16.307,0,0,0-1.3,6.193c-.041,1.626.476,3.187.525,4.793.054,1.766-.737,3.441-.889,5.186a7.733,7.733,0,0,0,2.48,6.239c.472.442,1.516,1.044,1.434.362-.225-1.863-.507-4.1.351-5.857,2.226,1.63,4.992,1.533,7.623,1.708q4.693.313,9.394.462,9.254.294,18.514-.046c6.837-.251,8.3-5.257,8.282-11.312-.011-3.884-.034-7.843-1.246-11.532" transform="translate(-590.446 -485.178)" fill="#f0a32f"/>
    <path id="Trazado_226288" data-name="Trazado 226288" d="M1047.426,660.569c.428,1.673.661,3.4.971,5.063l-28.387,5.276-.346-1.863c3.514-8.577,9.655-13.976,19.734-14.979l1.726,9.285,16.365-17.714-21.735-10.813c.6,3.228,1.121,6.032,1.66,8.931-6.578,1.267-11.931,4.208-15.488,9.888a29.125,29.125,0,0,0-3.378,9.393l-2.319-12.479c1.882-.35,3.706-.671,5.521-1.04l.025-.006q1.759-2.574,3.531-5.138c-3.951.734-7.816,1.448-11.676,2.173-1.928.362-2.482,1.179-2.124,3.108q2.209,11.913,4.427,23.824c.374,2.01,1.174,2.569,3.161,2.2q15.922-2.954,31.841-5.918c1.912-.356,2.52-1.221,2.175-3.105-.665-3.629-1.192-6.441-1.872-10.067Z" transform="translate(-709.073 -445.061)" fill="#5985fe"/>
    <path id="Trazado_226289" data-name="Trazado 226289" d="M844.046,560.747l-28.782,8.041a5.555,5.555,0,0,1-6.836-3.85l-4.037-14.452a5.555,5.555,0,0,1,3.85-6.836l28.781-8.041a5.555,5.555,0,0,1,6.836,3.85L847.9,553.91a5.556,5.556,0,0,1-3.85,6.837m-34.719-13.211a1.514,1.514,0,0,0-1.05,1.865l4.038,14.451a1.514,1.514,0,0,0,1.865,1.05l28.781-8.041a1.515,1.515,0,0,0,1.05-1.865l-4.038-14.452a1.514,1.514,0,0,0-1.865-1.049Z" transform="translate(-563.797 -375.36)" fill="#f97910"/>
    <path id="Trazado_226290" data-name="Trazado 226290" d="M695.024,541.865a59.436,59.436,0,0,1-4.835-17.3c-.164-1.91-.028-3.165.46-3.337l-2.519.888c-1.033.364-.443,5.739,1.309,12.009s4.03,11.161,5.1,10.923l2.6-.581c-.505.112-1.269-.884-2.118-2.6" transform="translate(-482.076 -365.42)" fill="#f0a32f"/>
    <path id="Trazado_226291" data-name="Trazado 226291" d="M703.362,542.947c-.113-.174-.23-.372-.349-.58a47.745,47.745,0,0,0-1.867-9.907c-1.809-6.473-4.11-11.427-5.131-11.066s-.382,5.789,1.392,12.139,4.051,11.31,5.1,11.076c.332-.074.5-.665.517-1.641Z" transform="translate(-487.623 -365.525)" fill="#f97910"/>
    <path id="Trazado_226292" data-name="Trazado 226292" d="M781.034,398.412l-69.787,37.381c.005.35.022.725.056,1.139a59.456,59.456,0,0,0,4.95,17.716,12.081,12.081,0,0,0,1.141,1.906l11.441-.707,49.782-3.078,17.248-1.066a159.741,159.741,0,0,1-14.83-53.291" transform="translate(-498.64 -279.318)" fill="#f0a32f"/>
    <path id="Trazado_226293" data-name="Trazado 226293" d="M744.308,490.672l-.5.269-11.633,6.231c.006.4.025.827.064,1.3a67.766,67.766,0,0,0,5.643,20.195,13.781,13.781,0,0,0,1.3,2.173l13.041-.806a84.837,84.837,0,0,1-7.912-29.36" transform="translate(-513.311 -344)" fill="#ead264"/>
    <path id="Trazado_226294" data-name="Trazado 226294" d="M1000.021,430.321l-16.986-60.8-6.654,3.564,16.121,57.7Z" transform="translate(-684.519 -259.066)" fill="#fe912a"/>
    <path id="Trazado_226295" data-name="Trazado 226295" d="M942.681,438.927l17.033-1-16.255-58.214L928.372,387.9c-.938,24.3,9.541,44.341,14.31,51.028" transform="translate(-650.82 -266.211)" fill="#ead264"/>
    <path id="Trazado_226296" data-name="Trazado 226296" d="M706.986,533.66a51.565,51.565,0,0,1-1.787-9.055c-.034-.414-.05-.789-.056-1.139l-.214.115-2.389,1.279a48.272,48.272,0,0,0,1.815,9.555,41.621,41.621,0,0,0,3.92,10l2.433-.15.581-.036a12.07,12.07,0,0,1-1.14-1.906,51.474,51.474,0,0,1-3.163-8.661" transform="translate(-492.536 -366.991)" fill="#f0a32f"/>
    <path id="Trazado_226297" data-name="Trazado 226297" d="M1018.149,358.537c-6.546-23.43-16.77-40.282-22.619-37.735l-13.1,5.7c-5.135,2.236-4.433,20.911,1.4,41.785s14.9,37.17,20.438,36.373l14.124-2.033c6.307-.908,6.3-20.665-.245-44.095" transform="translate(-686.343 -224.729)" fill="#f0a32f"/>
    <path id="Trazado_226298" data-name="Trazado 226298" d="M1051.521,363.413c6.1,21.83,7.334,40.1,2.876,40.78-4.337.666-12.466-15.631-18.264-36.384s-7.3-38.941-3.264-40.668c4.153-1.776,12.553,14.443,18.653,36.272" transform="translate(-722.529 -229.258)" fill="#f97910"/>
    <path id="Trazado_226299" data-name="Trazado 226299" d="M1081.756,314.47a13.705,13.705,0,0,0-10.255,21.351l-17.655,12.959a13.715,13.715,0,1,0,2.119,17.427l17.353,7.16a13.768,13.768,0,1,0,1.912-4.608l-17.353-7.159a13.594,13.594,0,0,0-1.076-8.8l18.238-13.386a13.716,13.716,0,1,0,6.717-24.941" transform="translate(-722.632 -220.436)" fill="#ef487c"/>
    <path id="Trazado_226300" data-name="Trazado 226300" d="M1010.173,401.355s5.812,26.623,10.593,37.216l-12.187,3.937-8.718-35.06Z" transform="translate(-700.981 -281.381)" fill="#f0a32f"/>
  </g>
</svg>
