<svg xmlns="http://www.w3.org/2000/svg" width="138.887" height="121.909" viewBox="0 0 138.887 121.909">
  <g id="Grupo_181378" data-name="Grupo 181378" transform="translate(-388 -1736.656)">
    <g id="Grupo_180191" data-name="Grupo 180191">
      <path id="Trazado_230668" data-name="Trazado 230668" d="M109.35,103.051s75.679-56.759,24.484-71.783S29.776-21.04,15.865,15.687s23.928,52.307,6.121,72.34,22.258,56.2,87.365,15.024" transform="translate(375.278 1736.656)" fill="#8c5be1"/>
      <g id="compras" transform="translate(399.033 1756.563)">
        <path id="Trazado_230672" data-name="Trazado 230672" d="M96.476,70.657H89.827V17.822a3.6,3.6,0,0,0-3.6-3.6H73.484V12.078A12.075,12.075,0,0,0,56.121,1.219,12.075,12.075,0,0,0,38.759,12.078V14.22H30.365a3.605,3.605,0,0,0-3.6,3.6v14.7a3.273,3.273,0,0,1-2.97,1.938H21.619v-.089c0-2.489-2.466-4.511-5.489-4.511H5.488C2.462,29.866,0,31.9,0,34.39V56.539a4.2,4.2,0,0,0,1.777,3.328A6.2,6.2,0,0,0,5.5,61.053h10.64a6.167,6.167,0,0,0,3.722-1.2,4.735,4.735,0,0,0,.993-1.012,8.465,8.465,0,0,0,5.88,2.365h.03v23.5a3.6,3.6,0,0,0,3.6,3.6h8.55a4.225,4.225,0,0,0,2.148,1.577,4.477,4.477,0,0,0,4.139,6.17l5.011,0a.121.121,0,0,0-.006.018,4.478,4.478,0,0,0,4.237,5.914l20.79.006a8.465,8.465,0,0,0,5.88-2.363,5.8,5.8,0,0,0,4.713,2.206H96.469a6.54,6.54,0,0,0,2.38-.444,5.571,5.571,0,0,0,1.341-.739,4.239,4.239,0,0,0,1.777-3.328V75.181C101.967,72.688,99.5,70.659,96.476,70.657ZM11.43,51.059l-.785.914a4.391,4.391,0,0,0,0,5.746l.268.313H5.5a3.224,3.224,0,0,1-1.907-.58,1.261,1.261,0,0,1-.571-.914V34.39c0-.71,1.054-1.5,2.468-1.506h5.426l-.267.312a4.387,4.387,0,0,0,0,5.746l.784.914a1.386,1.386,0,0,1,0,1.815l-.783.914a4.388,4.388,0,0,0,0,5.746l.784.914A1.386,1.386,0,0,1,11.43,51.059Zm7.176,5.47a1.271,1.271,0,0,1-.57.921c-1.072.81-2.4.522-3.145.582l-1.954-2.279a1.387,1.387,0,0,1,0-1.815l.784-.914a4.389,4.389,0,0,0,0-5.746l-.784-.914a1.386,1.386,0,0,1,0-1.815l.783-.914a4.389,4.389,0,0,0,0-5.747l-.784-.914a1.386,1.386,0,0,1,0-1.814l1.954-2.278H16.13c1.413,0,2.468.789,2.47,1.493C18.6,34.4,18.607,58.021,18.606,56.529Zm42.8-53.51a9.068,9.068,0,0,1,9.058,9.059V14.22H62.916V12.078A12.042,12.042,0,0,0,59.131,3.31,9.032,9.032,0,0,1,61.406,3.019ZM56.121,4.728A9.051,9.051,0,0,1,59.9,12.078V14.22H52.347V12.078A9.052,9.052,0,0,1,56.121,4.728ZM41.778,12.078A9.06,9.06,0,0,1,53.113,3.31a12.042,12.042,0,0,0-3.785,8.769V14.22H41.778ZM26.763,58.19h-.03a5.444,5.444,0,0,1-2.357-.532,5.518,5.518,0,0,1-2.75-2.952l-.006-17.222h2.174a6.218,6.218,0,0,0,5.57-3.416l3.61-7.092s0,0,0,0h0l.006-.012a0,0,0,0,0,0,0s0,0,0,0,.013-.026.019-.037l0,.005L33,26.919c.008-.016.015-.028.019-.037l-.012.023.021-.042a.325.325,0,0,1,.433-.141,2.953,2.953,0,0,1,1.29,3.966l-1.375,2.7a2.821,2.821,0,0,0,2.514,4.1l17.816-.006a1.528,1.528,0,0,1,1.538,1.476A1.462,1.462,0,0,1,53.8,40.389H43.643a1.51,1.51,0,1,0,0,3.019h15.64a1.6,1.6,0,0,1,1.075.495,1.365,1.365,0,0,1-.96,2.412H43.535a1.51,1.51,0,1,0,0,3.019H56.766a1.455,1.455,0,0,1,0,2.91l-14.46.005a1.51,1.51,0,0,0,0,3.019c5.578,0,5.669-.151,6.247.426a1.457,1.457,0,0,1-1.029,2.485H47.49Zm11.4,27.1h-7.8a.582.582,0,0,1-.581-.58V61.208l17.74-.006a4.478,4.478,0,0,0,4.237-5.914l-.006-.016,5.011,0A4.474,4.474,0,0,0,60.9,49.1a4.4,4.4,0,0,0,1.588-7.328c-1.819-1.824-3.825-1.289-4.469-1.379a4.5,4.5,0,0,0-4.312-5.931l-17.49.006,1.223-2.406a5.964,5.964,0,0,0-2.611-8.026,3.338,3.338,0,0,0-4.493,1.461l-.557,1.1V17.822a.582.582,0,0,1,.581-.581h8.394v5.594a1.51,1.51,0,0,0,3.02,0V17.24H59.9v5.594a1.51,1.51,0,0,0,3.02,0V17.24h7.617V65.046a3.335,3.335,0,0,0-3.4-.223,5.976,5.976,0,0,0-2.613,8.026l1.224,2.405-17.488,0a4.562,4.562,0,0,0-4.3,3.014,4.372,4.372,0,0,0-.012,2.915H42.683A4.653,4.653,0,0,0,38.16,85.293ZM80.34,95.5a5.488,5.488,0,0,1-5.106,3.483l-20.788-.006a1.458,1.458,0,0,1-1.03-2.484c.737-.737,1.428-.305,6.247-.427a1.51,1.51,0,0,0,0-3.019H54.446c-10.031-.016-9.685.159-10.271-.431a1.457,1.457,0,0,1,.995-2.486h0a.133.133,0,0,0,.03,0H58.43a1.51,1.51,0,0,0,0-3.02l-13.226,0c-2.114-.1-3.162.275-3.775-.472a1.574,1.574,0,0,1,1.26-2.436H58.324a1.51,1.51,0,0,0,0-3.019H48.139a1.448,1.448,0,0,1-1.342-1.9,1.56,1.56,0,0,1,1.458-1.01l17.818,0a2.818,2.818,0,0,0,2.512-4.1l-1.373-2.7a2.952,2.952,0,0,1,1.29-3.966.321.321,0,0,1,.433.141l3.609,7.093s0,0,0,0l0,.008,0,0,0,0s0,0,0,0,.005.011.008.016l.007.014,0-.006.006.012.006.012,0,0,.006.011,0-.009s0,.007.005.01l0,.005v0a.052.052,0,0,1,0,.009l0,0,0,.006,0,0s0,0,0,0l.006.012,0-.009.006.012,0,.009h0a6.481,6.481,0,0,0,6.16,3.415h1.584C80.344,81.442,80.34,96.455,80.34,95.5ZM80.27,34.034a1.51,1.51,0,0,0-1.51,1.51V75.255a3.47,3.47,0,0,1-3.468-1.765l-1.739-3.416V17.24h5.208V29.5a1.51,1.51,0,1,0,3.019,0V17.24h4.445a.581.581,0,0,1,.582.581V70.657h-.97a6.067,6.067,0,0,0-4.057,1.475V35.543A1.51,1.51,0,0,0,80.27,34.034Zm18.676,63.3a1.323,1.323,0,0,1-.485.845,3.162,3.162,0,0,1-2,.647H90.626v-8.7a1.51,1.51,0,0,0-3.02,0v8.7H85.827a3.194,3.194,0,0,1-1.9-.58,1.283,1.283,0,0,1-.571-.924V96c0-.021.008-20.8.008-20.832,0-.707,1.057-1.494,2.472-1.494h1.767V84.086a1.51,1.51,0,0,0,3.02,0V73.677h5.85c1.413,0,2.47.8,2.47,1.5Zm0,0"/>
        <path id="Trazado_230673" data-name="Trazado 230673" d="M466.431,465.375a2.065,2.065,0,1,0,2.065,2.065A2.071,2.071,0,0,0,466.431,465.375Zm0,0" transform="translate(-371.857 -372.664)"/>
      </g>
    </g>
  </g>
</svg>
