<svg xmlns="http://www.w3.org/2000/svg" width="138.887" height="122.657" viewBox="0 0 138.887 122.657">
  <g id="Grupo_181379" data-name="Grupo 181379" transform="translate(-739 -1735.907)">
    <g id="Grupo_180190" data-name="Grupo 180190">
      <path id="Trazado_230669" data-name="Trazado 230669" d="M109.35,103.051s75.679-56.759,24.484-71.783S29.776-21.04,15.865,15.687s23.928,52.307,6.121,72.34,22.258,56.2,87.365,15.024" transform="translate(726.278 1735.907)" fill="#eeac3a"/>
      <g id="en-todo-el-mundo" transform="translate(757.197 1755.408)">
        <path id="Trazado_230674" data-name="Trazado 230674" d="M140.934,282.226l0,0Zm0,0" transform="translate(-112.536 -225.362)"/>
        <path id="Trazado_230675" data-name="Trazado 230675" d="M98.837,50.493a1.524,1.524,0,1,0-2.782,1.246A33.986,33.986,0,0,1,99.011,64.25H85.7A60.333,60.333,0,0,0,82.652,46.2a37.38,37.38,0,0,0,6.511-4.525,34.335,34.335,0,0,1,3.887,4.71,1.524,1.524,0,1,0,2.513-1.725,37.381,37.381,0,0,0-50.1-10.917c1.86-6.544,1.744-5.659,1.979-10.115a1.524,1.524,0,0,0-3.048,0c-.231,4.454.639.484-7.969,30.794A2.527,2.527,0,0,1,33.89,56.6c-1.15,0,.6,1.025-23.56-17.082C-4.145,27.279,4.322,3.048,23.766,3.048A20.8,20.8,0,0,1,43.592,18.039a1.523,1.523,0,1,0,2.925-.849A23.735,23.735,0,1,0,8.4,41.876l19.95,14.953,0,0h0l.037.028-.006,0,.013.01.006,0a37.263,37.263,0,0,0-1.073,8.892s0,.009,0,.014,0,.009,0,.013A37.382,37.382,0,1,0,98.837,50.493ZM44.167,38.281a34.229,34.229,0,0,1,10.359-5.3,31.61,31.61,0,0,0-6.661,10.337,34.306,34.306,0,0,1-4.312-2.881ZM31.075,58.87a5.472,5.472,0,0,0,2.814.776,5.547,5.547,0,0,0,5.534-4.691l3.235-11.371h0A37.192,37.192,0,0,0,46.772,46.2,60.308,60.308,0,0,0,43.727,64.25H30.414A34.284,34.284,0,0,1,31.075,58.87ZM30.414,67.3H43.727A60.312,60.312,0,0,0,46.772,85.35a37.3,37.3,0,0,0-6.5,4.516A34.22,34.22,0,0,1,30.414,67.3ZM42.522,91.951a34.305,34.305,0,0,1,5.343-3.724,31.628,31.628,0,0,0,6.66,10.338A34.322,34.322,0,0,1,42.522,91.951ZM63.188,99.98c-6.027-1-10.255-7.469-12.6-13.134a34.241,34.241,0,0,1,12.6-3Zm0-19.179a37.3,37.3,0,0,0-13.663,3.182A57.435,57.435,0,0,1,46.776,67.3H63.188Zm0-16.551H46.776a57.414,57.414,0,0,1,2.751-16.686,37.281,37.281,0,0,0,13.662,3.183Zm0-16.553a34.231,34.231,0,0,1-12.6-3c2.342-5.664,6.575-12.137,12.6-13.132Zm23.726-8.109a34.34,34.34,0,0,1-5.356,3.732,31.626,31.626,0,0,0-6.653-10.33A34.351,34.351,0,0,1,86.914,39.588ZM66.236,31.569c6.026,1,10.254,7.467,12.6,13.132a34.235,34.235,0,0,1-12.6,3Zm0,19.178A37.3,37.3,0,0,0,79.9,47.565,57.436,57.436,0,0,1,82.649,64.25H66.236Zm0,16.552H82.649A57.409,57.409,0,0,1,79.9,83.983,37.292,37.292,0,0,0,66.236,80.8Zm0,32.682V83.851a34.241,34.241,0,0,1,12.6,3C76.491,92.511,72.257,98.985,66.236,99.98ZM74.9,98.565a31.62,31.62,0,0,0,6.66-10.338A34.275,34.275,0,0,1,86.9,91.951,34.318,34.318,0,0,1,74.9,98.565Zm14.25-8.7a37.382,37.382,0,0,0-6.5-4.517A60.328,60.328,0,0,0,85.7,67.3H99.011A34.22,34.22,0,0,1,89.149,89.865Zm0,0" transform="translate(0)"/>
        <path id="Trazado_230676" data-name="Trazado 230676" d="M55.139,31.771C40.873,24.813,25.514,38.7,30.6,53.478c5.17,15.018,25.848,16.044,32.7,2A17.72,17.72,0,0,0,55.139,31.771Zm5.423,22.371c-5.681,11.649-22.806,10.75-27.077-1.657-4.234-12.3,8.588-23.7,20.318-17.975a14.682,14.682,0,0,1,6.759,19.631Zm0,0" transform="translate(-23.643 -23.894)"/>
        <path id="Trazado_230677" data-name="Trazado 230677" d="M65.578,60.27a1.524,1.524,0,0,0,1.29,2.762,8.835,8.835,0,1,1-3.815,3.419,1.524,1.524,0,1,0-2.607-1.58,11.888,11.888,0,1,0,5.131-4.6Zm0,0" transform="translate(-46.884 -47.225)"/>
        <path id="Trazado_230678" data-name="Trazado 230678" d="M99.425,90.631c.638,1.853,2.13,1.894,3.329,1.927s1.743.084,2.04.946c.378,1.1-.463,1.269-.921,1.522-1.266.391-1.519-.563-2.294-.3a1.055,1.055,0,0,0-.539,1.28c.432,1.254,2.622,1.03,2.637,1.033l.007,0,.276.8a1.01,1.01,0,1,0,1.909-.657l-.283-.823,0,0a2.9,2.9,0,0,0,1.055-3.574c-1.281-3.723-4.817-1.272-5.368-2.874-.438-1.27,1.408-1.328,2.726-1.354.777-.323,1.231-2.34-1.742-1.858l-.275-.8a1.009,1.009,0,1,0-1.909.657l.32.929A2.568,2.568,0,0,0,99.425,90.631Zm0,0" transform="translate(-79.246 -68.051)"/>
      </g>
    </g>
  </g>
</svg>
