<svg xmlns="http://www.w3.org/2000/svg" width="60" height="60" viewBox="0 0 60 60">
  <g id="Grupo_177532" data-name="Grupo 177532" transform="translate(-429 -2931)">
    <rect id="Rectángulo_57544" data-name="Rectángulo 57544" width="60" height="60" transform="translate(429 2931)" fill="none"/>
    <g id="_023---Buy-Clothing-Online" data-name="023---Buy-Clothing-Online" transform="translate(433.771 2936.521)">
      <path id="Path" d="M13.877,49.435a.4.4,0,0,1-.215-.745L29.3,38.9,11.149,49.378a.4.4,0,0,1-.411-.694l6.85-4.161-8.41,4.854a.4.4,0,0,1-.413-.692l15.051-9.257L6.579,49.378a.4.4,0,0,1-.412-.693l15.006-9.178L4.2,49.312a.4.4,0,0,1-.41-.694l8.447-5.1-9.183,5.3a.4.4,0,0,1-.413-.693L23.02,35.619,2.258,47.6a.4.4,0,0,1-.411-.694L13.465,39.89,2.132,46.437a.4.4,0,0,1-.412-.69L23.342,32.463,2.132,44.7a.4.4,0,0,1-.411-.694L17.9,34.177,2.132,43.28a.4.4,0,0,1-.412-.693L23.91,28.934,2.131,41.507a.4.4,0,1,1-.413-.693L25.078,26.4,2.131,39.645a.4.4,0,0,1-.413-.692L24.572,24.868,2.131,37.823a.4.4,0,0,1-.409-.695l8.3-4.993L2.13,36.691A.4.4,0,0,1,1.72,36l13.113-7.941L2.13,35.39a.4.4,0,0,1-.411-.694l15.224-9.274L2.13,33.974a.4.4,0,0,1-.412-.693L18.024,23.272,2.129,32.448a.4.4,0,0,1-.414-.691L19.781,20.516,2.129,30.707a.4.4,0,0,1-.412-.692l10.845-6.656L2.129,29.383a.4.4,0,0,1-.414-.691l11.817-7.317-11.4,6.584a.4.4,0,0,1-.413-.692l9.118-5.641L2.128,26.652a.4.4,0,0,1-.417-.69l12.327-7.806L2.128,25.033a.4.4,0,0,1-.417-.691l9.649-6.106L2.128,23.568a.4.4,0,0,1-.414-.691l2.727-1.69L2.128,22.521a.4.4,0,0,1-.422-.686l9.734-6.373L2.128,20.836a.4.4,0,0,1-.415-.691l1.082-.678-.669.386A.4.4,0,0,1,1.7,19.17l8.2-5.613L2.127,18.045a.4.4,0,0,1-.429-.681L7.334,13.5,2.126,16.507a.4.4,0,0,1-.429-.682L4.94,13.609,2.126,15.233a.4.4,0,0,1-.429-.683l1.468-1-1.038.6a.4.4,0,0,1-.436-.677l1.381-.986-.946.546a.4.4,0,0,1-.454-.664l1.81-1.452L2.125,11.7a.4.4,0,0,1-.51-.608L3.007,9.431l-.882.509A.4.4,0,0,1,1.6,9.354l.376-.518a.4.4,0,0,1,0-.7l.952-.548a.4.4,0,0,1,.528.587L3.364,8.3l1.228-.709A.4.4,0,0,1,5.1,8.2L3.71,9.846,7.635,7.587a.4.4,0,0,1,.454.663L6.28,9.7,9.944,7.587a.4.4,0,0,1,.436.678L9,9.249,11.88,7.587a.4.4,0,0,1,.43.682l-1.467,1,2.923-1.683a.4.4,0,0,1,.43.682l-3.25,2.215,5.023-2.9a.4.4,0,0,1,.429.681l-5.634,3.863,7.87-4.544a.4.4,0,0,1,.43.682l-8.2,5.611,10.9-6.293a.4.4,0,0,1,.416.691l-1.088.681,2.38-1.372a.4.4,0,0,1,.422.686l-9.737,6.373L26.39,7.587a.4.4,0,0,1,.414.691L24.077,9.973l4.131-2.386a.4.4,0,0,1,.417.69l-9.648,6.1L30.74,7.587a.4.4,0,0,1,.418.69l-12.327,7.8L33.546,7.587a.4.4,0,0,1,.413.691l-9.116,5.639L35.807,7.587a.4.4,0,0,1,.414.691L24.406,15.591l13.87-8a.4.4,0,0,1,.413.692L27.847,14.929,40.569,7.587a.4.4,0,0,1,.415.691L22.906,19.522,43.587,7.587A.4.4,0,0,1,44,8.279l-16.3,10,18.533-10.7a.4.4,0,0,1,.411.693L31.434,17.542,47.85,8.061a.4.4,0,1,1,.411.695L35.145,16.7,48.473,9a.4.4,0,0,1,.41.7l-8.31,5,7.9-4.561a.4.4,0,0,1,.413.692L26.029,24.915,48.473,11.96a.4.4,0,0,1,.413.692L25.526,27.069,48.473,13.821a.4.4,0,0,1,.412.693L26.7,28.16,48.473,15.593a.4.4,0,0,1,.411.695L32.707,26.121l15.767-9.1a.4.4,0,0,1,.412.692L27.271,30.99l21.2-12.239a.4.4,0,0,1,.411.694L37.26,26.465l11.214-6.474a.4.4,0,0,1,.412.692L28.507,33.2,48.473,21.669a.4.4,0,0,1,.41.694l-8.471,5.11,8.063-4.655a.4.4,0,0,1,.411.694L33.88,32.69l14.6-8.428a.4.4,0,0,1,.412.692L33.837,34.21l14.637-8.448a.4.4,0,0,1,.411.694l-6.858,4.167L48.476,26.9a.4.4,0,0,1,.415.691L33.258,37.375l15.216-8.784a.4.4,0,0,1,.415.691L36.719,36.873l11.755-6.786a.4.4,0,0,1,.416.691l-11.55,7.267,11.133-6.428a.4.4,0,0,1,.416.69l-9.085,5.714,8.669-5a.4.4,0,0,1,.415.691L42.677,37.6l5.8-3.346a.4.4,0,0,1,.421.687l-9.5,6.181,9.079-5.244a.4.4,0,0,1,.425.684l-8.687,5.785,8.262-4.77a.4.4,0,0,1,.416.691l-.376.237a.4.4,0,0,1,.393.7L41.9,44.132l6.574-3.792a.4.4,0,0,1,.425.685l-2,1.334,1.58-.912a.4.4,0,0,1,.438.676L45.3,44.735,48.474,42.9a.4.4,0,0,1,.436.677l-1.4,1,.959-.553a.4.4,0,0,1,.474.645l-2.365,2.162,1.892-1.092a.4.4,0,0,1,.511.607l-1.005,1.21.13-.074a.4.4,0,0,1,.4.7l-2.081,1.2a.4.4,0,0,1-.511-.607l1-1.21-3.147,1.817a.4.4,0,0,1-.474-.645l2.365-2.163L40.8,49.378a.4.4,0,0,1-.436-.677l1.393-1-2.9,1.675a.4.4,0,0,1-.438-.676l3.615-2.612L36.34,49.378a.4.4,0,0,1-.426-.684l2.008-1.333-3.5,2.017a.4.4,0,0,1-.433-.678l7-4.916L31.3,49.378a.4.4,0,0,1-.417-.69l.327-.207-1.553.9a.4.4,0,0,1-.426-.684l8.689-5.784-11.2,6.468a.4.4,0,0,1-.421-.687l9.5-6.182-11.9,6.869a.4.4,0,0,1-.416-.691l6.212-3.9-7.943,4.586a.4.4,0,0,1-.417-.69l9.087-5.715-11.095,6.4a.4.4,0,0,1-.417-.69L30.45,41.425,16.67,49.378a.4.4,0,0,1-.415-.691l12.17-7.592L14.078,49.378a.4.4,0,0,1-.2.057Z" transform="translate(-0.116 -1.443)" fill="#fff"/>
      <path id="Path-2" data-name="Path" d="M4.648,7.767a.4.4,0,0,1-.242-.726L7.929,4.33,2.135,7.674A.4.4,0,0,1,1.694,7L4.615,4.84,2.135,6.271A.4.4,0,0,1,1.687,5.6L3.4,4.283l-1.262.726a.4.4,0,0,1-.459-.658l.821-.68-.362.208a.4.4,0,0,1-.512-.605l.8-.975a.4.4,0,0,1-.168-.751l1.559-.9a.4.4,0,0,1,.516.605l-.673.816L6.229.587a.4.4,0,0,1,.459.659l-.821.681L8.189.587a.4.4,0,0,1,.449.668L6.929,2.573,10.372.587a.4.4,0,0,1,.441.674L7.893,3.418,12.8.587a.4.4,0,0,1,.448.669L9.726,3.964,15.58.587a.4.4,0,0,1,.435.678L14.069,2.641,17.629.587a.4.4,0,0,1,.429.682l-.532.363L19.336.587a.4.4,0,0,1,.444.671l-3.26,2.457L21.943.587a.4.4,0,0,1,.432.679L21,2.224,23.836.587a.4.4,0,0,1,.436.677L22.041,2.856,25.977.587a.4.4,0,0,1,.449.669l-3.536,2.72L28.767.587a.4.4,0,0,1,.433.678L27.577,2.4,30.724.587a.4.4,0,0,1,.44.674L28.415,3.269,33.066.587a.4.4,0,0,1,.428.683l-.077.052L34.691.587a.4.4,0,0,1,.44.674L32.351,3.3l4.7-2.708a.4.4,0,0,1,.429.682l-.606.414,1.9-1.1a.4.4,0,0,1,.432.68l-1.264.875,2.7-1.555a.4.4,0,0,1,.432.679L39.586,2.3,42.555.587a.4.4,0,0,1,.436.678L40.913,2.74,44.647.587a.4.4,0,0,1,.436.677L42.825,2.881,46.616.693a.4.4,0,0,1,.449.669L43.651,4l4.285-2.477a.4.4,0,0,1,.457.66L45.519,4.547,48.45,2.853a.4.4,0,0,1,.492.629l-2,2.067,1.544-.891a.4.4,0,0,1,.557.542L48.46,6.273l.037-.021a.4.4,0,1,1,.4.7l-1.281.737a.4.4,0,0,1-.556-.542l.583-1.071-2.8,1.614a.4.4,0,0,1-.492-.629l2-2.063-4.679,2.7a.4.4,0,0,1-.458-.66L44.1,4.667,38.859,7.694a.4.4,0,0,1-.449-.668l3.413-2.637L36.1,7.7a.4.4,0,0,1-.436-.677L37.919,5.4,33.938,7.7a.4.4,0,0,1-.436-.678l2.081-1.48L31.847,7.7a.4.4,0,0,1-.432-.68l1.475-1.03L29.926,7.7a.4.4,0,0,1-.432-.681l1.265-.877L28.058,7.7a.4.4,0,0,1-.429-.683l.607-.414-1.9,1.1a.4.4,0,0,1-.44-.674L28.673,4.99,23.976,7.7a.4.4,0,0,1-.428-.683l.074-.049L22.351,7.7a.4.4,0,0,1-.44-.674L24.66,5.016,20.005,7.7a.4.4,0,0,1-.433-.679l1.619-1.137L18.045,7.7a.4.4,0,0,1-.449-.669l3.536-2.724L15.255,7.706a.4.4,0,0,1-.437-.677l2.23-1.595L13.111,7.707a.4.4,0,0,1-.432-.68l1.376-.954L11.217,7.708a.4.4,0,0,1-.445-.671l3.263-2.46L8.61,7.71a.4.4,0,0,1-.429-.683l.538-.367L6.9,7.71a.4.4,0,0,1-.436-.678L8.412,5.655,4.849,7.711a.4.4,0,0,1-.2.056Z" transform="translate(-0.119 -0.09)" fill="#fff"/>
      <path id="Path-3" data-name="Path" d="M45.377,30.359a.4.4,0,0,1-.2-.753l6.858-3.958a.4.4,0,0,1,.45.666l-.565.446.118-.068a.4.4,0,0,1,.509.611l-.951,1.114.442-.255a.4.4,0,0,1,.4.7l-2.478,1.425a.4.4,0,0,1-.509-.611l.951-1.115L47.4,30.3a.4.4,0,0,1-.45-.666l.565-.442L45.577,30.3a.4.4,0,0,1-.2.056Z" transform="translate(-8.514 -4.933)" fill="#e4d5ff"/>
      <path id="Path-4" data-name="Path" d="M19.237,46.561a.4.4,0,0,1-.219-.743l4.487-2.888L17.31,46.5a.4.4,0,0,1-.417-.689l4.092-2.594L16,46.1a.4.4,0,0,1-.42-.688l7.766-4.994-7.927,4.577A.4.4,0,0,1,15,44.307l9.371-6.071-8.972,5.179a.4.4,0,0,1-.422-.687L25.02,36.177l-9.63,5.559a.4.4,0,0,1-.415-.691l10.24-6.4L15.388,40.32a.4.4,0,0,1-.415-.691l10.07-6.293-9.656,5.578a.4.4,0,0,1-.414-.691l6.87-4.249L15.389,37.7a.4.4,0,0,1-.42-.688l13.895-8.941L15.383,35.854a.4.4,0,0,1-.416-.691l7.906-4.953-7.491,4.324a.4.4,0,0,1-.415-.691l6.012-3.751-5.6,3.227a.4.4,0,0,1-.42-.688l9.958-6.39-9.542,5.511a.4.4,0,0,1-.414-.691l1.229-.762-.816.471a.4.4,0,0,1-.419-.689l6.512-4.14-6.1,3.518a.4.4,0,0,1-.418-.689l5.119-3.249-4.7,2.715a.4.4,0,0,1-.42-.688l6.277-4.044-7.7,4.442a.4.4,0,0,1-.425-.685l9.762-6.482L10.451,27.948a.4.4,0,0,1-.424-.685l9.4-6.2-11.2,6.465a.4.4,0,0,1-.423-.687l8.354-5.48L8.135,26a.4.4,0,0,1-.43-.681l8.514-5.839L8.134,24.142a.4.4,0,0,1-.427-.684l4.945-3.329L8.134,22.737a.4.4,0,0,1-.44-.674l5.522-4.034L8.2,20.919a.4.4,0,0,1-.4-.7l11.495-6.634a.4.4,0,0,1,.44.674L14.212,18.3l8.163-4.708a.4.4,0,0,1,.427.683L17.858,17.6l6.951-4.01a.4.4,0,0,1,.43.681l-8.512,5.837,11.295-6.522a.4.4,0,0,1,.423.686l-8.353,5.48,10.682-6.167a.4.4,0,0,1,.424.685l-9.405,6.2,11.827-6.828a.4.4,0,0,1,.425.686l-9.758,6.479,10.88-6.281a.4.4,0,0,1,.42.687l-6.281,4.047,7.037-4.06a.4.4,0,0,1,.418.689l-5.108,3.243,5.756-3.324a.4.4,0,0,1,.419.689l-6.518,4.144,7.242-4.181a.4.4,0,0,1,.414.692l-1.244.77,1.686-.973a.4.4,0,0,1,.42.688l-9.958,6.388,10.907-6.293a.4.4,0,0,1,.415.691l-6.006,3.751,6.649-3.839a.4.4,0,0,1,.415.691l-7.906,4.954,8.64-4.99a.4.4,0,0,1,.42.688L29.5,28.62,44.54,19.94a.4.4,0,0,1,.414.691L38.1,24.869l6.7-3.864a.4.4,0,0,1,.415.691L35.138,27.989,44.8,22.412a.4.4,0,0,1,.415.691L34.971,29.5l2.564-1.48a.4.4,0,0,1,.422.687L27.905,35.261l9.631-5.56a.4.4,0,0,1,.42.688l-9.365,6.069L37.539,31.3a.4.4,0,0,1,.42.688l-7.767,4.993,7.349-4.243a.4.4,0,0,1,.417.69l-4.1,2.6,3.685-2.127a.4.4,0,0,1,.42.689l-4.478,2.884,4.061-2.344a.4.4,0,1,1,.425.686l-5.285,3.5,4.861-2.806a.4.4,0,0,1,.431.682l-5.1,3.507L37.551,38a.4.4,0,0,1,.432.68l-3.492,2.439,3.058-1.765a.4.4,0,0,1,.45.666l-3.722,2.909,3.274-1.89a.4.4,0,0,1,.476.645l-2.518,2.333,2.044-1.18a.4.4,0,0,1,.532.578l-1.038,1.494.508-.293a.4.4,0,0,1,.584.477l-.161.494a.4.4,0,0,1-.014.691l-.4.232a.4.4,0,0,1-.584-.478l.062-.185-1.147.662a.4.4,0,0,1-.532-.578L36.4,44.433,32.8,46.5a.4.4,0,0,1-.475-.645l2.517-2.332L29.688,46.5a.4.4,0,0,1-.45-.666l3.725-2.911-6.2,3.577a.4.4,0,0,1-.432-.679l3.487-2.434L24.425,46.5a.4.4,0,0,1-.431-.681L29.1,42.311l-7.261,4.2a.4.4,0,0,1-.425-.685l5.279-3.5L19.439,46.5a.4.4,0,0,1-.2.057Z" transform="translate(-1.278 -2.602)" fill="#e4d5ff"/>
      <path id="Path-5" data-name="Path" d="M27.811,18.213a.4.4,0,0,1-.282-.692l1.662-1.614L26.08,17.7a.4.4,0,0,1-.457-.662l.282-.23-.795.458a.4.4,0,0,1-.51-.608l1.035-1.236-1.75,1.011a.4.4,0,0,1-.541-.565l.484-.748-.8.461a.4.4,0,0,1-.582-.216l-.3-.855a.4.4,0,0,1-.29-.744l.315-.181a.412.412,0,0,1,.343-.028.4.4,0,0,1,.242.242l.292.837,1.826-1.049a.4.4,0,0,1,.54.565l-.484.748,2.278-1.316a.4.4,0,0,1,.511.608L26.686,15.43l3.194-1.843a.4.4,0,0,1,.456.662l-.282.229L31.6,13.59a.4.4,0,0,1,.484.638L30.42,15.842l3.9-2.255a.4.4,0,0,1,.5.625l-1.726,1.831,2.495-1.44a.4.4,0,0,1,.4.7l-4.875,2.812a.4.4,0,0,1-.5-.625l1.725-1.831-4.331,2.5a.4.4,0,0,1-.2.054Z" transform="translate(-4.008 -2.602)" fill="#e4d5ff"/>
      <path id="Path-6" data-name="Path" d="M45.147,51.836a.4.4,0,0,1-.236-.731l.3-.216-1.267.732a.4.4,0,0,1-.432-.68l.664-.462-1.366.789a.4.4,0,0,1-.434-.678l2.513-1.775-3.25,1.876a.4.4,0,0,1-.43-.682l2.437-1.677-2.948,1.7a.4.4,0,0,1-.436-.677L44.8,46.121,39.725,49.05a.4.4,0,0,1-.436-.678l4.8-3.417-5.1,2.944a.4.4,0,0,1-.44-.674l5.6-4.115-5.734,3.308a.4.4,0,0,1-.435-.678l3.9-2.761L38.213,45.1a.4.4,0,0,1-.432-.68l2.572-1.8-2.122,1.225a.4.4,0,0,1-.449-.668l3.6-2.794-2.7,1.559A.4.4,0,0,1,38.2,41.3l2.123-1.981a.4.4,0,0,1-.384-.2.4.4,0,0,1,.148-.551l2.77-1.6a.4.4,0,0,1,.477.645l-2,1.862,4.739-2.736a.4.4,0,0,1,.449.667L42.93,40.2l5.054-2.916a.4.4,0,0,1,.432.679l-2.566,1.8,3.2-1.848a.4.4,0,0,1,.435.678l-3.9,2.758,4.482-2.587a.4.4,0,0,1,.44.674l-5.6,4.115L51.063,40a.4.4,0,0,1,.436.678L46.693,44.1l4.99-2.88a.4.4,0,0,1,.436.678l-4.536,3.234,4.488-2.591a.4.4,0,0,1,.43.682L50.07,44.893l2.131-1.23a.4.4,0,0,1,.434.678l-2.515,1.775,1.974-1.139a.4.4,0,0,1,.432.68l-.685.476a.4.4,0,0,1,.4.7l-.807.581a.4.4,0,0,1,.186.753l-6.271,3.62a.4.4,0,0,1-.2.052Z" transform="translate(-7.09 -7.076)" fill="#d7cfe6"/>
      <g id="Grupo_177529" data-name="Grupo 177529" transform="translate(0.915 0.067)">
        <path id="Shape" d="M49.177,9.167c0-3.592,1.148-8.529-3.677-8.8-6.976-.4-14.09,0-21.076,0-6.5,0-13.381-.664-19.846,0C-.219.854,1.2,7,1.2,10.449V36.436C1.2,39.781-.44,47.361,4.187,48.07a47.092,47.092,0,0,0,6.84,0H46.121a.621.621,0,0,0,.155-.027h.01a.617.617,0,0,0,.09-.023c4.647-1.068,2.8-9.964,2.8-13.384ZM2.385,3.454C3.038.913,4.919,1.276,6.84,1.276H38.633c4,0,9.359-1.363,9.359,4.079V6.932H2.265a11.585,11.585,0,0,1,.12-3.478Zm43.747,43.7H9.364c-1.426,0-3.649.434-5.029,0-2.592-.816-1.951-3.63-1.951-5.567V9.167c0-.475-.034-1-.073-1.551H47.988V40.388c0,1.8.853,6.123-1.856,6.767Z" transform="translate(-0.915 -0.067)" fill="#262626"/>
        <path id="Shape-2" data-name="Shape" d="M47.094,39.571c-.286-5.31-4.772-7.672-8.874-7.208a36.6,36.6,0,0,1,0-4.4,6.637,6.637,0,0,1,.875.043,32.6,32.6,0,0,0,3.439,0c2.77-.031,2.951-.8,2.951-3.495,0-3.058.432-4.136-2.236-5.659L34.06,13.6h-.007a.832.832,0,0,0-.575-.029H19.483a.987.987,0,0,0-.779.123l-6.125,3.5c-1.385.791-3.953,1.614-4.942,2.9-.912,1.189-.905,5.334-.44,6.669.583,1.679,1.99,1.243,3.608,1.243.624,0,3.264-.123,3.706-.135,0,0,.01.007.013.012a9.749,9.749,0,0,0-.066,1.881v9.495c0,1.647-.528,4.282.115,5.864.65,1.6,2.058,1.428,3.538,1.428h17.6c4.529,1.817,11.047-.6,11.385-6.89a.313.313,0,0,0-.014-.057.235.235,0,0,0,.01-.041ZM33.611,14.488l.014.011C33.151,14.713,33.093,13.9,33.611,14.488Zm-.772-.236c-2.407,4.484-10.4,4.406-12.9,0ZM27.712,45.8H21.177c-1.129,0-2.941.353-4.023,0-2.673-.873-1.52-6.87-1.52-8.973V27.593a.041.041,0,0,0,0-.012V25.16c0-.607-1.184-.43-1.184.09v2.037c-1.816.135-4.973.525-5.8-.343-.726-.758-.676-5.7-.035-6.626.858-1.237,4.126-2.357,5.391-3.079l4.728-2.7c1.825,3.349,6.382,4.3,9.866,3.522a8.4,8.4,0,0,0,4.623-2.687,5.984,5.984,0,0,0,.526-.772,8.338,8.338,0,0,0,.853.451l6.293,3.6c1.524.871,2.985,1.256,3.408,2.931.235.929.426,5.156-.306,5.667-.962.671-4.2.111-5.773.015v-2.1c0-.64-1.188-.49-1.188.074v2.42c0,.009,0,.015.006.023v4.891A7.189,7.189,0,0,0,31.4,39.835,6.893,6.893,0,0,0,34.29,45.8Zm10.96.762a6.492,6.492,0,0,1-2.223-.671.263.263,0,0,0-.137-.067,7.1,7.1,0,0,1-3.694-6.207,6.588,6.588,0,0,1,7.894-6.578,7.071,7.071,0,0,1,5.405,6.769c-.214,3.813-3.135,7.213-7.245,6.755Z" transform="translate(-2.069 -2.67)" fill="#262626"/>
        <path id="Path-7" data-name="Path" d="M5.82,5.343h.807c.684,0,.887-.9.092-.9H5.912C5.228,4.441,5.029,5.343,5.82,5.343Z" transform="translate(-1.764 -0.912)" fill="#262626"/>
        <path id="Path-8" data-name="Path" d="M10.647,5.292h.807a.84.84,0,0,0,.766-.341c.118-.242-.1-.43-.34-.43h-.807a.84.84,0,0,0-.766.341C10.189,5.1,10.41,5.292,10.647,5.292Z" transform="translate(-2.724 -0.927)" fill="#262626"/>
        <path id="Path-9" data-name="Path" d="M15.81,5.333h.807a.665.665,0,0,0,.645-.484c.03-.308-.307-.4-.545-.4h-.807a.656.656,0,0,0-.641.484C15.236,5.242,15.572,5.333,15.81,5.333Z" transform="translate(-3.688 -0.913)" fill="#262626"/>
        <path id="Path-10" data-name="Path" d="M54.632,5.245h.807a.95.95,0,0,0,.772-.315c.136-.23-.116-.332-.314-.332H55.09a.95.95,0,0,0-.772.315c-.136.231.116.332.314.332Z" transform="translate(-11.227 -0.942)" fill="#262626"/>
        <path id="Path-11" data-name="Path" d="M48.167,42.965q-1.351,2.024-2.7,4.051l-1.058-1.057c-.242-.242-1.328.188-1.1.42l1.614,1.614c.207.207.936-.013,1.083-.233l3.227-4.841c.246-.369-.895-.219-1.07.047Z" transform="translate(-9.101 -8.305)" fill="#262626"/>
      </g>
    </g>
  </g>
</svg>
