<svg xmlns="http://www.w3.org/2000/svg" width="197.313" height="195.38" viewBox="0 0 197.313 195.38">
  <g id="_023---Buy-Clothing-Online" data-name="023---Buy-Clothing-Online" transform="translate(-0.915 -0.067)">
    <path id="Path" d="M51.671,177.561a1.637,1.637,0,0,1-.871-3.025l63.45-39.716L40.6,177.329a1.637,1.637,0,0,1-1.67-2.815l27.8-16.882L32.6,177.329a1.637,1.637,0,0,1-1.676-2.809L92,136.958,22.061,177.329a1.637,1.637,0,0,1-1.673-2.812l60.89-37.241L12.39,177.064a1.637,1.637,0,0,1-1.663-2.815L45,153.569,7.738,175.09a1.637,1.637,0,0,1-1.676-2.812L88.771,121.5,4.527,170.127a1.637,1.637,0,0,1-1.666-2.815L50,138.831,4.016,165.4a1.637,1.637,0,0,1-1.673-2.8l87.734-53.9L4.013,158.365a1.637,1.637,0,0,1-1.666-2.815l65.643-39.9L4.013,152.587a1.637,1.637,0,0,1-1.673-2.812l90.042-55.4L4.01,145.394a1.637,1.637,0,1,1-1.676-2.812l94.789-58.5L4.01,137.839a1.637,1.637,0,0,1-1.676-2.809L95.07,77.875,4.01,130.444a1.637,1.637,0,0,1-1.66-2.819l33.679-20.261L4.006,125.851a1.637,1.637,0,0,1-1.663-2.819l53.21-32.223L4.006,120.57a1.637,1.637,0,0,1-1.666-2.815L64.114,80.124l-60.108,34.7a1.637,1.637,0,0,1-1.673-2.812L68.5,71.4,4,108.634a1.637,1.637,0,0,1-1.679-2.806L75.631,60.217,4,101.57A1.637,1.637,0,0,1,2.33,98.761L46.338,71.753,4,96.195a1.637,1.637,0,0,1-1.679-2.806L50.273,63.7,4,90.413A1.637,1.637,0,0,1,2.324,87.6l37-22.889L4,85.113a1.637,1.637,0,0,1-1.692-2.8L52.325,50.638,4,78.546a1.637,1.637,0,0,1-1.692-2.8L41.46,50.966,4,72.6A1.637,1.637,0,0,1,2.317,69.8l11.065-6.858L4,68.352A1.637,1.637,0,0,1,2.284,65.57l39.5-25.862L4,61.514a1.637,1.637,0,0,1-1.686-2.8L6.7,55.958,3.987,57.523a1.637,1.637,0,0,1-1.742-2.77L35.538,31.979,3.993,50.19a1.637,1.637,0,0,1-1.742-2.763l22.87-15.674L3.99,43.947a1.637,1.637,0,0,1-1.742-2.766l13.16-8.993L3.99,38.781a1.637,1.637,0,0,1-1.742-2.77L8.2,31.939,3.99,34.368a1.637,1.637,0,0,1-1.768-2.747l5.6-4L3.99,29.838a1.637,1.637,0,0,1-1.843-2.694l7.346-5.893L3.987,24.426a1.637,1.637,0,0,1-2.069-2.468l5.647-6.721L3.987,17.3a1.637,1.637,0,0,1-2.141-2.38l1.526-2.1a1.637,1.637,0,0,1,0-2.845L7.234,7.754a1.637,1.637,0,0,1,2.141,2.38l-.36.5L14,7.754a1.637,1.637,0,0,1,2.072,2.472l-5.65,6.695L26.342,7.754a1.637,1.637,0,0,1,1.843,2.691l-7.34,5.893L35.715,7.754a1.637,1.637,0,0,1,1.768,2.75L31.865,14.5l11.7-6.744a1.637,1.637,0,0,1,1.745,2.766l-5.952,4.063,11.86-6.829a1.637,1.637,0,0,1,1.745,2.766L39.781,19.506,60.163,7.754A1.637,1.637,0,0,1,61.9,10.517L39.041,26.191,70.975,7.754A1.637,1.637,0,0,1,72.72,10.52L39.437,33.288,83.664,7.754a1.637,1.637,0,0,1,1.689,2.8L80.94,13.319,90.6,7.754a1.637,1.637,0,0,1,1.712,2.783L52.8,36.4,102.445,7.754a1.637,1.637,0,0,1,1.679,2.806L93.059,17.434l16.761-9.68a1.637,1.637,0,0,1,1.692,2.8L72.363,35.3,120.1,7.754a1.637,1.637,0,0,1,1.7,2.8L71.774,42.209,131.482,7.754a1.637,1.637,0,0,1,1.676,2.806L96.166,33.442,140.658,7.754a1.637,1.637,0,0,1,1.679,2.806L94.4,40.231,150.676,7.754a1.637,1.637,0,0,1,1.676,2.809L108.361,37.544l51.622-29.79a1.637,1.637,0,0,1,1.683,2.806L88.309,56.184l83.917-48.43a1.637,1.637,0,0,1,1.676,2.809L107.745,51.156l75.2-43.4a1.637,1.637,0,0,1,1.67,2.812l-61.7,37.582L189.528,9.678a1.637,1.637,0,1,1,1.666,2.819l-53.22,32.249L192.055,13.5a1.638,1.638,0,0,1,1.663,2.822L160,36.621l32.062-18.509a1.637,1.637,0,0,1,1.676,2.809L100.982,78.065,192.055,25.5a1.637,1.637,0,0,1,1.676,2.809l-94.789,58.5,93.113-53.757a1.637,1.637,0,0,1,1.673,2.812L103.712,91.232l88.343-50.99a1.637,1.637,0,0,1,1.666,2.819l-65.643,39.9,63.977-36.937a1.637,1.637,0,0,1,1.673,2.809l-87.7,53.888,86.032-49.665a1.637,1.637,0,0,1,1.666,2.815L146.554,84.357l45.5-26.268a1.637,1.637,0,0,1,1.673,2.809l-82.692,50.774L192.055,64.9a1.637,1.637,0,0,1,1.663,2.815L159.344,88.446l32.717-18.889a1.637,1.637,0,0,1,1.67,2.815l-60.89,37.244,59.253-34.2a1.637,1.637,0,0,1,1.673,2.809l-61.1,37.559L192.058,81.5a1.637,1.637,0,0,1,1.666,2.815L165.9,101.226l26.166-15.1a1.637,1.637,0,0,1,1.686,2.806l-63.437,39.7,61.744-35.644a1.637,1.637,0,0,1,1.683,2.8l-49.38,30.8,47.7-27.535a1.637,1.637,0,0,1,1.689,2.8l-46.866,29.486,45.176-26.081a1.637,1.637,0,0,1,1.689,2.8l-36.865,23.187,35.175-20.3a1.637,1.637,0,0,1,1.686,2.806l-25.207,15.8,23.515-13.576a1.637,1.637,0,0,1,1.709,2.789L155.22,143.849l36.838-21.279a1.637,1.637,0,0,1,1.725,2.776l-35.251,23.475,33.525-19.354a1.637,1.637,0,0,1,1.689,2.8l-1.525.962a1.637,1.637,0,0,1,1.594,2.842l-28.432,19.969,26.674-15.386a1.637,1.637,0,0,1,1.725,2.779l-8.135,5.411,6.41-3.7a1.637,1.637,0,0,1,1.778,2.743l-14.669,10.6,12.892-7.444a1.637,1.637,0,0,1,1.771,2.747l-5.663,4.056,3.892-2.242a1.637,1.637,0,0,1,1.922,2.619l-9.6,8.773,7.677-4.429a1.637,1.637,0,0,1,2.075,2.462l-4.079,4.91.527-.3a1.637,1.637,0,0,1,1.637,2.832l-8.446,4.855a1.637,1.637,0,0,1-2.075-2.462l4.076-4.91L173,177.329a1.637,1.637,0,0,1-1.922-2.619l9.6-8.777-19.743,11.4a1.637,1.637,0,0,1-1.771-2.747l5.654-4.05-11.785,6.8a1.637,1.637,0,0,1-1.778-2.743l14.669-10.6-23.1,13.34a1.637,1.637,0,0,1-1.728-2.776l8.148-5.408-14.214,8.184a1.637,1.637,0,0,1-1.758-2.753l28.406-19.946-39.317,22.7a1.637,1.637,0,0,1-1.692-2.8l1.326-.838-6.3,3.637a1.637,1.637,0,0,1-1.729-2.776l35.257-23.469-45.465,26.245a1.637,1.637,0,0,1-1.709-2.786l38.547-25.086L92.3,177.329a1.637,1.637,0,0,1-1.689-2.8l25.207-15.808L83.592,177.329a1.637,1.637,0,0,1-1.692-2.8l36.871-23.191-45.019,25.99a1.637,1.637,0,0,1-1.692-2.8l46.862-29.469L63.007,177.329a1.637,1.637,0,0,1-1.686-2.8L110.7,143.718,52.489,177.329a1.637,1.637,0,0,1-.818.232Z" transform="translate(1.367 16.973)" fill="#fff"/>
    <path id="Path-2" data-name="Path" d="M14.176,29.892a1.637,1.637,0,0,1-.982-2.946l14.3-11L3.982,29.515a1.637,1.637,0,0,1-1.791-2.733l11.854-8.767L3.979,23.823a1.637,1.637,0,0,1-1.817-2.711L9.1,15.753,3.979,18.7a1.637,1.637,0,0,1-1.863-2.668l3.333-2.76-1.47.845A1.637,1.637,0,0,1,1.9,11.661L5.147,7.706a1.637,1.637,0,0,1-.681-3.048l6.328-3.653A1.637,1.637,0,0,1,12.886,3.46l-2.73,3.313L20.592.756a1.637,1.637,0,0,1,1.863,2.675L19.123,6.194,28.544.756a1.637,1.637,0,0,1,1.82,2.711l-6.93,5.349L37.406.756A1.637,1.637,0,0,1,39.2,3.49L27.346,12.247,47.26.756A1.637,1.637,0,0,1,49.077,3.47L34.784,14.46,58.537.756A1.637,1.637,0,0,1,60.3,3.506l-7.9,5.585L66.852.756a1.637,1.637,0,0,1,1.742,2.766L66.437,5,73.776.756a1.637,1.637,0,0,1,1.8,2.724L62.348,13.452,84.357.756a1.637,1.637,0,0,1,1.751,2.756L80.543,7.4,92.037.756A1.637,1.637,0,0,1,93.808,3.5L84.753,9.965,100.725.756a1.637,1.637,0,0,1,1.82,2.714L88.2,14.506,112.045.756A1.637,1.637,0,0,1,113.8,3.51l-6.587,4.609L119.987.756a1.637,1.637,0,0,1,1.784,2.737l-11.153,8.148L129.491.756a1.637,1.637,0,0,1,1.735,2.77l-.311.213L136.084.756a1.637,1.637,0,0,1,1.787,2.737L126.59,11.746,145.646.756a1.637,1.637,0,0,1,1.742,2.766L144.929,5.2l7.7-4.446a1.637,1.637,0,0,1,1.755,2.76l-5.13,3.549L160.2.756a1.637,1.637,0,0,1,1.755,2.756L155.945,7.7,168,.756a1.637,1.637,0,0,1,1.768,2.75l-8.43,5.988L176.484.756A1.637,1.637,0,0,1,178.255,3.5l-9.166,6.564,15.386-8.878a1.637,1.637,0,0,1,1.82,2.714l-13.854,10.7,17.386-10.05a1.637,1.637,0,0,1,1.856,2.678l-11.661,9.592,11.893-6.875a1.637,1.637,0,0,1,2,2.553l-8.119,8.387,6.266-3.617a1.637,1.637,0,0,1,2.259,2.2l-2.364,4.354.151-.085a1.637,1.637,0,1,1,1.637,2.832l-5.2,2.989a1.637,1.637,0,0,1-2.256-2.2l2.367-4.347-11.35,6.547a1.637,1.637,0,0,1-2-2.553l8.135-8.371L164.456,29.587A1.637,1.637,0,0,1,162.6,26.91l11.68-9.6L153,29.594a1.637,1.637,0,0,1-1.82-2.711l13.851-10.7L141.786,29.6a1.637,1.637,0,0,1-1.771-2.747l9.166-6.567L133.029,29.6a1.637,1.637,0,0,1-1.768-2.75l8.443-6-15.16,8.757a1.637,1.637,0,0,1-1.755-2.76l5.984-4.18-12.024,6.947a1.637,1.637,0,0,1-1.755-2.763l5.133-3.558-10.957,6.325a1.637,1.637,0,0,1-1.742-2.77l2.462-1.679-7.716,4.452a1.637,1.637,0,0,1-1.787-2.737l11.278-8.259-19.059,11a1.637,1.637,0,0,1-1.738-2.773l.3-.2L86.01,29.63a1.637,1.637,0,0,1-1.784-2.737l11.157-8.164-18.889,10.9a1.637,1.637,0,0,1-1.758-2.756l6.57-4.613L68.538,29.64a1.637,1.637,0,0,1-1.82-2.714L81.067,15.871,57.218,29.643A1.637,1.637,0,0,1,55.444,26.9l9.048-6.472L48.517,29.65a1.637,1.637,0,0,1-1.751-2.76l5.585-3.873L40.833,29.653a1.637,1.637,0,0,1-1.8-2.724l13.239-9.981L30.256,29.66a1.637,1.637,0,0,1-1.742-2.77L30.7,25.4l-7.382,4.262a1.637,1.637,0,0,1-1.768-2.753l7.9-5.588L14.995,29.666a1.617,1.617,0,0,1-.818.226Z" transform="translate(1.401 1.055)" fill="#fff"/>
    <path id="Path-3" data-name="Path" d="M46.611,44.923a1.637,1.637,0,0,1-.818-3.054L73.619,25.808a1.637,1.637,0,0,1,1.827,2.7l-2.292,1.81.478-.275A1.637,1.637,0,0,1,75.7,32.526l-3.86,4.521,1.794-1.034a1.637,1.637,0,0,1,1.637,2.835L65.215,44.628a1.637,1.637,0,0,1-2.066-2.478l3.86-4.524-12.2,7.042a1.637,1.637,0,0,1-1.827-2.7l2.292-1.794L47.419,44.7a1.617,1.617,0,0,1-.809.226Z" transform="translate(100.175 58.044)" fill="#eeac3a"/>
    <path id="Path-4" data-name="Path" d="M55.041,147.547a1.637,1.637,0,0,1-.887-3.015l18.208-11.72-25.142,14.5a1.637,1.637,0,0,1-1.692-2.8l16.6-10.525L41.9,145.678a1.637,1.637,0,0,1-1.7-2.792l31.512-20.264L39.541,141.193a1.637,1.637,0,0,1-1.709-2.789L75.855,113.77,39.449,134.787A1.637,1.637,0,0,1,37.737,132l40.77-26.589L39.433,127.968a1.637,1.637,0,0,1-1.683-2.8L79.3,99.192l-39.88,23.033a1.637,1.637,0,0,1-1.683-2.8L78.6,93.889,39.419,116.523a1.637,1.637,0,0,1-1.679-2.806L65.615,96.475,39.426,111.6a1.637,1.637,0,0,1-1.706-2.792L94.1,72.528,39.4,104.1a1.637,1.637,0,0,1-1.689-2.8L69.792,81.2,39.4,98.75a1.637,1.637,0,0,1-1.686-2.8l24.4-15.222L39.393,93.82a1.637,1.637,0,0,1-1.706-2.792L78.094,65.1,39.377,87.463A1.637,1.637,0,0,1,37.7,84.657l4.986-3.09L39.37,83.479a1.637,1.637,0,0,1-1.7-2.8L64.1,63.883,39.364,78.159a1.637,1.637,0,0,1-1.7-2.8L58.439,62.18,39.357,73.2A1.637,1.637,0,0,1,37.652,70.4L63.121,54,31.88,72.021a1.637,1.637,0,0,1-1.725-2.779l39.611-26.3L19.388,72.021a1.637,1.637,0,0,1-1.719-2.779L55.82,44.083,10.382,70.315a1.637,1.637,0,0,1-1.715-2.786l33.9-22.238L9.989,64.1a1.637,1.637,0,0,1-1.745-2.763L42.791,37.647,9.986,56.579A1.637,1.637,0,0,1,8.254,53.8L28.318,40.3,9.986,50.876A1.637,1.637,0,0,1,8.2,48.14L30.61,31.771,10.264,43.5a1.637,1.637,0,0,1-1.637-2.832L55.27,13.75a1.637,1.637,0,0,1,1.784,2.737L34.65,32.855,67.773,13.75A1.637,1.637,0,0,1,69.5,16.523L49.443,30.02,77.649,13.75a1.637,1.637,0,0,1,1.745,2.763L44.854,40.2,90.685,13.733A1.637,1.637,0,0,1,92.4,16.516L58.5,38.754,101.851,13.73a1.637,1.637,0,0,1,1.719,2.779L65.406,41.684l47.992-27.7a1.637,1.637,0,0,1,1.725,2.783L75.528,43.052l44.148-25.489a1.637,1.637,0,0,1,1.706,2.789L95.9,36.773,124.449,20.3a1.637,1.637,0,0,1,1.7,2.8l-20.729,13.16,23.358-13.487a1.637,1.637,0,0,1,1.7,2.8L104.025,42.378l29.388-16.967a1.637,1.637,0,0,1,1.679,2.809l-5.048,3.126,6.842-3.948a1.637,1.637,0,0,1,1.7,2.792L98.182,56.111l44.257-25.535a1.637,1.637,0,0,1,1.686,2.806L119.752,48.6,146.73,33.025a1.637,1.637,0,0,1,1.686,2.806l-32.082,20.1,35.061-20.248a1.637,1.637,0,0,1,1.7,2.792L96.7,74.748l61.011-35.221a1.637,1.637,0,0,1,1.679,2.806l-27.8,17.2,27.171-15.678a1.637,1.637,0,0,1,1.683,2.8L119.562,72.188l39.2-22.631a1.637,1.637,0,0,1,1.683,2.806L118.884,78.326l10.4-6A1.637,1.637,0,0,1,131,75.111L90.214,101.7l39.081-22.562A1.637,1.637,0,0,1,131,81.927L93,106.555,129.3,85.6a1.637,1.637,0,0,1,1.7,2.792L99.491,108.656l29.82-17.216a1.637,1.637,0,0,1,1.692,2.8L114.36,104.784l14.954-8.633a1.637,1.637,0,0,1,1.706,2.8l-18.172,11.7,16.48-9.513a1.637,1.637,0,1,1,1.725,2.783l-21.446,14.214,19.724-11.386a1.637,1.637,0,0,1,1.748,2.766l-20.712,14.231,18.987-10.954a1.637,1.637,0,0,1,1.755,2.76l-14.172,9.9,12.407-7.163a1.637,1.637,0,0,1,1.827,2.7l-15.1,11.8,13.284-7.67a1.637,1.637,0,0,1,1.931,2.619l-10.217,9.467,8.3-4.789a1.637,1.637,0,0,1,2.161,2.347l-4.213,6.063,2.062-1.188a1.637,1.637,0,0,1,2.37,1.935l-.655,2a1.637,1.637,0,0,1-.056,2.8l-1.637.943a1.637,1.637,0,0,1-2.37-1.938l.252-.75-4.655,2.684a1.637,1.637,0,0,1-2.161-2.347l4.21-6.06-14.587,8.4a1.637,1.637,0,0,1-1.928-2.619l10.214-9.464L97.445,147.315a1.637,1.637,0,0,1-1.827-2.7L110.733,132.8,85.585,147.315a1.637,1.637,0,0,1-1.755-2.756l14.149-9.877L76.091,147.315a1.637,1.637,0,0,1-1.748-2.763L95.062,130.3,65.6,147.325a1.637,1.637,0,0,1-1.725-2.779l21.42-14.2L55.86,147.315a1.636,1.636,0,0,1-.818.232Z" transform="translate(15.036 30.619)" fill="#eeac3a"/>
    <path id="Path-5" data-name="Path" d="M46.636,32.524a1.637,1.637,0,0,1-1.142-2.809l6.744-6.547L39.611,30.449a1.637,1.637,0,0,1-1.853-2.684l1.146-.933-3.225,1.859a1.637,1.637,0,0,1-2.069-2.468l4.2-5.015-7.1,4.1a1.637,1.637,0,0,1-2.193-2.292l1.964-3.035L27.23,21.855a1.637,1.637,0,0,1-2.36-.877l-1.211-3.47a1.637,1.637,0,0,1-1.175-3.018l1.277-.733a1.673,1.673,0,0,1,1.391-.115,1.637,1.637,0,0,1,.982.982l1.185,3.4,7.408-4.256a1.637,1.637,0,0,1,2.19,2.292l-1.964,3.035L44.2,13.753a1.637,1.637,0,0,1,2.072,2.468l-4.2,5.012,12.96-7.48a1.637,1.637,0,0,1,1.85,2.684l-1.143.93L62,13.766a1.637,1.637,0,0,1,1.964,2.589L57.22,22.9l15.835-9.15a1.637,1.637,0,0,1,2.013,2.537l-7.006,7.431,10.122-5.843a1.637,1.637,0,0,1,1.637,2.835L60.039,32.125a1.637,1.637,0,0,1-2.01-2.537l7-7.431L47.455,32.3a1.6,1.6,0,0,1-.818.219Z" transform="translate(47.155 30.616)" fill="#eeac3a"/>
    <path id="Path-6" data-name="Path" d="M68.195,98.157a1.637,1.637,0,0,1-.956-2.966l1.218-.877-5.143,2.969a1.637,1.637,0,0,1-1.751-2.76l2.694-1.876-5.542,3.2A1.637,1.637,0,0,1,56.953,93.1l10.2-7.2L53.964,93.505a1.637,1.637,0,0,1-1.745-2.766l9.89-6.806-11.962,6.9a1.637,1.637,0,0,1-1.768-2.747l18.4-13.121L46.2,86.853a1.637,1.637,0,0,1-1.768-2.75L63.916,70.239,43.226,82.185a1.637,1.637,0,0,1-1.787-2.733l22.713-16.7L40.886,76.178a1.637,1.637,0,0,1-1.765-2.753l15.835-11.2-14.9,8.6a1.637,1.637,0,0,1-1.755-2.76l10.436-7.3-8.61,4.969a1.637,1.637,0,0,1-1.823-2.711l14.6-11.337L41.95,58.012a1.637,1.637,0,0,1-1.935-2.619l8.616-8.037a1.611,1.611,0,0,1-1.558-.805,1.637,1.637,0,0,1,.6-2.236l11.242-6.488a1.637,1.637,0,0,1,1.935,2.619L52.746,48,71.976,36.9A1.637,1.637,0,0,1,73.8,39.608L59.2,50.944,79.7,39.11a1.637,1.637,0,0,1,1.755,2.756l-10.413,7.3,13-7.5a1.637,1.637,0,0,1,1.764,2.753L69.989,55.613l18.188-10.5a1.637,1.637,0,0,1,1.787,2.734l-22.706,16.7L92.2,50.139a1.637,1.637,0,0,1,1.768,2.75l-19.5,13.87L94.718,55.072a1.637,1.637,0,0,1,1.768,2.75L78.078,70.943,96.289,60.431A1.637,1.637,0,0,1,98.034,63.2L88.17,69.984l8.646-4.989a1.637,1.637,0,0,1,1.761,2.753L88.37,74.95l8.011-4.622a1.637,1.637,0,0,1,1.751,2.76l-2.779,1.931a1.637,1.637,0,0,1,1.617,2.828L93.7,80.2a1.637,1.637,0,0,1,.756,3.054L69.006,97.947a1.614,1.614,0,0,1-.812.21Z" transform="translate(83.43 83.26)" fill="#8c5be1"/>
    <g id="Grupo_177529" data-name="Grupo 177529" transform="translate(0.915 0.067)">
      <path id="Shape" d="M196.751,36.99c0-14.574,4.658-34.609-14.921-35.725-28.307-1.614-57.174,0-85.521,0-26.366,0-54.3-2.694-80.532,0C-3.685,3.262,2.054,28.181,2.054,42.2V147.643c0,13.573-6.639,44.329,12.139,47.206,8.79,1.345,18.9,0,27.754,0h142.4a2.52,2.52,0,0,0,.629-.108h.043a2.5,2.5,0,0,0,.367-.095c18.856-4.334,11.376-40.43,11.376-54.31ZM6.879,13.809C9.531,3.5,17.162,4.97,24.957,4.97H153.965c16.231,0,37.974-5.529,37.974,16.552v6.4H6.392a47.01,47.01,0,0,1,.488-14.113ZM184.393,191.137H35.2c-5.788,0-14.807,1.761-20.4,0-10.518-3.31-7.916-14.731-7.916-22.588V36.99c0-1.928-.137-4.072-.295-6.292H191.926V163.677c0,7.3,3.46,24.844-7.533,27.459Z" transform="translate(-0.915 -0.067)" fill="#262626"/>
      <path id="Shape-2" data-name="Shape" d="M170.036,119.172c-1.159-21.547-19.364-31.129-36.01-29.247a148.51,148.51,0,0,1,0-17.864,26.929,26.929,0,0,1,3.549.174,132.3,132.3,0,0,0,13.956,0c11.242-.124,11.975-3.231,11.975-14.181,0-12.407,1.751-16.784-9.071-22.965L117.147,13.81h-.029a3.375,3.375,0,0,0-2.334-.118H58a4.007,4.007,0,0,0-3.162.5L29.983,28.384C24.362,31.6,13.942,34.931,9.928,40.169c-3.7,4.825-3.673,21.642-1.787,27.06,2.367,6.812,8.076,5.045,14.64,5.045,2.534,0,13.245-.5,15.039-.547,0,.02.039.029.052.049A39.559,39.559,0,0,0,37.6,79.41v38.528c0,6.685-2.144,17.377.465,23.8,2.639,6.495,8.351,5.794,14.355,5.794h71.431c18.378,7.372,44.826-2.445,46.2-27.957a1.271,1.271,0,0,0-.056-.232.955.955,0,0,0,.039-.167ZM115.327,17.391l.056.046C113.461,18.3,113.225,15.021,115.327,17.391Zm-3.133-.956c-9.769,18.195-42.2,17.877-52.346,0ZM91.39,144.464H64.873c-4.583,0-11.936,1.434-16.326,0-10.846-3.542-6.168-27.878-6.168-36.41V70.568a.165.165,0,0,0,.016-.049V60.7c0-2.465-4.806-1.745-4.806.367v8.266c-7.369.547-20.179,2.131-23.534-1.391-2.946-3.077-2.743-23.138-.144-26.887,3.48-5.019,16.741-9.562,21.875-12.492L54.974,17.6c7.4,13.589,25.9,17.465,40.034,14.293A34.092,34.092,0,0,0,113.765,21a24.281,24.281,0,0,0,2.134-3.133,33.833,33.833,0,0,0,3.46,1.83l25.534,14.591c6.184,3.532,12.113,5.1,13.828,11.893.953,3.771,1.729,20.922-1.241,22.994-3.9,2.724-17.056.448-23.426.059V60.718c0-2.6-4.819-1.987-4.819.3V70.84c0,.036.02.059.023.095V90.78a29.172,29.172,0,0,0-22.916,29.463,27.97,27.97,0,0,0,11.736,24.225Zm44.473,3.09a26.343,26.343,0,0,1-9.022-2.724,1.067,1.067,0,0,0-.557-.272,28.808,28.808,0,0,1-14.99-25.187c.02-16.64,15.082-30.661,32.033-26.693,13.291,3.11,21.125,14.3,21.933,27.466-.868,15.471-12.721,29.27-29.4,27.41Z" transform="translate(12.663 30.561)" fill="#262626"/>
      <path id="Path-7" data-name="Path" d="M7.388,8.1h3.274c2.776,0,3.6-3.66.373-3.66H7.761C4.985,4.441,4.176,8.1,7.388,8.1Z" transform="translate(9.072 9.877)" fill="#262626"/>
      <path id="Path-8" data-name="Path" d="M11.785,7.664h3.274a3.408,3.408,0,0,0,3.107-1.385c.478-.982-.416-1.745-1.378-1.745H13.514a3.408,3.408,0,0,0-3.107,1.385C9.929,6.895,10.823,7.664,11.785,7.664Z" transform="translate(20.365 10.049)" fill="#262626"/>
      <path id="Path-9" data-name="Path" d="M17.47,8.047h3.274c1.048,0,2.495-.812,2.619-1.964.121-1.251-1.244-1.637-2.21-1.637H17.879c-1.048,0-2.495.812-2.6,1.964C15.139,7.677,16.5,8.047,17.47,8.047Z" transform="translate(31.716 9.889)" fill="#262626"/>
      <path id="Path-10" data-name="Path" d="M55.71,7.229h3.274a3.856,3.856,0,0,0,3.133-1.28c.553-.933-.471-1.345-1.273-1.345H57.569a3.856,3.856,0,0,0-3.133,1.28c-.553.936.471,1.345,1.273,1.345Z" transform="translate(120.416 10.228)" fill="#262626"/>
      <path id="Path-11" data-name="Path" d="M63.107,43.781q-5.48,8.214-10.957,16.437l-4.292-4.288c-.982-.982-5.388.763-4.446,1.7l6.547,6.547c.838.841,3.8-.052,4.393-.946L67.447,43.591c1-1.5-3.63-.887-4.341.19Z" transform="translate(95.41 96.861)" fill="#262626"/>
    </g>
  </g>
</svg>
