<svg xmlns="http://www.w3.org/2000/svg" width="138.887" height="130.576" viewBox="0 0 138.887 130.576">
  <g id="Grupo_181381" data-name="Grupo 181381" transform="translate(-662 9972.332)">
    <g id="Grupo_180188" data-name="Grupo 180188">
      <path id="Trazado_230671" data-name="Trazado 230671" d="M109.35,103.051s75.679-56.759,24.484-71.783S29.776-21.04,15.865,15.687s23.928,52.307,6.121,72.34,22.258,56.2,87.365,15.024" transform="translate(649.278 -9972.332)" fill="#8c5be1"/>
      <g id="_OUTLINE" data-name="/ OUTLINE" transform="translate(668.1 -9958)">
        <path id="Trazado_230684" data-name="Trazado 230684" d="M111.058,347.327H94.414A5,5,0,0,0,89.71,344H79.8a8.341,8.341,0,0,0-8.013,6.091l-5.361,19.3-5.361-19.3A8.341,8.341,0,0,0,53.05,344H43.137a5,5,0,0,0-4.7,3.327H21.789a5.128,5.128,0,0,0-.843,10.186L47.3,361.9a1.656,1.656,0,0,1,1.35,1.28l2.84,12.779,3.247-.722L51.9,362.463a4.969,4.969,0,0,0-4.051-3.84l-26.357-4.393a1.8,1.8,0,0,1,.3-3.578H38.433a5,5,0,0,0,4.7,3.327h5.275a1.652,1.652,0,0,1,1.176.487l2.352,2.352,2.352-2.352-2.352-2.352a4.958,4.958,0,0,0-3.528-1.462H43.137a1.663,1.663,0,0,1,0-3.327H53.05a5.005,5.005,0,0,1,4.808,3.654l6.963,25.067,1.6-.445,1.6.445,6.963-25.067a5.005,5.005,0,0,1,4.808-3.654H89.71a1.663,1.663,0,0,1,0,3.327H84.435a4.958,4.958,0,0,0-3.528,1.462l-2.352,2.352,2.352,2.352,2.352-2.352a1.652,1.652,0,0,1,1.176-.487H89.71a5,5,0,0,0,4.7-3.327h16.644a1.8,1.8,0,0,1,.3,3.577L85,358.624a4.969,4.969,0,0,0-4.051,3.84l-2.84,12.779,3.247.722,2.84-12.779a1.656,1.656,0,0,1,1.35-1.28l26.357-4.393a5.128,5.128,0,0,0-.843-10.186Z" transform="translate(-0.524 -259.804)"/>
        <path id="Trazado_230685" data-name="Trazado 230685" d="M313.583,16H276.99A5,5,0,0,0,272,20.99V40.95h3.327V20.99a1.665,1.665,0,0,1,1.663-1.663h4.99V34.3h13.307V19.327h18.3a1.665,1.665,0,0,1,1.663,1.663V75.88a1.665,1.665,0,0,1-1.663,1.663H276.99a1.665,1.665,0,0,1-1.663-1.663V72.553H272V75.88a5,5,0,0,0,4.99,4.99h36.593a5,5,0,0,0,4.99-4.99V20.99A5,5,0,0,0,313.583,16ZM291.96,30.97h-6.653V19.327h6.653Z" transform="translate(-202.774)"/>
        <path id="Trazado_230686" data-name="Trazado 230686" d="M20.99,80.87H57.583a5,5,0,0,0,4.99-4.99V60.91H59.246V75.88a1.665,1.665,0,0,1-1.663,1.663H20.99a1.665,1.665,0,0,1-1.663-1.663V20.99a1.665,1.665,0,0,1,1.663-1.663h4.99V34.3H39.287V19.327h18.3a1.665,1.665,0,0,1,1.663,1.663v9.98h3.327V20.99A5,5,0,0,0,57.583,16H20.99A5,5,0,0,0,16,20.99V75.88a5,5,0,0,0,4.99,4.99Zm8.317-61.543H35.96V30.97H29.307Z"/>
        <path id="Trazado_230687" data-name="Trazado 230687" d="M129.639,100.288a3.327,3.327,0,0,0-5.679,2.352v.974H108.99A5,5,0,0,0,104,108.6v3.327a5,5,0,0,0,4.99,4.99h14.97v2.226a3.3,3.3,0,0,0,2.157,3.114,3.359,3.359,0,0,0,1.183.217,3.3,3.3,0,0,0,2.491-1.14l6.679-7.633a5,5,0,0,0-.227-6.814l-6.6-6.6Zm4.326,11.227-6.679,7.631v-5.551h-18.3a1.665,1.665,0,0,1-1.663-1.663V108.6a1.665,1.665,0,0,1,1.663-1.663h18.3v-4.3l6.6,6.6A1.667,1.667,0,0,1,133.965,111.515Z" transform="translate(-69.703 -65.991)"/>
        <path id="Trazado_230688" data-name="Trazado 230688" d="M257.606,163.56a3.317,3.317,0,0,0-3.625.721l-6.6,6.6a5,5,0,0,0-.227,6.814l6.679,7.633a3.3,3.3,0,0,0,2.491,1.14,3.359,3.359,0,0,0,1.183-.217,3.3,3.3,0,0,0,2.157-3.114v-2.226h14.97a5,5,0,0,0,4.99-4.99V172.6a5,5,0,0,0-4.99-4.99H259.66v-.974A3.317,3.317,0,0,0,257.606,163.56Zm-1.261,3.063-.016.006Zm18.285,4.311a1.665,1.665,0,0,1,1.663,1.663v3.327a1.665,1.665,0,0,1-1.663,1.663h-18.3v5.552l-6.677-7.631a1.667,1.667,0,0,1,.076-2.271l6.6-6.6v4.3Z" transform="translate(-182.117 -116.678)"/>
      </g>
    </g>
  </g>
</svg>
