<svg xmlns="http://www.w3.org/2000/svg" width="60" height="60" viewBox="0 0 60 60">
  <g id="Grupo_177531" data-name="Grupo 177531" transform="translate(-796 -2931)">
    <rect id="Rectángulo_57545" data-name="Rectángulo 57545" width="60" height="60" transform="translate(796 2931)" fill="none"/>
    <g id="corazon" transform="translate(804 2941.788)">
      <path id="Trazado_226598" data-name="Trazado 226598" d="M254.751,7.182a.371.371,0,0,1-.223-.668l2.512-1.868a.38.38,0,0,1-.086-.1.371.371,0,0,1,.135-.507l3.456-1.994a.371.371,0,0,1,.406.619l-.844.627,3.264-1.884a.371.371,0,1,1,.371.642l-8.806,5.083A.368.368,0,0,1,254.751,7.182Zm0,0" transform="translate(-232.27 -1.045)" fill="#eb5463"/>
      <path id="Trazado_226599" data-name="Trazado 226599" d="M23.048,40.064a.371.371,0,0,1-.24-.655l1.929-1.62-2.348,1.355a.371.371,0,0,1-.4-.625l1.207-.844-1.433.828a.371.371,0,0,1-.392-.629L23.7,36.307l-2.607,1.5a.371.371,0,0,1-.393-.628l6.52-4.409-7.062,4.079a.371.371,0,0,1-.389-.631l9.075-5.97L19.17,35.836a.371.371,0,0,1-.382-.635l5.192-3.247-5.5,3.174a.371.371,0,0,1-.38-.637l1.276-.783-1.458.842a.371.371,0,1,1-.381-.636l7.443-4.635-7.811,4.505a.371.371,0,0,1-.378-.637l.907-.553-1.08.623a.371.371,0,0,1-.383-.634l13.191-8.358-13.8,7.969a.371.371,0,0,1-.38-.637L24.058,26.1l-9.2,5.309a.371.371,0,0,1-.378-.638L16.7,29.426,14.286,30.82a.371.371,0,0,1-.378-.638l1.138-.69-1.312.76a.371.371,0,0,1-.378-.639l2-1.215-2.2,1.267a.371.371,0,0,1-.381-.636l10.543-6.519L12.36,28.843a.371.371,0,0,1-.381-.636l12.285-7.632L11.492,27.949a.371.371,0,0,1-.379-.637l7.78-4.763-8.1,4.678a.371.371,0,0,1-.382-.636l13.711-8.544L9.865,26.28a.371.371,0,0,1-.378-.638l2.366-1.433L9.29,25.685a.371.371,0,0,1-.381-.636l13.618-8.477L8.37,24.744a.371.371,0,1,1-.38-.637l10.192-6.27L7.6,23.948a.371.371,0,1,1-.378-.639L10.1,21.564l-3.088,1.78a.371.371,0,0,1-.382-.635L20.8,13.853,6.057,22.364a.371.371,0,0,1-.379-.638l7.367-4.51L5.381,21.641A.371.371,0,0,1,5,21.007l14.143-8.891L4.506,20.565a.371.371,0,0,1-.378-.638l1.35-.816-1.421.817a.371.371,0,1,1-.379-.638l3.569-2.179-3.6,2.077a.371.371,0,0,1-.381-.636l1.014-.632L3.27,18.5a.371.371,0,0,1-.384-.634L7.2,15.13,2.935,17.592a.371.371,0,0,1-.39-.63l8.581-5.695-8.6,4.97a.371.371,0,0,1-.391-.63l8.2-5.469L2.28,14.788a.371.371,0,0,1-.39-.63L8.514,9.781,2.24,13.405a.371.371,0,0,1-.393-.628L8.9,8l-6.52,3.76a.371.371,0,0,1-.4-.625L8.458,6.619,2.833,9.867a.371.371,0,0,1-.4-.622L7.294,5.758,3.741,7.808a.371.371,0,0,1-.426-.6l3.035-2.6a.371.371,0,0,1-.259-.684l3.3-1.907a.371.371,0,0,1,.427.6L6.863,5.15l6.57-3.792a.371.371,0,0,1,.4.621L8.974,5.465l6.632-3.829a.371.371,0,0,1,.4.625L9.524,6.78l7.918-4.571a.371.371,0,0,1,.393.628L10.784,7.616l8.057-4.651a.371.371,0,0,1,.39.629L12.6,7.971l7.337-4.234a.371.371,0,0,1,.391.629l-8.2,5.466,8.93-5.156a.371.371,0,0,1,.391.631L12.868,11l9.2-5.313a.371.371,0,0,1,.384.634l-4.32,2.744,4.63-2.67a.371.371,0,0,1,.381.635l-1.006.628,10.9-6.291a.371.371,0,1,1,.379.638L29.847,4.182,34.668,1.4a.371.371,0,1,1,.378.638l-1.335.811,2.151-1.24a.371.371,0,0,1,.383.635L22.092,11.136,37.635,2.162a.371.371,0,0,1,.378.638L30.634,7.316,38.7,2.661a.371.371,0,0,1,.382.636L24.923,12.149,40,3.444a.371.371,0,0,1,.378.638l-2.87,1.74L40.655,4a.371.371,0,0,1,.38.637l-10.2,6.275L41.516,4.753a.371.371,0,0,1,.382.636L28.277,13.867l14.04-8.106a.371.371,0,0,1,.378.638L40.338,7.825l2.48-1.431a.371.371,0,0,1,.382.636L29.479,15.579,43.438,7.521a.371.371,0,0,1,.379.638l-7.769,4.757,7.837-4.524a.371.371,0,0,1,.381.636L31.977,16.658,44.263,9.566a.371.371,0,0,1,.381.636L34.1,16.721l10.483-6.05a.371.371,0,0,1,.378.639l-2.014,1.216,1.727-1a.371.371,0,0,1,.378.639l-1.119.679.82-.474a.371.371,0,0,1,.378.638l-2.2,1.339,1.846-1.065a.371.371,0,0,1,.38.636L36.32,19.388l8.332-4.809a.371.371,0,0,1,.383.634L31.85,23.568l12.386-7.151a.371.371,0,0,1,.379.638l-.907.553.168-.1a.371.371,0,0,1,.381.636l-7.445,4.636,6.195-3.58a.371.371,0,0,1,.379.637l-1.558.958a.371.371,0,0,1,.307.668l-5.2,3.257,2.5-1.445a.371.371,0,0,1,.389.631l-9.065,5.966,5.161-2.979a.371.371,0,0,1,.393.628l-6.527,4.411,2.818-1.627a.371.371,0,0,1,.393.629l-2.647,1.78a.376.376,0,0,1,.365.168.371.371,0,0,1-.1.5L28.3,35.009a.371.371,0,0,1,.13.639l-3,2.528a.371.371,0,0,1-.055.6l-2.138,1.234A.361.361,0,0,1,23.048,40.064Zm0,0" transform="translate(-1.54 -1.005)" fill="#e4d5ff"/>
      <path id="Trazado_226600" data-name="Trazado 226600" d="M21.472,39.429a.657.657,0,0,0,.943-.069l11.64-11.966c4.334-4.45,9.652-8.475,9.962-15.171C43.727,5.944,39.32.569,32.817.228c-4.642-.244-7.778,2.3-10.8,5.351C17.393,1.018,11.5-1.925,5.3,2.2-1.031,6.419-1.673,15.221,3.277,20.732,9.074,27.184,15.42,33.211,21.472,39.429ZM1.039,11.23C1.6,5.254,6.989.118,13.218,1.162c3.616.606,5.846,2.873,8.253,5.348a.657.657,0,0,0,.943-.07c2.754-2.83,5.316-5.348,9.625-5.37C38.276,1.038,42.65,6.336,42.925,12.3c-.313,6.759-6.392,11.274-10.782,15.788l-10.13,10.41L6.634,22.689C3.493,19.457.574,16.184,1.039,11.23Zm0,0" transform="translate(0)" fill="#262626"/>
    </g>
  </g>
</svg>
