<svg xmlns="http://www.w3.org/2000/svg" xmlns:xlink="http://www.w3.org/1999/xlink" width="400" height="457" viewBox="0 0 400 457">
  <defs>
    <clipPath id="clip-path">
      <rect id="Rectángulo_59043" data-name="Rectángulo 59043" width="272.816" height="245.039" fill="none"/>
    </clipPath>
  </defs>
  <g id="Grupo_181378" data-name="Grupo 181378" transform="translate(-390 -2554)">
    <path id="Trazado_231455" data-name="Trazado 231455" d="M20,0H380a20,20,0,0,1,20,20V437a20,20,0,0,1-20,20H20A20,20,0,0,1,0,437V20A20,20,0,0,1,20,0Z" transform="translate(390 2554)" fill="#eeac3a"/>
    <path id="Trazado_231456" data-name="Trazado 231456" d="M6.592-3.867,9.424-14.219h3.828L8.467,0H4.717L-.029-14.219h3.8ZM18.818.2a5.432,5.432,0,0,1-3.936-1.45,5.008,5.008,0,0,1-1.5-3.774V-5.3a6.489,6.489,0,0,1,.6-2.861,4.395,4.395,0,0,1,1.753-1.919,5.292,5.292,0,0,1,2.734-.679A4.574,4.574,0,0,1,21.982-9.38a5.43,5.43,0,0,1,1.289,3.853v1.279H16.729a2.372,2.372,0,0,0,.771,1.4,2.3,2.3,0,0,0,1.543.508,2.958,2.958,0,0,0,2.441-1.094l1.5,1.777A4.2,4.2,0,0,1,21.245-.308,5.891,5.891,0,0,1,18.818.2Zm-.371-8.418q-1.445,0-1.719,1.914h3.32v-.254a1.63,1.63,0,0,0-.4-1.226A1.593,1.593,0,0,0,18.447-8.223Zm9.17-2.344.107,1.24a3.583,3.583,0,0,1,3.018-1.436,3.015,3.015,0,0,1,2.466.986,4.7,4.7,0,0,1,.845,2.969V0h-3.3V-6.67a1.783,1.783,0,0,0-.322-1.177,1.491,1.491,0,0,0-1.172-.376,1.569,1.569,0,0,0-1.436.762V0H24.531V-10.566Zm12.09-2.627v2.627h1.738v2.285H39.707v4.834a1.234,1.234,0,0,0,.215.83,1.152,1.152,0,0,0,.85.234,4.828,4.828,0,0,0,.82-.059V-.088A6.074,6.074,0,0,1,39.736.2a3.448,3.448,0,0,1-2.51-.8,3.282,3.282,0,0,1-.811-2.432V-8.281H35.068v-2.285h1.348v-2.627ZM48.691,0a3.716,3.716,0,0,1-.312-.947A3.06,3.06,0,0,1,45.84.2a3.749,3.749,0,0,1-2.539-.9,2.875,2.875,0,0,1-1.045-2.271,2.955,2.955,0,0,1,1.27-2.6,6.468,6.468,0,0,1,3.691-.879h1.016v-.559q0-1.462-1.26-1.462A1.03,1.03,0,0,0,45.8-7.319H42.51a2.95,2.95,0,0,1,1.3-2.487,5.479,5.479,0,0,1,3.325-.956,4.8,4.8,0,0,1,3.193.986,3.429,3.429,0,0,1,1.2,2.705v4.678a4.79,4.79,0,0,0,.449,2.227V0ZM46.631-2.148a1.836,1.836,0,0,0,1.021-.264,1.653,1.653,0,0,0,.581-.6V-4.7h-.957q-1.719,0-1.719,1.543a.942.942,0,0,0,.3.728A1.1,1.1,0,0,0,46.631-2.148ZM61.807,0h-3.3V-10.566h3.3Zm-3.5-13.3a1.482,1.482,0,0,1,.508-1.159,1.909,1.909,0,0,1,1.318-.452,1.909,1.909,0,0,1,1.318.452,1.482,1.482,0,0,1,.508,1.159,1.482,1.482,0,0,1-.508,1.159,1.909,1.909,0,0,1-1.318.452,1.909,1.909,0,0,1-1.318-.452A1.482,1.482,0,0,1,58.311-13.3Zm8.545,2.734.107,1.24a3.583,3.583,0,0,1,3.018-1.436,3.015,3.015,0,0,1,2.466.986,4.7,4.7,0,0,1,.845,2.969V0h-3.3V-6.67a1.783,1.783,0,0,0-.322-1.177A1.491,1.491,0,0,0,68.5-8.223a1.569,1.569,0,0,0-1.436.762V0H63.77V-10.566ZM84.922-5.2A6.44,6.44,0,0,1,83.848-1.2,3.6,3.6,0,0,1,80.82.2a3.122,3.122,0,0,1-2.6-1.279L78.086,0H75.137V-15h3.291v5.283A3.013,3.013,0,0,1,80.8-10.762a3.6,3.6,0,0,1,3.047,1.416,6.473,6.473,0,0,1,1.074,3.984Zm-3.3-.21a4.3,4.3,0,0,0-.405-2.169,1.366,1.366,0,0,0-1.245-.648,1.576,1.576,0,0,0-1.543.848v4.192a1.585,1.585,0,0,0,1.563.838,1.4,1.4,0,0,0,1.475-1.131A8.121,8.121,0,0,0,81.621-5.405Zm4.336.024A6.236,6.236,0,0,1,86.572-8.2a4.4,4.4,0,0,1,1.768-1.9,5.323,5.323,0,0,1,2.705-.664,4.858,4.858,0,0,1,3.74,1.47,5.64,5.64,0,0,1,1.367,4v.117A5.472,5.472,0,0,1,94.78-1.255,4.871,4.871,0,0,1,91.064.2a4.927,4.927,0,0,1-3.623-1.353,5.29,5.29,0,0,1-1.475-3.667Zm3.291.205a3.932,3.932,0,0,0,.459,2.148,1.529,1.529,0,0,0,1.357.684q1.758,0,1.8-2.705v-.332q0-2.842-1.816-2.842-1.65,0-1.787,2.451ZM103.9-1.143A3.393,3.393,0,0,1,101.074.2,3.328,3.328,0,0,1,98.442-.815a4.251,4.251,0,0,1-.894-2.905v-6.846h3.291V-3.7a1.183,1.183,0,0,0,1.318,1.357,1.72,1.72,0,0,0,1.611-.811v-7.412h3.311V0h-3.086Zm8.008-9.424.107,1.24a3.583,3.583,0,0,1,3.018-1.436,3.015,3.015,0,0,1,2.466.986,4.7,4.7,0,0,1,.845,2.969V0h-3.3V-6.67a1.783,1.783,0,0,0-.322-1.177,1.491,1.491,0,0,0-1.172-.376,1.569,1.569,0,0,0-1.436.762V0h-3.291V-10.566Zm7.842,5.205a6.455,6.455,0,0,1,1.084-3.955,3.568,3.568,0,0,1,3.027-1.445,3.035,3.035,0,0,1,2.383,1.113V-15h3.3V0h-2.959l-.166-1.133A3.116,3.116,0,0,1,123.838.2,3.562,3.562,0,0,1,120.85-1.25,6.659,6.659,0,0,1,119.746-5.361Zm3.291.205q0,2.813,1.641,2.813a1.62,1.62,0,0,0,1.563-.918V-7.285a1.576,1.576,0,0,0-1.543-.937q-1.523,0-1.65,2.461Z" transform="translate(520 2631)" fill="#12263f"/>
    <g id="Grupo_180193" data-name="Grupo 180193" transform="translate(458.589 2694.9)">
      <g id="Grupo_180192" data-name="Grupo 180192" clip-path="url(#clip-path)">
        <path id="Trazado_230689" data-name="Trazado 230689" d="M23.024,59.625C4.839,69.853-6.125,93.044,3.666,112.675c4.342,8.706,11.112,15.933,16.433,24.077s9.27,18.053,6.927,27.494c-2.374,9.569-11.862,16.585-12.946,26.372-1.022,9.227,5.041,19,13.663,22.3,9.452,3.616,20.212.147,28.83-5.158s16.095-12.407,25.086-17.053,20.5-6.432,28.91-.8c5.534,3.707,8.776,9.942,13.5,14.636a31.736,31.736,0,0,0,33.118,6.88c9.6-3.749,15.833-11.977,18.8-21.577,2.639-8.547,5.87-20.7,14.68-24.8,6.073-2.825,13.268-1.192,19.471,1.335s12.211,5.94,18.869,6.668A24.268,24.268,0,0,0,250.7,133.9c-6.224-7.891-17.7-12.757-18.767-22.751-.8-7.484,4.935-13.978,10.668-18.855s12.278-9.826,14.082-17.133c2.878-11.66-8.239-22.566-19.8-25.816s-23.959-1.729-35.737-4.079C170.433,39.138,149,8.172,118.111,3.035,104.667.8,89.4,4.657,81.453,15.731c-2.728,3.8-4.458,8.217-6.781,12.281A47.93,47.93,0,0,1,56.958,45.729c-10.627,6.078-23.263,7.895-33.934,13.9" transform="translate(0 -1.653)" fill="#f8e5c2"/>
        <path id="Trazado_230691" data-name="Trazado 230691" d="M382.287,379.556a3.612,3.612,0,1,0-3.612,3.612,3.612,3.612,0,0,0,3.612-3.612" transform="translate(-255.526 -256.126)" fill="#8abae7"/>
        <path id="Trazado_230692" data-name="Trazado 230692" d="M736.609,278.055a8.551,8.551,0,1,1,8.551-8.551,8.561,8.561,0,0,1-8.551,8.551m0-16.465a7.914,7.914,0,1,0,7.914,7.914,7.923,7.923,0,0,0-7.914-7.914" transform="translate(-496.017 -177.784)"/>
        <path id="Trazado_230693" data-name="Trazado 230693" d="M377.491,675.253A3.488,3.488,0,1,0,374,678.742a3.488,3.488,0,0,0,3.488-3.488" transform="translate(-252.427 -457.665)" fill="#8abae7"/>
        <path id="Trazado_230694" data-name="Trazado 230694" d="M597.517,572.246a6.955,6.955,0,1,0-6.955,6.956,6.955,6.955,0,0,0,6.955-6.956" transform="translate(-397.603 -385.125)" fill="#d8e5f3"/>
        <path id="Trazado_230695" data-name="Trazado 230695" d="M786.322,351.131a4.073,4.073,0,1,1,4.073-4.073,4.078,4.078,0,0,1-4.073,4.073m0-7.509a3.436,3.436,0,1,0,3.436,3.436,3.44,3.44,0,0,0-3.436-3.436" transform="translate(-532.936 -233.671)"/>
        <path id="Trazado_230696" data-name="Trazado 230696" d="M656.13,214.247a4.9,4.9,0,1,0-4.9,4.9,4.9,4.9,0,0,0,4.9-4.9" transform="translate(-440.333 -142.624)" fill="#8abae7"/>
        <path id="Trazado_230697" data-name="Trazado 230697" d="M314.11,55.844a3.713,3.713,0,1,1,3.713-3.713,3.717,3.717,0,0,1-3.713,3.713m0-6.788a3.075,3.075,0,1,0,3.075,3.075,3.079,3.079,0,0,0-3.075-3.075" transform="translate(-211.47 -32.987)"/>
        <path id="Trazado_230698" data-name="Trazado 230698" d="M149.4,70.335a7.92,7.92,0,1,0-7.921,7.921,7.921,7.921,0,0,0,7.921-7.921" transform="translate(-90.995 -42.522)" fill="#d8e5f3"/>
        <path id="Trazado_230699" data-name="Trazado 230699" d="M39.367,453.951c2.13,6.919.688,13.5-3.22,14.706s-8.8-3.429-10.935-10.348-.688-13.5,3.221-14.706,8.8,3.429,10.935,10.348" transform="translate(-16.506 -302.092)" fill="#d8e5f3"/>
        <path id="Trazado_230700" data-name="Trazado 230700" d="M470.791,400.245a.319.319,0,0,1-.319-.319v-7.895a.319.319,0,1,1,.637,0v7.895a.319.319,0,0,1-.319.319" transform="translate(-320.527 -266.869)"/>
        <path id="Trazado_230701" data-name="Trazado 230701" d="M466.3,404.736h-7.895a.319.319,0,0,1,0-.637H466.3a.319.319,0,0,1,0,.637" transform="translate(-312.089 -275.308)"/>
        <path id="Trazado_230702" data-name="Trazado 230702" d="M731.728,187.327a.319.319,0,0,1-.225-.544l5.582-5.582a.319.319,0,0,1,.451.451l-5.582,5.582a.318.318,0,0,1-.225.094" transform="translate(-498.3 -123.386)"/>
        <path id="Trazado_230703" data-name="Trazado 230703" d="M737.31,187.327a.318.318,0,0,1-.225-.094l-5.582-5.582a.319.319,0,0,1,.451-.451l5.582,5.582a.319.319,0,0,1-.225.544" transform="translate(-498.3 -123.386)"/>
        <path id="Trazado_230704" data-name="Trazado 230704" d="M323.183,641.012l-.035,0a.319.319,0,0,1-.257-.188l-4.96-11.272a.319.319,0,0,1,.326-.445l12.241,1.34a.319.319,0,0,1,.222.505l-7.281,9.931a.319.319,0,0,1-.257.13M318.737,629.8l4.516,10.261,6.629-9.041Z" transform="translate(-216.584 -428.6)"/>
        <path id="Trazado_230705" data-name="Trazado 230705" d="M235.474,693.126c1.26,8.526,10.08,5.124,11.76,11.928H218.821l-.483-5.964s5.04-6.132,17.136-5.964" transform="translate(-148.751 -472.216)" fill="#8abae7"/>
        <path id="Trazado_230706" data-name="Trazado 230706" d="M102.694,715.8c-.906,6.533,10.583,9.744,10.08,16.128-13.607,3.36-23.183-5.208-29.9-6.048l1.68-10.08Z" transform="translate(-56.458 -487.665)" fill="#8abae7"/>
        <path id="Trazado_230707" data-name="Trazado 230707" d="M73.294,369.72c-3.528,16.632,11.97,47.459,1.3,108.11,0,0,13.314,5.006,24.045-.948,0,0,6.153-49.454,2-74.78,0,0,14.784,39.669,16.3,72.554,0,0,13.776-.273,21.839-6.783,0,0-10.542-76.733-24.905-103.57,0,0-16.884-9.2-40.571,5.418" transform="translate(-49.57 -246.249)"/>
        <path id="Trazado_230708" data-name="Trazado 230708" d="M44.557,239.844c-8.82,14.868,7.762,37.8,7.762,37.8s28.1,6.3,40.571-5.418c0,0-8.694-41.58-13.986-44.981s-28.471,2.694-34.347,12.6" transform="translate(-28.595 -154.172)" fill="#0b67d1"/>
        <path id="Trazado_230709" data-name="Trazado 230709" d="M246.491,723.089H218.7a.319.319,0,0,1,0-.637h27.793a.319.319,0,0,1,0,.637" transform="translate(-148.779 -492.197)"/>
        <path id="Trazado_230710" data-name="Trazado 230710" d="M106.605,745c-5.3,0-9.22-1.667-13.869-3.643a89.546,89.546,0,0,0-9.117-3.453.319.319,0,0,1,.187-.609,90.135,90.135,0,0,1,9.18,3.476c6.173,2.623,11.048,4.695,19.64,2.935a.319.319,0,1,1,.128.624,30.5,30.5,0,0,1-6.148.67" transform="translate(-56.815 -502.3)"/>
        <path id="Trazado_230711" data-name="Trazado 230711" d="M69.569,228.011c-3.648-7.727,10.2-13.9,16.253-6.433l2.905,5.825H81.545l-2.708,5.418Z" transform="translate(-46.986 -148.66)" fill="#fff"/>
        <path id="Trazado_230712" data-name="Trazado 230712" d="M78.159,232.459a.318.318,0,0,1-.147-.036l-9.268-4.81a.321.321,0,0,1-.142-.147c-1.481-3.138-.316-6.4,3.04-8.508a11.75,11.75,0,0,1,6.993-1.72A9.419,9.419,0,0,1,85.39,220.7a.309.309,0,0,1,.038.059l2.905,5.825a.319.319,0,0,1-.285.461H81.063l-2.62,5.242a.319.319,0,0,1-.285.176M69.134,227.1l8.884,4.611,2.563-5.129a.319.319,0,0,1,.285-.176h6.667l-2.659-5.333c-3.273-4-9.12-3.945-12.892-1.573-2.376,1.494-4.357,4.269-2.848,7.6" transform="translate(-46.307 -147.98)"/>
        <path id="Trazado_230713" data-name="Trazado 230713" d="M86.433,218.151a4.315,4.315,0,1,1-4.285-3.809,4.068,4.068,0,0,1,4.285,3.809" transform="translate(-53.046 -146.029)" fill="#fff"/>
        <path id="Trazado_230714" data-name="Trazado 230714" d="M81.466,221.6a4.153,4.153,0,1,1,4.6-4.128,4.391,4.391,0,0,1-4.6,4.128m0-7.618a3.519,3.519,0,1,0,3.967,3.491,3.756,3.756,0,0,0-3.967-3.491" transform="translate(-52.365 -145.347)"/>
        <path id="Trazado_230715" data-name="Trazado 230715" d="M70.655,171.859c2.709,5.595,1.486,11.786-2.731,13.828s-9.832-.839-12.541-6.434-1.486-11.786,2.731-13.828,9.832.839,12.541,6.434" transform="translate(-36.75 -112.255)" fill="#fff"/>
        <path id="Trazado_230716" data-name="Trazado 230716" d="M64.355,185.984c-3.738,0-7.757-2.782-9.928-7.266-2.781-5.744-1.49-12.139,2.879-14.254s10.186.837,12.967,6.582a13.574,13.574,0,0,1,1.258,8.447,7.861,7.861,0,0,1-4.137,5.807,6.923,6.923,0,0,1-3.039.685m-4-21.57a6.318,6.318,0,0,0-2.774.624C53.531,167,52.372,173.013,55,178.44s8.062,8.248,12.116,6.286A7.241,7.241,0,0,0,70.9,179.37a12.933,12.933,0,0,0-1.206-8.046c-2.061-4.257-5.849-6.91-9.342-6.91" transform="translate(-36.081 -111.581)"/>
        <path id="Trazado_230717" data-name="Trazado 230717" d="M51.756,171.255c4.086-2.258,3.76-3.221.609-7.994,5.327-2.3,3.777-7.815,3.777-7.815l3.543,1.917c3.514-4.107-1.6-5.5-2.914-3.794-2.665-7.529-16.758.694-11.311,7.157-6.237,3.44,3.279,13.551,6.3,10.531" transform="translate(-29.557 -102.577)"/>
        <path id="Trazado_230718" data-name="Trazado 230718" d="M59.235,205.178c1.813,1.18,2.571,3.229,1.694,4.576s-3.058,1.483-4.871.3-2.571-3.229-1.694-4.576,3.058-1.483,4.871-.3" transform="translate(-36.789 -139.238)" fill="#fff"/>
        <path id="Trazado_230719" data-name="Trazado 230719" d="M57.933,210.5a5.053,5.053,0,0,1-2.723-.85c-1.957-1.274-2.759-3.525-1.787-5.018s3.354-1.671,5.311-.4a.319.319,0,1,1-.348.534c-1.663-1.082-3.65-.988-4.43.21s-.062,3.053,1.6,4.136,3.65.988,4.43-.21a.319.319,0,0,1,.534.348,2.985,2.985,0,0,1-2.589,1.247" transform="translate(-36.115 -138.566)"/>
        <path id="Trazado_230720" data-name="Trazado 230720" d="M289.5,319.332c-77.5-40.014-106.223-99.673-71.723-102.011l-16.433-9.41L179.462,243.9l40.361,55.423,43.005,20.007Z" transform="translate(-122.265 -141.647)" fill="#8abae7"/>
        <path id="Trazado_230721" data-name="Trazado 230721" d="M288.824,318.969H262.147a.32.32,0,0,1-.134-.03l-43.005-20.007a.321.321,0,0,1-.123-.1l-40.361-55.423a.319.319,0,0,1-.015-.353l21.886-35.991a.319.319,0,0,1,.431-.111l16.433,9.41a.319.319,0,0,1-.137.595c-7.76.526-12.529,4.022-13.792,10.11-2.03,9.787,5.142,25.238,19.185,41.331,16.034,18.375,39.635,36.121,66.455,49.968a.319.319,0,0,1-.146.6m-26.606-.637h25.3c-26.409-13.794-49.629-31.344-65.483-49.513-14.173-16.242-21.4-31.9-19.329-41.879,1.27-6.124,5.878-9.75,13.352-10.53l-15.279-8.749L179.164,243.2l40.187,55.185Z" transform="translate(-121.585 -140.965)"/>
        <path id="Trazado_230722" data-name="Trazado 230722" d="M340.008,189.412c-50.364-58.068-110.157-70.487-141.1-40.452l63.83,10.7,55.654,28.721Z" transform="translate(-135.513 -90.722)" fill="#eeac3a"/>
        <path id="Trazado_230723" data-name="Trazado 230723" d="M339.327,189.047h-.015l-21.618-1.035a.32.32,0,0,1-.131-.035l-55.609-28.7-63.78-10.687a.319.319,0,0,1-.169-.543c11.451-11.115,26.953-16.587,44.825-15.817,31.63,1.358,66.89,21.875,96.739,56.289a.319.319,0,0,1-.241.527m-21.533-1.668,20.8,1c-29.629-33.943-64.512-54.164-95.8-55.507-17.458-.75-32.62,4.5-43.9,15.2l63.2,10.59a.322.322,0,0,1,.093.031Z" transform="translate(-134.832 -90.038)"/>
        <path id="Trazado_230724" data-name="Trazado 230724" d="M248.488,277.375c-128.785-86.009-45.113-148.1,30.817-57.867l11.5-22.163c-23.457-28.721-95.209-76.811-123.726-34.036-27.206,40.81,13.569,109.008,68.072,136.6Z" transform="translate(-107.926 -99.691)" fill="#d8e5f3"/>
        <path id="Trazado_230725" data-name="Trazado 230725" d="M234.473,299.554a.317.317,0,0,1-.144-.034A154.069,154.069,0,0,1,187.2,261.889c-13.351-15.712-22.718-32.8-27.088-49.429-5.054-19.226-2.972-36.517,6.02-50.005,7.125-10.688,17.393-16.43,30.517-17.066,10.406-.5,28.018,2.04,52.851,17.024,15.879,9.581,31.539,22.629,40.869,34.053a.319.319,0,0,1,.036.348l-11.5,22.163a.318.318,0,0,1-.527.059c-14.248-16.933-29.958-29.8-45.431-37.2-13.477-6.449-26.281-8.511-36.052-5.806-8.556,2.369-14,8.209-15.321,16.447-1.113,6.924.156,18.744,12.52,35.737,11.486,15.786,29.617,32.009,53.888,48.219a.318.318,0,0,1,.1.427L234.747,299.4a.317.317,0,0,1-.274.156M199.091,145.968q-1.263,0-2.408.057c-12.911.626-23.01,6.272-30.018,16.783-8.888,13.332-10.939,30.445-5.933,49.489,4.346,16.533,13.668,33.539,26.958,49.179a153.517,153.517,0,0,0,46.661,37.34l13.032-22.022c-24.209-16.2-42.307-32.413-53.8-48.206C183.7,215,179.327,202.475,180.951,192.374c1.366-8.5,6.97-14.521,15.78-16.96,9.919-2.746,22.881-.67,36.5,5.846,15.443,7.389,31.111,20.178,45.337,37l11.182-21.554c-9.3-11.332-24.827-24.249-40.572-33.749-22.868-13.8-39.55-16.99-50.083-16.99" transform="translate(-107.249 -99.012)"/>
        <path id="Trazado_230726" data-name="Trazado 230726" d="M322.955,499.635a.319.319,0,0,1-.273-.483l9.293-15.433c-29.168-19.66-42.282-35.355-42.412-35.512a.319.319,0,0,1,.491-.406c.129.157,13.268,15.876,42.527,35.558a.318.318,0,0,1,.095.429l-9.449,15.692a.318.318,0,0,1-.273.154" transform="translate(-197.226 -305.003)" fill="#fff"/>
        <path id="Trazado_230727" data-name="Trazado 230727" d="M178.709,163.31a49.865,49.865,0,0,0-3.222,5.589l21.691,15.342,0,0c12.722-17.383,54.281-11.644,93.753,35.265l11.5-22.163c-23.457-28.721-95.209-76.811-123.726-34.036" transform="translate(-119.557 -99.691)" fill="#eeac3a"/>
        <path id="Trazado_230728" data-name="Trazado 230728" d="M290.254,219.149a.319.319,0,0,1-.244-.113c-12.658-15.043-26.077-26.59-39.883-34.319-12.081-6.763-23.786-10.154-33.859-9.817-8.617.292-15.546,3.436-19.51,8.854a.318.318,0,0,1-.436.076l-21.7-15.349a.319.319,0,0,1-.1-.4,50.409,50.409,0,0,1,3.242-5.624c7.125-10.688,17.393-16.43,30.517-17.066,10.4-.5,28.018,2.04,52.851,17.024,15.879,9.58,31.539,22.629,40.87,34.053a.319.319,0,0,1,.036.348l-11.5,22.163a.319.319,0,0,1-.248.17l-.035,0M217.66,174.24c9.859,0,21.155,3.414,32.779,9.922,13.762,7.7,27.134,19.175,39.752,34.1l11.183-21.554c-9.3-11.332-24.827-24.248-40.572-33.748-24.7-14.9-42.177-17.434-52.491-16.933-12.911.626-23.01,6.272-30.018,16.782a49.79,49.79,0,0,0-3.08,5.309l21.219,15.008c4.11-5.424,11.133-8.569,19.816-8.863q.7-.024,1.413-.024" transform="translate(-118.875 -99.013)"/>
        <path id="Trazado_230729" data-name="Trazado 230729" d="M536.63,299.347a.319.319,0,0,1-.282-.467l5.261-10.046-8.363-9.063a.319.319,0,1,1,.468-.432l8.516,9.228a.319.319,0,0,1,.048.364l-5.365,10.245a.319.319,0,0,1-.283.171" transform="translate(-363.236 -190.24)" fill="#fff"/>
        <path id="Trazado_230730" data-name="Trazado 230730" d="M412.519,557.508H439.2L425.34,580.047h-26.16Z" transform="translate(-271.957 -379.823)" fill="#fff"/>
        <path id="Trazado_230731" data-name="Trazado 230731" d="M424.66,579.685H398.5a.319.319,0,0,1-.274-.481l13.339-22.539a.318.318,0,0,1,.274-.156h26.677a.319.319,0,0,1,.271.486l-13.856,22.539a.319.319,0,0,1-.272.152m-25.6-.637h25.422l13.464-21.9H412.02Z" transform="translate(-271.276 -379.143)"/>
        <path id="Trazado_230732" data-name="Trazado 230732" d="M494.6,607.173s-31.6,5.766-18.7-9.253l-13.947-2.669s36.313-10.674,19.308,5.919Z" transform="translate(-314.726 -403.235)" fill="#fff"/>
        <path id="Trazado_230733" data-name="Trazado 230733" d="M482.335,607.949c-4.437,0-8.751-.66-10.095-3-1.023-1.784-.219-4.289,2.389-7.449l-13.413-2.567a.319.319,0,0,1-.03-.619c.869-.255,21.306-6.2,23.954-1.677.949,1.623-.359,4.177-4,7.8l12.91,5.812a.319.319,0,0,1-.074.6,73.7,73.7,0,0,1-11.64,1.1m-19.68-13.393,12.628,2.417a.318.318,0,0,1,.182.521c-2.692,3.132-3.591,5.533-2.672,7.135,1.137,1.983,5.115,2.895,11.506,2.636a78.438,78.438,0,0,0,8.527-.868l-12.373-5.57a.319.319,0,0,1-.092-.519c4.488-4.379,4.777-6.415,4.228-7.352-1.857-3.173-15.426-.194-21.935,1.6" transform="translate(-314.044 -402.6)"/>
        <path id="Trazado_230734" data-name="Trazado 230734" d="M537.722,328.569l20,1.646,13.12-22.774-21.617-1.035Z" transform="translate(-366.343 -208.75)" fill="#eeac3a"/>
        <path id="Trazado_230735" data-name="Trazado 230735" d="M557.037,329.851h-.026l-20-1.646a.319.319,0,0,1-.257-.464l11.5-22.163a.322.322,0,0,1,.3-.172l21.617,1.035a.319.319,0,0,1,.261.478l-13.12,22.773a.318.318,0,0,1-.276.16m-19.493-2.243,19.318,1.59,12.758-22.146-20.892-1Z" transform="translate(-365.662 -208.069)"/>
        <path id="Trazado_230736" data-name="Trazado 230736" d="M596.592,335.876s7.7,33.734,17.094,14.582l8.561,12.676s-4.843-40.48-14.054-16.6Z" transform="translate(-406.451 -228.828)" fill="#fff"/>
        <path id="Trazado_230737" data-name="Trazado 230737" d="M621.566,362.771a.318.318,0,0,1-.264-.14l-8.257-12.224c-2.023,3.939-4.157,5.807-6.355,5.55-6.465-.751-10.9-19.876-11.09-20.69a.318.318,0,0,1,.526-.305L607.385,345.3c2.043-5.154,4.014-7.542,6.013-7.29,2.387.3,4.54,4.525,6.4,12.561,1.365,5.9,2.077,11.784,2.084,11.843a.319.319,0,0,1-.205.336.315.315,0,0,1-.111.02M613,349.458a.319.319,0,0,1,.264.14l7.811,11.564c-.974-7.173-3.8-22.024-7.76-22.52-1.676-.209-3.581,2.322-5.51,7.321a.318.318,0,0,1-.513.12l-10.825-9.941c1.023,4.019,5.079,18.575,10.292,19.18,1.987.23,3.992-1.683,5.955-5.687a.32.32,0,0,1,.265-.177H613" transform="translate(-405.769 -228.147)"/>
        <path id="Trazado_230738" data-name="Trazado 230738" d="M238.864,287.579l2.618,12.9s8.975-2.8,9.162-6.45-1.144-14.669-7.023-13.739l.478,3.922Z" transform="translate(-162.735 -190.921)" fill="#fff"/>
        <path id="Trazado_230739" data-name="Trazado 230739" d="M240.8,300.119a.32.32,0,0,1-.312-.255l-2.618-12.9a.319.319,0,0,1,.14-.332l5.067-3.257-.454-3.724a.319.319,0,0,1,.267-.353,4.233,4.233,0,0,1,3.637,1.1c3.16,2.843,3.9,10.1,3.753,12.97-.2,3.823-9.01,6.621-9.385,6.739a.324.324,0,0,1-.095.014m-2.262-13.07,2.5,12.336a32.751,32.751,0,0,0,4.132-1.73c2.854-1.457,4.4-2.952,4.471-4.321.159-3.092-.718-9.922-3.543-12.463a3.615,3.615,0,0,0-2.806-.981l.44,3.606a.32.32,0,0,1-.144.307Z" transform="translate(-162.054 -190.241)"/>
        <path id="Trazado_230740" data-name="Trazado 230740" d="M244.729,328.031a.319.319,0,0,1-.16-.594l6.888-4a.319.319,0,0,1,.32.551l-6.888,4a.317.317,0,0,1-.16.043" transform="translate(-166.514 -220.326)"/>
        <path id="Trazado_230741" data-name="Trazado 230741" d="M242.883,317.155a.319.319,0,0,1-.163-.593l7.033-4.174a.319.319,0,0,1,.325.548l-7.033,4.174a.317.317,0,0,1-.162.045" transform="translate(-165.256 -212.795)"/>
        <path id="Trazado_230742" data-name="Trazado 230742" d="M241.039,306.824a.319.319,0,0,1-.148-.6l6.72-3.523a.319.319,0,0,1,.3.564l-6.721,3.523a.32.32,0,0,1-.148.036" transform="translate(-163.999 -206.201)"/>
        <path id="Trazado_230743" data-name="Trazado 230743" d="M55.151,287.783c9.576,21.666,41.327,18.648,41.327,18.648a20.89,20.89,0,0,1,0,23.688s-45.6,10.318-54.048-35.413Z" transform="translate(-28.908 -196.063)" fill="#0b67d1"/>
        <path id="Trazado_230744" data-name="Trazado 230744" d="M113.827,306.666h-.008c-13.82-.345-21.906-5.609-26.257-9.964a25.187,25.187,0,0,1-6.206-9.507.319.319,0,0,1,.61-.185,25.069,25.069,0,0,0,6.072,9.266c4.267,4.262,12.206,9.414,25.8,9.753a.319.319,0,0,1-.008.637" transform="translate(-55.418 -195.382)"/>
        <path id="Trazado_230745" data-name="Trazado 230745" d="M205.242,350.588s-2.688,7.4,0,17.813c9.239-.42,13.775,3.853,23.016.672,0,0,.672-8.064-4.2-13.1,0,0-6.981,1.932-12.768-1.176l6.758-2.967-.835-3.659a25.479,25.479,0,0,1-11.971,2.421" transform="translate(-139.015 -237.202)" fill="#fff"/>
        <path id="Trazado_230746" data-name="Trazado 230746" d="M220.843,369.895a34.269,34.269,0,0,1-6.861-.884,36.573,36.573,0,0,0-9.387-.972.322.322,0,0,1-.323-.239c-2.681-10.391-.018-17.926.009-18a.317.317,0,0,1,.316-.209A25.4,25.4,0,0,0,216.4,347.2a.319.319,0,0,1,.459.211l.834,3.659a.319.319,0,0,1-.182.363l-6.138,2.7c5.481,2.58,11.869.867,11.935.849a.316.316,0,0,1,.314.085c4.916,5.085,4.316,13.017,4.289,13.352a.318.318,0,0,1-.214.275,20.647,20.647,0,0,1-6.857,1.2m-14.962-2.523a40.005,40.005,0,0,1,8.226,1.013c4.031.8,7.842,1.563,13.184-.226.058-1.269.159-8.079-4-12.516-1.178.292-7.443,1.636-12.817-1.251a.319.319,0,0,1,.023-.573l6.516-2.862-.687-3.012a26.344,26.344,0,0,1-11.522,2.29,33.081,33.081,0,0,0,.018,17.155q.539-.02,1.056-.019" transform="translate(-138.353 -236.521)"/>
        <path id="Trazado_230747" data-name="Trazado 230747" d="M246.565,383.862a27.908,27.908,0,0,1-3.954-.339.319.319,0,1,1,.089-.631c2.372.333,6.342.89,9.558-1.022a.319.319,0,1,1,.326.548,11.707,11.707,0,0,1-6.019,1.444" transform="translate(-165.101 -260.133)"/>
        <path id="Trazado_230748" data-name="Trazado 230748" d="M248.413,405.436a32.091,32.091,0,0,1-5.828-.54.319.319,0,0,1,.127-.625c.065.013,6.548,1.3,11.49-.237a.319.319,0,0,1,.19.609,20.509,20.509,0,0,1-5.979.793" transform="translate(-165.096 -275.254)"/>
        <path id="Trazado_230749" data-name="Trazado 230749" d="M247.682,393.647c-1.616,0-2.8-.121-2.912-.133a.319.319,0,0,1,.067-.634c.064.007,6.49.663,10.107-1.133a.319.319,0,1,1,.283.571,18.22,18.22,0,0,1-7.546,1.329" transform="translate(-166.564 -266.869)"/>
        <path id="Trazado_230750" data-name="Trazado 230750" d="M618.239,91.167a15.973,15.973,0,1,0-6.071,21.759,15.973,15.973,0,0,0,6.071-21.759" transform="translate(-400.834 -56.57)" fill="#8abae7"/>
        <path id="Trazado_230751" data-name="Trazado 230751" d="M630.243,120.34l-14.232-.147,6.988,12.4Z" transform="translate(-419.681 -81.886)" fill="#fff"/>
        <path id="Trazado_230752" data-name="Trazado 230752" d="M717.676,488.472a22.714,22.714,0,1,0-26.57,18.051,22.714,22.714,0,0,0,26.57-18.051" transform="translate(-458.266 -314.41)" fill="#fff"/>
        <path id="Trazado_230753" data-name="Trazado 230753" d="M694.726,506.574a23.29,23.29,0,0,1-4.368-.415,22.922,22.922,0,1,1,4.368.415m-.057-45.437a22.406,22.406,0,1,0,4.209.4,22.432,22.432,0,0,0-4.209-.4" transform="translate(-457.579 -313.733)"/>
        <path id="Trazado_230754" data-name="Trazado 230754" d="M715.668,481.542a6.291,6.291,0,0,1,7.64,2.139c2.267,2.987,2.8,8.061.68,12.47a18.422,18.422,0,0,0-.47,14.258s-13.729,5.49-25.391-4.671c10.557-11.36,3.508-18.374,9.99-24.272,1.389-1.264,4.137-2.074,7.552.076" transform="translate(-475.624 -327.16)" fill="#f57a3e"/>
        <path id="Trazado_230755" data-name="Trazado 230755" d="M718.886,543.567c-1.5-6.023-14.333-3.062-3.461-21.295l-9-.41c-1.982,18.9-8.475,11.517-13.027,16.84Z" transform="translate(-472.405 -355.538)" fill="#fff"/>
        <path id="Trazado_230756" data-name="Trazado 230756" d="M718.2,543.2a.353.353,0,0,1-.06-.005l-25.485-4.866a.319.319,0,0,1-.182-.52,8.2,8.2,0,0,1,5-2.6c3.413-.785,6.636-1.527,7.95-14.061a.318.318,0,0,1,.331-.285l9,.41a.319.319,0,0,1,.259.482c-7.358,12.341-3.74,14.693-.24,16.967,1.593,1.035,3.241,2.106,3.736,4.087a.319.319,0,0,1-.31.4m-24.861-5.39,24.395,4.658c-.567-1.436-1.9-2.3-3.308-3.217-3.535-2.3-7.536-4.9-.23-17.37l-8.169-.373c-1.385,12.7-4.956,13.522-8.41,14.317a7.958,7.958,0,0,0-4.278,1.985" transform="translate(-471.723 -354.856)"/>
        <path id="Trazado_230757" data-name="Trazado 230757" d="M728.221,504.924c-3.064,5.139-8.219,7.713-11.513,5.748s-3.481-7.722-.418-12.862,8.219-7.713,11.513-5.748,3.482,7.723.418,12.862" transform="translate(-486.513 -334.787)" fill="#fff"/>
        <path id="Trazado_230758" data-name="Trazado 230758" d="M718.5,510.956a5.082,5.082,0,0,1-2.636-.7c-1.69-1.007-2.666-2.962-2.749-5.5a15.756,15.756,0,0,1,8.022-13.455c2.275-1.136,4.458-1.207,6.149-.2,3.44,2.051,3.677,8.017.528,13.3-2.422,4.063-6.155,6.556-9.314,6.556m6.125-19.924a7.242,7.242,0,0,0-3.2.838,15.126,15.126,0,0,0-7.669,12.864c.075,2.317.941,4.084,2.438,4.977,3.138,1.871,8.107-.658,11.076-5.638s2.831-10.554-.307-12.425a4.5,4.5,0,0,0-2.334-.616m2.915,13.2h0Z" transform="translate(-485.832 -334.099)"/>
        <path id="Trazado_230759" data-name="Trazado 230759" d="M746.282,491.4c1.679,3.237,1.04,6.9-1.427,8.178s-5.828-.307-7.507-3.544-1.04-6.9,1.427-8.178,5.828.307,7.507,3.544" transform="translate(-501.707 -332.068)" fill="#f57a3e"/>
        <path id="Trazado_230760" data-name="Trazado 230760" d="M752.862,526.125c-1.486,1.651-3.568,2.2-4.652,1.225s-.757-3.1.729-4.755,3.569-2.2,4.652-1.225.757,3.1-.729,4.755" transform="translate(-509.311 -354.874)" fill="#fff"/>
        <path id="Trazado_230761" data-name="Trazado 230761" d="M750.255,527.46a2.3,2.3,0,0,1-1.572-.557.319.319,0,0,1,.426-.474c.951.856,2.836.317,4.2-1.2s1.7-3.449.753-4.3a1.983,1.983,0,0,0-1.881-.3,4.916,4.916,0,0,0-2.321,1.5.319.319,0,1,1-.474-.426,5.555,5.555,0,0,1,2.633-1.692,2.591,2.591,0,0,1,2.469.444c1.212,1.091.9,3.425-.7,5.2a5.027,5.027,0,0,1-3.53,1.806" transform="translate(-509.997 -354.19)"/>
        <path id="Trazado_230762" data-name="Trazado 230762" d="M703.013,577.6a22.6,22.6,0,0,0,13.661-1.639c.983-5.474-4.447-5.747-6.783-9.009,0,0-11.157,5.75-12.581-1.131-2.478.715-5.125.641-7.184,4.356a22.61,22.61,0,0,0,12.888,7.423" transform="translate(-470.174 -385.486)" fill="#4666c9"/>
        <path id="Trazado_230763" data-name="Trazado 230763" d="M706.615,577.643a23.153,23.153,0,0,1-4.342-.413A22.792,22.792,0,0,1,689.2,569.7a.319.319,0,0,1-.038-.363c1.769-3.192,3.963-3.7,6.084-4.186.426-.1.867-.2,1.291-.322a.318.318,0,0,1,.4.242,3.517,3.517,0,0,0,1.937,2.671c3.472,1.659,10.119-1.724,10.185-1.759a.318.318,0,0,1,.405.1,10.967,10.967,0,0,0,3.077,2.583c2.182,1.421,4.439,2.891,3.761,6.668a.319.319,0,0,1-.182.234,22.879,22.879,0,0,1-9.511,2.075m-16.781-8.189a22.37,22.37,0,0,0,25.873,5.6c.513-3.237-1.354-4.453-3.509-5.857a12.207,12.207,0,0,1-3.084-2.528c-1.274.62-7.1,3.273-10.51,1.647a4.074,4.074,0,0,1-2.209-2.787c-.336.088-.672.166-1,.242-2.03.467-3.95.91-5.56,3.679" transform="translate(-469.493 -384.805)"/>
        <path id="Trazado_230764" data-name="Trazado 230764" d="M740.456,502.327a.32.32,0,0,1-.165-.046c-6.878-4.181-3.479-10.632-3.444-10.7a.319.319,0,0,1,.561.3c-.131.243-3.138,5.987,3.214,9.848a.319.319,0,0,1-.166.591" transform="translate(-501.412 -334.797)"/>
        <path id="Trazado_230765" data-name="Trazado 230765" d="M776.633,541.1a.319.319,0,0,1-.271-.15,15.027,15.027,0,0,1-.419-15.156.319.319,0,0,1,.542.336,14.377,14.377,0,0,0,.418,14.483.319.319,0,0,1-.27.487" transform="translate(-527.367 -358.112)"/>
        <path id="Trazado_230766" data-name="Trazado 230766" d="M768.183,561.765a.319.319,0,0,1-.307-.234,21.57,21.57,0,0,1-.57-7.18.319.319,0,0,1,.634.068,21.336,21.336,0,0,0,.55,6.941.319.319,0,0,1-.307.4" transform="translate(-522.699 -377.479)"/>
        <path id="Trazado_230767" data-name="Trazado 230767" d="M559.281,443.011a12.632,12.632,0,1,0-14.4,10.577,12.632,12.632,0,0,0,14.4-10.577" transform="translate(-363.917 -291.91)" fill="#8abae7"/>
        <path id="Trazado_230768" data-name="Trazado 230768" d="M551.619,475.6a12.581,12.581,0,0,0,8.467-1.692c-.035-8.984-6.267-5.651-4.829-12.7l-1.4-.215-1.4-.215c-.734,7.156-5.685,2.113-8.4,10.676a12.577,12.577,0,0,0,7.574,4.145" transform="translate(-370.651 -313.924)" fill="#4666c9"/>
        <path id="Trazado_230769" data-name="Trazado 230769" d="M571.769,450.42c-.342,2.234-1.931,3.845-3.55,3.6s-2.654-2.259-2.313-4.493,1.931-3.845,3.55-3.6,2.654,2.259,2.313,4.494" transform="translate(-385.501 -303.787)" fill="#fff"/>
        <path id="Trazado_230770" data-name="Trazado 230770" d="M629.9,633.282l-10.442,23.654c-16.5,2.232-23.39-17.3-39.535-15.866l7.6-17.207c17.094-3.581,24.935,13.8,42.381,9.418" transform="translate(-395.097 -424.697)" fill="#d8e5f3"/>
        <path id="Trazado_230771" data-name="Trazado 230771" d="M616.2,656.758c-7.19,0-12.593-4.122-17.838-8.123-5.55-4.234-11.287-8.611-19.087-7.92a.318.318,0,0,1-.32-.446l7.6-17.207a.32.32,0,0,1,.226-.184c8.5-1.78,14.814,1.591,20.921,4.852,6.234,3.329,12.681,6.77,21.448,4.569a.319.319,0,0,1,.369.438l-10.441,23.654a.319.319,0,0,1-.249.187,19.577,19.577,0,0,1-2.624.179M580.914,640c7.184,0,12.592,4.125,17.834,8.124,5.72,4.363,11.634,8.873,19.814,7.842l10.11-22.9c-8.685,1.95-15.082-1.468-21.275-4.774-5.967-3.186-12.137-6.48-20.33-4.823l-7.314,16.57q.589-.036,1.162-.036" transform="translate(-394.416 -424.023)"/>
        <path id="Trazado_230772" data-name="Trazado 230772" d="M634.836,644.985l-4.827,10.935a5.635,5.635,0,0,0-5.062,2.952c-10.039-2.1-16.659-11.943-26.521-14.442.637-1.443-.351-3.017-2.4-3.086l3.664-8.3c2.1-.052,4.168-.928,4.813-2.388,10.371,1.347,17.5,10.037,28.047,10.984-.79,1.789.143,3.489,2.283,3.344" transform="translate(-406.067 -429.659)" fill="#8abae7"/>
        <path id="Trazado_230773" data-name="Trazado 230773" d="M624.265,658.51a.33.33,0,0,1-.065-.007c-5.22-1.092-9.571-4.282-13.779-7.367-3.94-2.889-8.015-5.877-12.755-7.078a.319.319,0,0,1-.213-.438,1.732,1.732,0,0,0-.093-1.645,2.4,2.4,0,0,0-2.023-.994.319.319,0,0,1-.281-.447l3.664-8.3a.32.32,0,0,1,.284-.19c2.119-.052,3.981-.956,4.529-2.2a.32.32,0,0,1,.333-.187c5.109.663,9.488,3.114,13.723,5.484,4.408,2.467,8.966,5.018,14.312,5.5a.319.319,0,0,1,.263.446,2.178,2.178,0,0,0,.058,2.155,2.048,2.048,0,0,0,1.911.742.319.319,0,0,1,.313.447l-4.827,10.935a.319.319,0,0,1-.288.19,5.288,5.288,0,0,0-4.774,2.762.319.319,0,0,1-.291.19m-26.1-14.981c4.714,1.284,8.74,4.236,12.636,7.092,4.087,3,8.311,6.094,13.289,7.205a5.994,5.994,0,0,1,5.03-2.9l4.548-10.3a2.5,2.5,0,0,1-1.966-1.014,2.666,2.666,0,0,1-.272-2.373c-5.3-.582-9.8-3.1-14.15-5.535-4.119-2.305-8.376-4.688-13.269-5.378-.822,1.509-2.927,2.259-4.786,2.352l-3.4,7.711a2.88,2.88,0,0,1,2.082,1.251,2.328,2.328,0,0,1,.262,1.893" transform="translate(-405.385 -428.978)"/>
        <path id="Trazado_230774" data-name="Trazado 230774" d="M646.941,656.438c-2.6-1.54-5.62-.713-6.7,1.74-1.074,2.432.112,5.764,2.6,7.55a4.326,4.326,0,0,0,6.72-1.779,6.087,6.087,0,0,0-2.619-7.511" transform="translate(-435.916 -446.692)" fill="#d8e5f3"/>
        <path id="Trazado_230775" data-name="Trazado 230775" d="M644.91,666.307a5.038,5.038,0,0,1-2.94-1c-2.645-1.9-3.835-5.384-2.708-7.937a4.463,4.463,0,0,1,2.757-2.478,5.425,5.425,0,0,1,4.4.592h0a6.4,6.4,0,0,1,2.748,7.914,4.784,4.784,0,0,1-3.075,2.749,4.493,4.493,0,0,1-1.183.159M643.517,655.3a4.272,4.272,0,0,0-1.3.2,3.834,3.834,0,0,0-2.369,2.129c-1.01,2.288.087,5.434,2.5,7.162a4.194,4.194,0,0,0,3.583.742,4.094,4.094,0,0,0,2.66-2.391,5.756,5.756,0,0,0-2.49-7.108,5.08,5.08,0,0,0-2.578-.733" transform="translate(-435.232 -446.014)"/>
        <path id="Trazado_230776" data-name="Trazado 230776" d="M621.55,654.571a.315.315,0,0,1-.133-.029,25.017,25.017,0,0,0-3.831-1.423.319.319,0,0,1,.17-.614,25.608,25.608,0,0,1,3.928,1.458.319.319,0,0,1-.133.608" transform="translate(-420.594 -444.535)"/>
        <path id="Trazado_230777" data-name="Trazado 230777" d="M684.252,687.947a.305.305,0,0,1-.074-.009,24.086,24.086,0,0,1-3.986-1.334.319.319,0,1,1,.251-.586,23.468,23.468,0,0,0,3.882,1.3.319.319,0,0,1-.073.629" transform="translate(-463.275 -467.358)"/>
        <path id="Trazado_230778" data-name="Trazado 230778" d="M492.341,691.835l-14.173,6.008c-8.06-5.867-3.082-17.262-10.663-23.333l10.309-4.37c8.868,5.525,5.178,16.373,14.526,21.7" transform="translate(-318.506 -456.558)" fill="#d8e5f3"/>
        <path id="Trazado_230779" data-name="Trazado 230779" d="M495.347,697.283l-6.552,2.777a3.333,3.333,0,0,0-3.4-.81c-3.494-5.081-2.349-12.13-5.6-17.313a1.371,1.371,0,0,0,.22-2.343l4.973-2.108a3.176,3.176,0,0,0,3.06.953c3.945,4.89,3.49,11.646,7.675,16.434a1.339,1.339,0,0,0-.375,2.409" transform="translate(-326.878 -461.563)" fill="#8abae7"/>
        <path id="Trazado_230780" data-name="Trazado 230780" d="M499.538,704.112a2.717,2.717,0,0,0-3.615-2.02,3.976,3.976,0,0,0-1.952,4.379,2.581,2.581,0,0,0,3.638,2.009,3.669,3.669,0,0,0,1.928-4.369" transform="translate(-336.483 -478.191)" fill="#d8e5f3"/>
        <path id="Trazado_230781" data-name="Trazado 230781" d="M376.8,68.356c-9.812-3.259-11.074,6.674-2.379,8.36Z" transform="translate(-251.123 -46.126)" fill="#d8e5f3"/>
        <path id="Trazado_230782" data-name="Trazado 230782" d="M373.74,76.363a.331.331,0,0,1-.061-.006c-3.038-.589-5.242-2.254-5.9-4.453a3.786,3.786,0,0,1,.942-3.874c1.533-1.485,4.264-1.721,7.494-.649a.319.319,0,0,1,.206.39l-2.379,8.36a.319.319,0,0,1-.306.232m-1.231-9.011a4.675,4.675,0,0,0-3.341,1.136,3.12,3.12,0,0,0-.775,3.235c.565,1.9,2.468,3.362,5.12,3.949l2.213-7.778a11,11,0,0,0-3.218-.541" transform="translate(-250.444 -45.455)"/>
        <path id="Trazado_230783" data-name="Trazado 230783" d="M368.7,25.991s5.22-19.749,9.034-22.346c11.31-7.7,27.13,23,39.644,10.025,0,0-3.426,14.694-7.856,22-4.05,6.675-14,3.06-22.649-4.838C372.726,17.912,368.7,25.991,368.7,25.991" transform="translate(-251.188 -1.626)" fill="#fff"/>
        <path id="Trazado_230784" data-name="Trazado 230784" d="M402.464,38.755c-4.589,0-10.628-3.056-16.491-8.409-7.366-6.727-11.865-7.6-14.34-7.146a4.685,4.685,0,0,0-3.333,2.218.319.319,0,0,1-.593-.224C367.921,24.382,373,5.3,376.87,2.665c5.385-3.667,11.543.91,18.062,5.754,7.357,5.468,14.964,11.121,21.533,4.313a.319.319,0,0,1,.54.294c-.034.147-3.488,14.827-7.894,22.089a7.178,7.178,0,0,1-5.322,3.549,9.368,9.368,0,0,1-1.325.091m-29.638-16.3c3.621,0,8.179,2.489,13.578,7.419,6.306,5.758,12.771,8.807,17.294,8.157a6.568,6.568,0,0,0,4.868-3.249c3.666-6.042,6.678-17.336,7.558-20.84-6.756,6-14.282.4-21.572-5.013-6.332-4.706-12.313-9.15-17.323-5.739-3.082,2.1-7.224,16.136-8.509,20.72a5.654,5.654,0,0,1,2.779-1.336,7.254,7.254,0,0,1,1.327-.119" transform="translate(-250.507 -0.91)"/>
        <path id="Trazado_230785" data-name="Trazado 230785" d="M484.606,34.432A55.436,55.436,0,0,0,491.52,10.74s5.862,2.431,4.823,8.621a68.5,68.5,0,0,1-7.857,22s2.542-4.861-3.88-6.925" transform="translate(-330.156 -7.317)" fill="#fff"/>
        <path id="Trazado_230786" data-name="Trazado 230786" d="M487.8,40.994a.319.319,0,0,1-.283-.466,4.6,4.6,0,0,0,.177-3.512c-.541-1.314-1.844-2.311-3.872-2.962a.319.319,0,0,1-.18-.461,55.6,55.6,0,0,0,6.873-23.541.319.319,0,0,1,.441-.288c.061.025,6.084,2.6,5.015,8.968a69.484,69.484,0,0,1-7.9,22.109.318.318,0,0,1-.272.153m-3.415-7.422a6.1,6.1,0,0,1,3.9,3.209,4.5,4.5,0,0,1,.33,1.75,69.97,69.97,0,0,0,6.725-19.9,7.547,7.547,0,0,0-4.211-8.072,56.824,56.824,0,0,1-6.746,23.017" transform="translate(-329.474 -6.636)"/>
        <path id="Trazado_230787" data-name="Trazado 230787" d="M399.372,29.587a.313.313,0,0,1-.114-.021.319.319,0,0,1-.184-.412l5.135-13.381a.319.319,0,1,1,.6.229l-5.135,13.381a.319.319,0,0,1-.3.2" transform="translate(-271.87 -10.606)"/>
        <path id="Trazado_230788" data-name="Trazado 230788" d="M415.376,37.569a.313.313,0,0,1-.114-.021.319.319,0,0,1-.184-.412l5.135-13.381a.319.319,0,0,1,.6.229l-5.135,13.381a.319.319,0,0,1-.3.2" transform="translate(-282.773 -16.044)"/>
        <path id="Trazado_230789" data-name="Trazado 230789" d="M430.022,48.274a.313.313,0,0,1-.114-.021.319.319,0,0,1-.184-.412l5.135-13.381a.319.319,0,1,1,.6.229L430.319,48.07a.319.319,0,0,1-.3.2" transform="translate(-292.751 -23.338)"/>
        <path id="Trazado_230790" data-name="Trazado 230790" d="M445.007,58.3a.313.313,0,0,1-.114-.021.319.319,0,0,1-.184-.412l5.135-13.381a.319.319,0,1,1,.6.229L445.3,58.093a.319.319,0,0,1-.3.2" transform="translate(-302.96 -30.166)"/>
        <path id="Trazado_230791" data-name="Trazado 230791" d="M460.333,67.642a.313.313,0,0,1-.114-.021.319.319,0,0,1-.184-.412l5.135-13.381a.319.319,0,1,1,.595.229L460.63,67.437a.319.319,0,0,1-.3.2" transform="translate(-313.402 -36.532)"/>
        <path id="Trazado_230792" data-name="Trazado 230792" d="M758.534,591.044c9.139.644,20.165-6.144,24.19-16.061l6.871,14.189c-5.162,7.569-17.324,12.01-27.6,9.019l-3.462-7.148" transform="translate(-516.78 -391.729)" fill="#d8e5f3"/>
        <path id="Trazado_230793" data-name="Trazado 230793" d="M771.331,605.259a27.24,27.24,0,0,0,16.526-10.135c.6,1.248,2,1.229,2.9-.182l2.736,5.649a4.737,4.737,0,0,0-.822,4.464,27.239,27.239,0,0,1-18.2,6.681c-.4-.84-2.1-1.445-3.767-1.617l-1.553-3.207c1.6.038,2.589-.821,2.183-1.653" transform="translate(-524.011 -405.327)" fill="#8abae7"/>
        <path id="Trazado_230794" data-name="Trazado 230794" d="M797.6,623.444c.628,1.3,3.081,1.977,5.32,1.083s3.238-3.224,2.45-4.846-2.935-1.674-5.024-.471-3.385,2.922-2.746,4.234" transform="translate(-543.285 -421.29)" fill="#d8e5f3"/>
      </g>
    </g>
  </g>
</svg>
