<svg xmlns="http://www.w3.org/2000/svg" xmlns:xlink="http://www.w3.org/1999/xlink" width="396.564" height="315.084" viewBox="0 0 396.564 315.084">
  <defs>
    <clipPath id="clip-path">
      <rect id="Rectángulo_57414" data-name="Rectángulo 57414" width="84.197" height="72.388" fill="none"/>
    </clipPath>
    <clipPath id="clip-path-2">
      <rect id="Rectángulo_57415" data-name="Rectángulo 57415" width="88.781" height="76.041" fill="none"/>
    </clipPath>
  </defs>
  <g id="Grupo_181378" data-name="Grupo 181378" transform="translate(-930.269 -202.548)">
    <g id="Grupo_177305" data-name="Grupo 177305" transform="translate(12887.45 12003.548)">
      <rect id="Rectángulo_57413" data-name="Rectángulo 57413" width="63.43" height="57.962" rx="9" transform="translate(-11626 -11800.51)" fill="#fff"/>
      <g id="ecommerce_1_" data-name="ecommerce (1)" transform="translate(-11625.218 -11801)">
        <path id="Trazado_226151" data-name="Trazado 226151" d="M1.4,53.06c-.072,6.048,2.068,7.243,6.119,7.318l46.668.866c6.524.118,9.205-1.7,9.1-9.621l-.17-12.562a.237.237,0,0,0,0-.311l-.387-28.265c-.064-4.829-1.545-6.438-6.626-6.523L12.186,3.224c-3.175-.054-6.2.057-8.422,1.956a8.343,8.343,0,0,0-2.649,5.678c-.129,1.412.029,9.628.183,17.574.294,15.25.243,12.936.1,24.629Zm26.311,6.718.472-.473.491.491Zm2.349.044.55-.55.571.571Zm2.955.055.127-.127.132.132Zm3.153.058.117-.117c.074.074.108.118.218.124ZM61.042,58.09l-1.774-1.774,1.126-1.126,1.4,1.4a5.722,5.722,0,0,1-.75,1.5Zm1.253-7.4-1-1a.238.238,0,0,0-.321-.01L62.263,48.4Zm-.05-3.626-.862-.862.839-.839Zm-.079-5.731-.658-.658.64-.64Zm-.076-5.614-.375-.375.365-.365ZM61.9,22.208l-.288-.288a.215.215,0,0,0-.291-.29l-.6-.6a.244.244,0,0,0-.345.345l.578.578L60,22.9a.244.244,0,0,0,.345.345l.953-.953.459.458a.238.238,0,0,0,.156.064l.019,1.449a.233.233,0,0,0-.208.057l-.009.009-.476-.476a.244.244,0,0,0-.345.345l.476.476-1.03,1.03a.244.244,0,1,0,.345.345l1.03-1.03.229.229.021,1.566-.239.24-.892-.892a.244.244,0,0,0-.344.345l.892.892-1.178,1.178a.244.244,0,0,0,.345.345l1.188-1.188a.171.171,0,0,0,.242.015l.029,2.126-1-1a.244.244,0,0,0-.344.345l1.125,1.125-1.719,1.72a.244.244,0,0,0,.345.345L62.024,30.8l.027,2-.694-.694a.244.244,0,1,0-.345.345L62.06,33.5l.011.806-.7.7-.246-.245a.244.244,0,1,0-.345.345l.245.245L60,36.372a.244.244,0,0,0,.345.345l1.024-1.024.73.73.02,1.465-.475-.475a.244.244,0,0,0-.345.345l.829.829.011.775-2.275,2.274a.244.244,0,0,0,.345.345l.955-.955,1.011,1.011.018,1.249a.238.238,0,0,0-.317.012.243.243,0,0,0,0,.345l.326.325.01.722-1.528,1.527a.244.244,0,1,0,.345.345l.009-.009,1.133,1.133c.022.022.055.022.083.034v.006l-1.91,1.909a.244.244,0,0,0,.345.345l.255-.255a.239.239,0,0,0,.01.321l.931.931a.232.232,0,0,0-.206.057l-.937.937-.194-.194a.244.244,0,0,0-.345.345l.194.194-.6.6a.244.244,0,0,0,.345.344l.6-.6.9.9a.244.244,0,0,0,.345-.345l-.9-.9.937-.937a.233.233,0,0,0,.024-.286c.084.036.134.076.251-.028l.008.581a17.456,17.456,0,0,1-.368,4.408l-1.2-1.2.41-.41a.244.244,0,0,0-.345-.345l-.41.41-1.173-1.173a.244.244,0,0,0-.345.345l1.173,1.173-1.126,1.126-1.091-1.091.139-.139a.244.244,0,0,0-.345-.345l-.139.139-.285-.285a.244.244,0,0,0-.345.345l.285.285-1.857,1.857-1.3-1.3a.244.244,0,0,0-.345.345l1.3,1.3-1.433,1.433-1.364-1.365.878-.878a.244.244,0,0,0-.345-.345l-.878.878-.546-.546a.244.244,0,0,0-.345.345l.546.546-1.973,1.973a.22.22,0,0,0-.039-.094l-1.265-1.265,1.264-1.264a.244.244,0,0,0-.345-.345l-1.264,1.264-.067-.067a.244.244,0,0,0-.344.345l.067.067-.852.851L45.58,57.565a.244.244,0,1,0-.345.345l1.058,1.058-.375.375a.244.244,0,1,0,.345.345l.406-.406A.213.213,0,0,0,46.952,59l.884-.884L49.1,59.381a.233.233,0,0,0,.094.039l-.2.2a.244.244,0,1,0,.345.345L51.8,57.5l1.364,1.365-.956.956a.244.244,0,0,0,.345.345l.956-.956.7.7a.244.244,0,0,0,.345-.345l-.7-.7,1.433-1.433,1.091,1.091-.067.067a.244.244,0,1,0,.345.344l.067-.067.512.512a.244.244,0,0,0,.345-.345l-.512-.512,1.857-1.857,1.814,1.814c-1.567,1.793-4.019,1.841-6.533,1.8l-11.8-.219.814-.814.171.171a.244.244,0,0,0,.345-.345l-.171-.171L45.863,56.6a.244.244,0,0,0-.344-.345l-2.294,2.294-.784-.785a.244.244,0,0,0-.345.345l.784.785-1.147,1.146-5.209-.1a.241.241,0,0,0,.162-.067.243.243,0,0,0,0-.345l-.057-.057.817-.817,1.246,1.245a.227.227,0,0,0,.321.01.248.248,0,0,0,.109.045.243.243,0,0,0,.172-.071l.99-.99.694.694a.244.244,0,1,0,.345-.345l-.694-.694,2.146-2.146a.244.244,0,0,0-.345-.345l-2.146,2.146-.238-.238a.244.244,0,0,0-.344.345l.238.238-.955.955-1.193-1.193,1.832-1.832a.244.244,0,1,0-.345-.345l-2.995,2.995-.819-.819a.244.244,0,0,0-.345.345l.819.819-.272.272a.238.238,0,0,0-.068.179L33.889,59.9a.239.239,0,0,0-.06-.145l-.342-.342,2.869-2.87a.244.244,0,1,0-.345-.345l-2.869,2.87L32.6,58.52a.244.244,0,1,0-.345.345l.547.546-.2.2a.23.23,0,0,0-.035.259l-.778-.015a.246.246,0,0,0-.07-.174l-.753-.753,1.384-1.384A.244.244,0,1,0,32,57.2l-1.384,1.384a.243.243,0,0,0-.344.344l-.819.819c-.018.018-.016.043-.026.064l-.308-.006a.233.233,0,0,0-.025-.284l-.559-.559.991-.991a.244.244,0,0,0-.345-.345l-.991.991c-.175-.175-.324-.359-.513-.17s-.006.338.17.513l-.716.716c-.024.024-.025.058-.037.09L7.533,59.4C4.21,59.343,2.3,58.761,2.37,53.073c.23-18.639.066-10.957-.283-35.013H61.848ZM58.578,56.316l-1.857,1.857L55.63,57.082l1.857-1.857ZM2.085,10.945C2.672,4.521,7.565,4.119,12.168,4.2l43.908.739c4.627.077,5.61,1.353,5.668,5.562l.09,6.587H2.073c-.041-3.138-.049-5.471.012-6.14Z" transform="translate(-1.067 -3.214)"/>
        <path id="Trazado_226152" data-name="Trazado 226152" d="M38.381,14.009a3.687,3.687,0,0,0,2.511-2.5A2.99,2.99,0,0,0,39.551,8.2a3.057,3.057,0,0,0-2.943.09,4.478,4.478,0,0,0-2.123,3.1,2.31,2.31,0,0,0,.765,2.033A3.285,3.285,0,0,0,38.381,14.009Zm-1.766-.936.007-.007.012.012ZM38.42,8.863l.323.323-.409.409a.235.235,0,0,0-.062.151l-.328-.328.089-.089a.244.244,0,0,0-.345-.345l-.089.089-.1-.1a1.658,1.658,0,0,1,.925-.106Zm-1.4.321.235.234-.679.679-.287-.287a3.475,3.475,0,0,1,.732-.625ZM35.987,10.2l.244.244-.362.362a.244.244,0,0,0,.345.345l.363-.362.363.362a.244.244,0,1,0,.345-.345l-.363-.363.679-.679.33.33a.244.244,0,0,0,.345,0,.239.239,0,0,0,.063-.152.241.241,0,0,0,.341,0l.41-.41.057.057a.244.244,0,0,0,.345,0,.23.23,0,0,0,.057-.139,2.327,2.327,0,0,1-1.447,3.63,2.647,2.647,0,0,1-1.256.066.23.23,0,0,0,.139-.4l-.019-.019.984-.984a.244.244,0,1,0-.345-.345l-.984.984-1.12-1.12a3.067,3.067,0,0,1,.485-1.059Zm.29,2.524-.134.134a1.739,1.739,0,0,1-.24-.155,1.3,1.3,0,0,1-.434-.788Z" transform="translate(-1.929 -3.334)"/>
        <path id="Trazado_226153" data-name="Trazado 226153" d="M49.343,12.817a3.026,3.026,0,0,0-.977-4.892,4.1,4.1,0,0,0-2.624.192c-1.087.356-2.517,1.03-2.4,2.767C43.6,14.563,47.5,15.051,49.343,12.817Zm-4.044,0a2.194,2.194,0,0,1-.661-.8l.731.732Zm1.374-3.756a.23.23,0,0,0,.056-.21c.07-.016.138-.018.208-.03l.458.458-.446.446-.471-.47Zm-.97.108.087.087-.447.446L45.1,9.456A3.983,3.983,0,0,1,45.7,9.166Zm-1,.583.294.3-.526.526a.243.243,0,0,0,.344.344l.526-.526.724.725a.244.244,0,0,0,.344-.345l-.724-.725.447-.447.807.806a.242.242,0,0,0,.35-.333l.46-.46a.221.221,0,0,0,.31-.015.237.237,0,0,0,.015-.31l.006-.006a.242.242,0,0,0-.338-.347l-.171-.171a1.789,1.789,0,0,1,.483.084,2.063,2.063,0,0,1,.54,3.35,2.64,2.64,0,0,1-2.849.863l1.179-1.178a.244.244,0,1,0-.345-.345l-.863.862-1.372-1.372c-.01-.071-.02-.142-.025-.211A1.28,1.28,0,0,1,44.7,9.749Z" transform="translate(-2.158 -3.332)"/>
        <path id="Trazado_226154" data-name="Trazado 226154" d="M54.547,14.1a3.6,3.6,0,0,0,3.421-.712,2.962,2.962,0,0,0-.33-5.062,3.49,3.49,0,0,0-3.267.077c-2.306,1.266-2.6,4.729.176,5.7Zm-.228-4.455a.251.251,0,0,0,.1.042.244.244,0,0,0,.172-.071l.037-.037.947.947a.244.244,0,0,0,.345-.344l-.947-.948.048-.048a2.654,2.654,0,0,1,1.084-.251.176.176,0,0,1,.022,0l.227.227-.293.293a.244.244,0,0,0,.345.344l.293-.293.244.245a.244.244,0,1,0,.345-.345l-.244-.244.019-.019c.038.018.082.024.119.044a1.991,1.991,0,0,1,.167,3.447,2.334,2.334,0,0,1-3.682-.511l.87-.871.06.06a.244.244,0,0,0,.345-.345l-.06-.061L55,10.793a.244.244,0,0,0-.345-.345l-.115.115L54,10.019a2.5,2.5,0,0,1,.323-.374Zm-.576.813.45.45-.66.66a2.256,2.256,0,0,1,.209-1.11Z" transform="translate(-2.396 -3.337)"/>
        <path id="Trazado_226155" data-name="Trazado 226155" d="M54.183,36.44a.487.487,0,1,0,.584.78c1.4-1.048,2.885-2.3,4.245-3.32a.488.488,0,0,0-.048-.812L54.73,30.636a.487.487,0,1,0-.489.843l3.6,2.086c-1.222.945-2.474,1.988-3.659,2.875Z" transform="translate(-2.433 -3.92)"/>
        <path id="Trazado_226156" data-name="Trazado 226156" d="M13.939,37.22a.487.487,0,0,0,.584-.78c-1.186-.887-2.437-1.93-3.661-2.875l3.6-2.086a.487.487,0,1,0-.489-.843L9.741,33.088a.489.489,0,0,0-.047.812c1.361,1.017,2.847,2.271,4.246,3.319Z" transform="translate(-1.285 -3.92)"/>
        <path id="Trazado_226157" data-name="Trazado 226157" d="M43.239,41.594a.487.487,0,0,0-.012-.792,14.347,14.347,0,0,1-5.314-16.625.488.488,0,0,0-.459-.652h0c-.463,0-1.565-.016-2.153-.016a.579.579,0,0,0-.616.367,5.352,5.352,0,0,1-1.037,1.773c-.641.8-1.646.776-1.987-.3a4.96,4.96,0,0,1-.172-1.362A.487.487,0,0,0,31,23.51c-.549,0-1.581.015-2.3.016-.224-.07-.6.274-.461.652A14.347,14.347,0,0,1,22.929,40.8a.487.487,0,0,0-.031.776c6.477,5.324,13.332,5.18,20.34.016ZM29.379,24.5l1.153-.012a4.992,4.992,0,0,0,.2,1.16,2.027,2.027,0,0,0,3.675.615,6.967,6.967,0,0,0,1.1-1.776c.415,0,.816.008,1.268.013a15.352,15.352,0,0,0,.464,10.341.477.477,0,0,0-.246.2c-.393.676-.744.994-1.064.951-.265-.041-.585-.4-.777-.6-1.016-1-1.786-.731-2.538.2a.668.668,0,0,1-.288.225c-.042-.012-.142-.164-.2-.245-.622-.93-1.331-.9-2.307-.3a1.5,1.5,0,0,1-.634.283.309.309,0,0,1-.153-.079.481.481,0,0,0-.163-.554,15.329,15.329,0,0,0,.5-10.431Zm-1.068,11.62c.639.739,1.386.381,2.206-.121.539-.318.618-.158.8.122a1.148,1.148,0,0,0,2.048.1c1.031-1.286.977.514,2.415.735a1.41,1.41,0,0,0,.219.017A2.178,2.178,0,0,0,37.677,35.8a15.426,15.426,0,0,0,4.442,5.4c-6.408,4.491-12.342,4.5-18.108.02A15.4,15.4,0,0,0,28.311,36.118Z" transform="translate(-1.626 -3.738)"/>
        <path id="Trazado_226158" data-name="Trazado 226158" d="M18.12,56.229a4.2,4.2,0,0,0,1.547-2.065,2.78,2.78,0,0,0-.87-2.808,2.509,2.509,0,0,0-2.8-.441,4.061,4.061,0,0,0-2.146,3.538C13.859,56.279,15.7,58.147,18.12,56.229Zm.047-4.131c.887.751.967,2.083-.653,3.366-1.735,1.374-2.686.043-2.695-1.018-.009-1.568,1.685-3.757,3.347-2.348Z" transform="translate(-1.397 -4.438)"/>
        <path id="Trazado_226159" data-name="Trazado 226159" d="M29.543,51.356c-2.3-1.953-4.966.619-4.951,3.1A2.6,2.6,0,0,0,26.153,56.9c1.555.7,3.848-1.225,4.26-2.731a2.78,2.78,0,0,0-.87-2.809Zm-.07,2.55c-.268.983-2.009,2.51-2.919,2.1a1.624,1.624,0,0,1-.988-1.561c-.01-1.568,1.684-3.757,3.347-2.348a1.816,1.816,0,0,1,.559,1.808Z" transform="translate(-1.674 -4.438)"/>
        <path id="Trazado_226160" data-name="Trazado 226160" d="M40.29,51.356c-2.318-1.963-4.966.638-4.951,3.1A2.6,2.6,0,0,0,36.9,56.9a1.807,1.807,0,0,0,.752.16,4.47,4.47,0,0,0,3.508-2.891,2.781,2.781,0,0,0-.87-2.808Zm-.07,2.55c-.27.986-2.01,2.511-2.919,2.1a1.622,1.622,0,0,1-.988-1.561c-.01-1.584,1.692-3.746,3.347-2.348A1.813,1.813,0,0,1,40.22,53.906Z" transform="translate(-1.952 -4.438)"/>
        <path id="Trazado_226161" data-name="Trazado 226161" d="M47.646,56.9c1.567.707,3.853-1.241,4.26-2.732a2.78,2.78,0,0,0-.87-2.808c-2.313-1.959-4.966.63-4.951,3.1A2.6,2.6,0,0,0,47.646,56.9Zm2.761-4.8a1.811,1.811,0,0,1,.559,1.808c-.267.98-2.008,2.511-2.919,2.1a1.622,1.622,0,0,1-.988-1.561c-.01-1.567,1.68-3.757,3.347-2.348Z" transform="translate(-2.229 -4.438)"/>
        <path id="Trazado_226162" data-name="Trazado 226162" d="M3.4,23.97H4.56v2.382H3.935a.244.244,0,1,0,0,.487H4.56v1.715c-.325,0-.735-.072-.735.244a.244.244,0,0,0,.244.244H4.56v2.182H4.2a.244.244,0,0,0,0,.487H4.56V33.6a.244.244,0,1,0,.487,0V31.71h.1a.244.244,0,0,0,0-.487h-.1V29.041h.24a.244.244,0,1,0,0-.487h-.24V26.839h.315a.244.244,0,1,0,0-.487H5.047V23.97h.7a.244.244,0,0,0,0-.487h-.7V22.259a.244.244,0,0,0-.487,0v1.225H3.4a.244.244,0,0,0,0,.487Z" transform="translate(-1.121 -3.699)"/>
        <path id="Trazado_226163" data-name="Trazado 226163" d="M9.351,8.876h2.34V10.1a.244.244,0,1,0,.487,0V8.876h2.1v1.11a.244.244,0,0,0,.487,0V8.876h1.965v.973a.244.244,0,1,0,.487,0V8.876h1.832v1.181a.244.244,0,1,0,.487,0V8.876H21.7v1.156a.244.244,0,0,0,.487,0V8.876h3.223a.244.244,0,1,0,0-.487H22.184V7.506a.244.244,0,0,0-.487,0v.883H19.533v-.75a.244.244,0,1,0-.487,0v.75H17.214V7.506a.244.244,0,1,0-.487,0v.883H14.762V7.109a.244.244,0,0,0-.487,0v1.28h-2.1V7.043a.244.244,0,1,0-.487,0V8.389H9.351a.244.244,0,1,0,0,.487Z" transform="translate(-1.275 -3.307)"/>
      </g>
    </g>
    <g id="Grupo_177307" data-name="Grupo 177307" transform="translate(930.269 399.37)">
      <g id="Grupo_177306" data-name="Grupo 177306" clip-path="url(#clip-path)">
        <path id="Trazado_226167" data-name="Trazado 226167" d="M58.37,95.136c-6.182-13.841-13.925-29.991-24.407-44.8a.658.658,0,0,0-1.184.272,56.93,56.93,0,0,1-17.221,32.17,3.931,3.931,0,0,0-3.28.4L7.093,85.465c-1.607.718-5.288,2.184-4.425,6.492a4.8,4.8,0,0,0-1.611,7.3A5.086,5.086,0,0,0,8.22,99.9c.02-.019.042-.036.063-.055a4.906,4.906,0,0,0,4.46.5c5.716,9.694,6.538,12.269,8.383,13.8,3.025,2.52,6.577.333,6.257-3.332a10.472,10.472,0,0,0-1.571-4.2c-5.18-9.363-5.129-9.34-5.761-10.348a3.508,3.508,0,0,0,1.331-1.383,2.829,2.829,0,0,0,.231-1.659A43.567,43.567,0,0,1,57.449,95.98a.658.658,0,0,0,.92-.844M17.219,83.015h.006l0,0,.2.2-.573.573c-.045-.056-.088-.113-.131-.166-.019-.022-.032-.048-.052-.069.188-.176.368-.362.552-.541Zm.671.671,1.021,1.021-.935.936-.026-.026-.264-.508c-.121-.229-.255-.466-.394-.7-.016-.025-.029-.049-.043-.075ZM4.045,99.649c.016-.019.033-.036.049-.052l.04-.043.143.144c-.078-.016-.156-.03-.232-.049m1.2.111c-.107-.143-.526-.552-.658-.679.532-.5.844-.512,1.323,0a.329.329,0,1,0,.479-.45,1.4,1.4,0,0,0-2.265-.013l-.4-.4a.329.329,0,1,0-.466.466l.407.407-.063.066c-.079.088-.159.172-.239.257a3.593,3.593,0,0,1-1.29-.982,3.494,3.494,0,0,1,.953-5.193,46.615,46.615,0,0,0,4.226,5.757,3.417,3.417,0,0,1-2.006.766m9.816.678v.932h-.216c-.179-.314-.358-.632-.537-.945-.061-.11-.131-.231-.2-.349h.9a.288.288,0,0,0,.151.131.329.329,0,0,0-.1.231m-1.386-1.905v-.544h.956c.027,0,.043-.022.069-.029-.342.2-.684.4-1.026.573m1.132.886.131-.079v.079Zm2.205,5.767q-.262-.454-.518-.912h.518Zm7.649,2.067a9.517,9.517,0,0,1,1.412,3.668c.218,2.559-2,3.972-4.107,2.217-1.314-1.092-2.4-3.452-4.375-6.931a.321.321,0,0,0,.079-.189v-.026H18.2a.329.329,0,0,0,0-.658h-.526v-1.053H17.9a.329.329,0,1,0,0-.658H16.126l-.4-.708v-.881h1.16a.329.329,0,1,0,0-.658h-1.16v-.932a.309.309,0,0,0-.216-.281c.022-.022.02-.056.035-.082H16.5a.329.329,0,1,0,0-.658h-.9v-.459l.055-.032.257-.162h.724a.338.338,0,0,0,.058.141.333.333,0,0,0,.466,0l.141-.141h.606a.329.329,0,0,0,.329-.329.324.324,0,0,0-.31-.322.319.319,0,0,0-.017-.421c-.035-.035-.081-.035-.123-.052h.293v.264a.329.329,0,0,0,.658,0v-.264h.166a.316.316,0,0,0,.3-.252c.554.951,2.107,3.795,5.46,9.857M17.01,98.113l.053-.033-.033.033Zm1.868-1.124.065-.039c.014.023.027.049.042.074-.03-.009-.049-.035-.082-.035ZM18.807,95.5q-.946.563-1.888,1.135c-.63.381-1.291.777-1.937,1.163l-.1.059a.321.321,0,0,0,.082-.2.33.33,0,0,0-.329-.329h-.956v-.241a.329.329,0,0,0-.658,0v.244H11.7V96.016h3.235v.821a.329.329,0,1,0,.658,0v-.828h1.344a.329.329,0,0,0,0-.658H15.59v-.875h1.258v.188a.329.329,0,0,0,.658,0v-.188h2.58A4.228,4.228,0,0,1,18.807,95.5M15.27,92.544a.329.329,0,0,0-.329.329v.948h-.811V92.5h2.718V93.82H15.59v-.948a.326.326,0,0,0-.32-.329m-.329,1.933v.874H11.7v-.875h1.825a.288.288,0,0,0,.371.175.285.285,0,0,0,.173-.175Zm5.351-.619v0a.179.179,0,0,0-.084-.035h-2.7V92.5h1.711a.328.328,0,1,0,0-.656H17.506v-.939h.189a.329.329,0,0,0,0-.658H15.722V88.672H17.2a.329.329,0,1,0,0-.658H15.72V86.568h.64a.329.329,0,0,0,0-.658h-.64v-.819a.329.329,0,0,0-.329-.329c-.45,0-.329.678-.329,1.148a.333.333,0,1,0-.1.658.305.305,0,0,0,.1,0v1.447h-.247a.329.329,0,1,0,0,.658h.247V90.25H14.5a.329.329,0,0,0,0,.658h.568a.325.325,0,1,0,.649,0h1.134v.939H14.122v-2.23a.329.329,0,1,0-.658,0v2.314a.3.3,0,0,0-.072.42.341.341,0,0,0,.072.072v1.4H11.7v-.055a.329.329,0,1,0-.658,0v.053h-.118a.329.329,0,0,0,0,.658h.118v2.853H10.8a.329.329,0,0,0,0,.658h.247v.427a.329.329,0,1,0,.658,0v-.427h1.315v.86a3.912,3.912,0,0,1-4.386-.371c-1.121-.92-2.187-2.918-3.287-4.078a5.553,5.553,0,0,1-1.315-2.257C3,88.746,5.769,87.491,7.615,86.666L12.8,84.38c1.927-.867,2.609-.74,3.7,1.343.414.789,3.469,6.429,3.7,7.26a2.1,2.1,0,0,1,.085.871.053.053,0,0,0,.016.007Zm-1.057-5.822.1-.105,1.242,1.242-.488.488q-.431-.811-.858-1.624m1.927,3.706c-.226-.5-.485-.979-.747-1.474l.63-.632.252.254a.329.329,0,0,0,.466-.466l-.258-.255.539-.541,1.111,1.111Zm1.054-.123,0,0h-.007l.01,0,1.412-1.414.306.306a.329.329,0,1,0,.466-.466l-.306-.3.717-.717,1.447,1.447q-2.053.474-4.042,1.148M26.9,90.312h0a.311.311,0,0,0-.089-.213L25.275,88.56l.493-.493a.329.329,0,0,0-.456-.474l-.5.5-.335-.336a.329.329,0,0,0-.473.459l.009.007.335.336-.717.717L22.52,88.166,24.083,86.6a.329.329,0,0,0-.456-.475L22.055,87.7l-.381-.379a.328.328,0,1,0-.472.457s0,.006.007.007l.381.381-.541.541-1.242-1.242,1.555-1.555a.329.329,0,0,0-.466-.466L19.335,87l-.891-.891.935-.936.3.3a.329.329,0,1,0,.466-.466l-.3-.3.263-.264a.329.329,0,0,0-.466-.466l-.263.264-1.023-1.023.087-.085a.329.329,0,0,0-.459-.473l-.007.009-.085.085-.2-.2A58.3,58.3,0,0,0,33.8,52.39c9.53,13.739,16.746,28.563,22.594,41.54A45.046,45.046,0,0,0,26.9,90.312" transform="translate(0 -42.844)" fill="#040405"/>
        <path id="Trazado_226168" data-name="Trazado 226168" d="M113.97,393.936c-1.314-1.092-2.4-3.452-4.375-6.931a.322.322,0,0,0,.079-.189v-.026h.526a.329.329,0,0,0,0-.658h-.526V385.08h.228a.329.329,0,0,0,0-.658h-1.776l-.4-.708v-.881h1.16a.329.329,0,1,0,0-.658h-1.16v-.932a.309.309,0,0,0-.216-.281c.022-.022.02-.056.035-.082h.961a.329.329,0,1,0,0-.658h-.9v-.459l.055-.032.257-.162h.724a.338.338,0,0,0,.058.141.333.333,0,0,0,.466,0l.141-.141h.606a.329.329,0,0,0,.329-.329.324.324,0,0,0-.31-.322.319.319,0,0,0-.017-.421c-.035-.035-.081-.035-.123-.052h.293v.264a.329.329,0,0,0,.658,0v-.264h.166a.316.316,0,0,0,.3-.252c.554.951,2.107,3.8,5.46,9.858a9.516,9.516,0,0,1,1.412,3.668c.218,2.559-2,3.972-4.107,2.217" transform="translate(-92.001 -323.643)" fill="#fff"/>
        <path id="Trazado_226169" data-name="Trazado 226169" d="M42.883,294.44a.179.179,0,0,0-.084-.035H40.1V293.09h1.711a.328.328,0,1,0,0-.656H40.1v-.939h.189a.329.329,0,0,0,0-.658H38.312v-1.578h1.48a.329.329,0,1,0,0-.658H38.31v-1.447h.64a.329.329,0,1,0,0-.658h-.64v-.819a.329.329,0,0,0-.329-.329c-.45,0-.329.678-.329,1.148a.333.333,0,1,0-.1.658.3.3,0,0,0,.1,0V288.6h-.247a.329.329,0,1,0,0,.658h.247v1.578h-.565a.329.329,0,0,0,0,.658h.568a.325.325,0,1,0,.649,0h1.134v.939H36.712V290.2a.329.329,0,0,0-.658,0v2.314a.3.3,0,0,0-.072.42.342.342,0,0,0,.072.072v1.4H34.287v-.055a.329.329,0,0,0-.658,0v.053h-.118a.329.329,0,1,0,0,.658h.118v2.853h-.242a.329.329,0,0,0,0,.658h.247v.427a.329.329,0,0,0,.658,0v-.427h1.315v.86a3.912,3.912,0,0,1-4.386-.371c-1.121-.92-2.187-2.918-3.287-4.078a5.553,5.553,0,0,1-1.315-2.257c-1.024-3.4,1.741-4.658,3.587-5.483l5.187-2.286c1.927-.867,2.609-.74,3.7,1.343.414.789,3.469,6.429,3.7,7.26a2.1,2.1,0,0,1,.085.871" transform="translate(-22.589 -243.43)" fill="#fff"/>
        <path id="Trazado_226170" data-name="Trazado 226170" d="M138.736,66.184a58.3,58.3,0,0,1-16.107,30.162l.2.2.085-.085.007-.009a.329.329,0,0,1,.459.473l-.087.085,1.023,1.023.263-.264a.329.329,0,0,1,.466.466l-.262.264.3.3a.329.329,0,1,1-.466.466l-.3-.3-.935.936.891.891,1.562-1.555a.329.329,0,1,1,.466.466l-1.555,1.555,1.242,1.242.541-.541-.381-.381s0,0-.007-.007a.328.328,0,1,1,.472-.457l.381.379,1.572-1.572a.329.329,0,0,1,.456.475l-1.564,1.564,1.109,1.111.717-.717-.335-.336-.009-.007a.329.329,0,1,1,.473-.459l.335.336.5-.5a.329.329,0,0,1,.456.475l-.493.493,1.539,1.539a.312.312,0,0,1,.09.213,45.046,45.046,0,0,1,29.486,3.618c-5.848-12.977-13.064-27.8-22.594-41.54m1.023,9.4a84.015,84.015,0,0,1-9.145,17.775.079.079,0,0,1-.01.014.329.329,0,1,1-.534-.384,83.426,83.426,0,0,0,9.076-17.635.331.331,0,0,1,.422-.193h0a.33.33,0,0,1,.195.423" transform="translate(-104.941 -56.638)" fill="#fff"/>
        <path id="Trazado_226171" data-name="Trazado 226171" d="M372.712,28.424a.657.657,0,0,0-.482-.372,5.189,5.189,0,0,1-3.287-1.973,8.153,8.153,0,0,0,3.178-4.855,8.278,8.278,0,0,0-4.62-8.747,11.235,11.235,0,0,0-4-8.594c-9.977-8.851-27.744-1.432-25.306,10.837a11.975,11.975,0,0,0,4.924,7.3,8.219,8.219,0,0,1-5.357,3.375.657.657,0,0,0-.156,1.245,10.666,10.666,0,0,0,11.832-1.985,19.378,19.378,0,0,0,4.634.4h0c2.368,2.976,6.615,3.7,10.3,2.974a7.288,7.288,0,0,0,8.024,1.275.658.658,0,0,0,.32-.873M348.878,1.866l.375.374-1.077,1.073-.959-.959a15.538,15.538,0,0,1,1.662-.488m-2.321.751v.006l1.155,1.155-1.128,1.129-1.412-1.414a.323.323,0,0,0-.209-.088,13.973,13.973,0,0,1,1.594-.789m-1.891.978s0,0,0,0h0l0,0a.313.313,0,0,0,.04.366l.058.056-.851.851-.427-.427a5.7,5.7,0,0,1,1.18-.847m-1.68,1.275.463.463-1.3,1.3-.434-.434a11.5,11.5,0,0,1,1.269-1.327m-1.65,1.862,1.315,1.33L341.3,9.416l-.969-.969a10.973,10.973,0,0,1,1.005-1.714m-1.287,2.351.79.79-1.281,1.282a.241.241,0,0,0-.072-.03,10.321,10.321,0,0,1,.563-2.042m-.555,5.395V14.46a8.959,8.959,0,0,1-.131-2.178l.238-.238,1.324,1.324-1.269,1.269Zm.379,1.308,0,0v0l0,.007,1.249,1.251-.451.453a9.89,9.89,0,0,1-.8-1.7m13.316,7.958a18.256,18.256,0,0,1-3.824-.449.665.665,0,0,0-.612.183,9.257,9.257,0,0,1-8.673,2.591,9.2,9.2,0,0,0,4.5-3.919.669.669,0,0,0-.265-.909.642.642,0,0,0-.091-.04,11.527,11.527,0,0,1-3.2-3.133l.594-.594a.253.253,0,0,0,.335-.055.311.311,0,0,0,.055-.335l1.2-1.2a.329.329,0,1,0-.438-.49l-1.191,1.191-1.468-1.468,1.269-1.269.371.369a.329.329,0,1,0,.466-.466l-.371-.369,1.227-1.227a.33.33,0,0,0,0-.466.32.32,0,0,0-.186-.094.329.329,0,0,1-.214.043.316.316,0,0,0-.066.05l-1.227,1.227-1.328-1.324,1.242-1.242,1.194,1.194a.32.32,0,0,0,.186.094.329.329,0,0,1,.214-.043.311.311,0,0,0,.066-.05.33.33,0,0,0,0-.466L341.766,9.88l1.353-1.353,1.08,1.079a.329.329,0,0,0,.466-.464l-1.08-1.079.8-.8a.329.329,0,1,0-.459-.473.034.034,0,0,1-.007.009l-.8.8-.5-.5,1.3-1.3,1.359,1.359a.329.329,0,1,0,.475-.457l-.009-.007-1.359-1.357.851-.85L346.59,5.84a.329.329,0,0,0,.475-.456l-.009-.007,1.184-1.184a.256.256,0,0,0,.294-.071.312.312,0,0,0,.071-.3L349.73,2.7l.4.4a.328.328,0,0,0,.463-.466l-.456-.456a.324.324,0,0,0-.316-.332H349.8l-.154-.15a16.591,16.591,0,0,1,1.807-.229l.358.356-.75.75a.329.329,0,0,0,.466.466l.749-.75.12.12a.329.329,0,0,0,.475-.456l-.009-.009-.12-.12.3-.3c.027-.027.026-.068.042-.1.293.006.587.022.88.043l.749.749a.329.329,0,0,0,.466-.466L355,1.566a14.377,14.377,0,0,1,7.639,3.315,10.119,10.119,0,0,1,3.553,7.025,11.773,11.773,0,0,0-11.249,1.91,7.984,7.984,0,0,0-1.757,9.93m11.864,3.1a.66.66,0,0,0-.472-.2.636.636,0,0,0-.147.016c-3.277.747-7.447.216-9.53-2.67a6.737,6.737,0,0,1,.922-9.191c5.778-5.108,16.442-1.02,15.016,6.171h-.01a6.989,6.989,0,0,1-3.157,4.388.659.659,0,0,0-.2.881,6.267,6.267,0,0,0,2.451,2.379,5.9,5.9,0,0,1-4.867-1.774" transform="translate(-288.576 0)" fill="#040405"/>
        <path id="Trazado_226172" data-name="Trazado 226172" d="M383.184,20.32a11.773,11.773,0,0,0-11.249,1.91,7.984,7.984,0,0,0-1.757,9.93,18.254,18.254,0,0,1-3.824-.449.665.665,0,0,0-.612.183,9.257,9.257,0,0,1-8.673,2.591,9.2,9.2,0,0,0,4.5-3.919.669.669,0,0,0-.265-.909.642.642,0,0,0-.091-.04,11.525,11.525,0,0,1-3.2-3.133l.594-.594a.253.253,0,0,0,.335-.055A.311.311,0,0,0,359,25.5l1.2-1.2a.329.329,0,0,0-.438-.49L358.575,25l-1.468-1.468,1.269-1.269.371.369a.329.329,0,1,0,.466-.466l-.371-.369,1.227-1.227a.33.33,0,0,0,0-.466.32.32,0,0,0-.186-.094.313.313,0,0,0,.066-.05.33.33,0,0,0,0-.466L358.755,18.3l1.353-1.353,1.08,1.079a.329.329,0,0,0,.466-.464l-1.08-1.079.8-.8a.329.329,0,0,0-.459-.473.04.04,0,0,1-.007.009l-.8.8-.5-.5,1.3-1.3,1.359,1.359a.329.329,0,1,0,.474-.457l-.009-.007-1.359-1.357.851-.85,1.357,1.357a.329.329,0,0,0,.475-.456l-.009-.007,1.184-1.184a.256.256,0,0,0,.294-.071.312.312,0,0,0,.071-.3l1.125-1.124.4.4a.328.328,0,0,0,.463-.466l-.456-.456a.324.324,0,0,0-.316-.332h-.016l-.154-.15a16.59,16.59,0,0,1,1.807-.229l.358.356-.75.75a.329.329,0,0,0,.466.466l.749-.75.12.12a.329.329,0,0,0,.474-.456l-.009-.009-.12-.12.3-.3c.027-.027.026-.068.042-.1.293.006.587.022.88.043l.749.749a.329.329,0,0,0,.466-.466l-.179-.179a14.378,14.378,0,0,1,7.639,3.315,10.119,10.119,0,0,1,3.553,7.025" transform="translate(-305.565 -8.416)" fill="#fff"/>
        <path id="Trazado_226173" data-name="Trazado 226173" d="M467.491,95.235h-.01a6.99,6.99,0,0,1-3.157,4.388.659.659,0,0,0-.2.881,6.267,6.267,0,0,0,2.451,2.379,5.9,5.9,0,0,1-4.867-1.774.66.66,0,0,0-.472-.2.638.638,0,0,0-.147.016c-3.277.747-7.447.216-9.53-2.67a6.736,6.736,0,0,1,.922-9.191c5.778-5.108,16.442-1.02,15.016,6.171" transform="translate(-385.226 -74.266)" fill="#fff"/>
        <path id="Trazado_226174" data-name="Trazado 226174" d="M183.539,128.758a84.019,84.019,0,0,1-9.145,17.775.08.08,0,0,1-.01.014.329.329,0,1,1-.534-.384,83.426,83.426,0,0,0,9.076-17.635.331.331,0,0,1,.422-.193h0a.33.33,0,0,1,.195.423" transform="translate(-148.721 -109.807)" fill="#040405"/>
      </g>
    </g>
    <g id="caracteristicas" transform="translate(1249.347 440.27)">
      <path id="Trazado_226175" data-name="Trazado 226175" d="M36.531,56.894a.652.652,0,0,1-.356-1.2l13.48-8.781L33.924,56a.652.652,0,1,1-.674-1.116l7.066-4.439L31.75,55.4a.652.652,0,0,1-.67-1.117l4.5-2.8-5.817,3.357a.652.652,0,0,1-.674-1.114l13.444-8.5L27.148,54.1a.652.652,0,0,1-.67-1.118l10.466-6.516L24.838,53.455a.652.652,0,0,1-.67-1.117l13.814-8.627L22.325,52.749a.652.652,0,1,1-.672-1.117L39.186,40.651,19.569,51.977a.652.652,0,0,1-.675-1.114L43.9,34.98,16.129,51.009a.652.652,0,1,1-.67-1.118l17.45-10.824L13.491,50.274a.652.652,0,0,1-.67-1.117L30.9,37.911,10.791,49.522a.652.652,0,0,1-.671-1.116L29.071,36.584,8.009,48.74a.652.652,0,0,1-.67-1.118L25.052,36.6l-19.046,11a.652.652,0,0,1-.672-1.116l20.821-13.1L5.516,45.292a.652.652,0,0,1-.675-1.113L25.852,30.82,5.516,42.561a.652.652,0,0,1-.667-1.118l5.133-3.159L5.516,40.861a.652.652,0,1,1-.68-1.112L23.847,27.471,5.516,38.054a.652.652,0,0,1-.671-1.116l6.541-4.084L5.521,36.243a.652.652,0,0,1-.68-1.112l14.107-9.139L5.516,33.745a.652.652,0,1,1-.683-1.11l12.047-7.858L5.516,31.336A.652.652,0,0,1,4.83,30.23l8.3-5.49-7.618,4.4a.652.652,0,0,1-.682-1.11l1.359-.881-.671.391a.653.653,0,1,1-.732-1.082L11.7,21.075,5.516,24.646a.652.652,0,0,1-.749-1.059l2.877-2.454L5.516,22.36a.652.652,0,0,1-.95-.751L5.139,19.7a.652.652,0,0,1-.275-1.215l1-.576a.652.652,0,0,1,.95.752L6.29,20.412l6.868-3.964a.652.652,0,0,1,.748,1.061l-2.881,2.454,8.187-4.727a.652.652,0,0,1,.726,1.078L13.03,21.7l13.84-7.99a.652.652,0,0,1,.682,1.109L26.2,15.69l4.913-2.836a.652.652,0,0,1,.685,1.108l-8.3,5.485L36.943,11.69a.652.652,0,0,1,.682,1.11L25.572,20.663l14.708-8.491a.652.652,0,0,1,.68,1.112L26.853,22.416l16.643-9.6a.652.652,0,0,1,.67,1.117l-6.559,4.095,8.223-4.746a.652.652,0,0,1,.679,1.11L27.5,26.663,49.443,13.995a.652.652,0,0,1,.667,1.119l-5.121,3.152,6.646-3.837a.652.652,0,1,1,.676,1.114L31.292,28.906l23.86-13.775a.652.652,0,0,1,.674,1.114L35.017,29.34,58.482,15.787a.652.652,0,1,1,.67,1.118L41.429,27.935,61.448,16.384a.652.652,0,0,1,.671,1.116L43.168,29.323,64.521,17a.652.652,0,0,1,.669,1.118L47.113,29.359,67.505,17.586a.652.652,0,0,1,.669,1.118L50.725,29.535l19.219-11.1a.652.652,0,0,1,.675,1.113l-25,15.879L69.945,21.388a.652.652,0,1,1,.671,1.117L53.07,33.493l16.875-9.741a.652.652,0,0,1,.67,1.116L56.806,33.493l13.139-7.584a.652.652,0,1,1,.67,1.118L60.153,33.543l9.792-5.653A.652.652,0,0,1,70.618,29L57.161,37.511l12.784-7.38a.652.652,0,0,1,.669,1.118l-4.5,2.8,3.831-2.215a.652.652,0,0,1,.671,1.116l-7.063,4.437,6.392-3.689a.652.652,0,0,1,.682,1.109L57.147,43.59,69.95,36.2a.652.652,0,0,1,.674,1.114l-3.5,2.215L69.95,37.9a.652.652,0,0,1,.7,1.1l-8.862,6.15,8.171-4.716a.652.652,0,0,1,.689,1.1l-.859.579.169-.1a.652.652,0,0,1,.782,1.027l-3.306,3.279,2.522-1.456A.652.652,0,0,1,70.605,46l-6.879,3.972a.652.652,0,0,1-.782-1.027l3.306-3.279L54.133,52.65a.652.652,0,0,1-.689-1.105l.856-.576-5.5,3.175a.652.652,0,0,1-.7-1.1l8.873-6.152L40.28,56.534a.652.652,0,0,1-.675-1.114l3.5-2.215-6.255,3.608a.644.644,0,0,1-.323.081Z" transform="translate(1.239 3.354)" fill="#f7f4f0"/>
      <path id="Trazado_226176" data-name="Trazado 226176" d="M39.078,29.96a.652.652,0,0,1-.357-1.2l7.068-4.642-8.309,4.8a.652.652,0,0,1-.689-1.1L48.04,20.231,36.069,27.138a.652.652,0,0,1-.683-1.108l8.454-5.558L35.1,25.518a.652.652,0,0,1-.689-1.1L43.9,18.005l-9.886,5.711a.652.652,0,0,1-.684-1.106l4.716-3.124L33.169,22.3a.652.652,0,0,1-.684-1.108l1.346-.881-1.377.794a.652.652,0,0,1-.7-1.1l5.615-3.946-5.9,3.409a.652.652,0,0,1-.7-1.1L34.15,16,30.611,18.04a.652.652,0,1,1-.652-1.127l16.11-9.3a.652.652,0,0,1,.7,1.1l-3.377,2.376,6.019-3.474a.652.652,0,0,1,.7,1.1L44.5,12.652,53.23,7.61a.652.652,0,1,1,.684,1.109l-1.355.889,3.461-2A.652.652,0,0,1,56.7,8.717l-4.711,3.115,7.316-4.224A.652.652,0,0,1,60,8.712l-9.494,6.41L62.642,8.117a.652.652,0,0,1,.683,1.108l-8.458,5.562L63.61,9.738a.652.652,0,0,1,.689,1.1L53.054,18.423l11.708-6.757a.652.652,0,0,1,.683,1.109l-7.067,4.638,7.3-4.214a.652.652,0,0,1,.71,1.091l-9.375,6.844,9.955-5.747a.652.652,0,0,1,.714,1.087l-4.062,3.012,3.91-2.254a.652.652,0,0,1,.764,1.043L66.283,20.1l.835-.481a.652.652,0,0,1,.652,1.127l-6.095,3.519a.652.652,0,0,1-.764-1.043L62.918,21.4l-8.484,4.9a.652.652,0,0,1-.714-1.087l4.072-3.022L47.134,28.347a.652.652,0,0,1-.71-1.091L55.8,20.415,39.4,29.873a.644.644,0,0,1-.326.087Z" transform="translate(8.851 2.115)" fill="#f7f7f7"/>
      <path id="Trazado_226177" data-name="Trazado 226177" d="M29.614,30.024a.652.652,0,0,1-.465-1.109L30.932,27.1l-4.17,2.408a.652.652,0,0,1-.727-1.076L29.014,26.1,24.3,28.823a.652.652,0,0,1-.7-1.1l2.254-1.581-3.632,2.1a.652.652,0,0,1-.687-1.106l12.07-8.017-14.361,8.29a.652.652,0,0,1-.685-1.106l10.492-6.95-12.6,7.276a.652.652,0,1,1-.684-1.109L24.5,19.766,13.87,25.9a.652.652,0,0,1-.687-1.108l8.5-5.644L11.258,25.17a.652.652,0,0,1-.688-1.105l7.807-5.2L8.692,24.452a.652.652,0,0,1-.68-1.11l3.3-2.145L6.658,23.881a.652.652,0,0,1-.691-1.1l7.376-5-9.181,5.3a.652.652,0,0,1-.687-1.106l4.848-3.237-5.6,3.233a.652.652,0,0,1-.684-1.106l1.886-1.25L1.943,20.754a.652.652,0,0,1-.706-1.093l6.09-4.376L1.513,18.646a.652.652,0,0,1-.735-1.071l5.75-4.639-3.552,2.05a.652.652,0,0,1-.753-1.056L4.59,11.869a.675.675,0,0,1-.521-.228.652.652,0,0,1-.01-.834l1.4-1.728A.652.652,0,0,1,5.7,8.2l1-.575a.652.652,0,0,1,.831.975L7.3,8.886,9.49,7.623a.652.652,0,0,1,.753,1.054L8.165,10.49,13.13,7.623a.652.652,0,0,1,.735,1.07L8.113,13.331l9.894-5.708a.652.652,0,0,1,.706,1.093l-6.088,4.371L22.1,7.614a.652.652,0,0,1,.684,1.106L20.9,9.969l4.072-2.346a.652.652,0,0,1,.688,1.105l-4.844,3.233L28.34,7.623a.652.652,0,0,1,.691,1.1l-7.372,5,10.569-6.1a.652.652,0,0,1,.68,1.109l-3.317,2.15,5.654-3.258a.652.652,0,0,1,.688,1.105l-7.8,5.2L39.063,7.614a.652.652,0,0,1,.685,1.106l-8.5,5.645,11.7-6.753a.652.652,0,0,1,.685,1.108L34.9,14.471l11.885-6.86a.652.652,0,0,1,.687,1.106l-10.491,6.95L50.932,7.61a.652.652,0,0,1,.685,1.105L38.345,17.534a.652.652,0,0,1,.367,1.185l-2.283,1.6a.652.652,0,0,1,.675,1.1l-2.975,2.33.314-.181a.652.652,0,0,1,.791,1.02l-2.4,2.436a.652.652,0,0,1,.1,1.173l-3,1.732a.636.636,0,0,1-.327.091Z" transform="translate(0.037 2.118)" fill="#fafafa"/>
      <path id="Trazado_226178" data-name="Trazado 226178" d="M37.266,19.906a.652.652,0,0,1-.365-1.191l3.954-2.675L35.381,19.2a.652.652,0,0,1-.687-1.105l2.268-1.509-3.568,2.059a.652.652,0,0,1-.7-1.1l6.889-4.87L30.6,17.861a.652.652,0,0,1-.713-1.083l8.445-6.2L27.308,16.945a.652.652,0,0,1-.7-1.095l7.428-5.3-9.658,5.574a.652.652,0,0,1-.692-1.1l4.68-3.194-6.316,3.649a.652.652,0,0,1-.71-1.089l8.378-6.125L18.788,14.568a.652.652,0,0,1-.689-1.105L21.318,11.3l-4.639,2.679a.652.652,0,0,1-.727-1.078l5.36-4.17-7.634,4.4a.652.652,0,0,1-.73-1.074l2.15-1.7-3.7,2.133a.652.652,0,0,1-.826-.981l1.3-1.564L8.745,11.748a.652.652,0,0,1-.679-.017L6.421,10.663l-.5.289A.652.652,0,0,1,5.27,9.825l.847-.49a.644.644,0,0,1,.68.017l1.645,1.065L14.4,6.976a.652.652,0,0,1,.825.98l-1.3,1.564,8.239-4.757a.652.652,0,0,1,.731,1.074l-2.153,1.7,8.116-4.685a.652.652,0,0,1,.726,1.079l-5.361,4.17L37.186.619a.652.652,0,0,1,.689,1.1L34.66,3.886,39.492,1.1a.652.652,0,0,1,.71,1.089L31.824,8.319l10.909-6.3a.652.652,0,0,1,.693,1.1l-4.691,3.2,6.306-3.64a.652.652,0,0,1,.705,1.093l-7.428,5.3,9.644-5.565A.652.652,0,0,1,48.673,4.6l-8.438,6.2L51.241,4.444a.652.652,0,0,1,.7,1.1l-6.891,4.869,8.963-5.174A.652.652,0,0,1,54.7,6.34L52.43,7.853,55.991,5.8a.652.652,0,0,1,.691,1.1L52.733,9.574l5.458-3.15a.652.652,0,0,1,.739,1.067l-5.886,4.822L61.582,7.4a.652.652,0,0,1,.813,1l-2.751,3.089L65.03,8.372a.652.652,0,0,1,.936.791L65.5,10.411l2.215-1.276a.652.652,0,1,1,.652,1.127l-3.779,2.183a.652.652,0,0,1-.936-.792l.467-1.248-7.31,4.221a.652.652,0,0,1-.813-1l2.751-3.094L46.8,17.43a.652.652,0,0,1-.739-1.067l5.885-4.822-14.358,8.28a.644.644,0,0,1-.323.085Z" transform="translate(1.38)" fill="#fff"/>
      <path id="Trazado_226179" data-name="Trazado 226179" d="M25.728,69.152a.652.652,0,0,1-.364-1.192l10.782-7.239L21.7,69.061a.652.652,0,0,1-.688-1.1L35.984,57.923,18.054,68.279a.652.652,0,0,1-.68-1.112l12.913-8.34-13.5,7.8a.652.652,0,0,1-.672-1.116l5.614-3.519-5.221,3.014a.652.652,0,0,1-.674-1.114l7.929-5-7.255,4.187a.652.652,0,0,1-.68-1.112l15.238-9.879L16.511,60.5a.652.652,0,0,1-.674-1.114l8.91-5.634-8.236,4.757a.652.652,0,0,1-.669-1.118l.553-.341a.652.652,0,0,1-.564-1.165l14.735-9.529L16.511,54.466a.652.652,0,0,1-.679-1.112l13.328-8.572-12.649,7.3a.652.652,0,0,1-.679-1.11L28.221,43l-11.71,6.756a.652.652,0,0,1-.682-1.11L27.778,40.86l-11.267,6.5a.652.652,0,0,1-.695-1.1l13.274-9.1-12.58,7.267a.652.652,0,0,1-.685-1.108l5.682-3.752-5,2.877a.652.652,0,0,1-.705-1.092L24.123,35.4l-7.612,4.394a.652.652,0,0,1-.717-1.086l5.972-4.463-5.256,3.034a.652.652,0,0,1-.744-1.065L20.2,32.506l-3.687,2.131a.652.652,0,0,1-.735-1.071l.734-.589A.652.652,0,0,1,15.681,32l1.3-1.6a.633.633,0,0,1-.6-.324.652.652,0,0,1,.238-.889l2.672-1.543a.652.652,0,0,1,.83.976l-1.173,1.445,4.234-2.447a.652.652,0,0,1,.735,1.071l-.732.589,2.879-1.66a.652.652,0,0,1,.744,1.063l-4.431,3.71,8.265-4.774a.652.652,0,0,1,.715,1.086l-5.971,4.462L35,27.62a.652.652,0,0,1,.705,1.093L27.384,34.67,39.6,27.62a.652.652,0,0,1,.684,1.106L34.607,32.48l8.415-4.86a.652.652,0,0,1,.693,1.1l-13.272,9.1L48.11,27.62a.652.652,0,0,1,.682,1.109l-11.942,7.78,13.944-8.054a.652.652,0,0,1,.678,1.112l-12.38,7.978L52.005,30.09a.652.652,0,1,1,.678,1.113L39.358,39.77,52.27,32.312a.652.652,0,0,1,.679,1.112L38.2,42.964l14.066-8.12a.652.652,0,0,1,.667,1.117l-.551.343a.652.652,0,0,1,.558,1.173L44.034,43.1l8.24-4.755a.652.652,0,0,1,.68,1.112l-15.23,9.872,14.546-8.4a.652.652,0,0,1,.672,1.116l-7.949,5.009,7.274-4.2a.652.652,0,0,1,.671,1.116l-5.6,3.519,4.931-2.847a.652.652,0,0,1,.679,1.112l-12.9,8.334L52.27,47.025a.652.652,0,0,1,.688,1.105L37.983,58.164l14.287-8.25a.652.652,0,0,1,.688,1.105L42.174,58.253l10.1-5.828a.652.652,0,0,1,.695,1.1L44.12,59.6l8.15-4.7a.652.652,0,0,1,.705,1.095l-7.3,5.213,6.6-3.807a.652.652,0,0,1,.714,1.087l-5.043,3.735,4.33-2.5a.652.652,0,0,1,.706,1.093l-.873.628.167-.1a.652.652,0,0,1,.773,1.035l-2.954,2.806,2.182-1.259a.652.652,0,0,1,.82.989l-1.181,1.368a.652.652,0,0,1,.252,1.211l-2.672,1.543a.652.652,0,0,1-.82-.989l.924-1.073-3.622,2.085a.652.652,0,0,1-.774-1.043l2.957-2.806L41.5,69.061a.652.652,0,0,1-.706-1.093l.869-.624-2.97,1.718a.652.652,0,0,1-.714-1.087l5.041-3.735L34.66,69.061a.652.652,0,0,1-.705-1.093l7.3-5.213L30.328,69.061a.652.652,0,0,1-.695-1.1l8.841-6.068L26.05,69.061a.641.641,0,0,1-.322.091Z" transform="translate(4.579 8.185)" fill="#fff"/>
      <g id="Grupo_177308" data-name="Grupo 177308" transform="translate(0.415 0.698)">
        <path id="Trazado_226180" data-name="Trazado 226180" d="M72.492,25.582c9.464-2.5,3.139-10.467,0-15.607C62.209,6.4,51.129,3.872,40.585.661c-7.114.1-13.953,3.7-20.93,5.163-4.561,1.615-9.945,2.2-14.111,4.381-3.018,5.144-9.8,13.346-.1,15.624,1.476,26.4-6.589,24.18,14.335,29.235,1.433,18.324-6.311,23.408,14.613,22.054,25.014-.261,24.5,4.444,23.763-22.245,20.968-4.972,12.87-3.128,14.335-29.291Zm.782-10.634c9.68,12.03-11.059,11.529-18.057,14.764-9.468,4.5-10.712-3.632-14.972-10.054,10.2-2.975,20.46-5.734,30.685-8.634ZM38.9,18.746a.179.179,0,0,1,.093-.051A.468.468,0,0,0,38.9,18.746Zm.391-.042C39.41,18.73,39.462,18.756,39.286,18.7ZM34.21,2.927c2.476-.942,5.038-1.6,7.558-.433l27.354,7.789C59.1,13.049,49.129,15.965,39.085,18.641,29,15.8,18.9,12.994,8.813,10.161ZM2.338,21.465c-.874-3.98,2.846-7.028,4.381-10.4C17.1,13.983,27.5,16.844,37.855,19.823,28.212,37.781,30.53,29.846,7.334,25.23c-1.986-.588-4.386-1.546-5-3.765ZM13.886,52.318c-2.161-.592-6.376-.868-6.552-3.736-.077-7.41.05-14.838,0-22.254,7.062.735,20.74,9,26.113,3.447,1.832-2.244,2.989-5.049,4.579-7.466V35.845c-19.449-.414-18.766-1.41-18.244,18.083ZM56.27,72.793c-.051,1.517-.757,3.365-2.571,3.463H26.056c-4.47.287-4.7-4.252-4.386-7.657.1-9.548-.168-19.114,0-28.653.667-5.531,8.471-2.464,12.258-3.227C64.359,36.776,54.937,31.885,56.27,72.793ZM70.605,48.684c-.068,4.1-9.3,3.779-12.448,5.434.3-20.159,1.894-18.622-18.244-18.267V22.8c1.29,2.192,2.582,4.383,3.942,6.526,3.9,6.524,20.113-2.747,26.75-3.216-.027,7.526.044,15.056,0,22.58Z" transform="translate(-0.415 -0.661)" fill="#262626"/>
        <path id="Trazado_226181" data-name="Trazado 226181" d="M21.625,37.35c2.247.407,3.519-2.635,5.166-3.795.413-.335.925-.92.022-.889-1.8.238-2.744,2.265-4.1,3.32-.554-1.095-2.45-.734-2.387.06Z" transform="translate(5.62 9.042)" fill="#262626"/>
        <path id="Trazado_226182" data-name="Trazado 226182" d="M28.853,35.652c4.647-.4,9.933.824,14.28-.506.223-.371-.19-.521-.5-.521H31.213c-.891-.24-4.321.345-2.36,1.027Z" transform="translate(8.026 9.619)" fill="#262626"/>
        <path id="Trazado_226183" data-name="Trazado 226183" d="M21.65,43.47c2.062.954,3.493-2.572,5.071-3.56.442-.354,1.062-1.071.252-1.39-1.9-.123-2.92,2.365-4.347,3.37-.467-1.043-2.662-1.1-2.278.278l1.3,1.3Z" transform="translate(5.614 10.815)" fill="#262626"/>
        <path id="Trazado_226184" data-name="Trazado 226184" d="M28.859,41.669c4.642-.409,9.947.837,14.278-.513.218-.374-.185-.553-.511-.553H31.209c-.908-.229-4.328.347-2.35,1.066Z" transform="translate(8.025 11.433)" fill="#262626"/>
        <path id="Trazado_226185" data-name="Trazado 226185" d="M26.8,44.636c-1.8.253-2.737,2.287-4.1,3.341-.538-1.1-2.549-.761-2.374.09l1.3,1.3c2.23.485,3.519-2.651,5.17-3.779.444-.351.911-.954.005-.955Z" transform="translate(5.618 12.671)" fill="#262626"/>
        <path id="Trazado_226186" data-name="Trazado 226186" d="M42.567,46.586c-1.4.357-16.819-1.011-13.749,1.142C30.22,47.37,45.639,48.739,42.567,46.586Z" transform="translate(8.074 13.231)" fill="#262626"/>
        <path id="Trazado_226187" data-name="Trazado 226187" d="M26.976,50.534c-1.9-.109-2.918,2.356-4.342,3.365-.456-1.031-2.64-1.088-2.291.261l1.3,1.3c2.073.912,3.486-2.575,5.067-3.571C27.134,51.533,27.788,50.837,26.976,50.534Z" transform="translate(5.615 14.458)" fill="#262626"/>
        <path id="Trazado_226188" data-name="Trazado 226188" d="M42.632,52.664c-4.656.391-9.9-.8-14.285.49-.22.364.19.464.487.464H40.251c.927-.086,2.172.288,2.867-.491C43.34,52.764,42.929,52.664,42.632,52.664Z" transform="translate(8.034 15.066)" fill="#262626"/>
      </g>
    </g>
    <g id="Grupo_177310" data-name="Grupo 177310" transform="translate(965.942 231.773)">
      <g id="Grupo_177309" data-name="Grupo 177309" clip-path="url(#clip-path-2)">
        <path id="Trazado_226189" data-name="Trazado 226189" d="M189.488,135.829a1.332,1.332,0,0,0-.86-.347l-2.618-.065-.1-15.22a1.024,1.024,0,0,0-1.025-1.018H174.79a1.02,1.02,0,0,0-1.018,1.029v.007l.172,15.375H171a1.325,1.325,0,0,0-.977,2.219l8.412,9.2a1.671,1.671,0,0,0,1.211.537h.007a1.656,1.656,0,0,0,1.208-.523l8.708-9.317a1.33,1.33,0,0,0-.076-1.875m-9.836,9.478-7.012-7.669h2.336A1.023,1.023,0,0,0,176,136.613v-.01l-.172-15.379h8.04l.1,15.2a1.028,1.028,0,0,0,1,1.018l2,.048Z" transform="translate(-111.297 -78.175)" fill="#161615"/>
        <path id="Trazado_226190" data-name="Trazado 226190" d="M74.864,35.336a20.254,20.254,0,0,0-3.22-.788v0c.646-4.755.908-8.45,1.41-12.778A3.846,3.846,0,0,0,69.686,17.5a.383.383,0,0,1-.058-.007c-3.705-.568-13.7-.065-49.536-3.434a24.858,24.858,0,0,1-2.525-5.611c-.874-2.364-.84-2.591-1.338-2.838A34.119,34.119,0,0,0,9.97,3.261C9.245.666,2.45-1.725.413,1.7A2.9,2.9,0,0,0,.127,4.038c.919,3,6.073,4.459,7.8,3.822.317.248-.1-.014,4.332,1.772a33.5,33.5,0,0,1,2.247,4.992c-.038,1.132,6.382,15.833,14.167,28.507a3.45,3.45,0,0,0,1.352,1.259,4.022,4.022,0,0,0,.9.922c-7.153,6.509-9.272,7.83-8.711,10.2.213.908,1.08,2.415,4.4,2.453a5.474,5.474,0,0,0-.723,4.042,4.671,4.671,0,0,0,4.408,3.32h.017a4.886,4.886,0,0,0,4.132-7.3q6.476.052,12.95.1c1.349,8.825,8.68,17.1,18.881,17.852A21.1,21.1,0,0,0,82.6,70.091a20.251,20.251,0,0,0,5.133-9.035A20.335,20.335,0,0,0,74.864,35.336M7.841,4.788C7.714,5.2,7.507,5.9,7.174,5.965A6.485,6.485,0,0,1,4.71,5.49C3.454,5.084,1.545,3.808,2.175,2.751,3.2,1.045,7.528,2.81,8,3.742c.086.172.055.3-.159,1.046M69.387,19.537c1.393.175,1.421.829,1.417,2.26-.007,3.74-1.18,12.406-1.2,12.52a20.175,20.175,0,0,0-11.291,2.635c-.692-2.942-1.28-6.007-1.758-9.148q5.429-.186,10.834-.581a1.025,1.025,0,0,0-.155-2.044q-5.476.413-10.972.585c-.3-2.192-.54-4.486-.729-6.974,9.227.53,12.512.581,13.851.747m-12.9,18.6c-.489.351-.956.722-1.411,1.115v0a13.014,13.014,0,0,0-1.689,1.208c-2.718.444-5.415.815-8.088,1.139-.619-1.373-1.184-2.756-1.717-4.159q3.994-.32,8.474-.86a1.025,1.025,0,0,0-.231-2.037l-.014,0c-3.193.385-6.168.678-8.972.891a76.03,76.03,0,0,1-2.2-7.569c5.391.144,9.375.114,13.855,0,.526,3.54,1.194,6.984,1.992,10.273M53.468,18.667c.189,2.56.43,4.909.732,7.156Q47.193,26,40.174,25.8a75.824,75.824,0,0,1-1.218-8.1q7.251.537,14.512.974M13.865,8.311h0a1.01,1.01,0,0,0-.513-.444l-3.9-1.538a7.228,7.228,0,0,0,.354-.987,31.884,31.884,0,0,1,5.14,1.923,46.952,46.952,0,0,0,2.622,6.564c-.417-.038-.829-.076-1.245-.117a32.4,32.4,0,0,0-2.463-5.4m3.227,7.538c6.926.654,12.661,1.142,19.786,1.686h.007a78.437,78.437,0,0,0,1.2,8.205q-8.6-.315-17.141-1.2c-1.39-2.924-2.687-5.842-3.85-8.694M21.978,26.7q8.236.805,16.542,1.087a77.519,77.519,0,0,0,2.219,7.806,89.2,89.2,0,0,1-14.123-.038c-1.627-2.911-3.179-5.883-4.638-8.856m8.45,15.368c-.877-1.421-1.734-2.88-2.58-4.349a100.271,100.271,0,0,0,13.6-.12q.805,2.152,1.731,4.259c-3.9.427-7.734.729-11.474.891a1.4,1.4,0,0,1-1.28-.681m-6.22,12.974c-.22-.922,1.032-1.751,8.835-8.883a12.625,12.625,0,0,0,3.671-.041c-5.88,5.4-8.591,7.414-8.567,9.816-1.1,0-3.7.127-3.939-.891m8.66,6.4A2.875,2.875,0,0,1,30.3,63.282a2.606,2.606,0,0,1-2.429-1.817,3.311,3.311,0,0,1,1.3-3.248,1.092,1.092,0,0,0,.3-.227c2.054.01,2.068.01,2.453.014a.885.885,0,0,0,.172.261,3.121,3.121,0,0,1,.76,3.172M47.2,56.071q-8.479-.057-16.979-.131c-.068-1.545,3.179-3.8,9.933-10.235,8.653-1.032,8.959-1.042,9.946-1.266a21.412,21.412,0,0,0-2.9,11.632m39.413.592v.01A18.324,18.324,0,1,1,68.369,36.306a17.922,17.922,0,0,1,1.968.11h.1A18.323,18.323,0,0,1,86.613,56.663" transform="translate(0 0)" fill="#161615"/>
        <path id="Trazado_226191" data-name="Trazado 226191" d="M96.274,113.536c-3.9.427-7.734.729-11.474.891a1.405,1.405,0,0,1-1.28-.681c-.877-1.421-1.734-2.88-2.58-4.349a100.28,100.28,0,0,0,13.6-.12q.805,2.152,1.731,4.259" transform="translate(-53.093 -71.681)" fill="#fff"/>
        <path id="Trazado_226192" data-name="Trazado 226192" d="M85.916,172a2.876,2.876,0,0,1-2.563,1.844,2.606,2.606,0,0,1-2.429-1.817,3.311,3.311,0,0,1,1.3-3.248,1.092,1.092,0,0,0,.3-.227c2.054.01,2.068.01,2.453.014a.884.884,0,0,0,.172.261,3.121,3.121,0,0,1,.76,3.172" transform="translate(-53.049 -110.566)" fill="#fff"/>
        <path id="Trazado_226193" data-name="Trazado 226193" d="M104.817,140.8q-8.479-.057-16.979-.131c-.069-1.545,3.179-3.8,9.933-10.235,8.653-1.032,8.959-1.042,9.946-1.266a21.412,21.412,0,0,0-2.9,11.632" transform="translate(-57.618 -84.728)" fill="#fff"/>
        <path id="Trazado_226194" data-name="Trazado 226194" d="M82.823,134.037c-5.88,5.4-8.591,7.414-8.567,9.816-1.1,0-3.7.127-3.939-.891-.22-.922,1.032-1.751,8.835-8.883a12.621,12.621,0,0,0,3.671-.041" transform="translate(-46.11 -87.923)" fill="#fff"/>
        <path id="Trazado_226195" data-name="Trazado 226195" d="M11.751,8.671c-.127.416-.334,1.108-.667,1.177A6.485,6.485,0,0,1,8.62,9.373C7.364,8.967,5.455,7.69,6.085,6.634c1.022-1.706,5.353.058,5.825.991.086.172.055.3-.158,1.046" transform="translate(-3.91 -3.883)" fill="#fff"/>
        <path id="Trazado_226196" data-name="Trazado 226196" d="M35.607,24.015c-.416-.038-.829-.076-1.245-.117A32.4,32.4,0,0,0,31.9,18.5h0a1.01,1.01,0,0,0-.513-.444l-3.9-1.538a7.182,7.182,0,0,0,.354-.987,31.86,31.86,0,0,1,5.14,1.923,46.952,46.952,0,0,0,2.622,6.564" transform="translate(-18.033 -10.185)" fill="#fff"/>
        <path id="Trazado_226197" data-name="Trazado 226197" d="M165.917,105.637h-.1a17.917,17.917,0,0,0-1.968-.11,18.323,18.323,0,1,0,18.245,20.367v-.01a18.322,18.322,0,0,0-16.173-20.247m7.827,23.113-8.708,9.317a1.655,1.655,0,0,1-1.207.523h-.007a1.671,1.671,0,0,1-1.211-.537l-8.412-9.2a1.325,1.325,0,0,1,.977-2.219h2.948l-.172-15.375v-.007a1.02,1.02,0,0,1,1.018-1.029h10.094a1.024,1.024,0,0,1,1.025,1.018l.1,15.22,2.618.065a1.323,1.323,0,0,1,.936,2.223" transform="translate(-95.477 -69.221)" fill="#fff"/>
        <path id="Trazado_226198" data-name="Trazado 226198" d="M192.624,141.393l-7.311,7.817-7.012-7.669h2.336a1.023,1.023,0,0,0,1.025-1.025v-.01l-.172-15.379h8.04l.1,15.2a1.028,1.028,0,0,0,1,1.018Z" transform="translate(-116.958 -82.078)" fill="#fff"/>
        <path id="Trazado_226199" data-name="Trazado 226199" d="M82.642,86.49a89.2,89.2,0,0,1-14.123-.038c-1.627-2.911-3.179-5.883-4.638-8.856q8.236.805,16.542,1.087a77.611,77.611,0,0,0,2.219,7.806" transform="translate(-41.903 -50.9)" fill="#fff"/>
        <path id="Trazado_226200" data-name="Trazado 226200" d="M132.567,92.385v0a12.994,12.994,0,0,0-1.689,1.208c-2.718.444-5.415.815-8.088,1.139-.619-1.373-1.184-2.756-1.717-4.159q3.994-.32,8.474-.86a1.025,1.025,0,0,0-.231-2.037l-.014,0c-3.193.385-6.169.678-8.973.891a76.122,76.122,0,0,1-2.2-7.569c5.391.145,9.375.114,13.855,0,.526,3.54,1.194,6.984,1.992,10.273-.489.351-.956.723-1.411,1.115" transform="translate(-77.489 -53.131)" fill="#fff"/>
        <path id="Trazado_226201" data-name="Trazado 226201" d="M176.69,57.624c-.007,3.74-1.18,12.406-1.2,12.52A20.176,20.176,0,0,0,164.2,72.779c-.692-2.942-1.28-6.007-1.758-9.148q5.429-.186,10.834-.581a1.025,1.025,0,0,0-.155-2.044q-5.475.413-10.972.585c-.3-2.192-.54-4.486-.729-6.974,9.227.53,12.513.581,13.851.747,1.393.175,1.421.829,1.417,2.26" transform="translate(-105.885 -35.826)" fill="#fff"/>
        <path id="Trazado_226202" data-name="Trazado 226202" d="M128.475,59.557q-7.008.175-14.027-.028a75.914,75.914,0,0,1-1.218-8.1q7.251.537,14.512.974c.189,2.56.43,4.909.733,7.156" transform="translate(-74.274 -33.734)" fill="#fff"/>
        <path id="Trazado_226203" data-name="Trazado 226203" d="M70.671,55.958q-8.6-.315-17.14-1.2c-1.39-2.924-2.687-5.842-3.85-8.694,6.926.654,12.661,1.142,19.786,1.686h.007a78.435,78.435,0,0,0,1.2,8.205" transform="translate(-32.589 -30.218)" fill="#fff"/>
        <path id="Trazado_226204" data-name="Trazado 226204" d="M206.433,25.535l1.745-5.679a1.025,1.025,0,0,0-1.959-.6l-1.747,5.679a1.026,1.026,0,0,0,1.961.6" transform="translate(-134.095 -12.175)" fill="#161615"/>
        <path id="Trazado_226205" data-name="Trazado 226205" d="M215.782,39.282c.72,0,.661-.37,4.551-3.9a1.025,1.025,0,0,0-1.406-1.492l-3.848,3.621a1.026,1.026,0,0,0,.7,1.773" transform="translate(-140.872 -22.051)" fill="#161615"/>
        <path id="Trazado_226206" data-name="Trazado 226206" d="M223.8,60.378l3.849-.2a1.025,1.025,0,0,0-.045-2.05l-.064,0-3.849.2a1.025,1.025,0,0,0,.109,2.046" transform="translate(-146.114 -38.127)" fill="#161615"/>
      </g>
    </g>
  </g>
</svg>
